<?xml version="1.0" encoding="utf-8"?>
<!-- Generator: Adobe Illustrator 24.2.3, SVG Export Plug-In . SVG Version: 6.00 Build 0)  -->
<svg version="1.1" id="PORTTO_BLANCO_CIMATARIO_II" xmlns="http://www.w3.org/2000/svg" xmlns:xlink="http://www.w3.org/1999/xlink"
	 x="0px" y="0px" viewBox="0 0 450.1 471.9" style="enable-background:new 0 0 450.1 471.9;" xml:space="preserve">
<style type="text/css">
	.st9{fill-rule:evenodd;clip-rule:evenodd;fill:#4076AE;}
	.st10{fill:#4076AE;}
	.st11{enable-background:new    ;}
	.st12{fill:#FFFFFF;}
	.st13{fill:#002C50;}
	.st14{fill:#00A4CC;}
	.st6{fill:none;}
	.st7{fill:none;stroke:#D65D72;stroke-miterlimit:10;}
	.st8{fill:none;stroke:#6E7BA0;stroke-width:4;stroke-miterlimit:10;}

</style>
<g id="MACHOTE">
</g>
<image style="overflow:visible;enable-background:new    ;" width="1680" height="1221" xlink:href="lomas master etapa 3in.png"  transform="matrix(0.2609 0 0 0.2609 5.914 85.5667)">
</image>
<image style="overflow:visible;enable-background:new    ;" width="1736" height="651" xlink:href="COMPLEMENTO@2x.png"  transform="matrix(9.781409e-02 0 0 9.781409e-02 252.4514 111.4857)">
</image>
<path class="st9" d="M251.8,112.2v66.1h138.4v-40.8c0,0,9.4-3.1,13.4-3.3s7.5-0.2,7.5-0.2v-21.8L251.8,112.2L251.8,112.2z"/>
<g>
	
		<image style="overflow:visible;enable-background:new    ;" width="1091" height="1102" xlink:href="ETAPA 1@2x.png"  transform="matrix(0.1395 0 0 0.1396 254.9597 206.0325)">
	</image>
	<polygon class="st10" points="404,205.5 298.2,205.2 261.7,269.9 272.8,281.2 256.4,292 316.3,357.1 	"/>
</g>
<g class="st11">
	<path class="st12" d="M286,247.2l3.1,7.9l3.1-7.9h3.1l-5.2,12.3h-2l-5.2-12.3H286z"/>
	<path class="st12" d="M304.3,249.5h-4.1v2.4h3.9v2.4h-3.9v2.7h4.1v2.4h-7v-12.3h7V249.5z"/>
	<path class="st12" d="M311.6,247.2c1.6,0,2.6,0.5,3.1,1.1c0.5,0.5,1.1,1.4,1.1,2.8c0,0.8-0.2,1.8-0.9,2.5c-0.4,0.4-1,0.8-1.7,0.9
		l3.8,5h-3.5l-3.3-4.8v4.8h-2.8v-12.3H311.6z M310.1,252.7h0.6c0.5,0,1.2-0.1,1.7-0.6c0.2-0.2,0.4-0.6,0.4-1.2
		c0-0.7-0.3-1.1-0.6-1.3c-0.4-0.4-1.2-0.4-1.6-0.4H310L310.1,252.7L310.1,252.7z"/>
	<path class="st12" d="M323.5,259.5l1.9-12.3h2.4l3.1,7.3l3.1-7.3h2.4l1.9,12.3h-2.8l-1-7.3l-3.1,7.3h-1l-3.1-7.3l-1,7.3H323.5z"/>
	<path class="st12" d="M348.2,257.1h-4.6l-0.9,2.3h-3l5-12.3h2.6l4.8,12.3h-3L348.2,257.1z M347.5,254.9l-1.5-4.1l-1.5,4.1H347.5
		L347.5,254.9L347.5,254.9z M348.7,243.8l-3,2.4l-1.2-1l2.4-2.7L348.7,243.8z"/>
	<path class="st12" d="M360.5,250.2c-0.9-0.8-1.7-0.9-2.1-0.9s-0.9,0.1-1.2,0.4c-0.2,0.2-0.3,0.4-0.3,0.8c0,0.3,0.1,0.5,0.3,0.7
		c0.3,0.3,0.7,0.4,1.6,0.7l0.9,0.4c0.6,0.2,1.2,0.5,1.7,0.9c0.7,0.7,0.9,1.6,0.9,2.3c0,1.3-0.4,2.4-1.1,3c-1.1,1.1-2.7,1.3-3.5,1.3
		c-0.9,0-1.6-0.1-2.4-0.5c-0.6-0.3-1.3-0.9-1.8-1.3l1.5-2c0.3,0.3,0.8,0.8,1.1,0.9c0.5,0.3,1,0.4,1.6,0.4c0.4,0,0.9-0.1,1.3-0.4
		c0.3-0.2,0.4-0.6,0.4-1s-0.2-0.7-0.4-0.9c-0.3-0.3-1.1-0.6-1.4-0.7l-1-0.4c-0.6-0.2-1.3-0.4-1.7-1c-0.6-0.7-0.8-1.6-0.8-2.1
		c0-1.1,0.3-2,1.1-2.8c0.9-0.9,1.9-1.1,3-1.1c0.9,0,2.2,0.1,3.6,1.2L360.5,250.2z"/>
</g>
<g class="st11">
	<path class="st12" d="M300,267.1h-4.2v3.1h4.1v1.1h-4.1v4h4.2v1.1h-5.3V266h5.3V267.1z"/>
	<path class="st12" d="M305.3,267.1v9.2h-1.1v-9.2h-2.5V266h6.2v1.1H305.3L305.3,267.1z"/>
	<path class="st12" d="M315,273.4h-4.4l-1.3,2.9H308l4.8-10.9l4.6,10.9h-1.3L315,273.4z M314.6,272.3l-1.8-4.1l-1.8,4.1H314.6z"/>
	<path class="st12" d="M321.5,265.9c1.1,0,1.9,0.1,2.6,0.8c0.8,0.6,0.9,1.6,0.9,2.2c0,1.4-0.9,2.9-3.3,2.9h-1v4.5h-1.1v-10.4H321.5z
		 M320.7,270.7h0.9c1.4,0,2.2-0.7,2.2-1.9c0-1.6-1.5-1.8-2.3-1.8h-0.9L320.7,270.7L320.7,270.7z"/>
	<path class="st12" d="M332.1,273.4h-4.4l-1.3,2.9h-1.3l4.8-10.9l4.6,10.9h-1.3L332.1,273.4z M331.7,272.3l-1.8-4.1l-1.8,4.1H331.7z"
		/>
	<path class="st12" d="M343.8,267.1H342l0.6-1.1h2.3v10.4h-1.1V267.1z"/>
</g>
<g class="st11">
	<path class="st12" d="M289.3,133.8l2.7,6.6l2.7-6.6h2.6l-4.4,10.4h-1.6l-4.4-10.4H289.3z"/>
	<path class="st12" d="M304.7,135.8h-3.4v2h3.3v2h-3.3v2.3h3.4v2h-5.9v-10.3h5.9V135.8z"/>
	<path class="st12" d="M310.9,133.8c1.3,0,2.2,0.4,2.7,0.9c0.4,0.4,0.9,1.2,0.9,2.3c0,0.6-0.2,1.5-0.8,2.1c-0.4,0.3-0.8,0.6-1.4,0.8
		l3.2,4.2h-2.9l-2.8-4.1v4.1h-2.4v-10.4L310.9,133.8L310.9,133.8z M309.6,138.5h0.5c0.4,0,1-0.1,1.4-0.5c0.2-0.2,0.4-0.5,0.4-1
		c0-0.6-0.3-0.9-0.5-1.1c-0.4-0.3-1-0.3-1.3-0.3h-0.6L309.6,138.5L309.6,138.5z"/>
	<path class="st12" d="M320.9,144.2l1.6-10.4h2l2.6,6.2l2.6-6.2h2l1.6,10.4H331l-0.8-6.2l-2.6,6.2h-0.8l-2.6-6.2l-0.8,6.2H320.9z"/>
	<path class="st12" d="M341.8,142.2h-3.9l-0.8,2h-2.5l4.2-10.4h2.2l4.1,10.4h-2.5L341.8,142.2z M341.2,140.4l-1.3-3.5l-1.3,3.5H341.2
		z M342.2,130.9l-2.5,2l-1-0.8l2.1-2.3L342.2,130.9z"/>
	<path class="st12" d="M352.1,136.3c-0.8-0.7-1.4-0.7-1.7-0.7s-0.7,0.1-1,0.4c-0.2,0.2-0.3,0.4-0.3,0.6c0,0.3,0.1,0.4,0.2,0.6
		c0.3,0.2,0.6,0.3,1.3,0.6l0.8,0.3c0.5,0.2,1,0.4,1.4,0.8c0.6,0.6,0.7,1.3,0.7,1.9c0,1.1-0.4,2-0.9,2.5c-0.9,1-2.3,1.1-3,1.1
		s-1.4-0.1-2.1-0.4c-0.5-0.3-1.1-0.7-1.5-1.1l1.3-1.7c0.3,0.3,0.7,0.6,1,0.8c0.4,0.3,0.8,0.4,1.3,0.4c0.3,0,0.7-0.1,1.1-0.4
		c0.2-0.2,0.4-0.5,0.4-0.8s-0.2-0.6-0.4-0.7c-0.3-0.2-0.9-0.5-1.2-0.6l-0.8-0.3c-0.5-0.2-1.1-0.4-1.4-0.8c-0.5-0.6-0.6-1.3-0.6-1.8
		c0-0.9,0.3-1.7,0.9-2.3c0.7-0.7,1.6-1,2.5-1c0.7,0,1.9,0.1,3.1,1L352.1,136.3z"/>
</g>
<g class="st11">
	<path class="st12" d="M301.1,150.5h-3.6v2.6h3.4v0.9h-3.4v3.4h3.6v0.9h-4.5v-8.7h4.5V150.5z"/>
	<path class="st12" d="M305.6,150.5v7.8h-1v-7.8h-2.1v-0.9h5.2v0.9H305.6z"/>
	<path class="st12" d="M313.7,155.9H310l-1.1,2.4h-1.1l4-9.2l3.9,9.2h-1.1L313.7,155.9z M313.4,155l-1.5-3.5l-1.5,3.5H313.4z"/>
	<path class="st12" d="M319.2,149.6c0.9,0,1.6,0.1,2.2,0.6s0.8,1.3,0.8,1.9c0,1.2-0.8,2.4-2.8,2.4h-0.8v3.8h-1v-8.7
		C317.6,149.6,319.2,149.6,319.2,149.6z M318.6,153.7h0.8c1.2,0,1.9-0.6,1.9-1.6c0-1.4-1.3-1.5-1.9-1.5h-0.7L318.6,153.7
		L318.6,153.7z"/>
	<path class="st12" d="M328.2,155.9h-3.7l-1.1,2.4h-1.1l4-9.2l3.9,9.2h-1.1L328.2,155.9z M327.9,155l-1.5-3.5l-1.5,3.5H327.9z"/>
	<path class="st12" d="M335.2,158.4l3.2-3.7c0.2-0.3,0.8-1,1-1.3c0.4-0.6,0.5-1,0.5-1.3c0-1-0.7-1.7-1.7-1.7c-0.6,0-1.1,0.3-1.4,0.8
		c-0.2,0.3-0.3,0.6-0.3,1.1h-1c0.1-0.9,0.3-1.4,0.6-1.8c0.4-0.4,1-0.9,2.1-0.9c1.5,0,2.7,1.1,2.7,2.6c0,0.6-0.2,1.1-0.7,1.9
		c-0.4,0.5-0.8,1.1-1.2,1.4l-1.8,2.1h3.7v0.9L335.2,158.4L335.2,158.4z"/>
</g>
<g class="st11">
	<path class="st12" d="M98.4,140h-4.2v3.1h4.1v1.1h-4.1v4h4.2v1.1H93v-10.4h5.3L98.4,140L98.4,140z"/>
	<path class="st12" d="M103.6,140v9.2h-1.1V140H100v-1.1h6.2v1.1H103.6L103.6,140z"/>
	<path class="st12" d="M113.3,146.4h-4.4l-1.3,2.9h-1.3l4.8-10.9l4.6,10.9h-1.3L113.3,146.4z M112.9,145.2l-1.8-4.1l-1.8,4.1H112.9z"
		/>
	<path class="st12" d="M119.7,138.9c1.1,0,1.9,0.1,2.6,0.8c0.8,0.6,0.9,1.6,0.9,2.2c0,1.4-0.9,2.9-3.3,2.9h-1v4.5h-1.1v-10.4
		C117.8,138.9,119.7,138.9,119.7,138.9z M119,143.7h0.9c1.4,0,2.2-0.7,2.2-1.9c0-1.6-1.5-1.8-2.3-1.8H119V143.7z"/>
	<path class="st12" d="M130.4,146.4H126l-1.3,2.9h-1.3l4.8-10.9l4.6,10.9h-1.3L130.4,146.4z M130,145.2l-1.8-4.1l-1.8,4.1H130z"/>
	<path class="st12" d="M144.6,146.2h1.3v1.1h-1.3v1.9h-1.1v-1.9h-5.3l6.5-9L144.6,146.2L144.6,146.2L144.6,146.2z M143.5,146.2v-4.6
		l-3.3,4.6H143.5z"/>
</g>
<g id="ETAPA_1">
	<g id="ISLA_A">
	</g>
	<g id="ISLA_B">
	</g>
	<g id="ISLA_C">
	</g>
	<g id="ISLA_D">
	</g>
</g>
<g id="ETAPA_2">
	<g id="ISLA_E">
	</g>
	<g id="ISLA_F">
	</g>
	<g id="ISLA_G">
	</g>
	<g id="ISLA_H">
	</g>
	<g id="ISLA_I">
	</g>
</g>
<g id="COMPLEMENTO">
</g>
<g id="ETAPA_3_Y_4_1_">
</g>
<g>
	<path class="st13" d="M113.3,27.9l3.5-20.7h5.3l4.2,11l4.4-11h5.4l3.1,20.7h-5.4L132.3,16l-5,11.9h-2.1L120.4,16l-1.8,11.9H113.3z"
		/>
	<path class="st13" d="M157.5,24.4H150l-1.4,3.5h-5.7l7.9-20.7h5.9l7.8,20.7h-5.7L157.5,24.4z M156.1,20.3l-2.3-6.7l-2.3,6.7H156.1z"
		/>
	<path class="st13" d="M169.8,21.7c1.1,1.1,2.9,2.1,4.7,2.1c1.1,0,1.7-0.3,2.1-0.7c0.3-0.3,0.5-0.8,0.5-1.3c0-0.4-0.2-0.9-0.6-1.2
		c-0.5-0.5-1.3-0.7-2.7-1.1l-1.4-0.4c-0.9-0.3-2.1-0.7-3-1.7c-1.1-1.1-1.2-2.6-1.2-3.7c0-2.5,1-4.1,1.9-5c1.1-1.1,2.8-2,5.3-2
		c2,0,4.4,0.7,6.4,1.7l-2.1,4.2c-1.6-1.3-2.8-1.4-3.5-1.4c-0.5,0-1.2,0.1-1.8,0.6c-0.3,0.3-0.5,0.7-0.5,1.1s0.1,0.7,0.3,0.9
		s0.5,0.6,1.8,0.9l1.6,0.5c1.3,0.4,2.7,0.9,3.7,2c1.1,1.1,1.3,2.3,1.3,3.7c0,1.9-0.5,3.7-2,5.2c-1.8,1.8-3.9,2.1-6.1,2.1
		c-1.3,0-2.5-0.1-4.1-0.7c-0.3-0.1-1.6-0.6-3.1-1.6L169.8,21.7z"/>
	<path class="st13" d="M196.3,11.8v16.1h-5.4V11.8h-4.4V7.2h14.2v4.6C200.7,11.8,196.3,11.8,196.3,11.8z"/>
	<path class="st13" d="M217.1,11.8h-6.4v3.4h6v4.6h-6v3.6h6.4V28h-11.7V7.2h11.7V11.8z"/>
	<path class="st13" d="M231.2,7.2c1.5,0,3.5,0.2,5.1,1.8c1.2,1.2,1.8,3,1.8,4.6c0,1.8-0.6,3.3-1.6,4.3c-0.8,0.8-1.9,1.2-2.9,1.4
		l6.5,8.5h-6.7l-5.1-7.9v7.9h-5.4V7.2H231.2z M228.2,16.5h1c0.8,0,2-0.2,2.6-0.8c0.4-0.4,0.7-1.1,0.7-1.7s-0.2-1.3-0.7-1.7
		c-0.5-0.5-1.4-0.8-2.6-0.8h-1V16.5z"/>
	<path class="st13" d="M259.5,21v6.8h-5.4V7.2h8.6c1.8,0,3.7,0.3,5.2,1.9c1.6,1.5,1.9,3.3,1.9,5c0,1.6-0.2,3.6-1.8,5.1
		c-1.6,1.6-3.5,1.8-5.1,1.8C262.9,21,259.5,21,259.5,21z M259.5,16.7h1.8c0.6,0,1.6-0.1,2.3-0.7c0.7-0.6,0.7-1.4,0.7-1.9
		c0-0.6-0.1-1.3-0.6-1.9c-0.6-0.7-1.6-0.7-2.3-0.7h-1.8v5.2H259.5z"/>
	<path class="st13" d="M280.4,7.2v16.1h6.4v4.6H275V7.2H280.4z"/>
	<path class="st13" d="M304.5,24.4H297l-1.4,3.5h-5.7l7.9-20.7h5.9l7.8,20.7h-5.7L304.5,24.4z M303.1,20.3l-2.3-6.7l-2.3,6.7
		C298.5,20.3,303.1,20.3,303.1,20.3z"/>
	<path class="st13" d="M316.2,27.9V7.2h5.4l9.9,12.6V7.2h5.4v20.7h-5.4l-9.9-12.7v12.6L316.2,27.9L316.2,27.9z"/>
</g>
<g>
	<g>
		<g>
			<path class="st13" d="M157.1,55.1l20.4,20.4l-14.4,14.4l-5.5-5.5l0.8-0.8l4.5,4.5l0.2,0.2l0.2-0.2l12.4-12.4l0.2-0.2l-0.2-0.2
				L157.3,57l-0.2-0.2L157,57l-12,12l-0.8-0.8L157.1,55.1"/>
		</g>
		<g>
			<path class="st13" d="M142.2,70l0.8,0.8l-4.5,4.5l-0.2,0.2l0.2,0.2l12.4,12.4l0.2,0.2l0.2-0.2l18-18l0.8,0.8l-19.1,19l-14.4-14.4
				L142.2,70z"/>
		</g>
		<g>
			<path class="st13" d="M157.1,49.1l17.4,17.4L172,69l-0.8-0.8l1.5-1.5l0.2-0.2l-0.2-0.2L157.3,51l-0.2-0.2L157,51l-15.4,15.4
				l-0.2,0.2l0.2,0.2l15,15l-0.8,0.8l-16-16L157.1,49.1"/>
		</g>
		<g>
			<path class="st13" d="M157.1,61.2l2.3,2.3l-2.3,2.3l-2.3-2.3L157.1,61.2"/>
		</g>
	</g>
	<g>
		<g>
			<path class="st13" d="M187.6,61.1L187.6,61.1L191,61c0.6,0,1.1,0.1,1.5,0.2c0.4,0.2,0.8,0.4,1.1,0.6s0.5,0.6,0.7,0.9
				c0.1,0.3,0.2,0.7,0.2,1.1s-0.1,0.7-0.2,1.1c-0.1,0.3-0.3,0.6-0.6,0.9s-0.7,0.5-1.1,0.6c-0.5,0.2-1,0.2-1.6,0.2
				c-0.2,0-0.6,0-1.1-0.1v3.6c0,0.7,0.4,1.1,1.1,1.2v0.1h-3.3v-0.1c0.3,0,0.6-0.1,0.8-0.3c0.2-0.2,0.3-0.5,0.3-0.9v-7.9
				c0-0.2,0-0.4-0.1-0.6c-0.1-0.2-0.2-0.3-0.3-0.3c-0.1-0.1-0.2-0.1-0.3-0.2c-0.1,0-0.2-0.1-0.3-0.1h-0.2L187.6,61.1L187.6,61.1z
				 M189.8,61.4v5c0.4,0.1,0.7,0.1,1.1,0.1c0.7,0,1.3-0.2,1.7-0.5c0.5-0.3,0.7-1,0.7-1.9c0-0.8-0.2-1.4-0.6-1.9
				c-0.4-0.5-1-0.8-1.9-0.8C190.5,61.3,190.1,61.3,189.8,61.4z"/>
			<path class="st13" d="M207.2,66.3c0,1-0.2,1.9-0.7,2.7c-0.5,0.8-1.2,1.5-2,2s-1.8,0.8-2.8,0.8s-2-0.3-2.8-0.8
				c-0.9-0.5-1.5-1.2-2-2c-0.5-0.9-0.7-1.8-0.7-2.8c0-0.8,0.1-1.5,0.4-2.2c0.3-0.7,0.7-1.3,1.2-1.8s1.1-0.9,1.8-1.2s1.4-0.4,2.1-0.4
				c0.7,0,1.4,0.1,2.1,0.4c0.7,0.3,1.3,0.6,1.8,1.1s0.9,1.1,1.2,1.8C207.1,64.7,207.2,65.4,207.2,66.3z M206,66.3
				c0-1.4-0.2-2.5-0.7-3.3s-1.1-1.3-1.7-1.6c-0.6-0.3-1.3-0.4-1.8-0.4c-0.4,0-0.9,0.1-1.4,0.2c-0.5,0.1-0.9,0.4-1.4,0.8
				c-0.4,0.4-0.8,0.9-1.1,1.6c-0.3,0.7-0.4,1.6-0.4,2.6c0,0.9,0.1,1.7,0.4,2.4c0.2,0.7,0.6,1.2,1,1.6s0.9,0.7,1.4,0.9
				c0.5,0.2,1,0.3,1.6,0.3c0.5,0,1-0.1,1.5-0.3c0.5-0.2,1-0.5,1.4-0.8c0.4-0.4,0.8-0.9,1-1.6C205.8,68.1,206,67.2,206,66.3z"/>
			<path class="st13" d="M209,61.1h-0.1V61h3.6c0.6,0,1.1,0.1,1.5,0.3s0.7,0.4,0.9,0.7s0.4,0.6,0.5,0.9c0.1,0.3,0.1,0.6,0.1,0.9
				c0,0.4-0.1,0.7-0.2,1.1c-0.2,0.3-0.4,0.7-0.7,0.9c-0.3,0.3-0.7,0.4-1.2,0.5l0,0c0.6,0.3,1.2,0.9,1.7,1.8l0.9,1.6
				c0.4,0.7,0.8,1.2,1,1.4s0.5,0.3,0.8,0.3v0.1H216c-0.1-0.1-0.2-0.2-0.2-0.3c-0.1-0.1-0.1-0.2-0.2-0.3c0-0.1-0.1-0.2-0.2-0.3
				c-0.1-0.1-0.1-0.2-0.2-0.2l-1.3-2.1c-0.3-0.4-0.5-0.8-0.8-1c-0.3-0.3-0.5-0.5-0.7-0.6s-0.4-0.2-0.6-0.2c-0.2,0-0.4,0-0.6,0v3.8
				c0,0.7,0.4,1.1,1.1,1.2v0.1H209v-0.1c0.2,0,0.4,0,0.6-0.1c0.2-0.1,0.3-0.2,0.4-0.4c0.1-0.2,0.2-0.4,0.2-0.7v-7.9
				c0-0.4-0.1-0.7-0.3-0.9C209.5,61.2,209.3,61.1,209,61.1z M211.1,66.1h0.6c0.6,0,1.1-0.1,1.5-0.3c0.4-0.2,0.7-0.4,0.9-0.8
				c0.2-0.3,0.3-0.7,0.3-1.2c0-0.4-0.1-0.8-0.2-1.2c-0.2-0.4-0.4-0.7-0.8-1c-0.4-0.3-0.9-0.4-1.6-0.4c-0.3,0-0.5,0-0.7,0.1V66.1z"/>
			<path class="st13" d="M232.6,60.5c-0.3,0.3-0.6,0.5-1.1,0.5h-5.7h-1.1H219c-0.2,0-0.3,0-0.4,0c-0.1,0-0.2,0-0.3-0.1
				c-0.1,0-0.2-0.1-0.2-0.1c-0.1-0.1-0.1-0.1-0.2-0.3h-0.1V63h0.1c0.1-0.7,0.3-1.1,0.6-1.3s0.8-0.3,1.3-0.3h2.1v8.8
				c0,0.4-0.1,0.7-0.3,0.9c-0.2,0.2-0.5,0.3-0.8,0.3v0.1h3.3v-0.1c-0.8,0-1.1-0.4-1.1-1.2v-8.8h2.6h0.6h1.5v8.8
				c0,0.4-0.1,0.7-0.3,0.9c-0.2,0.2-0.5,0.3-0.8,0.3v0.1h3.3v-0.1c-0.8,0-1.1-0.4-1.1-1.2v-8.8h2.1c0.5,0,0.9,0.1,1.3,0.3
				c0.3,0.2,0.5,0.6,0.6,1.3h0.1v-2.6L232.6,60.5L232.6,60.5z"/>
			<path class="st13" d="M244.9,66.3c0,1-0.2,1.9-0.7,2.7c-0.5,0.8-1.2,1.5-2,2s-1.8,0.8-2.8,0.8s-2-0.3-2.8-0.8
				c-0.9-0.5-1.5-1.2-2-2c-0.5-0.9-0.7-1.8-0.7-2.8c0-0.8,0.1-1.5,0.4-2.2c0.3-0.7,0.7-1.3,1.2-1.8s1.1-0.9,1.8-1.2s1.4-0.4,2.1-0.4
				c0.7,0,1.4,0.1,2.1,0.4c0.7,0.3,1.3,0.6,1.8,1.1s0.9,1.1,1.2,1.8C244.7,64.7,244.9,65.4,244.9,66.3z M243.6,66.3
				c0-1.4-0.2-2.5-0.7-3.3s-1.1-1.3-1.7-1.6c-0.6-0.3-1.3-0.4-1.8-0.4c-0.4,0-0.9,0.1-1.4,0.2c-0.5,0.1-0.9,0.4-1.4,0.8
				c-0.4,0.4-0.8,0.9-1.1,1.6c-0.3,0.7-0.4,1.6-0.4,2.6c0,0.9,0.1,1.7,0.4,2.4c0.2,0.7,0.6,1.2,1,1.6s0.9,0.7,1.4,0.9
				c0.5,0.2,1,0.3,1.6,0.3c0.5,0,1-0.1,1.5-0.3c0.5-0.2,1-0.5,1.4-0.8c0.4-0.4,0.8-0.9,1-1.6C243.5,68.1,243.6,67.2,243.6,66.3z"/>
			<path class="st13" d="M255.8,71.5h-3.9v-0.1h0.1c0.3,0,0.5-0.1,0.7-0.3c0.2-0.2,0.3-0.5,0.3-0.9v-7.9c0-0.4-0.1-0.7-0.3-0.9
				s-0.4-0.3-0.7-0.3h-0.1V61h3.4c0.5,0,0.9,0.1,1.2,0.2c0.4,0.1,0.7,0.3,1,0.5s0.5,0.5,0.6,0.8s0.2,0.6,0.2,1
				c0,0.6-0.2,1.1-0.6,1.5s-1,0.7-1.6,0.9l0,0c0.3,0,0.6,0.1,0.9,0.1c0.3,0.1,0.6,0.2,0.8,0.3c0.2,0.1,0.5,0.3,0.7,0.5
				s0.3,0.4,0.5,0.6c0.1,0.2,0.2,0.4,0.3,0.7c0.1,0.2,0.1,0.5,0.1,0.7c0,0.5-0.1,1-0.4,1.4s-0.6,0.7-1,0.9
				C257.4,71.4,256.7,71.5,255.8,71.5z M254.1,65.8h0.7c0.6,0,1-0.1,1.2-0.2c0.2-0.1,0.3-0.2,0.5-0.3c0.2-0.1,0.3-0.3,0.5-0.6
				c0.2-0.3,0.2-0.6,0.2-1c0-0.3-0.1-0.6-0.2-0.9c-0.1-0.3-0.2-0.5-0.4-0.8c-0.2-0.2-0.4-0.4-0.7-0.5s-0.5-0.2-0.9-0.2
				c-0.3,0-0.6,0.1-0.9,0.2L254.1,65.8L254.1,65.8z M255.1,66.1H254v3.8c0,0.3,0,0.5,0.1,0.6c0.1,0.2,0.2,0.3,0.4,0.4s0.6,0.2,1,0.2
				c1,0,1.7-0.3,2.1-1c0.3-0.4,0.4-0.9,0.4-1.5c0-0.4-0.1-0.8-0.2-1.1c-0.1-0.3-0.3-0.6-0.6-0.8s-0.6-0.4-0.9-0.5
				C256,66.2,255.6,66.1,255.1,66.1z"/>
			<path class="st13" d="M260.7,71.4h0.1c0.3,0,0.5-0.1,0.7-0.3c0.2-0.2,0.3-0.5,0.3-0.9v-7.9c0-0.4-0.1-0.7-0.3-0.9
				c-0.2-0.2-0.5-0.3-0.8-0.3V61h3.4v0.1c-0.3,0-0.6,0.1-0.8,0.3c-0.2,0.2-0.3,0.5-0.3,0.9V70c0,0.5,0.1,0.8,0.3,0.9
				c0.2,0.2,0.6,0.3,1.1,0.3h0.9c0.4,0,0.7,0,0.9-0.1c0.2-0.1,0.4-0.2,0.6-0.4c0.1-0.2,0.3-0.5,0.4-0.8h0.1l-0.4,1.7h-6.3
				L260.7,71.4L260.7,71.4z"/>
			<path class="st13" d="M273.2,60.9l3.1,9c0.2,0.5,0.3,0.8,0.5,1c0.1,0.2,0.3,0.3,0.4,0.4s0.3,0.1,0.5,0.1v0.1h-3.4v-0.1
				c0.4,0,0.6,0,0.8-0.1c0.2-0.1,0.3-0.2,0.3-0.5c0-0.2,0-0.4-0.1-0.6v-0.1l-0.9-2.8h-3.6l-0.8,2.6c-0.1,0.4-0.2,0.6-0.2,0.8
				c0,0.3,0.1,0.5,0.2,0.6s0.4,0.1,0.6,0.1v0.1H268v-0.1c0.4,0,0.6-0.2,0.8-0.4c0.2-0.2,0.4-0.6,0.6-1.1l3-9H273.2z M270.8,66.8h3.3
				l-1.7-5l0,0L270.8,66.8z"/>
			<path class="st13" d="M289.7,61L289.7,61c-0.3,0.1-0.5,0.2-0.6,0.3c-0.2,0.1-0.3,0.2-0.4,0.4s-0.1,0.5-0.1,0.9v9.2h-0.1l-8.1-9
				v6.5c0,0.5,0,0.9,0.1,1.2c0,0.3,0.1,0.4,0.2,0.6c0.2,0.2,0.5,0.4,0.9,0.4v0.1H279v-0.1c0.3,0,0.5-0.1,0.7-0.2s0.3-0.3,0.3-0.6
				c0.1-0.3,0.1-0.7,0.1-1.3v-6.9l-0.3-0.4c-0.3-0.4-0.6-0.6-0.7-0.7c-0.2-0.1-0.4-0.2-0.7-0.2V61h2l7.9,8.9v-6.8
				c0-0.5,0-0.9-0.1-1.1c0-0.3-0.1-0.5-0.3-0.6c-0.2-0.2-0.4-0.2-0.8-0.2V61H289.7z"/>
			<path class="st13" d="M300.6,63.3h-0.1c-0.1-0.5-0.3-0.9-0.7-1.3c-0.4-0.4-0.8-0.6-1.4-0.8c-0.5-0.2-1-0.2-1.4-0.2
				c-0.6,0-1.2,0.1-1.7,0.4s-1,0.6-1.4,1.1s-0.7,1-0.9,1.7c-0.2,0.6-0.3,1.4-0.3,2.1s0.1,1.4,0.3,2.1c0.2,0.6,0.5,1.2,0.9,1.6
				c0.4,0.5,0.9,0.8,1.4,1.1c0.5,0.2,1.1,0.4,1.7,0.4c0.5,0,1.1-0.1,1.8-0.3c0.6-0.2,1.2-0.6,1.7-1.1v0.4c-0.6,0.5-1.2,0.8-1.7,1.1
				c-0.5,0.2-1.2,0.3-2,0.3s-1.6-0.2-2.3-0.5c-0.7-0.3-1.3-0.7-1.7-1.2c-0.5-0.5-0.8-1.1-1.1-1.7c-0.2-0.6-0.4-1.3-0.4-2
				c0-1,0.3-2,0.8-2.9s1.2-1.6,2-2.1c0.9-0.5,1.8-0.8,2.8-0.8c0.6,0,1.3,0.1,2,0.3l0.7,0.2c0.1,0,0.3,0,0.4,0c0.2,0,0.3,0,0.4-0.1
				s0.1-0.2,0.1-0.3h0.1L300.6,63.3z"/>
			<path class="st13" d="M313.4,66.3c0,1-0.2,1.9-0.7,2.7c-0.5,0.8-1.2,1.5-2,2s-1.8,0.8-2.8,0.8s-2-0.3-2.8-0.8
				c-0.9-0.5-1.5-1.2-2-2s-0.7-1.8-0.7-2.8c0-0.8,0.1-1.5,0.4-2.2s0.7-1.3,1.2-1.8s1.1-0.9,1.8-1.2c0.7-0.3,1.4-0.4,2.1-0.4
				s1.4,0.1,2.1,0.4c0.7,0.3,1.3,0.6,1.8,1.1s0.9,1.1,1.2,1.8C313.2,64.7,313.4,65.4,313.4,66.3z M312.1,66.3c0-1.4-0.2-2.5-0.7-3.3
				s-1.1-1.3-1.7-1.6s-1.3-0.4-1.8-0.4c-0.4,0-0.9,0.1-1.4,0.2c-0.5,0.1-0.9,0.4-1.4,0.8c-0.4,0.4-0.8,0.9-1.1,1.6
				c-0.3,0.7-0.4,1.6-0.4,2.6c0,0.9,0.1,1.7,0.4,2.4c0.2,0.7,0.6,1.2,1,1.6s0.9,0.7,1.4,0.9c0.5,0.2,1,0.3,1.6,0.3
				c0.5,0,1-0.1,1.5-0.3c0.5-0.2,1-0.5,1.4-0.8c0.4-0.4,0.8-0.9,1-1.6C312,68.1,312.1,67.2,312.1,66.3z"/>
		</g>
	</g>
	<g>
		<polygon class="st14" points="313.4,75.9 189.1,75.9 187.6,77.4 311.8,77.4 		"/>
	</g>
	<g>
		<path class="st13" d="M194.7,83.3c-0.7-0.8-1.7-1.2-2.8-1.2c-2.1,0-3.7,1.6-3.7,3.6c0,2.4,2,3.6,3.7,3.6c0.8,0,1.9-0.3,2.7-1.2v0.7
			c-0.8,0.7-1.8,1-2.7,1c-2.5,0-4.3-1.9-4.3-4.1c0-2.3,1.9-4.1,4.2-4.1c1.6,0,2.5,0.8,2.7,1v0.7H194.7z"/>
		<path class="st13" d="M205.6,81.7v7.9H205v-7.9H205.6z"/>
		<path class="st13" d="M216.3,89.6l0.9-8.2l3.5,7.3l3.5-7.3l0.9,8.2h-0.5l-0.7-6.4l-3.2,6.6l-3.2-6.6l-0.7,6.4H216.3z"/>
		<path class="st13" d="M240,87h-3.5l-1.1,2.6h-0.6l3.4-8.2l3.4,8.2H241L240,87z M239.8,86.6l-1.5-3.8l-1.6,3.8H239.8z"/>
		<path class="st13" d="M252.7,82.2v7.4h-0.5v-7.4H250v-0.5h4.8v0.5H252.7z"/>
		<path class="st13" d="M268.2,87h-3.5l-1.1,2.6H263l3.4-8.2l3.4,8.2h-0.6L268.2,87z M268,86.6l-1.5-3.8l-1.6,3.8H268z"/>
		<path class="st13" d="M283.2,89.6l-2.6-3.7h-0.2v3.7h-0.5v-7.9h1.2c0.6,0,1.2,0,1.7,0.4c0.6,0.4,0.8,1.1,0.8,1.7
			c0,0.8-0.4,1.6-1.4,1.9c-0.4,0.1-0.8,0.2-1,0.2l2.7,3.7C283.9,89.6,283.2,89.6,283.2,89.6z M280.3,85.4h0.8c1.2,0,1.9-0.6,1.9-1.6
			c0-0.8-0.4-1.2-0.7-1.4c-0.3-0.2-0.9-0.2-1.3-0.2h-0.7L280.3,85.4L280.3,85.4z"/>
		<path class="st13" d="M294.6,81.7v7.9h-0.5v-7.9H294.6z"/>
		<path class="st13" d="M313.4,85.7c0,2.3-1.9,4.1-4.2,4.1c-2.4,0-4.2-1.8-4.2-4.1c0-2.3,1.9-4.1,4.2-4.1
			C311.6,81.6,313.4,83.4,313.4,85.7z M312.9,85.7c0-2-1.6-3.6-3.7-3.6s-3.7,1.6-3.7,3.6s1.6,3.6,3.7,3.6
			C311.3,89.3,312.9,87.7,312.9,85.7z"/>
	</g>
	<g>
		<path class="st13" d="M189.6,49.2v7h2.1v0.4h-2.6v-7.4H189.6z"/>
		<path class="st13" d="M204.5,52.9c0,2.1-1.7,3.8-4,3.8s-4-1.7-4-3.8s1.7-3.8,4-3.8C202.8,49.1,204.5,50.8,204.5,52.9z M204,52.9
			c0-1.9-1.5-3.4-3.4-3.4c-2,0-3.4,1.5-3.4,3.4s1.5,3.4,3.4,3.4C202.5,56.3,204,54.8,204,52.9z"/>
		<path class="st13" d="M210.5,56.6l0.9-7.7l3.3,6.9l3.3-6.9l0.9,7.7h-0.5l-0.7-6l-3,6.2l-3-6.2l-0.7,6H210.5z"/>
		<path class="st13" d="M229.1,54.2h-3.3l-1,2.4h-0.6l3.2-7.7l3.2,7.7H230L229.1,54.2z M228.9,53.7l-1.4-3.5l-1.5,3.5H228.9z"/>
		<path class="st13" d="M239.3,50.5c-0.5-0.9-1.3-0.9-1.5-0.9c-0.9,0-1.4,0.6-1.4,1.4c0,0.8,0.6,1.1,1.3,1.4c0.8,0.4,1.1,0.5,1.5,0.8
			c0.3,0.2,0.8,0.6,0.8,1.4c0,1.2-1.1,2.2-2.4,2.2c-1,0-1.5-0.5-1.8-0.8s-0.4-0.6-0.5-0.8l0.4-0.2c0.1,0.3,0.3,0.6,0.4,0.7
			c0.3,0.4,0.9,0.6,1.4,0.6c1,0,1.9-0.7,1.9-1.7c0-0.4-0.2-0.8-0.7-1.2c-0.2-0.1-0.7-0.3-1.3-0.6c-0.8-0.4-1.1-0.6-1.4-1
			c-0.2-0.3-0.2-0.6-0.2-0.8c0-0.9,0.6-1.8,2-1.8c0.8,0,1.5,0.4,1.9,1.1L239.3,50.5z"/>
		<path class="st13" d="M253.2,56.6v-7.4h1.5c0.7,0,1.9,0.1,2.8,1c0.8,0.8,1.1,1.9,1.1,2.7s-0.3,1.9-1.1,2.7c-1,0.9-2.1,1-2.8,1
			H253.2z M253.7,56.2h1c2,0,3.4-1.3,3.4-3.3c0-1.9-1.4-3.3-3.4-3.3h-1L253.7,56.2L253.7,56.2z"/>
		<path class="st13" d="M268.3,49.6h-3.2v2.7h3.1v0.4h-3.1v3.4h3.2v0.4h-3.7v-7.4h3.7V49.6z"/>
	</g>
</g>
<g class="st11">
	<path class="st13" d="M133.2,410.3h-2.5v1.6h2.4v1.2h-2.4v1.9h2.5v1.2h-3.9v-7h3.9V410.3z"/>
	<path class="st13" d="M137,410.3v5.8h-1.4v-5.8H134v-1.2h4.5v1.2H137z"/>
	<path class="st13" d="M143.1,414.6h-2.8l-0.6,1.5h-1.5l3-7h1.1l2.9,7h-1.5L143.1,414.6z M142.7,413.5l-1-2.5l-1,2.5H142.7z"/>
	<path class="st13" d="M148,409.1c0.8,0,1.3,0.1,1.8,0.5c0.6,0.5,0.7,1.2,0.7,1.7c0,0.3,0,1-0.6,1.6c-0.4,0.4-1,0.6-1.8,0.6h-0.9v2.6
		H146v-7H148z M147.3,412.4h0.6c0.3,0,0.6,0,0.9-0.2c0.3-0.2,0.4-0.5,0.4-0.8c0-0.4-0.2-0.6-0.4-0.8c-0.3-0.2-0.6-0.2-1-0.2h-0.5
		V412.4z"/>
	<path class="st13" d="M155.1,414.6h-2.8l-0.6,1.5h-1.5l3-7h1.1l2.9,7h-1.5L155.1,414.6z M154.7,413.5l-1-2.5l-1,2.5H154.7z"/>
	<path class="st13" d="M162,410.3h-1v-1.2h2.4v7H162V410.3z"/>
</g>
<g class="st11">
	<path class="st13" d="M176.3,414.2c0,1.1-0.7,2-2.1,2c-1.4,0-2.1-1-2.1-2c0-0.8,0.3-1.4,1.1-1.7c-0.6-0.3-0.8-0.9-0.8-1.5
		c0-1,0.7-1.9,1.9-1.9c1.3,0,1.9,0.9,1.9,1.9c0,0.6-0.3,1.2-0.8,1.5C176,412.8,176.3,413.4,176.3,414.2z M175.6,414.2
		c0-0.8-0.6-1.3-1.4-1.3s-1.4,0.5-1.4,1.3c0,0.8,0.6,1.4,1.4,1.4S175.6,415,175.6,414.2z M175.4,411c0-0.8-0.6-1.2-1.2-1.2
		s-1.2,0.5-1.2,1.2c0,0.7,0.5,1.2,1.2,1.2S175.4,411.7,175.4,411z"/>
	<path class="st13" d="M181.2,409.8h-3.8v-0.7h5.1l-4.7,7.1l-0.6-0.4L181.2,409.8z"/>
	<path class="st13" d="M186.7,409.1v6.2h1.9v0.7h-2.7v-7H186.7z"/>
	<path class="st13" d="M189.2,414c0-1.3,1-2.3,2.3-2.3c1.3,0,2.3,1,2.3,2.3c0,1.3-1,2.3-2.3,2.3C190.2,416.2,189.2,415.3,189.2,414z
		 M190,414c0,1.1,0.8,1.6,1.5,1.6c0.8,0,1.5-0.6,1.5-1.6c0-1.1-0.7-1.6-1.5-1.6C190.7,412.3,190,412.9,190,414z"/>
	<path class="st13" d="M195.7,412.5v3.6h-0.8v-3.6h-0.5v-0.7h0.5v-1.6h0.8v1.6h0.8v0.7H195.7z"/>
	<path class="st13" d="M201,415c-0.1,0.2-0.3,0.5-0.5,0.7c-0.4,0.4-0.9,0.5-1.4,0.5c-1,0-2.1-0.7-2.1-2.3c0-1.3,0.8-2.3,2.1-2.3
		c0.8,0,1.4,0.4,1.6,0.8c0.3,0.4,0.4,1.1,0.4,1.6h-3.4c0,0.9,0.6,1.5,1.4,1.5c0.4,0,0.6-0.1,0.9-0.3c0.2-0.2,0.4-0.4,0.4-0.6
		L201,415z M200.3,413.5c-0.1-0.7-0.6-1.1-1.3-1.1s-1.2,0.5-1.3,1.1H200.3z"/>
	<path class="st13" d="M204,412.8c-0.1-0.3-0.3-0.4-0.6-0.4c-0.3,0-0.5,0.2-0.5,0.5c0,0.3,0.2,0.4,0.7,0.6c0.6,0.3,0.9,0.5,1.1,0.7
		c0.2,0.2,0.2,0.5,0.2,0.7c0,0.9-0.7,1.4-1.5,1.4c-0.2,0-1.1,0-1.5-1.1l0.6-0.3c0.1,0.2,0.3,0.7,0.9,0.7c0.5,0,0.7-0.4,0.7-0.7
		c0-0.4-0.3-0.5-0.7-0.7c-0.5-0.2-0.9-0.4-1.1-0.6c-0.2-0.2-0.2-0.4-0.2-0.6c0-0.8,0.5-1.2,1.3-1.2c0.2,0,0.8,0,1.2,0.8L204,412.8z"
		/>
</g>
<g class="st11">
	<path class="st13" d="M133.2,422.8h-2.5v1.6h2.4v1.2h-2.4v1.9h2.5v1.2h-3.9v-7h3.9V422.8z"/>
	<path class="st13" d="M137,422.8v5.8h-1.4v-5.8H134v-1.2h4.5v1.2H137z"/>
	<path class="st13" d="M143.1,427.1h-2.8l-0.6,1.5h-1.5l3-7h1.1l2.9,7h-1.5L143.1,427.1z M142.7,426l-1-2.5l-1,2.5H142.7z"/>
	<path class="st13" d="M148,421.6c0.8,0,1.3,0.1,1.8,0.5c0.6,0.5,0.7,1.2,0.7,1.7c0,0.3,0,1-0.6,1.6c-0.4,0.4-1,0.6-1.8,0.6h-0.9v2.6
		H146v-7H148z M147.3,424.9h0.6c0.3,0,0.6,0,0.9-0.2c0.3-0.2,0.4-0.5,0.4-0.8c0-0.4-0.2-0.6-0.4-0.8c-0.3-0.2-0.6-0.2-1-0.2h-0.5
		V424.9z"/>
	<path class="st13" d="M155.1,427.1h-2.8l-0.6,1.5h-1.5l3-7h1.1l2.9,7h-1.5L155.1,427.1z M154.7,426l-1-2.5l-1,2.5H154.7z"/>
	<path class="st13" d="M161.8,426.3c0.1-0.1,0.9-1.1,1.2-1.5c0.2-0.3,0.4-0.7,0.4-1.1c0-0.6-0.4-1.1-1-1.1c-0.7,0-1.1,0.6-1.1,1.2
		h-1.4c0.1-1.4,1.1-2.3,2.4-2.3c1.6,0,2.5,1.1,2.5,2.2c0,1.1-0.7,1.8-1.3,2.4l-1.2,1.3h2.5v1.2h-5.1L161.8,426.3z"/>
</g>
<g class="st11">
	<path class="st13" d="M175.7,422.3h-3.8v-0.7h5.1l-4.7,7.1l-0.6-0.4L175.7,422.3z"/>
	<path class="st13" d="M181.3,422.3H179l-0.4,1.5c0.1,0,0.3,0,0.4,0c1.4,0,2.3,1.1,2.3,2.4c0,1.6-1.2,2.5-2.5,2.5
		c-0.6,0-1.1-0.2-1.6-0.5c-0.2-0.2-0.4-0.4-0.6-0.7l0.6-0.4c0.1,0.2,0.3,0.4,0.5,0.6c0.3,0.2,0.6,0.4,1.1,0.4c1,0,1.7-0.8,1.7-1.8
		c0-1-0.7-1.7-1.7-1.7c-0.3,0-0.7,0-1.3,0.5l1-3.4h2.8V422.3z"/>
	<path class="st13" d="M186.3,421.6v6.2h1.9v0.7h-2.7v-7H186.3z"/>
	<path class="st13" d="M188.8,426.5c0-1.3,1-2.3,2.3-2.3s2.3,1,2.3,2.3c0,1.3-1,2.3-2.3,2.3C189.8,428.7,188.8,427.8,188.8,426.5z
		 M189.6,426.5c0,1.1,0.8,1.6,1.5,1.6c0.8,0,1.5-0.6,1.5-1.6c0-1.1-0.7-1.6-1.5-1.6S189.6,425.4,189.6,426.5z"/>
	<path class="st13" d="M195.3,425v3.6h-0.8V425h-0.5v-0.7h0.5v-1.6h0.8v1.6h0.8v0.7H195.3z"/>
	<path class="st13" d="M200.6,427.5c-0.1,0.2-0.3,0.5-0.5,0.7c-0.4,0.4-0.9,0.5-1.4,0.5c-1,0-2.1-0.7-2.1-2.3c0-1.3,0.8-2.3,2.1-2.3
		c0.8,0,1.4,0.4,1.6,0.8c0.3,0.4,0.4,1.1,0.4,1.6h-3.4c0,0.9,0.6,1.5,1.4,1.5c0.4,0,0.6-0.1,0.9-0.3c0.2-0.2,0.4-0.4,0.4-0.6
		L200.6,427.5z M199.9,426c-0.1-0.7-0.6-1.1-1.3-1.1s-1.2,0.5-1.3,1.1H199.9z"/>
	<path class="st13" d="M203.6,425.3c-0.1-0.3-0.3-0.4-0.6-0.4c-0.3,0-0.5,0.2-0.5,0.5c0,0.3,0.2,0.4,0.7,0.6c0.6,0.3,0.9,0.5,1.1,0.7
		c0.2,0.2,0.2,0.5,0.2,0.7c0,0.9-0.7,1.4-1.5,1.4c-0.2,0-1.1,0-1.5-1.1l0.6-0.3c0.1,0.2,0.3,0.7,0.9,0.7c0.5,0,0.7-0.4,0.7-0.7
		c0-0.4-0.3-0.5-0.7-0.7c-0.5-0.2-0.9-0.4-1.1-0.6c-0.2-0.2-0.2-0.4-0.2-0.6c0-0.8,0.5-1.2,1.3-1.2c0.2,0,0.8,0,1.2,0.8L203.6,425.3
		z"/>
</g>
<g class="st11">
	<path class="st13" d="M133.2,435.3h-2.5v1.6h2.4v1.2h-2.4v1.9h2.5v1.2h-3.9v-7h3.9V435.3z"/>
	<path class="st13" d="M137,435.3v5.8h-1.4v-5.8H134v-1.2h4.5v1.2H137z"/>
	<path class="st13" d="M143.1,439.6h-2.8l-0.6,1.5h-1.5l3-7h1.1l2.9,7h-1.5L143.1,439.6z M142.7,438.5l-1-2.5l-1,2.5H142.7z"/>
	<path class="st13" d="M148,434.1c0.8,0,1.3,0.1,1.8,0.5c0.6,0.5,0.7,1.2,0.7,1.7c0,0.3,0,1-0.6,1.6c-0.4,0.4-1,0.6-1.8,0.6h-0.9v2.6
		H146v-7H148z M147.3,437.4h0.6c0.3,0,0.6,0,0.9-0.2c0.3-0.2,0.4-0.5,0.4-0.8c0-0.4-0.2-0.6-0.4-0.8c-0.3-0.2-0.6-0.2-1-0.2h-0.5
		V437.4z"/>
	<path class="st13" d="M155.1,439.6h-2.8l-0.6,1.5h-1.5l3-7h1.1l2.9,7h-1.5L155.1,439.6z M154.7,438.5l-1-2.5l-1,2.5H154.7z"/>
	<path class="st13" d="M160.1,436c0.1-1.3,1.1-2,2.3-2c1.3,0,2.2,0.8,2.2,1.9c0,0.4-0.1,1.1-0.8,1.5c0.3,0.1,1.1,0.5,1.1,1.7
		c0,1.4-1.1,2.2-2.5,2.2c-1.3,0-2.4-0.8-2.5-2.2h1.4c0.1,0.6,0.5,1,1.2,1c0.8,0,1.1-0.6,1.1-1.1c0-0.5-0.3-1.1-1.2-1.1h-0.2v-1h0.2
		c0.7,0,0.9-0.5,0.9-0.9c0-0.6-0.4-0.9-0.9-0.9c-0.5,0-0.9,0.3-1,0.9H160.1z"/>
</g>
<g class="st11">
	<path class="st13" d="M171.6,447.8h-1.2l0.4-0.7h1.5v7h-0.8V447.8z"/>
	<path class="st13" d="M175.2,447.8H174l0.4-0.7h1.5v7h-0.8V447.8z"/>
	<path class="st13" d="M182,447.7h-2.2l-0.4,1.5c0.1,0,0.3,0,0.4,0c1.4,0,2.3,1.1,2.3,2.4c0,1.6-1.2,2.5-2.5,2.5
		c-0.6,0-1.1-0.2-1.6-0.5c-0.2-0.2-0.4-0.4-0.6-0.7l0.6-0.4c0.1,0.2,0.3,0.4,0.5,0.6c0.3,0.2,0.6,0.4,1.1,0.4c1,0,1.7-0.8,1.7-1.8
		c0-1-0.7-1.7-1.7-1.7c-0.3,0-0.7,0-1.3,0.5l1-3.4h2.8V447.7z"/>
	<path class="st13" d="M187,447v6.2h1.9v0.7h-2.7v-7H187z"/>
	<path class="st13" d="M189.6,451.8c0-1.3,1-2.3,2.3-2.3c1.3,0,2.3,1,2.3,2.3c0,1.3-1,2.3-2.3,2.3
		C190.5,454.1,189.6,453.2,189.6,451.8z M190.3,451.8c0,1.1,0.8,1.6,1.5,1.6c0.8,0,1.5-0.6,1.5-1.6c0-1.1-0.7-1.6-1.5-1.6
		C191.1,450.2,190.3,450.8,190.3,451.8z"/>
	<path class="st13" d="M196.1,450.3v3.6h-0.8v-3.6h-0.5v-0.7h0.5v-1.6h0.8v1.6h0.8v0.7H196.1z"/>
	<path class="st13" d="M201.4,452.9c-0.1,0.2-0.3,0.5-0.5,0.7c-0.4,0.4-0.9,0.5-1.4,0.5c-1,0-2.1-0.7-2.1-2.3c0-1.3,0.8-2.3,2.1-2.3
		c0.8,0,1.4,0.4,1.6,0.8c0.3,0.4,0.4,1.1,0.4,1.6H198c0,0.9,0.6,1.5,1.4,1.5c0.4,0,0.6-0.1,0.9-0.3c0.2-0.2,0.4-0.4,0.4-0.6
		L201.4,452.9z M200.6,451.3c-0.1-0.7-0.6-1.1-1.3-1.1s-1.2,0.5-1.3,1.1H200.6z"/>
	<path class="st13" d="M204.3,450.7c-0.1-0.3-0.3-0.4-0.6-0.4c-0.3,0-0.5,0.2-0.5,0.5c0,0.3,0.2,0.4,0.7,0.6c0.6,0.3,0.9,0.5,1.1,0.7
		c0.2,0.2,0.2,0.5,0.2,0.7c0,0.9-0.7,1.4-1.5,1.4c-0.2,0-1.1,0-1.5-1.1l0.6-0.3c0.1,0.2,0.3,0.7,0.9,0.7c0.5,0,0.7-0.4,0.7-0.7
		c0-0.4-0.3-0.5-0.7-0.7c-0.5-0.2-0.9-0.4-1.1-0.6c-0.2-0.2-0.2-0.4-0.2-0.6c0-0.8,0.5-1.2,1.3-1.2c0.2,0,0.8,0,1.2,0.8L204.3,450.7
		z"/>
</g>
<g class="st11">
	<path class="st13" d="M133.2,447.9h-2.5v1.6h2.4v1.2h-2.4v1.9h2.5v1.2h-3.9v-7h3.9V447.9z"/>
	<path class="st13" d="M137,447.9v5.8h-1.4v-5.8H134v-1.2h4.5v1.2H137z"/>
	<path class="st13" d="M143.1,452.2h-2.8l-0.6,1.5h-1.5l3-7h1.1l2.9,7h-1.5L143.1,452.2z M142.7,451.1l-1-2.5l-1,2.5H142.7z"/>
	<path class="st13" d="M148,446.7c0.8,0,1.3,0.1,1.8,0.5c0.6,0.5,0.7,1.2,0.7,1.7c0,0.3,0,1-0.6,1.6c-0.4,0.4-1,0.6-1.8,0.6h-0.9v2.6
		H146v-7H148z M147.3,450h0.6c0.3,0,0.6,0,0.9-0.2c0.3-0.2,0.4-0.5,0.4-0.8c0-0.4-0.2-0.6-0.4-0.8c-0.3-0.2-0.6-0.2-1-0.2h-0.5V450z
		"/>
	<path class="st13" d="M155.1,452.2h-2.8l-0.6,1.5h-1.5l3-7h1.1l2.9,7h-1.5L155.1,452.2z M154.7,451.1l-1-2.5l-1,2.5H154.7z"/>
	<path class="st13" d="M164.5,451.3h0.8v1.1h-0.8v1.3h-1.3v-1.3h-3.4v-0.6l3.5-5h1.2V451.3z M163.2,451.3v-2.7l-1.8,2.7H163.2z"/>
</g>
<g class="st11">
	<path class="st13" d="M171.6,434.6h-1.2l0.4-0.7h1.5v7h-0.8V434.6z"/>
	<path class="st13" d="M178.5,438.9c0,1.1-0.7,2-2.1,2c-1.4,0-2.1-1-2.1-2c0-0.8,0.3-1.4,1.1-1.7c-0.6-0.3-0.8-0.9-0.8-1.5
		c0-1,0.7-1.9,1.9-1.9c1.3,0,1.9,0.9,1.9,1.9c0,0.6-0.3,1.2-0.8,1.5C178.2,437.5,178.5,438.1,178.5,438.9z M177.8,438.9
		c0-0.8-0.6-1.3-1.4-1.3c-0.8,0-1.4,0.5-1.4,1.3c0,0.8,0.6,1.4,1.4,1.4C177.2,440.2,177.8,439.7,177.8,438.9z M177.6,435.7
		c0-0.8-0.6-1.2-1.2-1.2c-0.6,0-1.2,0.5-1.2,1.2c0,0.7,0.5,1.2,1.2,1.2C177.1,436.9,177.6,436.4,177.6,435.7z"/>
	<path class="st13" d="M184,434.6h-2.2l-0.4,1.5c0.1,0,0.3,0,0.4,0c1.4,0,2.3,1.1,2.3,2.4c0,1.6-1.2,2.5-2.5,2.5
		c-0.6,0-1.1-0.2-1.6-0.5c-0.2-0.2-0.4-0.4-0.6-0.7l0.6-0.4c0.1,0.2,0.3,0.4,0.5,0.6c0.3,0.2,0.6,0.4,1.1,0.4c1,0,1.7-0.8,1.7-1.8
		c0-1-0.7-1.7-1.7-1.7c-0.3,0-0.7,0-1.3,0.5l1-3.4h2.8V434.6z"/>
	<path class="st13" d="M189,433.8v6.2h1.9v0.7h-2.7v-7H189z"/>
	<path class="st13" d="M191.5,438.7c0-1.3,1-2.3,2.3-2.3s2.3,1,2.3,2.3c0,1.3-1,2.3-2.3,2.3C192.5,440.9,191.5,440,191.5,438.7z
		 M192.3,438.7c0,1.1,0.8,1.6,1.5,1.6c0.8,0,1.5-0.6,1.5-1.6c0-1.1-0.7-1.6-1.5-1.6S192.3,437.6,192.3,438.7z"/>
	<path class="st13" d="M198,437.2v3.6h-0.8v-3.6h-0.5v-0.7h0.5v-1.6h0.8v1.6h0.8v0.7H198z"/>
	<path class="st13" d="M203.3,439.7c-0.1,0.2-0.3,0.5-0.5,0.7c-0.4,0.4-0.9,0.5-1.4,0.5c-1,0-2.1-0.7-2.1-2.3c0-1.3,0.8-2.3,2.1-2.3
		c0.8,0,1.4,0.4,1.6,0.8c0.3,0.4,0.4,1.1,0.4,1.6H200c0,0.9,0.6,1.5,1.4,1.5c0.4,0,0.6-0.1,0.9-0.3c0.2-0.2,0.4-0.4,0.4-0.6
		L203.3,439.7z M202.6,438.2c-0.1-0.7-0.6-1.1-1.3-1.1s-1.2,0.5-1.3,1.1H202.6z"/>
	<path class="st13" d="M206.3,437.5c-0.1-0.3-0.3-0.4-0.6-0.4c-0.3,0-0.5,0.2-0.5,0.5c0,0.3,0.2,0.4,0.7,0.6c0.6,0.3,0.9,0.5,1.1,0.7
		c0.2,0.2,0.2,0.5,0.2,0.7c0,0.9-0.7,1.4-1.5,1.4c-0.2,0-1.1,0-1.5-1.1l0.6-0.3c0.1,0.2,0.3,0.7,0.9,0.7c0.5,0,0.7-0.4,0.7-0.7
		c0-0.4-0.3-0.5-0.7-0.7c-0.5-0.2-0.9-0.4-1.1-0.6c-0.2-0.2-0.2-0.4-0.2-0.6c0-0.8,0.5-1.2,1.3-1.2c0.2,0,0.8,0,1.2,0.8L206.3,437.5
		z"/>
</g>
<g class="st11">
	<path class="st13" d="M243.9,409.1v5.8h2.1v1.2h-3.5v-7H243.9z"/>
	<path class="st13" d="M253.9,412.6c0,2.1-1.5,3.6-3.7,3.6c-2.2,0-3.7-1.5-3.7-3.6c0-2.1,1.5-3.6,3.7-3.6
		C252.4,409,253.9,410.5,253.9,412.6z M252.5,412.6c0-1.4-1-2.4-2.3-2.4c-1.4,0-2.3,1-2.3,2.4s1,2.4,2.3,2.4
		C251.5,415,252.5,414,252.5,412.6z"/>
	<path class="st13" d="M257,410.3v5.8h-1.4v-5.8h-1.6v-1.2h4.5v1.2H257z"/>
	<path class="st13" d="M263.3,410.3h-2.5v1.6h2.4v1.2h-2.4v1.9h2.5v1.2h-3.9v-7h3.9V410.3z"/>
	<path class="st13" d="M271.2,414.6h-2.8l-0.6,1.5h-1.5l3-7h1.1l2.9,7h-1.5L271.2,414.6z M270.8,413.5l-1-2.5l-1,2.5H270.8z"/>
</g>
<g class="st11">
	<path class="st13" d="M279,409.9h-1.2l0.4-0.7h1.5v7H279V409.9z"/>
	<path class="st13" d="M281.1,416.1l2.5-2.9c0.2-0.2,0.6-0.8,0.8-1c0.3-0.4,0.4-0.8,0.4-1.1c0-0.8-0.6-1.4-1.4-1.4
		c-0.5,0-0.9,0.2-1.2,0.6c-0.1,0.2-0.2,0.5-0.2,0.8h-0.8c0-0.7,0.3-1.1,0.5-1.4c0.3-0.3,0.8-0.7,1.6-0.7c1.2,0,2.2,0.9,2.2,2.1
		c0,0.5-0.1,0.9-0.6,1.5c-0.3,0.4-0.7,0.8-1,1.2l-1.5,1.6h2.9v0.7H281.1z"/>
	<path class="st13" d="M291.2,414.2c0,1.1-0.7,2-2.1,2c-1.4,0-2.1-1-2.1-2c0-0.8,0.3-1.4,1.1-1.7c-0.6-0.3-0.8-0.9-0.8-1.5
		c0-1,0.7-1.9,1.9-1.9c1.3,0,1.9,0.9,1.9,1.9c0,0.6-0.3,1.2-0.8,1.5C290.9,412.8,291.2,413.4,291.2,414.2z M290.5,414.2
		c0-0.8-0.6-1.3-1.4-1.3s-1.4,0.5-1.4,1.3c0,0.8,0.6,1.4,1.4,1.4S290.5,415,290.5,414.2z M290.3,411c0-0.8-0.6-1.2-1.2-1.2
		s-1.2,0.5-1.2,1.2c0,0.7,0.5,1.2,1.2,1.2S290.3,411.7,290.3,411z"/>
	<path class="st13" d="M295.2,411.8h0.8v0.5c0.2-0.4,0.6-0.6,1.1-0.6c0.8,0,1.1,0.6,1.2,0.7c0.4-0.7,1-0.7,1.3-0.7
		c1.3,0,1.4,1.1,1.4,1.7v2.7h-0.8v-2.6c0-0.5-0.1-1.1-0.8-1.1c-0.9,0-1,0.8-1,1.4v2.4h-0.8v-2.6c0-0.3,0-1.2-0.8-1.2
		c-0.9,0-1,0.9-1,1.4v2.4h-0.8V411.8z"/>
</g>
<g class="st11">
	<path class="st13" d="M303.9,412.6l1.5-1.7c0.1-0.1,0.4-0.4,0.5-0.6c0.2-0.3,0.2-0.5,0.2-0.6c0-0.5-0.3-0.8-0.8-0.8
		c-0.3,0-0.5,0.1-0.7,0.4c-0.1,0.1-0.1,0.3-0.1,0.5H304c0-0.4,0.1-0.7,0.3-0.8c0.2-0.2,0.5-0.4,1-0.4c0.7,0,1.3,0.5,1.3,1.2
		c0,0.3-0.1,0.5-0.3,0.9c-0.2,0.2-0.4,0.5-0.6,0.7l-0.8,1h1.7v0.4H303.9z"/>
</g>
<g class="st11">
	<path class="st13" d="M243.9,421.7v5.8h2.1v1.2h-3.5v-7H243.9z"/>
	<path class="st13" d="M253.9,425.2c0,2.1-1.5,3.6-3.7,3.6c-2.2,0-3.7-1.5-3.7-3.6c0-2.1,1.5-3.6,3.7-3.6
		C252.4,421.5,253.9,423,253.9,425.2z M252.5,425.2c0-1.4-1-2.4-2.3-2.4c-1.4,0-2.3,1-2.3,2.4s1,2.4,2.3,2.4
		C251.5,427.6,252.5,426.6,252.5,425.2z"/>
	<path class="st13" d="M257,422.8v5.8h-1.4v-5.8h-1.6v-1.2h4.5v1.2H257z"/>
	<path class="st13" d="M263.3,422.8h-2.5v1.6h2.4v1.2h-2.4v1.9h2.5v1.2h-3.9v-7h3.9V422.8z"/>
	<path class="st13" d="M268.8,421.7c0.4,0,1.1,0,1.7,0.4c0.4,0.3,0.6,0.9,0.6,1.4c0,0.9-0.6,1.3-0.8,1.4c0.5,0.1,0.7,0.3,0.9,0.4
		c0.4,0.4,0.5,0.9,0.5,1.3c0,0.4-0.1,1-0.6,1.4c-0.5,0.5-1.2,0.6-1.8,0.6h-2.3v-7H268.8z M268.4,424.6h0.4c0.2,0,1.1,0,1.1-0.9
		c0-0.6-0.5-0.9-1-0.9h-0.4V424.6z M268.4,427.5h0.6c0.3,0,0.6,0,0.9-0.2c0.3-0.2,0.4-0.5,0.4-0.8c0-0.2-0.1-0.6-0.5-0.8
		c-0.3-0.1-0.6-0.1-0.9-0.1h-0.5V427.5z"/>
</g>
<g class="st11">
	<path class="st13" d="M278,435.7h-1.2l0.4-0.7h1.5v7H278V435.7z"/>
	<path class="st13" d="M284.2,435.3l-1.6,2.2c0.2-0.1,0.4-0.1,0.6-0.1c1.3,0,2.3,1,2.3,2.3c0,1.4-1,2.4-2.4,2.4
		c-1.6,0-2.4-1.3-2.4-2.4c0-0.3,0.1-0.9,0.6-1.6l2.4-3.3L284.2,435.3z M284.7,439.7c0-0.9-0.7-1.6-1.6-1.6c-1,0-1.6,0.7-1.6,1.6
		c0,0.9,0.7,1.7,1.6,1.7C284,441.4,284.7,440.7,284.7,439.7z"/>
	<path class="st13" d="M287.2,441c-0.5-0.7-0.7-1.6-0.7-2.6s0.2-1.9,0.7-2.6c0.5-0.8,1.2-1,1.8-1c0.6,0,1.3,0.3,1.8,1
		c0.5,0.7,0.7,1.6,0.7,2.6s-0.2,1.9-0.7,2.6c-0.5,0.8-1.2,1-1.8,1C288.4,442.1,287.7,441.8,287.2,441z M287.8,436.4
		c-0.4,0.6-0.5,1.4-0.5,2.1s0.1,1.5,0.5,2.1c0.4,0.6,0.8,0.8,1.2,0.8c0.4,0,0.8-0.2,1.2-0.8c0.4-0.6,0.5-1.4,0.5-2.1
		s-0.1-1.5-0.5-2.1c-0.4-0.6-0.8-0.8-1.2-0.8C288.6,435.6,288.1,435.8,287.8,436.4z"/>
	<path class="st13" d="M295.1,437.6h0.8v0.5c0.2-0.4,0.6-0.6,1.1-0.6c0.8,0,1.1,0.6,1.2,0.7c0.4-0.7,1-0.7,1.3-0.7
		c1.3,0,1.4,1.1,1.4,1.7v2.7H300v-2.6c0-0.5-0.1-1.1-0.8-1.1c-0.9,0-1,0.8-1,1.4v2.4h-0.8v-2.6c0-0.3,0-1.2-0.8-1.2
		c-0.9,0-1,0.9-1,1.4v2.4h-0.8V437.6z"/>
	<path class="st13" d="M301.8,439.2l1.5-1.8c0.2-0.3,0.3-0.4,0.5-0.6c0.1-0.1,0.2-0.3,0.2-0.6c0-0.4-0.3-0.8-0.8-0.8
		c-0.3,0-0.5,0.1-0.7,0.4c-0.1,0.1-0.1,0.3-0.1,0.5H302c0-0.4,0.1-0.7,0.3-0.9c0.3-0.4,0.7-0.4,1-0.4c0.8,0,1.3,0.5,1.3,1.2
		c0,0.3-0.1,0.5-0.3,0.9c-0.2,0.3-0.4,0.5-0.6,0.7l-0.8,0.9h1.7v0.5H301.8z"/>
</g>
<g class="st11">
	<path class="st13" d="M243.9,434.2v5.8h2.1v1.2h-3.5v-7H243.9z"/>
	<path class="st13" d="M253.9,437.7c0,2.1-1.5,3.6-3.7,3.6c-2.2,0-3.7-1.5-3.7-3.6c0-2.1,1.5-3.6,3.7-3.6
		C252.4,434,253.9,435.6,253.9,437.7z M252.5,437.7c0-1.4-1-2.4-2.3-2.4c-1.4,0-2.3,1-2.3,2.4s1,2.4,2.3,2.4
		C251.5,440.1,252.5,439.1,252.5,437.7z"/>
	<path class="st13" d="M257,435.4v5.8h-1.4v-5.8h-1.6v-1.2h4.5v1.2H257z"/>
	<path class="st13" d="M263.3,435.4h-2.5v1.6h2.4v1.2h-2.4v1.9h2.5v1.2h-3.9v-7h3.9V435.4z"/>
	<path class="st13" d="M272.1,440.9c-0.4,0.2-1,0.4-1.7,0.4c-1.2,0-2-0.4-2.5-1c-0.8-0.8-1.1-1.6-1.1-2.7c0-1.3,0.5-2.2,1.1-2.7
		c0.7-0.7,1.6-0.9,2.6-0.9c0.5,0,1.1,0.1,1.7,0.4v1.6c-0.6-0.7-1.4-0.8-1.7-0.8c-1.4,0-2.3,1.1-2.3,2.4c0,1.5,1.2,2.4,2.4,2.4
		c0.6,0,1.2-0.3,1.6-0.8V440.9z"/>
</g>
<g class="st11">
	<path class="st13" d="M278.3,423.4h-1.2l0.4-0.7h1.5v7h-0.8V423.4z"/>
	<path class="st13" d="M284.7,427.6h0.9v0.7h-0.9v1.3h-0.8v-1.3h-3.6l4.3-6V427.6z M283.9,427.6v-3.1l-2.2,3.1H283.9z"/>
	<path class="st13" d="M287.3,428.7c-0.5-0.7-0.7-1.6-0.7-2.6s0.2-1.9,0.7-2.6c0.5-0.8,1.2-1,1.8-1s1.3,0.3,1.8,1
		c0.5,0.7,0.7,1.6,0.7,2.6s-0.2,1.9-0.7,2.6c-0.5,0.8-1.2,1-1.8,1S287.8,429.4,287.3,428.7z M287.8,424c-0.4,0.6-0.5,1.4-0.5,2.1
		s0.1,1.5,0.5,2.1c0.4,0.6,0.8,0.8,1.2,0.8s0.8-0.2,1.2-0.8c0.4-0.6,0.5-1.4,0.5-2.1s-0.1-1.5-0.5-2.1c-0.4-0.6-0.8-0.8-1.2-0.8
		S288.2,423.4,287.8,424z"/>
	<path class="st13" d="M295.2,425.3h0.8v0.5c0.2-0.4,0.6-0.6,1.1-0.6c0.8,0,1.1,0.6,1.2,0.7c0.4-0.7,1-0.7,1.3-0.7
		c1.3,0,1.4,1.1,1.4,1.7v2.7h-0.8V427c0-0.5-0.1-1.1-0.8-1.1c-0.9,0-1,0.8-1,1.4v2.4h-0.8V427c0-0.3,0-1.2-0.8-1.2
		c-0.9,0-1,0.9-1,1.4v2.4h-0.8V425.3z"/>
	<path class="st13" d="M301.9,426.8l1.5-1.8c0.2-0.3,0.3-0.4,0.5-0.6c0.1-0.1,0.2-0.3,0.2-0.6c0-0.4-0.3-0.8-0.8-0.8
		c-0.3,0-0.5,0.1-0.7,0.4c-0.1,0.1-0.1,0.3-0.1,0.5H302c0-0.4,0.1-0.7,0.3-0.9c0.3-0.4,0.7-0.4,1-0.4c0.8,0,1.3,0.5,1.3,1.2
		c0,0.3-0.1,0.5-0.3,0.9c-0.2,0.3-0.4,0.5-0.6,0.7l-0.8,0.9h1.7v0.5H301.9z"/>
</g>
<line class="st6" x1="222.9" y1="408.5" x2="222.9" y2="453.7"/>
<circle class="st7" cx="244.9" cy="252.7" r="13.1"/>
<circle class="st7" cx="419.9" cy="146.2" r="8.4"/>
<circle class="st7" cx="271.6" cy="220.5" r="8.4"/>
<image style="overflow:visible;" width="2586" height="2134" xlink:href="ETAPA 3.png"  transform="matrix(9.210663e-02 0 0 9.210663e-02 28.0794 207.1111)">
</image>
<polygon class="st10" points="30,205.6 197.3,205.6 215,298.9 257,274.8 267.6,286 65.1,401.1 "/>
<polygon class="st8" points="6.7,85.6 79,87.8 79,113.1 440.2,113.1 440.2,144.3 422.8,178.9 412,198.7 406.4,205.2 317.1,359.7 
	254.6,292.4 64.3,403.8 "/>
<g class="st11">
	<path class="st12" d="M98.8,265.5h-4.2v3.1h4.1v1.1h-4.1v4h4.2v1.1h-5.3v-10.4h5.3V265.5z"/>
	<path class="st12" d="M104.1,265.5v9.2H103v-9.2h-2.5v-1.1h6.2v1.1H104.1z"/>
	<path class="st12" d="M113.7,271.8h-4.4l-1.3,2.9h-1.3l4.8-10.9l4.6,10.9H115L113.7,271.8z M113.3,270.8l-1.8-4.1l-1.8,4.1H113.3z"
		/>
	<path class="st12" d="M120.1,264.4c1.1,0,1.9,0.1,2.6,0.8c0.8,0.6,0.9,1.6,0.9,2.2c0,1.4-0.9,2.9-3.3,2.9h-1v4.5h-1.1v-10.4H120.1
		L120.1,264.4z M119.5,269.2h0.9c1.4,0,2.2-0.7,2.2-1.9c0-1.6-1.5-1.8-2.3-1.8h-0.9v3.7L119.5,269.2L119.5,269.2z"/>
	<path class="st12" d="M130.9,271.8h-4.4l-1.3,2.9H124l4.8-10.9l4.6,10.9h-1.3L130.9,271.8z M130.4,270.8l-1.8-4.1l-1.8,4.1H130.4z"
		/>
	<path class="st12" d="M139.7,267c0-0.6,0.2-1.1,0.5-1.5c0.7-1.1,1.8-1.2,2.4-1.2c1.9,0,2.9,1.4,2.9,2.8c0,0.8-0.3,1.8-1.3,2.3
		c0.4,0.1,1.5,0.7,1.5,2.5c0,1.9-1.4,3.1-3.2,3.1c-1.1,0-2.3-0.4-2.9-1.8c-0.1-0.4-0.2-0.7-0.3-1.1h1.1c0.1,0.4,0.2,0.8,0.4,1.1
		c0.3,0.5,0.9,0.8,1.6,0.8c1.1,0,2-0.9,2-2.1c0-0.6-0.3-1.4-1-1.8c-0.3-0.1-0.8-0.3-1.2-0.2v-1c0.4,0,0.9-0.1,1.2-0.2
		c0.3-0.2,0.9-0.6,0.9-1.5s-0.5-1.8-1.8-1.8c-0.4,0-0.9,0.1-1.3,0.6c-0.2,0.3-0.4,0.6-0.4,1.1L139.7,267L139.7,267L139.7,267z"/>
</g>
<g class="st11">
	<path class="st12" d="M85.4,246.2l3.1,7.9l3.1-7.9h3.1l-5.2,12.3h-2l-5.2-12.3H85.4z"/>
	<path class="st12" d="M103.7,248.5h-4.1v2.4h3.9v2.4h-3.9v2.7h4.1v2.4h-7v-12.3h7V248.5z"/>
	<path class="st12" d="M111,246.2c1.6,0,2.6,0.5,3.1,1.1c0.5,0.5,1.1,1.4,1.1,2.8c0,0.8-0.2,1.8-0.9,2.5c-0.4,0.4-1,0.8-1.7,0.9
		l3.8,5h-3.5l-3.3-4.8v4.8h-2.8v-12.3H111z M109.5,251.7h0.6c0.5,0,1.2-0.1,1.7-0.6c0.2-0.2,0.4-0.6,0.4-1.2c0-0.7-0.3-1.1-0.6-1.3
		c-0.4-0.4-1.2-0.4-1.6-0.4h-0.6L109.5,251.7L109.5,251.7z"/>
	<path class="st12" d="M122.9,258.5l1.9-12.3h2.4l3.1,7.3l3.1-7.3h2.4l1.9,12.3h-2.8l-1-7.3l-3.1,7.3h-1l-3.1-7.3l-1,7.3H122.9z"/>
	<path class="st12" d="M147.6,256.1H143l-0.9,2.3h-3l5-12.3h2.6l4.8,12.3h-3L147.6,256.1z M146.9,253.9l-1.5-4.1l-1.5,4.1H146.9
		L146.9,253.9L146.9,253.9z M148.1,242.8l-3,2.4l-1.2-1l2.4-2.7L148.1,242.8z"/>
	<path class="st12" d="M159.9,249.2c-0.9-0.8-1.7-0.9-2.1-0.9s-0.9,0.1-1.2,0.4c-0.2,0.2-0.3,0.4-0.3,0.8c0,0.3,0.1,0.5,0.3,0.7
		c0.3,0.3,0.7,0.4,1.6,0.7l0.9,0.4c0.6,0.2,1.2,0.5,1.7,0.9c0.7,0.7,0.9,1.6,0.9,2.3c0,1.3-0.4,2.4-1.1,3c-1.1,1.1-2.7,1.3-3.5,1.3
		c-0.9,0-1.6-0.1-2.4-0.5c-0.6-0.3-1.3-0.9-1.8-1.3l1.5-2c0.3,0.3,0.8,0.8,1.1,0.9c0.5,0.3,1,0.4,1.6,0.4c0.4,0,0.9-0.1,1.3-0.4
		c0.3-0.2,0.4-0.6,0.4-1s-0.2-0.7-0.4-0.9c-0.3-0.3-1.1-0.6-1.4-0.7l-1-0.4c-0.6-0.2-1.3-0.4-1.7-1c-0.6-0.7-0.8-1.6-0.8-2.1
		c0-1.1,0.3-2,1.1-2.8c0.9-0.9,1.9-1.1,3-1.1c0.9,0,2.2,0.1,3.6,1.2L159.9,249.2z"/>
</g>
</svg>
