<?xml version="1.0" encoding="utf-8"?>
<!-- Generator: Adobe Illustrator 24.2.3, SVG Export Plug-In . SVG Version: 6.00 Build 0)  -->
<svg version="1.1" xmlns="http://www.w3.org/2000/svg" xmlns:xlink="http://www.w3.org/1999/xlink" x="0px" y="0px"
	 viewBox="0 0 443.7 569.3" style="enable-background:new 0 0 443.7 569.3;" xml:space="preserve">
<style type="text/css">
	.st0{fill:#FFFFFF;}
	.st1{font-family:'FuturaPT-Book';}
	.st2{font-size:2.1094px;}
	.st3{fill:#3B6793;}
	.st4{fill:none;stroke:#D65D72;stroke-miterlimit:10;}
	.st5{fill:#D20000;}
</style>
<g id="Capa_1">
	
		<image style="overflow:visible;enable-background:new    ;" width="4811" height="4630" xlink:href="master plan general_2022_sin amenidades.png"  transform="matrix(9.131615e-02 0 0 9.189242e-02 1.1595 72.9141)">
	</image>
	<g>
		<path class="st0" d="M110.1,38.7l3.5-20.7h5.3l4.2,11l4.4-11h5.4l3.1,20.7h-5.4l-1.5-11.9l-5,11.9H122l-4.8-11.9l-1.8,11.9H110.1z
			"/>
		<path class="st0" d="M154.3,35.2h-7.5l-1.4,3.5h-5.7l7.9-20.7h5.9l7.8,20.7h-5.7L154.3,35.2z M152.9,31.1l-2.3-6.7l-2.3,6.7
			C148.3,31.1,152.9,31.1,152.9,31.1z"/>
		<path class="st0" d="M166.6,32.5c1.1,1.1,2.9,2.1,4.7,2.1c1.1,0,1.7-0.3,2.1-0.7c0.3-0.3,0.5-0.8,0.5-1.3c0-0.4-0.2-0.9-0.6-1.2
			c-0.5-0.5-1.3-0.7-2.7-1.1l-1.4-0.4c-0.9-0.3-2.1-0.7-3-1.7c-1.1-1.1-1.2-2.6-1.2-3.7c0-2.5,1-4.1,1.9-5c1.1-1.1,2.8-2,5.3-2
			c2,0,4.4,0.7,6.4,1.7l-2.1,4.2c-1.6-1.3-2.8-1.4-3.5-1.4c-0.5,0-1.2,0.1-1.8,0.6c-0.3,0.3-0.5,0.7-0.5,1.1s0.1,0.7,0.3,0.9
			c0.2,0.2,0.5,0.6,1.8,0.9l1.6,0.5c1.3,0.4,2.7,0.9,3.7,2c1.1,1.1,1.3,2.3,1.3,3.7c0,1.9-0.5,3.7-2,5.2c-1.8,1.8-3.9,2.1-6.1,2.1
			c-1.3,0-2.5-0.1-4.1-0.7c-0.3-0.1-1.6-0.6-3.1-1.6L166.6,32.5z"/>
		<path class="st0" d="M193.1,22.6v16.1h-5.4V22.6h-4.4V18h14.2v4.6H193.1z"/>
		<path class="st0" d="M213.9,22.6h-6.4V26h6v4.6h-6v3.6h6.4v4.6h-11.7V18h11.7V22.6z"/>
		<path class="st0" d="M228,18c1.5,0,3.5,0.2,5.1,1.8c1.2,1.2,1.8,3,1.8,4.6c0,1.8-0.6,3.3-1.6,4.3c-0.8,0.8-1.9,1.2-2.9,1.4
			l6.5,8.5h-6.7l-5.1-7.9v7.9h-5.4V18H228z M225,27.3h1c0.8,0,2-0.2,2.6-0.8c0.4-0.4,0.7-1.1,0.7-1.7s-0.2-1.3-0.7-1.7
			c-0.5-0.5-1.4-0.8-2.6-0.8h-1V27.3z"/>
		<path class="st0" d="M256.3,31.8v6.8h-5.4V18h8.6c1.8,0,3.7,0.3,5.2,1.9c1.6,1.5,1.9,3.3,1.9,5c0,1.6-0.2,3.6-1.8,5.1
			c-1.6,1.6-3.5,1.8-5.1,1.8H256.3z M256.3,27.5h1.8c0.6,0,1.6-0.1,2.3-0.7c0.7-0.6,0.7-1.4,0.7-1.9c0-0.6-0.1-1.3-0.6-1.9
			c-0.6-0.7-1.6-0.7-2.3-0.7h-1.8v5.2H256.3z"/>
		<path class="st0" d="M277.2,18v16.1h6.4v4.6h-11.8V18H277.2z"/>
		<path class="st0" d="M301.3,35.2h-7.5l-1.4,3.5h-5.7l7.9-20.7h5.9l7.8,20.7h-5.7L301.3,35.2z M299.9,31.1l-2.3-6.7l-2.3,6.7
			C295.3,31.1,299.9,31.1,299.9,31.1z"/>
		<path class="st0" d="M313,38.7V18h5.4l9.9,12.6V18h5.4v20.7h-5.4L318.4,26v12.6H313V38.7z"/>
	</g>
	<g>
		<g>
			<g>
				<g>
					<path class="st0" d="M261.5,105.7l20.2,20.2l-14.3,14.3l-5.5-5.5l0.8-0.8l4.5,4.5l0.2,0.2l0.2-0.2l12.3-12.3l0.2-0.2l-0.2-0.2
						l-18.2-18.2l-0.2-0.2l-0.2,0.2l-11.9,11.9l-0.8-0.8L261.5,105.7"/>
				</g>
				<g>
					<path class="st0" d="M246.7,120.4l0.8,0.8l-4.5,4.5l-0.2,0.2l0.2,0.2l12.3,12.3l0.2,0.2l0.2-0.2l17.9-17.9l0.8,0.8l-18.9,18.9
						l-14.3-14.3L246.7,120.4z"/>
				</g>
				<g>
					<path class="st0" d="M261.5,99.7l17.2,17.2l-2.4,2.4l-0.8-0.8l1.4-1.4l0.2-0.2l-0.2-0.2l-15.2-15.2l-0.2-0.2l-0.2,0.2
						l-15.2,15.2l-0.2,0.2l0.2,0.2l14.8,14.9l-0.8,0.8l-15.9-15.9L261.5,99.7"/>
				</g>
				<g>
					<path class="st0" d="M261.5,111.7l2.3,2.3l-2.3,2.3l-2.3-2.3L261.5,111.7"/>
				</g>
			</g>
			<g>
				<g>
					<g>
						<path class="st0" d="M289.2,108.9L289.2,108.9l3.7-0.1c0.6,0,1.2,0.1,1.7,0.3c0.5,0.2,0.9,0.4,1.2,0.7s0.6,0.6,0.7,1
							c0.2,0.4,0.2,0.8,0.2,1.2c0,0.4-0.1,0.8-0.2,1.2c-0.1,0.4-0.4,0.7-0.7,1s-0.7,0.5-1.2,0.7s-1.1,0.3-1.8,0.3
							c-0.2,0-0.6,0-1.2-0.1v3.9c0,0.8,0.4,1.2,1.2,1.3v0.1h-3.6v-0.1c0.4,0,0.6-0.1,0.9-0.3c0.2-0.2,0.3-0.5,0.3-1v-8.6
							c0-0.3,0-0.5-0.1-0.7s-0.2-0.3-0.3-0.4c-0.1-0.1-0.2-0.1-0.4-0.2c-0.1,0-0.2-0.1-0.3-0.1h-0.1L289.2,108.9L289.2,108.9z
							 M291.6,109.2v5.4c0.4,0.1,0.8,0.1,1.2,0.1c0.7,0,1.4-0.2,1.9-0.6s0.8-1.1,0.8-2.1c0-0.8-0.2-1.5-0.7-2.1
							c-0.5-0.5-1.1-0.8-2.1-0.8C292.3,109.1,292,109.1,291.6,109.2z"/>
						<path class="st0" d="M310.5,114.5c0,1.1-0.3,2.1-0.8,3s-1.3,1.7-2.2,2.2c-0.9,0.5-1.9,0.8-3,0.8s-2.1-0.3-3.1-0.8
							c-0.9-0.5-1.7-1.3-2.2-2.2c-0.5-0.9-0.8-1.9-0.8-3c0-0.8,0.2-1.6,0.5-2.4c0.3-0.7,0.8-1.4,1.3-1.9c0.6-0.5,1.2-1,2-1.3
							c0.7-0.3,1.5-0.4,2.3-0.4s1.5,0.1,2.2,0.4s1.4,0.7,1.9,1.2c0.6,0.5,1,1.2,1.3,1.9C310.4,112.8,310.5,113.6,310.5,114.5z
							 M309.2,114.6c0-1.5-0.3-2.7-0.8-3.6s-1.2-1.4-1.9-1.7c-0.7-0.3-1.4-0.4-2-0.4c-0.5,0-1,0.1-1.5,0.2c-0.5,0.2-1,0.4-1.5,0.9
							c-0.5,0.4-0.9,1-1.2,1.8c-0.3,0.8-0.5,1.7-0.5,2.8c0,1,0.1,1.8,0.4,2.6c0.3,0.7,0.6,1.3,1.1,1.8s1,0.8,1.5,1
							c0.6,0.2,1.1,0.3,1.7,0.3c0.5,0,1.1-0.1,1.6-0.3c0.5-0.2,1-0.5,1.5-0.9s0.8-1,1.1-1.7C309,116.5,309.2,115.6,309.2,114.6z"/>
						<path class="st0" d="M312.5,109h-0.2v-0.2h4c0.6,0,1.2,0.1,1.6,0.3c0.4,0.2,0.8,0.4,1,0.7c0.2,0.3,0.4,0.6,0.5,1
							c0.1,0.3,0.2,0.7,0.2,1c0,0.4-0.1,0.8-0.3,1.2c-0.2,0.4-0.4,0.7-0.8,1s-0.8,0.5-1.3,0.6l0,0c0.7,0.3,1.3,1,1.9,2l1,1.7
							c0.5,0.8,0.8,1.3,1.1,1.5s0.6,0.3,0.8,0.3v0.1h-2.1c-0.1-0.1-0.2-0.2-0.2-0.3c-0.1-0.1-0.2-0.2-0.2-0.3
							c-0.1-0.1-0.1-0.2-0.2-0.4c-0.1-0.2-0.2-0.2-0.2-0.3l-1.4-2.3c-0.3-0.5-0.6-0.8-0.8-1.1c-0.3-0.3-0.6-0.5-0.8-0.6
							c-0.2-0.1-0.5-0.2-0.7-0.2s-0.4,0-0.7,0v4.2c0,0.8,0.4,1.2,1.2,1.3v0.1h-3.6v-0.1c0.2,0,0.4-0.1,0.6-0.1
							c0.2-0.1,0.3-0.2,0.4-0.4c0.1-0.2,0.2-0.4,0.2-0.7v-8.6c0-0.5-0.1-0.8-0.3-1C313,109.1,312.8,109,312.5,109z M314.8,114.4h0.7
							c0.7,0,1.2-0.1,1.7-0.3c0.4-0.2,0.8-0.5,1-0.8c0.2-0.4,0.3-0.8,0.3-1.3c0-0.4-0.1-0.9-0.3-1.3c-0.2-0.4-0.5-0.8-0.9-1.1
							c-0.4-0.3-1-0.4-1.7-0.4c-0.3,0-0.5,0-0.7,0.1v5.1L314.8,114.4L314.8,114.4z"/>
						<path class="st0" d="M338.1,108.2c-0.3,0.4-0.7,0.6-1.1,0.6h-6.2h-1.2h-6.2c-0.2,0-0.3,0-0.5,0c-0.1,0-0.2,0-0.3-0.1
							c-0.1,0-0.2-0.1-0.2-0.2s-0.1-0.2-0.2-0.3h-0.1v2.8h0.1c0.1-0.7,0.3-1.2,0.7-1.4c0.4-0.2,0.8-0.3,1.4-0.3h2.3v9.6
							c0,0.4-0.1,0.8-0.4,1c-0.2,0.2-0.5,0.3-0.9,0.3v0.1h3.6v-0.1c-0.8,0-1.2-0.4-1.2-1.3v-9.6h2.8h0.6h1.7v9.6
							c0,0.4-0.1,0.8-0.4,1c-0.2,0.2-0.5,0.3-0.9,0.3v0.1h3.6v-0.1c-0.8,0-1.2-0.4-1.2-1.3v-9.6h2.3c0.6,0,1,0.1,1.4,0.3
							c0.4,0.2,0.6,0.7,0.7,1.4h0.1v-2.8H338.1z"/>
						<path class="st0" d="M351.5,114.5c0,1.1-0.3,2.1-0.8,3s-1.3,1.7-2.2,2.2c-0.9,0.5-1.9,0.8-3,0.8s-2.1-0.3-3.1-0.8
							c-0.9-0.5-1.7-1.3-2.2-2.2c-0.5-0.9-0.8-1.9-0.8-3c0-0.8,0.2-1.6,0.5-2.4c0.3-0.7,0.8-1.4,1.3-1.9c0.6-0.5,1.2-1,2-1.3
							c0.7-0.3,1.5-0.4,2.3-0.4s1.5,0.1,2.2,0.4s1.4,0.7,1.9,1.2c0.6,0.5,1,1.2,1.3,1.9C351.3,112.8,351.5,113.6,351.5,114.5z
							 M350.1,114.6c0-1.5-0.3-2.7-0.8-3.6s-1.2-1.4-1.9-1.7c-0.7-0.3-1.4-0.4-2-0.4c-0.5,0-1,0.1-1.5,0.2c-0.5,0.2-1,0.4-1.5,0.9
							c-0.5,0.4-0.9,1-1.2,1.8c-0.3,0.8-0.5,1.7-0.5,2.8c0,1,0.1,1.8,0.4,2.6c0.3,0.7,0.6,1.3,1.1,1.8s1,0.8,1.5,1
							c0.6,0.2,1.1,0.3,1.7,0.3c0.5,0,1.1-0.1,1.6-0.3c0.5-0.2,1-0.5,1.5-0.9s0.8-1,1.1-1.7C350,116.5,350.1,115.6,350.1,114.6z"/>
						<path class="st0" d="M363.3,120.2H359v-0.1h0.2c0.3,0,0.5-0.1,0.7-0.3c0.2-0.2,0.3-0.5,0.3-0.9v-8.6c0-0.4-0.1-0.7-0.3-1
							c-0.2-0.2-0.5-0.3-0.8-0.3H359v-0.1h3.7c0.5,0,0.9,0.1,1.4,0.2c0.4,0.1,0.8,0.3,1.1,0.6c0.3,0.3,0.5,0.5,0.7,0.9
							c0.2,0.3,0.2,0.7,0.2,1c0,0.7-0.2,1.2-0.7,1.7c-0.4,0.4-1,0.7-1.8,0.9l0,0c0.3,0,0.7,0.1,1,0.2s0.6,0.2,0.9,0.3
							c0.3,0.1,0.5,0.3,0.7,0.5s0.4,0.4,0.5,0.6s0.2,0.5,0.3,0.7c0.1,0.3,0.1,0.5,0.1,0.8c0,0.6-0.2,1.1-0.5,1.5s-0.7,0.8-1,1
							C365.1,120.1,364.3,120.2,363.3,120.2z M361.4,114h0.7c0.6,0,1-0.1,1.3-0.2c0.2-0.1,0.3-0.2,0.5-0.3c0.2-0.1,0.3-0.4,0.5-0.7
							c0.2-0.3,0.2-0.7,0.2-1.1c0-0.3-0.1-0.7-0.2-1s-0.3-0.6-0.5-0.8c-0.2-0.2-0.5-0.4-0.7-0.6c-0.3-0.1-0.6-0.2-0.9-0.2
							s-0.6,0.1-1,0.2v4.7H361.4z M362.6,114.4h-1.2v4.1c0,0.3,0,0.5,0.1,0.7s0.2,0.3,0.4,0.5c0.2,0.1,0.6,0.2,1.1,0.2
							c1,0,1.8-0.3,2.2-1c0.3-0.5,0.5-1,0.5-1.6c0-0.4-0.1-0.8-0.2-1.2c-0.2-0.4-0.4-0.6-0.6-0.9c-0.3-0.2-0.6-0.4-1-0.6
							C363.5,114.5,363.1,114.4,362.6,114.4z"/>
						<path class="st0" d="M368.6,120.1h0.2c0.3,0,0.5-0.1,0.7-0.3c0.2-0.2,0.3-0.5,0.3-0.9v-8.6c0-0.5-0.1-0.8-0.4-1
							c-0.2-0.2-0.5-0.3-0.9-0.3v-0.1h3.7v0.1c-0.3,0-0.6,0.1-0.9,0.3c-0.2,0.2-0.4,0.5-0.4,1v8.3c0,0.5,0.1,0.8,0.4,1
							c0.2,0.2,0.7,0.3,1.2,0.3h1c0.4,0,0.8-0.1,1-0.2c0.3-0.1,0.5-0.3,0.6-0.5c0.2-0.2,0.3-0.5,0.5-0.9h0.1l-0.4,1.9h-6.8
							L368.6,120.1L368.6,120.1z"/>
						<path class="st0" d="M382.2,108.7l3.4,9.8c0.2,0.5,0.4,0.9,0.5,1.1c0.2,0.2,0.3,0.4,0.5,0.4c0.1,0.1,0.3,0.1,0.6,0.1v0.1h-3.7
							v-0.1c0.4,0,0.7,0,0.9-0.1c0.2-0.1,0.3-0.3,0.3-0.6c0-0.2,0-0.4-0.1-0.7v-0.1l-1-3h-4l-0.9,2.8c-0.1,0.4-0.2,0.7-0.2,0.9
							c0,0.3,0.1,0.5,0.2,0.6c0.2,0.1,0.4,0.2,0.7,0.2v0.1h-2.7v-0.1c0.4,0,0.7-0.2,0.9-0.4s0.4-0.6,0.6-1.2l3.2-9.8L382.2,108.7z
							 M379.6,115.2h3.6l-1.9-5.4l0,0L379.6,115.2z"/>
						<path class="st0" d="M400.2,108.8L400.2,108.8c-0.3,0.1-0.5,0.2-0.7,0.3s-0.3,0.2-0.4,0.4c-0.1,0.2-0.1,0.5-0.1,1v10h-0.1
							l-8.8-9.8v7c0,0.6,0,1,0.1,1.3c0,0.3,0.1,0.5,0.2,0.6c0.2,0.3,0.5,0.4,1,0.4v0.1h-2.9V120c0.3,0,0.6-0.1,0.7-0.2
							c0.2-0.1,0.3-0.3,0.4-0.7c0.1-0.3,0.1-0.8,0.1-1.5v-7.5l-0.4-0.4c-0.3-0.4-0.6-0.6-0.8-0.7c-0.2-0.1-0.5-0.2-0.8-0.2v-0.1h2.1
							l8.6,9.7V111c0-0.6,0-1-0.1-1.2c0-0.3-0.2-0.5-0.3-0.7c-0.2-0.2-0.5-0.3-0.9-0.3v-0.1L400.2,108.8L400.2,108.8z"/>
						<path class="st0" d="M412,111.4h-0.1c-0.1-0.6-0.4-1-0.8-1.4s-0.9-0.7-1.5-0.8c-0.6-0.2-1.1-0.3-1.6-0.3
							c-0.7,0-1.3,0.1-1.8,0.4c-0.6,0.3-1.1,0.7-1.5,1.2s-0.7,1.1-1,1.8c-0.2,0.7-0.3,1.5-0.3,2.3s0.1,1.5,0.3,2.2
							c0.2,0.7,0.6,1.3,1,1.8s0.9,0.9,1.5,1.1c0.6,0.3,1.2,0.4,1.9,0.4c0.6,0,1.2-0.1,1.9-0.4c0.7-0.2,1.3-0.6,1.9-1.2v0.4
							c-0.7,0.5-1.3,0.9-1.9,1.2c-0.6,0.2-1.3,0.4-2.1,0.4c-0.9,0-1.7-0.2-2.5-0.5c-0.7-0.3-1.4-0.8-1.9-1.3
							c-0.5-0.6-0.9-1.2-1.2-1.9c-0.3-0.7-0.4-1.4-0.4-2.2c0-1.1,0.3-2.1,0.8-3.1s1.3-1.7,2.2-2.3c0.9-0.6,2-0.8,3-0.8
							c0.7,0,1.4,0.1,2.2,0.3l0.8,0.2c0.2,0,0.3,0,0.4,0c0.2,0,0.3,0,0.4-0.1s0.1-0.2,0.2-0.3h0.1V111.4z"/>
						<path class="st0" d="M425.9,114.5c0,1.1-0.3,2.1-0.8,3s-1.3,1.7-2.2,2.2c-0.9,0.5-1.9,0.8-3,0.8s-2.1-0.3-3.1-0.8
							c-0.9-0.5-1.7-1.3-2.2-2.2c-0.5-0.9-0.8-1.9-0.8-3c0-0.8,0.2-1.6,0.5-2.4c0.3-0.7,0.8-1.4,1.3-1.9c0.6-0.5,1.2-1,2-1.3
							c0.7-0.3,1.5-0.4,2.3-0.4s1.5,0.1,2.2,0.4s1.4,0.7,1.9,1.2c0.6,0.5,1,1.2,1.3,1.9C425.8,112.8,425.9,113.6,425.9,114.5z
							 M424.6,114.6c0-1.5-0.3-2.7-0.8-3.6s-1.2-1.4-1.9-1.7c-0.7-0.3-1.4-0.4-2-0.4c-0.5,0-1,0.1-1.5,0.2c-0.5,0.2-1,0.4-1.5,0.9
							c-0.5,0.4-0.9,1-1.2,1.8c-0.3,0.8-0.5,1.7-0.5,2.8c0,1,0.1,1.8,0.4,2.6c0.3,0.7,0.6,1.3,1.1,1.8s1,0.8,1.5,1
							c0.6,0.2,1.1,0.3,1.7,0.3c0.5,0,1.1-0.1,1.6-0.3c0.5-0.2,1-0.5,1.5-0.9s0.8-1,1.1-1.7C424.4,116.5,424.6,115.6,424.6,114.6z"
							/>
					</g>
					<g>
						<path class="st0" d="M296.8,133c-0.8-0.9-1.9-1.4-3-1.4c-2.3,0-4,1.8-4,3.9c0,2.6,2.2,3.9,4,3.9c0.9,0,2.1-0.3,3-1.3v0.7
							c-0.9,0.8-2,1.1-3,1.1c-2.7,0-4.6-2-4.6-4.4c0-2.5,2.1-4.4,4.6-4.4c1.7,0,2.7,0.9,3,1.1V133z"/>
						<path class="st0" d="M308.7,131.3v8.6h-0.6v-8.6H308.7z"/>
						<path class="st0" d="M320.3,139.9l1-8.9l3.8,8l3.8-8l1,8.9h-0.6l-0.8-6.9l-3.5,7.2l-3.5-7.2l-0.8,6.9H320.3z"/>
						<path class="st0" d="M346.1,137h-3.8l-1.2,2.8h-0.6l3.7-8.9l3.7,8.9h-0.6L346.1,137z M345.9,136.5l-1.7-4.1l-1.7,4.1H345.9z"
							/>
						<path class="st0" d="M359.8,131.8v8.1h-0.6v-8.1h-2.3v-0.5h5.2v0.5H359.8z"/>
						<path class="st0" d="M376.8,137H373l-1.2,2.8h-0.6l3.7-8.9l3.7,8.9H378L376.8,137z M376.5,136.5l-1.7-4.1l-1.7,4.1H376.5z"/>
						<path class="st0" d="M393,139.9l-2.9-4.1h-0.3v4.1h-0.6v-8.6h1.3c0.7,0,1.3,0.1,1.9,0.4c0.7,0.5,0.9,1.2,0.9,1.8
							c0,0.9-0.4,1.7-1.5,2.1c-0.5,0.2-0.9,0.2-1.1,0.2l2.9,4.1H393z M389.9,135.3h0.9c1.3,0,2-0.6,2-1.8c0-0.9-0.4-1.3-0.8-1.5
							s-1-0.3-1.4-0.3h-0.7V135.3z"/>
						<path class="st0" d="M405.4,131.3v8.6h-0.6v-8.6H405.4z"/>
						<path class="st0" d="M425.9,135.6c0,2.5-2,4.4-4.6,4.4s-4.6-1.9-4.6-4.4s2-4.4,4.6-4.4C423.9,131.1,425.9,133.1,425.9,135.6z
							 M425.3,135.6c0-2.2-1.7-3.9-4-3.9s-4,1.7-4,3.9s1.7,3.9,4,3.9C423.6,139.5,425.3,137.8,425.3,135.6z"/>
					</g>
				</g>
				<polygon class="st0" points="425.9,124.9 290.9,124.9 289.2,126.6 424.3,126.6 				"/>
			</g>
		</g>
		<g>
			<g>
				<path class="st0" d="M429.8,136.1c0.4,0,0.6,0.1,0.8,0.2c0.2,0.2,0.3,0.4,0.3,0.7s-0.1,0.5-0.3,0.7c-0.1,0.1-0.2,0.1-0.3,0.1
					l0.9,1.2h-0.7l-0.8-1.2h-0.1v1.2H429v-3h0.8V136.1z M429.5,137.5h0.2c0.1,0,0.6,0,0.6-0.4s-0.5-0.4-0.6-0.4h-0.2V137.5z"/>
			</g>
			<path class="st0" d="M429.9,140c-1.3,0-2.3-1-2.3-2.3s1-2.3,2.3-2.3s2.3,1,2.3,2.3S431.2,140,429.9,140z M429.9,135.7
				c-1.1,0-2,0.9-2,2s0.9,2,2,2s2-0.9,2-2C431.8,136.6,431,135.7,429.9,135.7z"/>
		</g>
	</g>
	<g>
		<path class="st0" d="M304.3,481.6H303v-1.8h3.5v9.3h-2.2V481.6z"/>
		<path class="st0" d="M315.2,488.3c-0.5,0.5-1.4,1-2.5,1s-1.9-0.4-2.5-1c-0.9-0.9-1.3-2.3-1.3-3.9s0.4-3,1.3-3.9
			c0.6-0.5,1.4-1,2.5-1s2,0.4,2.5,1c0.9,0.9,1.3,2.3,1.3,3.9S316.1,487.4,315.2,488.3z M311.8,481.7c-0.7,0.7-0.8,2-0.8,2.7
			s0.1,2,0.8,2.7c0.3,0.2,0.5,0.4,0.9,0.4s0.6-0.1,0.9-0.4c0.7-0.6,0.8-2,0.8-2.7s-0.1-2-0.8-2.7c-0.3-0.2-0.5-0.4-0.9-0.4
			S312.1,481.5,311.8,481.7z"/>
		<path class="st0" d="M326.5,486.5h-4l-1.1,2.6h-1.1l4.3-9.8l4.2,9.8h-1.1L326.5,486.5z M326.1,485.5l-1.6-3.7l-1.6,3.7H326.1z"/>
		<path class="st0" d="M329.8,483.3h1v0.6c0.3-0.5,0.8-0.8,1.4-0.8c1,0,1.5,0.7,1.6,0.9c0.6-0.9,1.4-0.9,1.8-0.9
			c1.7,0,1.9,1.4,1.9,2.3v3.7h-1v-3.5c0-0.7-0.1-1.5-1-1.5c-1.2,0-1.3,1.1-1.3,1.8v3.2h-1v-3.4c0-0.4,0-1.6-1.1-1.6
			s-1.3,1.2-1.3,1.9v3.2h-1V483.3z"/>
		<path class="st0" d="M344.5,487.6c-0.2,0.3-0.4,0.7-0.7,0.9c-0.5,0.5-1.2,0.7-1.9,0.7c-1.4,0-2.9-0.9-2.9-3c0-1.7,1.1-3.1,2.8-3.1
			c1.1,0,1.8,0.6,2.2,1.1c0.4,0.5,0.6,1.4,0.5,2.2H340c0,1.2,0.8,2,1.8,2c0.5,0,0.9-0.1,1.2-0.4c0.3-0.2,0.5-0.5,0.6-0.8
			L344.5,487.6z M343.5,485.5c-0.2-0.9-0.9-1.5-1.7-1.5s-1.6,0.6-1.7,1.5H343.5z"/>
		<path class="st0" d="M346.1,483.3h1v0.7c0.2-0.2,0.7-0.8,1.7-0.8c0.7,0,1.3,0.3,1.7,0.8c0.3,0.4,0.3,0.9,0.3,1.6v3.6h-1v-3.6
			c0-0.3,0-0.8-0.3-1.1c-0.2-0.3-0.5-0.4-1-0.4c-0.4,0-0.7,0.1-1,0.4c-0.4,0.5-0.4,1.1-0.4,1.6v3h-1L346.1,483.3L346.1,483.3z"/>
		<path class="st0" d="M353.2,480.4c0.4,0,0.7,0.3,0.7,0.7c0,0.4-0.3,0.7-0.7,0.7c-0.4,0-0.7-0.3-0.7-0.7
			C352.5,480.7,352.8,480.4,353.2,480.4z M353.7,483.3v5.8h-1v-5.8H353.7z"/>
		<path class="st0" d="M360.1,478.9h1v10.2h-1v-0.8c-0.3,0.4-1,1-2,1c-1.5,0-2.8-1-2.8-3.1c0-2,1.3-3,2.8-3c1.1,0,1.7,0.6,2,1V478.9
			z M356.3,486.2c0,1.2,0.7,2.2,1.9,2.2c1.2,0,1.9-1,1.9-2.2c0-1.5-1-2.2-1.9-2.2C357.2,484,356.3,484.8,356.3,486.2z"/>
		<path class="st0" d="M367.4,483.3h1v5.8h-1v-0.8c-0.3,0.4-1,1-2,1c-1.5,0-2.8-1-2.8-3.1c0-2,1.3-3,2.8-3c1.1,0,1.7,0.6,2,1V483.3z
			 M363.6,486.2c0,1.2,0.7,2.2,1.9,2.2c1.2,0,1.9-1,1.9-2.2c0-1.5-1-2.2-1.9-2.2S363.6,484.8,363.6,486.2z"/>
		<path class="st0" d="M374.8,478.9h1v10.2h-1v-0.8c-0.3,0.4-1,1-2,1c-1.5,0-2.8-1-2.8-3.1c0-2,1.3-3,2.8-3c1.1,0,1.7,0.6,2,1V478.9
			z M371,486.2c0,1.2,0.7,2.2,1.9,2.2c1.2,0,1.9-1,1.9-2.2c0-1.5-1-2.2-1.9-2.2C371.9,484,371,484.8,371,486.2z"/>
		<path class="st0" d="M382.9,487.6c-0.2,0.3-0.4,0.7-0.7,0.9c-0.5,0.5-1.2,0.7-1.9,0.7c-1.4,0-2.9-0.9-2.9-3c0-1.7,1.1-3.1,2.8-3.1
			c1.1,0,1.8,0.6,2.2,1.1c0.4,0.5,0.6,1.4,0.5,2.2h-4.5c0,1.2,0.8,2,1.8,2c0.5,0,0.9-0.1,1.2-0.4c0.3-0.2,0.5-0.5,0.6-0.8
			L382.9,487.6z M381.9,485.5c-0.2-0.9-0.9-1.5-1.7-1.5s-1.6,0.6-1.7,1.5H381.9z"/>
		<path class="st0" d="M386.8,484.6c-0.1-0.3-0.4-0.6-0.8-0.6s-0.7,0.2-0.7,0.7c0,0.4,0.3,0.5,0.9,0.8c0.8,0.4,1.2,0.6,1.5,0.9
			s0.3,0.6,0.3,0.9c0,1.2-0.9,1.9-2,1.9c-0.2,0-1.5,0-2-1.5l0.9-0.4c0.1,0.3,0.4,1,1.2,1c0.7,0,1-0.5,1-0.9c0-0.5-0.4-0.7-0.9-1
			c-0.7-0.3-1.1-0.5-1.4-0.9c-0.2-0.3-0.3-0.6-0.3-0.9c0-1,0.7-1.6,1.7-1.6c0.3,0,1.1,0.1,1.6,1.1L386.8,484.6z"/>
		<path class="st0" d="M303.1,505.9l2.5-3.1c-0.3,0.1-0.6,0.1-0.9,0.1c-1,0-1.8-0.4-2.4-0.9c-0.5-0.5-0.8-1.2-0.8-2.3
			c0-1.4,0.6-2.1,0.9-2.4c0.9-1,2.2-1,2.9-1c1.5,0,2.3,0.5,2.8,0.9s1,1.2,1,2.4c0,0.6-0.1,1.3-0.4,1.9c-0.2,0.5-0.7,1.2-1.1,1.7
			l-2.1,2.8L303.1,505.9z M304.2,498.5c-0.2,0.2-0.5,0.5-0.5,1.2c0,0.6,0.2,1,0.5,1.2c0.3,0.3,0.7,0.4,1.1,0.4
			c0.5,0,0.9-0.2,1.1-0.4c0.2-0.2,0.5-0.6,0.5-1.2c0-0.4-0.1-0.8-0.5-1.1c-0.2-0.2-0.6-0.4-1.1-0.4
			C304.9,498.1,304.5,498.3,304.2,498.5z"/>
		<path class="st0" d="M321.1,498.6c-0.3-0.3-0.7-0.6-1.2-0.9c-0.5-0.2-1.1-0.4-1.6-0.4c-2.2,0-3.8,1.7-3.8,3.9
			c0,2.5,2.1,3.8,3.8,3.8c0.6,0,1.2-0.2,1.7-0.4c0.5-0.3,0.9-0.6,1.1-0.8v1.3c-1,0.7-2.1,0.9-2.8,0.9c-2.8,0-4.8-2.1-4.8-4.8
			c0-2.8,2.1-4.9,4.9-4.9c0.6,0,1.6,0.1,2.8,0.9v1.4H321.1z"/>
		<path class="st0" d="M323.8,495.7v10.2h-1v-10.2H323.8z"/>
		<path class="st0" d="M326.7,503.5c0,0.4,0,0.9,0.3,1.2c0.2,0.2,0.5,0.4,1,0.4s0.9-0.3,1-0.4c0.3-0.4,0.3-0.8,0.3-1.2v-3.4h1v3.5
			c0,0.7-0.1,1.2-0.5,1.8c-0.5,0.5-1.2,0.7-1.8,0.7s-1.3-0.2-1.8-0.7s-0.5-1-0.5-1.8v-3.5h1V503.5z"/>
		<path class="st0" d="M334.6,501.4c-0.1-0.3-0.4-0.6-0.8-0.6s-0.7,0.2-0.7,0.7c0,0.4,0.3,0.5,0.9,0.8c0.8,0.4,1.2,0.6,1.5,0.9
			s0.3,0.6,0.3,0.9c0,1.2-0.9,1.9-2,1.9c-0.2,0-1.5,0-2-1.5l0.9-0.4c0.1,0.3,0.4,1,1.2,1c0.7,0,1-0.5,1-0.9c0-0.5-0.4-0.7-0.9-1
			c-0.7-0.3-1.1-0.5-1.4-0.9c-0.2-0.3-0.3-0.6-0.3-0.9c0-1,0.7-1.6,1.7-1.6c0.3,0,1.1,0.1,1.6,1.1L334.6,501.4z"/>
		<path class="st0" d="M338.2,501v4.9h-1V501h-0.6v-0.9h0.6V498h1v2.1h1v0.9H338.2z"/>
		<path class="st0" d="M345.3,504.4c-0.2,0.3-0.4,0.7-0.7,0.9c-0.5,0.5-1.2,0.7-1.9,0.7c-1.4,0-2.9-0.9-2.9-3c0-1.7,1.1-3.1,2.8-3.1
			c1.1,0,1.8,0.6,2.2,1.1c0.4,0.5,0.6,1.4,0.5,2.2h-4.5c0,1.2,0.8,2,1.8,2c0.5,0,0.9-0.1,1.2-0.4c0.3-0.2,0.5-0.5,0.6-0.8
			L345.3,504.4z M344.3,502.3c-0.2-0.9-0.9-1.5-1.7-1.5c-0.9,0-1.6,0.6-1.7,1.5H344.3z"/>
		<path class="st0" d="M346.8,500.1h1v0.6c0.1-0.2,0.5-0.8,1.3-0.8c0.3,0,0.6,0.1,0.9,0.2l-0.5,0.9c-0.2-0.2-0.4-0.2-0.6-0.2
			c-0.4,0-0.7,0.2-0.8,0.4c-0.2,0.2-0.3,0.6-0.3,1.6v3.1h-1V500.1z"/>
		<path class="st0" d="M353.2,501.4c-0.1-0.3-0.4-0.6-0.8-0.6s-0.7,0.2-0.7,0.7c0,0.4,0.3,0.5,0.9,0.8c0.8,0.4,1.2,0.6,1.5,0.9
			s0.3,0.6,0.3,0.9c0,1.2-0.9,1.9-2,1.9c-0.2,0-1.5,0-2-1.5l0.9-0.4c0.1,0.3,0.4,1,1.2,1c0.7,0,1-0.5,1-0.9c0-0.5-0.4-0.7-0.9-1
			c-0.7-0.3-1.1-0.5-1.4-0.9c-0.2-0.3-0.3-0.6-0.3-0.9c0-1,0.7-1.6,1.7-1.6c0.3,0,1.1,0.1,1.6,1.1L353.2,501.4z"/>
		<path class="st0" d="M304.3,515.2H303v-1.8h3.5v9.3h-2.2V515.2z"/>
		<path class="st0" d="M309.8,520.5l1.8,0.1l-2.1,3.9l-1.3-0.1L309.8,520.5z"/>
		<path class="st0" d="M317.7,515.2h-4.1v-1.8h7.4l-5.5,9.6l-2-0.5L317.7,515.2z"/>
		<path class="st0" d="M322.1,522.1c-0.7-0.6-0.9-1.4-0.9-2c0-0.8,0.4-1.3,0.6-1.6c0.3-0.3,0.8-0.6,1.2-0.7
			c-0.2-0.1-0.6-0.3-0.9-0.6c-0.4-0.4-0.6-0.9-0.6-1.5c0-0.8,0.3-1.3,0.7-1.7c0.7-0.7,1.6-0.9,2.4-0.9s1.7,0.2,2.4,0.9
			c0.4,0.4,0.7,1,0.7,1.7c0,0.6-0.2,1.1-0.6,1.5c-0.3,0.3-0.6,0.5-0.9,0.6c0.4,0.1,0.9,0.4,1.2,0.7c0.3,0.3,0.6,0.8,0.6,1.6
			c0,0.6-0.2,1.4-0.9,2c-0.8,0.7-1.7,0.8-2.6,0.8C323.8,522.9,322.9,522.9,322.1,522.1z M323.8,519c-0.2,0.2-0.4,0.6-0.4,0.9
			c0,0.3,0.1,0.7,0.4,0.9c0.2,0.2,0.6,0.3,0.9,0.3s0.7-0.1,0.9-0.3c0.2-0.2,0.4-0.5,0.4-1c0-0.4-0.2-0.7-0.4-0.9
			c-0.2-0.2-0.6-0.3-0.9-0.3C324.3,518.7,324,518.8,323.8,519z M323.9,515c-0.2,0.2-0.4,0.5-0.4,0.8c0,0.4,0.2,0.6,0.4,0.8
			c0.2,0.2,0.5,0.3,0.8,0.3s0.6-0.1,0.8-0.3c0.2-0.2,0.4-0.5,0.4-0.8c0-0.5-0.3-0.7-0.4-0.8c-0.2-0.2-0.5-0.3-0.8-0.3
			S324.1,514.8,323.9,515z"/>
		<path class="st0" d="M335.8,515.2h-3.2l-0.3,1.2c0.2,0,0.5-0.1,0.8-0.1c1.1,0,1.9,0.4,2.4,0.9c0.4,0.4,0.9,1.1,0.9,2.3
			s-0.5,2-1,2.4c-0.9,0.8-1.9,1-2.8,1s-1.9-0.1-3.1-1l0.5-2c0.3,0.3,0.6,0.6,0.9,0.8c0.4,0.3,0.9,0.4,1.4,0.4s1-0.1,1.3-0.4
			c0.3-0.2,0.5-0.6,0.5-1.2c0-0.6-0.3-0.9-0.5-1.1c-0.1-0.1-0.6-0.5-1.6-0.5c-0.8,0-1.4,0.2-1.9,0.5l1-5.1h4.6v1.9L335.8,515.2
			L335.8,515.2z"/>
		<path class="st0" d="M342.8,513.3v8.4h2.6v1h-3.6v-9.3h1V513.3z"/>
		<path class="st0" d="M346.1,519.8c0-1.8,1.3-3.1,3.1-3.1s3.1,1.3,3.1,3.1s-1.3,3.1-3.1,3.1S346.1,521.6,346.1,519.8z M347.2,519.8
			c0,1.4,1,2.2,2,2.2c1.1,0,2-0.7,2-2.2c0-1.4-1-2.2-2-2.2S347.2,518.4,347.2,519.8z"/>
		<path class="st0" d="M354.9,517.8v4.9h-1v-4.9h-0.6v-0.9h0.6v-2.1h1v2.1h1v0.9H354.9z"/>
		<path class="st0" d="M362,521.2c-0.2,0.3-0.4,0.7-0.7,0.9c-0.5,0.5-1.2,0.7-1.9,0.7c-1.4,0-2.9-0.9-2.9-3c0-1.7,1.1-3.1,2.8-3.1
			c1.1,0,1.8,0.6,2.2,1.1c0.4,0.5,0.6,1.4,0.5,2.2h-4.5c0,1.2,0.8,2,1.8,2c0.5,0,0.9-0.1,1.2-0.4c0.3-0.2,0.5-0.5,0.6-0.8L362,521.2
			z M361,519.1c-0.2-0.9-0.9-1.5-1.7-1.5c-0.9,0-1.6,0.6-1.7,1.5H361z"/>
		<path class="st0" d="M366,518.2c-0.1-0.3-0.4-0.6-0.8-0.6s-0.7,0.2-0.7,0.7c0,0.4,0.3,0.5,0.9,0.8c0.8,0.4,1.2,0.6,1.5,0.9
			c0.3,0.3,0.3,0.6,0.3,0.9c0,1.2-0.9,1.9-2,1.9c-0.2,0-1.5,0-2-1.5l0.9-0.4c0.1,0.3,0.4,1,1.2,1c0.7,0,1-0.5,1-0.9
			c0-0.5-0.4-0.7-0.9-1c-0.7-0.3-1.1-0.5-1.4-0.9c-0.2-0.3-0.3-0.6-0.3-0.9c0-1,0.7-1.6,1.7-1.6c0.3,0,1.1,0.1,1.6,1.1L366,518.2z"
			/>
		<path class="st0" d="M305.1,530.1c1.2,0,2.5,0.2,3.7,1.3c0.8,0.8,1.3,1.9,1.3,3.3c0,1.5-0.5,2.5-1.3,3.3c-1.3,1.3-2.9,1.4-3.7,1.4
			h-3v-9.3H305.1z M304.3,537.7h0.6c0.4,0,1.4,0,2.1-0.6c0.5-0.4,0.9-1.2,0.9-2.3c0-1-0.4-1.7-0.8-2c-0.7-0.7-1.6-0.8-2.3-0.8h-0.6
			L304.3,537.7L304.3,537.7z"/>
		<path class="st0" d="M317.9,536.7h-4.7c0,0.3,0.1,0.8,0.4,1.1s0.7,0.4,1,0.4s0.6-0.1,0.8-0.2c0,0,0.3-0.2,0.4-0.5l1.9,0.2
			c-0.3,0.9-0.8,1.3-1.2,1.6c-0.6,0.4-1.3,0.5-2,0.5c-0.9,0-1.8-0.2-2.5-0.9c-0.5-0.5-0.9-1.4-0.9-2.4c0-0.9,0.3-1.8,1-2.5
			c0.8-0.8,1.7-0.9,2.4-0.9s1.7,0.1,2.5,0.9c0.7,0.8,0.9,1.8,0.9,2.5L317.9,536.7L317.9,536.7z M316,535.5c0-0.1-0.1-0.4-0.4-0.7
			c-0.2-0.2-0.5-0.3-1-0.3s-0.8,0.2-1,0.4s-0.3,0.4-0.3,0.7h2.7L316,535.5L316,535.5z"/>
		<path class="st0" d="M323,534.8c-0.3-0.2-0.7-0.4-1.1-0.4c-0.2,0-0.4,0.1-0.6,0.2c-0.1,0.1-0.1,0.2-0.1,0.3s0.1,0.2,0.2,0.3
			s0.3,0.1,0.6,0.2l0.5,0.2c0.4,0.1,0.7,0.3,1,0.5c0.4,0.3,0.5,0.7,0.5,1.2c0,0.8-0.4,1.4-0.6,1.6c-0.6,0.6-1.4,0.7-2,0.7
			c-0.8,0-1.8-0.2-2.6-0.9l0.9-1.4c0.2,0.2,0.5,0.4,0.7,0.5c0.3,0.1,0.6,0.2,0.8,0.2c0.1,0,0.4,0,0.6-0.1c0.1-0.1,0.2-0.3,0.2-0.4
			c0-0.1,0-0.3-0.2-0.4c-0.1-0.1-0.3-0.1-0.6-0.2l-0.5-0.2c-0.4-0.1-0.7-0.3-1-0.6s-0.4-0.7-0.4-1.1c0-0.6,0.2-1.1,0.6-1.4
			c0.6-0.5,1.3-0.6,1.9-0.6c0.9,0,1.6,0.2,2.1,0.5L323,534.8z"/>
		<path class="st0" d="M332,539.5h-2v-0.8c-0.3,0.4-0.9,1-2,1c-0.9,0-1.6-0.3-2.1-0.9c-0.6-0.6-1-1.5-1-2.5s0.4-1.9,1-2.5
			c0.5-0.5,1.3-0.8,2.2-0.8c0.7,0,1.4,0.2,1.9,0.9v-4.7h2V539.5z M327.5,535.2c-0.3,0.3-0.5,0.7-0.5,1.2s0.2,0.9,0.5,1.1
			c0.3,0.3,0.7,0.4,1,0.4c0.4,0,0.8-0.2,1.1-0.5c0.2-0.2,0.5-0.6,0.5-1.1s-0.2-0.9-0.4-1.1c-0.3-0.3-0.7-0.5-1.1-0.5
			C328.1,534.8,327.8,534.9,327.5,535.2z"/>
		<path class="st0" d="M340,536.7h-4.7c0,0.3,0.1,0.8,0.4,1.1s0.7,0.4,1,0.4s0.6-0.1,0.8-0.2c0,0,0.3-0.2,0.4-0.5l1.9,0.2
			c-0.3,0.9-0.8,1.3-1.2,1.6c-0.6,0.4-1.3,0.5-2,0.5c-0.9,0-1.8-0.2-2.5-0.9c-0.5-0.5-0.9-1.4-0.9-2.4c0-0.9,0.3-1.8,1-2.5
			c0.8-0.8,1.7-0.9,2.4-0.9s1.7,0.1,2.5,0.9c0.7,0.8,0.9,1.8,0.9,2.5L340,536.7L340,536.7z M338.2,535.5c0-0.1-0.1-0.4-0.4-0.7
			c-0.2-0.2-0.5-0.3-1-0.3s-0.8,0.2-1,0.4s-0.3,0.4-0.3,0.7h2.7L338.2,535.5L338.2,535.5z"/>
		<path class="st0" d="M347.5,531.1h-1.6l0.5-1h2.1v9.3h-1V531.1z"/>
		<path class="st0" d="M350.3,539.5l3.4-3.9c0.2-0.3,0.9-1,1.1-1.4c0.4-0.6,0.5-1.1,0.5-1.4c0-1.1-0.8-1.8-1.9-1.8
			c-0.7,0-1.2,0.3-1.6,0.8c-0.2,0.3-0.3,0.6-0.3,1.1h-1c0-0.9,0.3-1.5,0.7-1.9c0.4-0.4,1-1,2.2-1c1.7,0,2.9,1.2,2.9,2.8
			c0,0.6-0.2,1.2-0.7,2c-0.4,0.5-0.9,1.1-1.3,1.6l-1.9,2.2h4v1L350.3,539.5L350.3,539.5z"/>
		<path class="st0" d="M363.9,536.9c0,1.5-1,2.7-2.9,2.7s-2.9-1.3-2.9-2.7c0-1,0.5-1.9,1.4-2.3c-0.7-0.4-1.1-1.2-1.1-2
			c0-1.3,0.9-2.6,2.6-2.6s2.6,1.3,2.6,2.6c0,0.9-0.4,1.6-1.1,2C363.4,535.1,363.9,535.9,363.9,536.9z M362.8,536.9
			c0-1.1-0.8-1.8-1.8-1.8c-1.1,0-1.8,0.7-1.8,1.8s0.7,1.8,1.8,1.8C362.1,538.7,362.8,538,362.8,536.9z M362.6,532.6
			c0-1-0.7-1.7-1.6-1.7s-1.6,0.6-1.6,1.7c0,0.9,0.7,1.6,1.6,1.6C361.9,534.2,362.6,533.5,362.6,532.6z"/>
		<path class="st0" d="M365.9,533.7h1v0.6c0.3-0.5,0.8-0.8,1.4-0.8c1,0,1.5,0.7,1.6,0.9c0.6-0.9,1.4-0.9,1.8-0.9
			c1.7,0,1.9,1.4,1.9,2.3v3.7h-1V536c0-0.7-0.1-1.5-1-1.5c-1.2,0-1.3,1.1-1.3,1.8v3.2h-1V536c0-0.4,0-1.6-1.1-1.6s-1.3,1.2-1.3,1.9
			v3.2h-1V533.7z"/>
		<path class="st0" d="M375,534.8l2-2.3c0.1-0.2,0.5-0.6,0.6-0.8c0.2-0.4,0.3-0.6,0.3-0.8c0-0.6-0.4-1.1-1.1-1.1
			c-0.4,0-0.7,0.2-0.9,0.5c-0.1,0.2-0.2,0.4-0.2,0.6h-0.6c0-0.5,0.2-0.9,0.4-1.1c0.2-0.3,0.6-0.6,1.3-0.6c1,0,1.7,0.7,1.7,1.6
			c0,0.4-0.1,0.7-0.4,1.2c-0.2,0.3-0.5,0.7-0.7,0.9l-1.1,1.3h2.3v0.6L375,534.8L375,534.8z"/>
		<path class="st0" d="M387.9,533.7h1v5.8h-1v-0.8c-0.3,0.4-1,1-2,1c-1.5,0-2.8-1-2.8-3.1c0-2,1.3-3,2.8-3c1.1,0,1.7,0.6,2,1V533.7z
			 M384.1,536.6c0,1.2,0.7,2.2,1.9,2.2c1.2,0,1.9-1,1.9-2.2c0-1.5-1-2.2-1.9-2.2C385,534.4,384.1,535.2,384.1,536.6z"/>
		<path class="st0" d="M398.6,530.5l-2.1,3c0.3-0.1,0.5-0.1,0.8-0.1c1.8,0,3,1.3,3,3.1c0,1.9-1.3,3.2-3.2,3.2
			c-2.2,0-3.2-1.7-3.2-3.2c0-0.3,0.1-1.2,0.8-2.1l3.2-4.4L398.6,530.5z M399.3,536.5c0-1.2-0.9-2.2-2.2-2.2c-1.3,0-2.2,0.9-2.2,2.2
			c0,1.2,0.9,2.2,2.2,2.2S399.3,537.7,399.3,536.5z"/>
		<path class="st0" d="M402.6,538.3c-0.6-0.9-0.9-2.1-0.9-3.4c0-1.3,0.3-2.5,0.9-3.4c0.7-1,1.7-1.4,2.4-1.4c0.7,0,1.7,0.4,2.4,1.4
			c0.6,0.9,0.9,2.1,0.9,3.4c0,1.3-0.3,2.5-0.9,3.4c-0.7,1-1.7,1.4-2.4,1.4C404.3,539.7,403.4,539.3,402.6,538.3z M403.4,532
			c-0.5,0.8-0.7,1.9-0.7,2.8c0,1,0.2,2,0.7,2.8s1.1,1,1.6,1s1.1-0.3,1.6-1c0.5-0.8,0.7-1.9,0.7-2.8c0-1-0.2-2-0.7-2.8s-1.1-1-1.6-1
			C404.6,530.9,403.9,531.2,403.4,532z"/>
		<path class="st0" d="M410.6,538.3c-0.6-0.9-0.9-2.1-0.9-3.4c0-1.3,0.3-2.5,0.9-3.4c0.7-1,1.7-1.4,2.4-1.4c0.7,0,1.7,0.4,2.4,1.4
			c0.6,0.9,0.9,2.1,0.9,3.4c0,1.3-0.3,2.5-0.9,3.4c-0.7,1-1.7,1.4-2.4,1.4C412.2,539.7,411.3,539.3,410.6,538.3z M411.4,532
			c-0.5,0.8-0.7,1.9-0.7,2.8c0,1,0.2,2,0.7,2.8s1.1,1,1.6,1s1.1-0.3,1.6-1c0.5-0.8,0.7-1.9,0.7-2.8c0-1-0.2-2-0.7-2.8s-1.1-1-1.6-1
			C412.5,530.9,411.9,531.2,411.4,532z"/>
		<path class="st0" d="M417.9,533.7h1v0.6c0.3-0.5,0.8-0.8,1.4-0.8c1,0,1.5,0.7,1.6,0.9c0.6-0.9,1.4-0.9,1.8-0.9
			c1.7,0,1.9,1.4,1.9,2.3v3.7h-1V536c0-0.7-0.1-1.5-1-1.5c-1.2,0-1.3,1.1-1.3,1.8v3.2h-1V536c0-0.4,0-1.6-1.1-1.6s-1.3,1.2-1.3,1.9
			v3.2h-1V533.7z"/>
		<path class="st0" d="M427,534.8l2-2.3c0.1-0.2,0.5-0.6,0.6-0.8c0.2-0.4,0.3-0.6,0.3-0.8c0-0.6-0.4-1.1-1.1-1.1
			c-0.4,0-0.7,0.2-0.9,0.5c-0.1,0.2-0.2,0.4-0.2,0.6h-0.6c0-0.5,0.2-0.9,0.4-1.1c0.2-0.3,0.6-0.6,1.3-0.6c1,0,1.7,0.7,1.7,1.6
			c0,0.4-0.1,0.7-0.4,1.2c-0.2,0.3-0.5,0.7-0.7,0.9l-1.1,1.3h2.3v0.6L427,534.8L427,534.8z"/>
	</g>
	<text transform="matrix(0.6969 0.7172 -0.7172 0.6969 121.8111 480.5883)" class="st0 st1 st2">ACCESO</text>
</g>
<g id="fondo_cluster">
	<path class="st3" d="M270.9,404.7l12.9,38.8c0,0,22.9-7.9,32.7-11.3c15.5-5.2,30.9-11.1,30.8-11.1c0,0-1.5-0.9-2.3-3.2
		c-0.8-2.4,0.3-4.5,0.3-4.5s-5.1-5.8-13.4-12.4c-6.7-5.4-15.5-11.2-15.5-11.2s-12.1,7-21.2,9.8C281.8,403.5,270.9,404.7,270.9,404.7
		z"/>
	<g>
		<path class="st0" d="M287.9,427.9h-0.8v0.5h0.7v0.3h-0.7v0.6h0.8v0.4h-1.2v-2.1h1.2V427.9z"/>
		<path class="st0" d="M289.3,427.9v1.7h-0.4v-1.7h-0.5v-0.3h1.3v0.3H289.3z"/>
		<path class="st0" d="M291.5,429.2h-0.8l-0.2,0.4H290l0.9-2.1h0.3l0.9,2.1h-0.4L291.5,429.2z M291.3,428.9l-0.3-0.8l-0.3,0.8H291.3
			z"/>
		<path class="st0" d="M293.2,427.6c0.2,0,0.4,0,0.6,0.2c0.2,0.2,0.2,0.4,0.2,0.5c0,0.1,0,0.3-0.2,0.5c-0.1,0.1-0.3,0.2-0.5,0.2H293
			v0.8h-0.4v-2.1H293.2z M293,428.5h0.2c0.1,0,0.2,0,0.3-0.1c0.1-0.1,0.1-0.2,0.1-0.2c0-0.1-0.1-0.2-0.1-0.2
			c-0.1-0.1-0.2-0.1-0.3-0.1H293V428.5z"/>
		<path class="st0" d="M295.7,429.2h-0.8l-0.2,0.4h-0.4l0.9-2.1h0.3l0.9,2.1h-0.4L295.7,429.2z M295.5,428.9l-0.3-0.8l-0.3,0.8
			H295.5z"/>
		<path class="st0" d="M297.7,428.6c0-0.7,0.4-1.1,0.8-1.1s0.8,0.4,0.8,1.1c0,0.7-0.4,1.1-0.8,1.1S297.7,429.3,297.7,428.6z
			 M298.1,428.6c0,0.5,0.2,0.7,0.4,0.7c0.2,0,0.4-0.2,0.4-0.7c0-0.5-0.2-0.7-0.4-0.7C298.4,427.9,298.1,428.1,298.1,428.6z"/>
		<path class="st0" d="M300.2,427.9h-0.3v-0.3h0.7v2.1h-0.4V427.9z"/>
	</g>
	<g>
		<g>
			<path class="st0" d="M289.3,405.4l1.8,4.4l1.8-4.4h1.4l-2.8,6.6h-0.8l-2.8-6.6H289.3z"/>
			<path class="st0" d="M298.7,406.5h-2.4v1.5h2.3v1.1h-2.3v1.8h2.4v1.1H295v-6.6h3.7V406.5z"/>
			<path class="st0" d="M301.8,405.4c0.9,0,1.4,0.2,1.7,0.5c0.5,0.4,0.7,1,0.7,1.5c0,0.6-0.3,1.2-0.8,1.6c-0.2,0.1-0.4,0.2-0.7,0.3
				l2.1,2.8h-1.6l-1.8-2.7h-0.2v2.7h-1.3v-6.6H301.8z M301.2,408.4h0.4c0.2,0,1.3,0,1.3-1c0-1-1-1-1.2-1h-0.4V408.4z"/>
			<path class="st0" d="M308.8,405.4h0.9l1.8,4.2l1.8-4.2h0.9l1.1,6.6H314l-0.6-4.1l-1.8,4.1h-0.4l-1.7-4.1l-0.7,4.1h-1.3
				L308.8,405.4z"/>
			<path class="st0" d="M320.4,410.6h-2.7l-0.6,1.4h-1.4l2.8-6.6h1l2.8,6.6H321L320.4,410.6z M320,409.6l-0.9-2.4l-0.9,2.4H320z
				 M318.3,404.3l1.4-1.4l0.9,0.7l-1.7,1.2L318.3,404.3z"/>
			<path class="st0" d="M326.2,406.9c-0.4-0.5-0.8-0.6-1.1-0.6c-0.7,0-0.9,0.4-0.9,0.8c0,0.2,0,0.3,0.2,0.4c0.2,0.1,0.4,0.2,0.8,0.4
				c0.5,0.2,1,0.4,1.3,0.7c0.3,0.3,0.6,0.7,0.6,1.4c0,1.3-0.9,2.2-2.3,2.2c-1.2,0-1.9-0.7-2.3-1.2l0.8-0.8c0.3,0.6,0.9,0.9,1.4,0.9
				c0.6,0,1-0.4,1-0.9c0-0.2-0.1-0.4-0.3-0.6c-0.2-0.2-0.6-0.4-1-0.5c-0.3-0.1-0.8-0.3-1.1-0.6c-0.2-0.2-0.5-0.6-0.5-1.2
				c0-1,0.7-1.9,2.1-1.9c0.4,0,1.2,0.1,1.9,0.8L326.2,406.9z"/>
		</g>
	</g>
	<g>
		<g>
			<path class="st0" d="M295.6,414.8v5.9h1.8v0.7h-2.6v-6.6H295.6z"/>
			<path class="st0" d="M303,419.5h-2.8l-0.8,1.9h-0.8l3-6.9l3,6.9h-0.8L303,419.5z M302.8,418.8l-1.1-2.6l-1.1,2.6H302.8z"/>
			<path class="st0" d="M309.7,418.1h2.7v0.2c0,0.7-0.2,1.5-0.6,2.1c-0.2,0.3-0.9,1.2-2.5,1.2c-2,0-3.4-1.5-3.4-3.4
				c0-1.9,1.5-3.4,3.4-3.4c0.6,0,1.4,0.2,2,0.7c0.3,0.2,0.6,0.5,0.8,0.8l-0.5,0.5c-0.2-0.3-0.4-0.5-0.6-0.7
				c-0.3-0.3-0.8-0.6-1.6-0.6c-1.6,0-2.7,1.2-2.7,2.7c0,1.8,1.4,2.7,2.7,2.7c0.9,0,1.6-0.4,2-1.1c0.1-0.2,0.2-0.5,0.3-0.9h-2V418.1z
				"/>
			<path class="st0" d="M314.5,418.1c0-2,1.5-3.4,3.4-3.4s3.4,1.4,3.4,3.4c0,2-1.5,3.4-3.4,3.4C316,421.5,314.5,420.1,314.5,418.1z
				 M315.2,418.1c0,1.5,1.2,2.7,2.7,2.7c1.5,0,2.7-1.2,2.7-2.7s-1.2-2.7-2.7-2.7C316.4,415.4,315.2,416.6,315.2,418.1z"/>
		</g>
	</g>
	<path class="st3" d="M306.4,244l-0.1,33.6h3.8l-0.2,24.6c0,0,0.5,7.9,0.8,9.6c0.3,2.1,1.6,6.6,1.6,8.1c0,1.9,0.5,9.7,0.5,9.7
		l0.1,2.4c0,0,1.1,1.3,2.1,1.6s4.1-0.9,9.3-2.9s23.1-10.1,33.6-18.4c10.4-8.3,12.4-10.3,14-14c1.6-3.7,1-28.8,1-28.8v-22.8
		c0,0-2.8-1.5-2.8-4.1c0.1-3.9,2.9-5.2,2.9-5.2L306.4,244z"/>
	<g>
		<path class="st0" d="M321.2,274l1.8,4.4l1.8-4.4h1.4l-2.8,6.6h-0.8l-2.8-6.6H321.2z"/>
		<path class="st0" d="M330.6,275.1h-2.4v1.5h2.3v1.1h-2.3v1.8h2.4v1.1h-3.7V274h3.7V275.1z"/>
		<path class="st0" d="M333.7,274c0.9,0,1.4,0.2,1.7,0.5c0.5,0.4,0.7,1,0.7,1.5c0,0.6-0.3,1.2-0.8,1.6c-0.2,0.1-0.4,0.2-0.7,0.3
			l2.1,2.8H335l-1.8-2.6h-0.2v2.6h-1.3V274H333.7z M333.1,277.1h0.4c0.2,0,1.3,0,1.3-1c0-1-1-1-1.2-1h-0.4V277.1z"/>
		<path class="st0" d="M340.7,274h0.9l1.8,4.2l1.8-4.2h0.9l1.1,6.6h-1.3l-0.6-4.1l-1.8,4.1h-0.4l-1.7-4.1l-0.7,4.1h-1.3L340.7,274z"
			/>
		<path class="st0" d="M352.3,279.2h-2.7l-0.6,1.4h-1.4l2.8-6.6h1l2.8,6.6h-1.4L352.3,279.2z M351.9,278.2l-0.9-2.4l-0.9,2.4H351.9z
			 M350.2,272.9l1.4-1.4l0.9,0.7l-1.7,1.2L350.2,272.9z"/>
		<path class="st0" d="M358.1,275.5c-0.4-0.5-0.8-0.6-1.1-0.6c-0.7,0-0.9,0.4-0.9,0.8c0,0.2,0,0.3,0.2,0.4c0.2,0.1,0.4,0.2,0.8,0.4
			c0.5,0.2,1,0.4,1.3,0.7c0.3,0.3,0.6,0.7,0.6,1.4c0,1.3-0.9,2.2-2.3,2.2c-1.2,0-1.9-0.7-2.3-1.2l0.8-0.8c0.3,0.6,0.9,0.9,1.4,0.9
			c0.6,0,1-0.4,1-0.9c0-0.2-0.1-0.4-0.3-0.6c-0.2-0.2-0.6-0.4-1-0.5c-0.3-0.1-0.8-0.3-1.1-0.6c-0.2-0.2-0.5-0.6-0.5-1.2
			c0-1,0.7-1.9,2.1-1.9c0.4,0,1.2,0.1,1.9,0.8L358.1,275.5z"/>
	</g>
	<g>
		<path class="st0" d="M329.9,284.2c-0.1-0.2-0.2-0.4-0.4-0.5c-0.1-0.1-0.4-0.2-0.7-0.2c-0.7,0-1.1,0.4-1.1,1c0,0.3,0.1,0.4,0.2,0.6
			c0.2,0.2,0.4,0.3,0.7,0.4l0.6,0.3c0.4,0.2,0.7,0.3,1,0.6c0.3,0.3,0.5,0.7,0.5,1.2c0,1.2-0.9,2-2.1,2c-0.4,0-1-0.1-1.4-0.5
			c-0.3-0.3-0.5-0.8-0.6-1.2l0.7-0.2c0,0.3,0.2,0.6,0.4,0.8c0.3,0.3,0.6,0.4,0.9,0.4c0.9,0,1.3-0.6,1.3-1.3c0-0.3-0.1-0.6-0.3-0.8
			c-0.2-0.2-0.4-0.3-0.8-0.5l-0.6-0.3c-0.3-0.1-0.6-0.3-0.9-0.5c-0.3-0.3-0.5-0.6-0.5-1.1c0-1,0.8-1.7,1.8-1.7
			c0.4,0,0.7,0.1,1.1,0.3c0.3,0.2,0.5,0.4,0.6,0.7L329.9,284.2z"/>
		<path class="st0" d="M336.5,283.6h-2.7v2h2.6v0.7h-2.6v2.6h2.7v0.7h-3.4v-6.6h3.4V283.6z"/>
		<path class="st0" d="M339.6,282.9v5.9h1.8v0.7h-2.6v-6.6H339.6z"/>
		<path class="st0" d="M343.1,282.9l1.9,5l1.9-5h0.8l-2.7,7l-2.7-7H343.1z"/>
		<path class="st0" d="M352.7,287.6h-2.8l-0.8,1.9h-0.8l3-6.9l3,6.9h-0.8L352.7,287.6z M352.4,286.9l-1.1-2.6l-1.1,2.6H352.4z"/>
	</g>
	<path class="st3" d="M366.2,311.2l0,6.3l11.1,0.2l0.1,45.4c0,0-14.6,2.2-19.8,3.3c-6,1.3-18.3,5.1-18.3,5.1l0.1-5.6h-5
		c0,0,0.9-8.4-4-17.3c-4.6-8.5-11.2-11.3-11.2-11.3s15.5-5.8,24.5-10.8C353.8,320.7,366.2,311.2,366.2,311.2z"/>
	<g>
		<path class="st0" d="M340.6,338.4l1.5,3.7l1.5-3.7h1.2l-2.3,5.5h-0.6l-2.3-5.5H340.6z"/>
		<path class="st0" d="M348.3,339.4h-2v1.2h1.9v0.9h-1.9v1.5h2v0.9h-3v-5.5h3V339.4z"/>
		<path class="st0" d="M350.9,338.4c0.8,0,1.1,0.2,1.4,0.4c0.4,0.4,0.5,0.8,0.5,1.2c0,0.5-0.2,1-0.6,1.3c-0.1,0.1-0.3,0.2-0.6,0.2
			l1.7,2.3H352l-1.5-2.2h-0.1v2.2h-1.1v-5.5H350.9z M350.4,341h0.3c0.2,0,1.1,0,1.1-0.8c0-0.8-0.8-0.8-1-0.8h-0.3V341z"/>
		<path class="st0" d="M356.7,338.4h0.8l1.5,3.5l1.5-3.5h0.8l0.9,5.5h-1.1l-0.5-3.4l-1.5,3.4h-0.4l-1.4-3.4l-0.6,3.4h-1.1
			L356.7,338.4z"/>
		<path class="st0" d="M366.4,342.8h-2.2l-0.5,1.1h-1.2l2.4-5.5h0.8l2.3,5.5h-1.1L366.4,342.8z M366,341.9l-0.8-2l-0.8,2H366z
			 M364.6,337.5l1.1-1.2l0.7,0.6l-1.4,1L364.6,337.5z"/>
		<path class="st0" d="M371.1,339.7c-0.3-0.4-0.7-0.5-0.9-0.5c-0.6,0-0.8,0.4-0.8,0.6c0,0.1,0,0.3,0.2,0.4c0.1,0.1,0.3,0.2,0.7,0.3
			c0.4,0.1,0.8,0.3,1.1,0.5c0.2,0.2,0.5,0.6,0.5,1.1c0,1.1-0.8,1.8-1.9,1.8c-1,0-1.6-0.6-1.9-1l0.7-0.7c0.3,0.5,0.8,0.7,1.1,0.7
			c0.5,0,0.8-0.3,0.8-0.8c0-0.2-0.1-0.4-0.2-0.5c-0.2-0.2-0.5-0.3-0.8-0.4c-0.3-0.1-0.6-0.2-0.9-0.5c-0.2-0.2-0.4-0.5-0.4-1
			c0-0.8,0.5-1.6,1.8-1.6c0.3,0,1,0.1,1.6,0.6L371.1,339.7z"/>
	</g>
	<g>
		<path class="st0" d="M341,349.8l0.7-4.3l1.6,3.4l1.6-3.4l0.6,4.3H345l-0.4-2.8l-1.4,3l-1.4-3l-0.4,2.8H341z"/>
		<path class="st0" d="M349.2,348.6h-1.7l-0.5,1.1h-0.5l1.9-4.2l1.8,4.2h-0.5L349.2,348.6z M349,348.2l-0.7-1.6l-0.7,1.6H349z"/>
		<path class="st0" d="M351.4,349.8v-4.2l3.1,3.3v-3.1h0.4v4.2l-3.1-3.3v3.1H351.4z"/>
		<path class="st0" d="M358.7,347.8h1.7v0.1c0,0.4-0.1,0.9-0.4,1.3c-0.1,0.2-0.6,0.7-1.5,0.7c-1.2,0-2.1-0.9-2.1-2.1
			c0-1.2,0.9-2.1,2.1-2.1c0.4,0,0.8,0.1,1.2,0.4c0.2,0.1,0.4,0.3,0.5,0.5l-0.3,0.3c-0.1-0.2-0.2-0.3-0.4-0.4c-0.2-0.2-0.5-0.3-1-0.3
			c-1,0-1.7,0.7-1.7,1.7c0,1.1,0.9,1.7,1.6,1.7c0.5,0,1-0.3,1.2-0.7c0.1-0.1,0.2-0.3,0.2-0.6h-1.2V347.8z"/>
		<path class="st0" d="M362.2,345.7v3.6h1.1v0.4h-1.6v-4H362.2z"/>
		<path class="st0" d="M366.8,348.6h-1.7l-0.5,1.1h-0.5l1.9-4.2l1.8,4.2h-0.5L366.8,348.6z M366.6,348.2l-0.7-1.6l-0.7,1.6H366.6z"
			/>
		<path class="st0" d="M369.6,345.7c0.3,0,0.7,0,1,0.2c0.2,0.2,0.4,0.5,0.4,0.9c0,0.6-0.4,1.1-1,1.1l1.3,1.8h-0.5l-1.2-1.8h-0.1v1.8
			h-0.4v-4H369.6z M369.4,347.6h0.3c0.6,0,0.9-0.3,0.9-0.7c0-0.2-0.1-0.4-0.3-0.6c-0.2-0.1-0.4-0.1-0.6-0.1h-0.3V347.6z"/>
	</g>
	<g>
		<g>
			<path class="st0" d="M261.1,336.8h-1.2l-0.3,0.8h-0.3l1.3-3l1.3,3h-0.3L261.1,336.8z M260.9,336.5l-0.5-1.1l-0.5,1.1H260.9z"/>
			<path class="st0" d="M263,334.8c0.2,0,0.5,0,0.7,0.2c0.2,0.1,0.3,0.3,0.3,0.6c0,0.4-0.3,0.7-0.7,0.8l0.9,1.3h-0.4l-0.9-1.2h-0.1
				v1.2h-0.3v-2.8H263z M262.9,336.1h0.2c0.4,0,0.6-0.2,0.6-0.5c0-0.2,0-0.3-0.2-0.4c-0.1-0.1-0.3-0.1-0.4-0.1h-0.2V336.1z"/>
			<path class="st0" d="M265.6,334.8c0.2,0,0.5,0,0.7,0.2c0.2,0.1,0.3,0.3,0.3,0.6c0,0.4-0.3,0.7-0.7,0.8l0.9,1.3h-0.4l-0.9-1.2
				h-0.1v1.2h-0.3v-2.8H265.6z M265.4,336.1h0.2c0.4,0,0.6-0.2,0.6-0.5c0-0.2,0-0.3-0.2-0.4c-0.1-0.1-0.3-0.1-0.4-0.1h-0.2V336.1z"
				/>
			<path class="st0" d="M269.1,335.1H268v0.8h1.1v0.3H268v1.1h1.1v0.3h-1.5v-2.8h1.5V335.1z"/>
			<path class="st0" d="M272.3,335.4c-0.1-0.1-0.2-0.2-0.4-0.3c-0.1-0.1-0.3-0.1-0.5-0.1c-0.7,0-1.1,0.5-1.1,1.2
				c0,0.8,0.6,1.1,1.1,1.1c0.2,0,0.4-0.1,0.5-0.1c0.2-0.1,0.3-0.2,0.3-0.2v0.4c-0.3,0.2-0.6,0.3-0.8,0.3c-0.8,0-1.5-0.6-1.5-1.5
				c0-0.8,0.6-1.5,1.5-1.5c0.2,0,0.5,0,0.8,0.3V335.4z"/>
			<path class="st0" d="M273.6,334.8v2.8h-0.3v-2.8H273.6z"/>
			<path class="st0" d="M276,335.1h-1v0.8h0.9v0.3H275v1.4h-0.3v-2.8h1.3V335.1z"/>
			<path class="st0" d="M278.4,335.1h-1.1v0.8h1.1v0.3h-1.1v1.1h1.1v0.3H277v-2.8h1.5V335.1z"/>
		</g>
	</g>
</g>
<g id="Amenidades">
	<circle class="st4" cx="339.6" cy="369.9" r="8.4"/>
	<circle class="st4" cx="272.6" cy="359.6" r="8.4"/>
	<ellipse class="st4" cx="302.4" cy="365.8" rx="8.4" ry="8.6"/>
	<circle class="st4" cx="330.7" cy="351.8" r="8.4"/>
	<circle class="st4" cx="301.6" cy="388.2" r="8.4"/>
	<circle class="st4" cx="267.1" cy="392.7" r="8.4"/>
	<circle class="st4" cx="245.1" cy="390.7" r="8.4"/>
	<circle class="st4" cx="243.7" cy="405.7" r="8.4"/>
	<circle class="st4" cx="209" cy="427.9" r="8.4"/>
	<circle class="st4" cx="185.5" cy="441.7" r="8.4"/>
	<circle class="st4" cx="144.1" cy="435" r="8.4"/>
	<circle class="st4" cx="373.3" cy="313.3" r="8.4"/>
	<circle class="st4" cx="389.9" cy="267.7" r="8.4"/>
	<circle class="st4" cx="337.6" cy="245.9" r="8.4"/>
	<circle class="st4" cx="259" cy="377.9" r="8.4"/>
	<circle class="st4" cx="326.7" cy="219.1" r="8.4"/>
	<circle class="st4" cx="86.3" cy="243.4" r="8.4"/>
	<circle class="st4" cx="85.9" cy="418.6" r="8.4"/>
	<circle class="st4" cx="124.5" cy="419.4" r="8.4"/>
	<circle class="st4" cx="145" cy="414.8" r="8.4"/>
	<circle class="st4" cx="87.3" cy="440.6" r="8.4"/>
	<circle class="st4" cx="113.6" cy="468.4" r="8.4"/>
	<g>
		<rect x="138" y="466.7" class="st0" width="39.1" height="10.1"/>
		<g>
			<path class="st5" d="M143.7,470.5c-0.4-0.3-0.7-0.3-0.8-0.3c-0.2,0-0.3,0-0.5,0.2c-0.1,0.1-0.1,0.2-0.1,0.3c0,0.1,0,0.2,0.1,0.3
				c0.1,0.1,0.3,0.2,0.6,0.3l0.4,0.1c0.2,0.1,0.5,0.2,0.7,0.4c0.3,0.3,0.4,0.6,0.4,0.9c0,0.5-0.2,0.9-0.4,1.2
				c-0.4,0.4-1,0.5-1.4,0.5c-0.3,0-0.6-0.1-1-0.2c-0.2-0.1-0.5-0.3-0.7-0.5l0.6-0.8c0.1,0.1,0.3,0.3,0.4,0.4
				c0.2,0.1,0.4,0.2,0.6,0.2c0.1,0,0.3,0,0.5-0.2c0.1-0.1,0.2-0.2,0.2-0.4c0-0.2-0.1-0.3-0.2-0.3c-0.1-0.1-0.4-0.2-0.6-0.3l-0.4-0.1
				c-0.2-0.1-0.5-0.2-0.7-0.4c-0.3-0.3-0.3-0.6-0.3-0.8c0-0.4,0.1-0.8,0.4-1.1c0.3-0.3,0.7-0.4,1.2-0.4c0.3,0,0.9,0.1,1.4,0.5
				L143.7,470.5z"/>
			<path class="st5" d="M149.4,469.9c0.5,0.4,0.7,1.1,0.7,1.8c0,0.6-0.2,1.3-0.7,1.8c-0.4,0.4-1.1,0.7-1.9,0.7
				c-0.9,0-1.5-0.4-1.9-0.7c-0.5-0.4-0.7-1.1-0.7-1.8c0-0.7,0.3-1.4,0.7-1.8c0.3-0.3,0.9-0.7,1.9-0.7
				C148.3,469.2,148.9,469.4,149.4,469.9z M146.5,470.6c-0.2,0.2-0.4,0.6-0.4,1.1c0,0.4,0.1,0.8,0.4,1.1c0.3,0.3,0.7,0.4,1,0.4
				c0.5,0,0.8-0.2,1.1-0.4c0.2-0.2,0.4-0.5,0.4-1.1c0-0.5-0.2-0.9-0.4-1.1s-0.6-0.4-1.1-0.4C147.1,470.2,146.8,470.4,146.5,470.6z"
				/>
			<path class="st5" d="M155,472.2c0,0.5-0.1,1-0.5,1.5c-0.5,0.5-1,0.5-1.5,0.5s-1-0.1-1.5-0.5c-0.5-0.5-0.5-1.1-0.5-1.5v-2.8h1.1
				v2.8c0,0.2,0,0.6,0.3,0.8c0.2,0.2,0.5,0.3,0.7,0.3s0.5,0,0.7-0.3c0.2-0.2,0.3-0.6,0.3-0.8v-2.8h1.1v2.8H155z"/>
			<path class="st5" d="M157.2,469.3v3.9h1.5v0.9h-2.6v-4.8H157.2z"/>
			<path class="st5" d="M165.3,469.9c0.5,0.4,0.7,1.1,0.7,1.8c0,0.6-0.2,1.3-0.7,1.8c-0.4,0.4-1.1,0.7-1.9,0.7
				c-0.9,0-1.5-0.4-1.9-0.7c-0.5-0.4-0.7-1.1-0.7-1.8c0-0.7,0.3-1.4,0.7-1.8c0.3-0.3,0.9-0.7,1.9-0.7
				C164.2,469.2,164.8,469.4,165.3,469.9z M162.3,470.6c-0.2,0.2-0.4,0.6-0.4,1.1c0,0.4,0.1,0.8,0.4,1.1c0.3,0.3,0.7,0.4,1,0.4
				c0.5,0,0.8-0.2,1.1-0.4c0.2-0.2,0.4-0.5,0.4-1.1c0-0.5-0.2-0.9-0.4-1.1s-0.6-0.4-1.1-0.4C163,470.2,162.6,470.4,162.3,470.6z"/>
			<path class="st5" d="M170.9,472.2c0,0.5-0.1,1-0.5,1.5c-0.5,0.5-1,0.5-1.5,0.5s-1-0.1-1.5-0.5c-0.5-0.5-0.5-1.1-0.5-1.5v-2.8h1.1
				v2.8c0,0.2,0,0.6,0.3,0.8c0.2,0.2,0.5,0.3,0.7,0.3s0.5,0,0.7-0.3c0.2-0.2,0.3-0.6,0.3-0.8v-2.8h1.1v2.8H170.9z"/>
			<path class="st5" d="M173.6,470.3v3.9h-1.1v-3.9h-1v-0.9h3.2v0.9H173.6z"/>
		</g>
	</g>
	<g>
		<rect x="219.7" y="438.3" class="st0" width="39.1" height="10.1"/>
		<g>
			<path class="st5" d="M225.4,442.2c-0.4-0.3-0.7-0.3-0.8-0.3c-0.2,0-0.3,0-0.5,0.2c-0.1,0.1-0.1,0.2-0.1,0.3c0,0.1,0,0.2,0.1,0.3
				c0.1,0.1,0.3,0.2,0.6,0.3l0.4,0.1c0.2,0.1,0.5,0.2,0.7,0.4c0.3,0.3,0.4,0.6,0.4,0.9c0,0.5-0.2,0.9-0.4,1.2
				c-0.4,0.4-1,0.5-1.4,0.5c-0.3,0-0.6-0.1-1-0.2c-0.2-0.1-0.5-0.3-0.7-0.5l0.6-0.8c0.1,0.1,0.3,0.3,0.4,0.4
				c0.2,0.1,0.4,0.2,0.6,0.2c0.1,0,0.3,0,0.5-0.2c0.1-0.1,0.2-0.2,0.2-0.4c0-0.2-0.1-0.3-0.2-0.3c-0.1-0.1-0.4-0.2-0.6-0.3l-0.4-0.1
				c-0.2-0.1-0.5-0.2-0.7-0.4c-0.3-0.3-0.3-0.6-0.3-0.8c0-0.4,0.1-0.8,0.4-1.1c0.3-0.3,0.7-0.4,1.2-0.4c0.3,0,0.9,0.1,1.4,0.5
				L225.4,442.2z"/>
			<path class="st5" d="M231.1,441.6c0.5,0.4,0.7,1.1,0.7,1.8c0,0.6-0.2,1.3-0.7,1.8c-0.4,0.4-1.1,0.7-1.9,0.7
				c-0.9,0-1.5-0.4-1.9-0.7c-0.5-0.4-0.7-1.1-0.7-1.8c0-0.7,0.3-1.4,0.7-1.8c0.3-0.3,0.9-0.7,1.9-0.7
				C230,440.9,230.6,441.1,231.1,441.6z M228.2,442.3c-0.2,0.2-0.4,0.6-0.4,1.1c0,0.4,0.1,0.8,0.4,1.1c0.3,0.3,0.7,0.4,1,0.4
				c0.5,0,0.8-0.2,1.1-0.4c0.2-0.2,0.4-0.5,0.4-1.1c0-0.5-0.2-0.9-0.4-1.1s-0.6-0.4-1.1-0.4C228.8,441.9,228.4,442,228.2,442.3z"/>
			<path class="st5" d="M236.7,443.8c0,0.5-0.1,1-0.5,1.5c-0.5,0.5-1,0.5-1.5,0.5s-1-0.1-1.5-0.5c-0.5-0.5-0.5-1.1-0.5-1.5V441h1.1
				v2.8c0,0.2,0,0.6,0.3,0.8c0.2,0.2,0.5,0.3,0.7,0.3s0.5,0,0.7-0.3c0.2-0.2,0.3-0.6,0.3-0.8V441h1.1v2.8H236.7z"/>
			<path class="st5" d="M238.9,441v3.9h1.5v0.9h-2.6V441H238.9z"/>
			<path class="st5" d="M246.9,441.6c0.5,0.4,0.7,1.1,0.7,1.8c0,0.6-0.2,1.3-0.7,1.8c-0.4,0.4-1.1,0.7-1.9,0.7
				c-0.9,0-1.5-0.4-1.9-0.7c-0.5-0.4-0.7-1.1-0.7-1.8c0-0.7,0.3-1.4,0.7-1.8c0.3-0.3,0.9-0.7,1.9-0.7
				C245.8,440.9,246.5,441.1,246.9,441.6z M244,442.3c-0.2,0.2-0.4,0.6-0.4,1.1c0,0.4,0.1,0.8,0.4,1.1c0.3,0.3,0.7,0.4,1,0.4
				c0.5,0,0.8-0.2,1.1-0.4c0.2-0.2,0.4-0.5,0.4-1.1c0-0.5-0.2-0.9-0.4-1.1s-0.6-0.4-1.1-0.4C244.7,441.9,244.3,442,244,442.3z"/>
			<path class="st5" d="M252.6,443.8c0,0.5-0.1,1-0.5,1.5c-0.5,0.5-1,0.5-1.5,0.5s-1-0.1-1.5-0.5c-0.5-0.5-0.5-1.1-0.5-1.5V441h1.1
				v2.8c0,0.2,0,0.6,0.3,0.8c0.2,0.2,0.5,0.3,0.7,0.3s0.5,0,0.7-0.3c0.2-0.2,0.3-0.6,0.3-0.8V441h1.1v2.8H252.6z"/>
			<path class="st5" d="M255.3,441.9v3.9h-1.1v-3.9h-1V441h3.2v0.9H255.3z"/>
		</g>
	</g>
	<g>
		<rect x="357.8" y="382.3" class="st0" width="39.1" height="10.1"/>
		<g>
			<path class="st5" d="M363.5,386.1c-0.4-0.3-0.7-0.3-0.8-0.3c-0.2,0-0.3,0-0.5,0.2c-0.1,0.1-0.1,0.2-0.1,0.3c0,0.1,0,0.2,0.1,0.3
				c0.1,0.1,0.3,0.2,0.6,0.3l0.4,0.1c0.2,0.1,0.5,0.2,0.7,0.4c0.3,0.3,0.4,0.6,0.4,0.9c0,0.5-0.2,0.9-0.4,1.2
				c-0.4,0.4-1,0.5-1.4,0.5c-0.3,0-0.6-0.1-1-0.2c-0.2-0.1-0.5-0.3-0.7-0.5l0.6-0.8c0.1,0.1,0.3,0.3,0.4,0.4
				c0.2,0.1,0.4,0.2,0.6,0.2c0.1,0,0.3,0,0.5-0.2c0.1-0.1,0.2-0.2,0.2-0.4c0-0.2-0.1-0.3-0.2-0.3c-0.1-0.1-0.4-0.2-0.6-0.3l-0.4-0.1
				c-0.2-0.1-0.5-0.2-0.7-0.4c-0.3-0.3-0.3-0.6-0.3-0.8c0-0.4,0.1-0.8,0.4-1.1c0.3-0.3,0.7-0.4,1.2-0.4c0.3,0,0.9,0.1,1.4,0.5
				L363.5,386.1z"/>
			<path class="st5" d="M369.2,385.6c0.5,0.4,0.7,1.1,0.7,1.8c0,0.6-0.2,1.3-0.7,1.8c-0.4,0.4-1.1,0.7-1.9,0.7
				c-0.9,0-1.5-0.4-1.9-0.7c-0.5-0.4-0.8-1.1-0.8-1.8c0-0.7,0.3-1.4,0.7-1.8c0.3-0.3,0.9-0.7,1.9-0.7
				C368.1,384.9,368.8,385.1,369.2,385.6z M366.3,386.3c-0.2,0.2-0.4,0.6-0.4,1.1c0,0.4,0.1,0.8,0.4,1.1c0.3,0.3,0.7,0.4,1,0.4
				c0.5,0,0.8-0.2,1.1-0.4c0.2-0.2,0.4-0.5,0.4-1.1c0-0.5-0.2-0.9-0.4-1.1c-0.2-0.2-0.6-0.4-1.1-0.4
				C367,385.9,366.6,386,366.3,386.3z"/>
			<path class="st5" d="M374.9,387.8c0,0.5-0.1,1-0.5,1.5c-0.5,0.5-1,0.5-1.5,0.5s-1-0.1-1.5-0.5c-0.5-0.5-0.5-1.1-0.5-1.5V385h1.1
				v2.8c0,0.2,0,0.6,0.3,0.8c0.2,0.2,0.5,0.3,0.7,0.3s0.5,0,0.7-0.3c0.2-0.2,0.3-0.6,0.3-0.8V385h1.1v2.8H374.9z"/>
			<path class="st5" d="M377,385v3.9h1.5v0.9h-2.6V385H377z"/>
			<path class="st5" d="M385.1,385.6c0.5,0.4,0.8,1.1,0.8,1.8c0,0.6-0.2,1.3-0.8,1.8c-0.4,0.4-1.1,0.7-1.9,0.7
				c-0.9,0-1.5-0.4-1.9-0.7c-0.5-0.4-0.7-1.1-0.7-1.8c0-0.7,0.3-1.4,0.7-1.8c0.3-0.3,0.9-0.7,1.9-0.7
				C384,384.9,384.6,385.1,385.1,385.6z M382.2,386.3c-0.2,0.2-0.4,0.6-0.4,1.1c0,0.4,0.1,0.8,0.4,1.1c0.3,0.3,0.7,0.4,1,0.4
				c0.5,0,0.8-0.2,1.1-0.4c0.2-0.2,0.4-0.5,0.4-1.1c0-0.5-0.2-0.9-0.4-1.1c-0.2-0.2-0.6-0.4-1.1-0.4
				C382.8,385.9,382.4,386,382.2,386.3z"/>
			<path class="st5" d="M390.7,387.8c0,0.5-0.1,1-0.5,1.5c-0.5,0.5-1,0.5-1.5,0.5s-1-0.1-1.5-0.5c-0.5-0.5-0.5-1.1-0.5-1.5V385h1.1
				v2.8c0,0.2,0,0.6,0.3,0.8c0.2,0.2,0.5,0.3,0.7,0.3s0.5,0,0.7-0.3c0.2-0.2,0.3-0.6,0.3-0.8V385h1.1v2.8H390.7z"/>
			<path class="st5" d="M393.5,385.9v3.9h-1.1v-3.9h-1V385h3.2v0.9H393.5z"/>
		</g>
	</g>
	<g>
		<rect x="164.1" y="411.9" class="st0" width="39.1" height="10.1"/>
		<g>
			<path class="st5" d="M169.8,415.8c-0.4-0.3-0.7-0.3-0.8-0.3c-0.2,0-0.3,0-0.5,0.2c-0.1,0.1-0.1,0.2-0.1,0.3c0,0.1,0,0.2,0.1,0.3
				c0.1,0.1,0.3,0.2,0.6,0.3l0.4,0.1c0.2,0.1,0.5,0.2,0.7,0.4c0.3,0.3,0.4,0.6,0.4,0.9c0,0.5-0.2,0.9-0.4,1.2
				c-0.4,0.4-1,0.5-1.4,0.5c-0.3,0-0.6-0.1-1-0.2c-0.2-0.1-0.5-0.3-0.7-0.5l0.6-0.8c0.1,0.1,0.3,0.3,0.4,0.4
				c0.2,0.1,0.4,0.2,0.6,0.2c0.1,0,0.3,0,0.5-0.2c0.1-0.1,0.2-0.2,0.2-0.4c0-0.2-0.1-0.3-0.2-0.3c-0.1-0.1-0.4-0.2-0.6-0.3l-0.4-0.1
				c-0.2-0.1-0.5-0.2-0.7-0.4c-0.3-0.3-0.3-0.6-0.3-0.8c0-0.4,0.1-0.8,0.4-1.1c0.3-0.3,0.7-0.4,1.2-0.4c0.3,0,0.9,0.1,1.4,0.5
				L169.8,415.8z"/>
			<path class="st5" d="M175.5,415.2c0.5,0.4,0.7,1.1,0.7,1.8c0,0.6-0.2,1.3-0.7,1.8c-0.4,0.4-1.1,0.7-1.9,0.7
				c-0.9,0-1.5-0.4-1.9-0.7c-0.5-0.4-0.7-1.1-0.7-1.8c0-0.7,0.3-1.4,0.7-1.8c0.3-0.3,0.9-0.7,1.9-0.7
				C174.4,414.5,175,414.7,175.5,415.2z M172.6,415.9c-0.2,0.2-0.4,0.6-0.4,1.1c0,0.4,0.1,0.8,0.4,1.1c0.3,0.3,0.7,0.4,1,0.4
				c0.5,0,0.8-0.2,1.1-0.4c0.2-0.2,0.4-0.5,0.4-1.1c0-0.5-0.2-0.9-0.4-1.1s-0.6-0.4-1.1-0.4C173.2,415.5,172.9,415.7,172.6,415.9z"
				/>
			<path class="st5" d="M181.1,417.4c0,0.5-0.1,1-0.5,1.5c-0.5,0.5-1,0.5-1.5,0.5s-1-0.1-1.5-0.5c-0.5-0.5-0.5-1.1-0.5-1.5v-2.8h1.1
				v2.8c0,0.2,0,0.6,0.3,0.8c0.2,0.2,0.5,0.3,0.7,0.3s0.5,0,0.7-0.3c0.2-0.2,0.3-0.6,0.3-0.8v-2.8h1.1v2.8H181.1z"/>
			<path class="st5" d="M183.3,414.6v3.9h1.5v0.9h-2.6v-4.8H183.3z"/>
			<path class="st5" d="M191.4,415.2c0.5,0.4,0.7,1.1,0.7,1.8c0,0.6-0.2,1.3-0.7,1.8c-0.4,0.4-1.1,0.7-1.9,0.7
				c-0.9,0-1.5-0.4-1.9-0.7c-0.5-0.4-0.7-1.1-0.7-1.8c0-0.7,0.3-1.4,0.7-1.8c0.3-0.3,0.9-0.7,1.9-0.7
				C190.3,414.5,190.9,414.7,191.4,415.2z M188.4,415.9c-0.2,0.2-0.4,0.6-0.4,1.1c0,0.4,0.1,0.8,0.4,1.1c0.3,0.3,0.7,0.4,1,0.4
				c0.5,0,0.8-0.2,1.1-0.4c0.2-0.2,0.4-0.5,0.4-1.1c0-0.5-0.2-0.9-0.4-1.1s-0.6-0.4-1.1-0.4C189.1,415.5,188.7,415.7,188.4,415.9z"
				/>
			<path class="st5" d="M197,417.4c0,0.5-0.1,1-0.5,1.5c-0.5,0.5-1,0.5-1.5,0.5s-1-0.1-1.5-0.5c-0.5-0.5-0.5-1.1-0.5-1.5v-2.8h1.1
				v2.8c0,0.2,0,0.6,0.3,0.8c0.2,0.2,0.5,0.3,0.7,0.3s0.5,0,0.7-0.3c0.2-0.2,0.3-0.6,0.3-0.8v-2.8h1.1v2.8H197z"/>
			<path class="st5" d="M199.7,415.5v3.9h-1.1v-3.9h-1v-0.9h3.2v0.9H199.7z"/>
		</g>
	</g>
	<g>
		<path class="st0" d="M80.3,466.1l1.5,1.5c1.5-0.9,3.4-0.7,4.6,0.6c1.2,1.3,1.4,3.2,0.5,4.6l1.6,1.7l0-8.3L80.3,466.1z"/>
		<path class="st0" d="M297.6,370c-0.8-1-1.3-2.3-1.3-3.7c0-3.3,2.7-5.9,5.9-5.9c3.3,0,5.9,2.7,5.9,5.9c0,1.4-0.5,2.7-1.3,3.7h0.6
			c0.7-1,1.2-2.3,1.2-3.7c0-3.5-2.9-6.4-6.4-6.4c-3.5,0-6.4,2.9-6.4,6.4c0,1.4,0.4,2.7,1.2,3.7H297.6z"/>
		<path class="st0" d="M297,368.2c0.1,0.2,0.2,0.4,0.2,0.6c0.1-0.1,0.3-0.1,0.4-0.1c0.2,0,0.7,0.3,0.9,0.3c0.3,0,0.6-0.2,0.9-0.2
			c0.3,0,0.6,0.3,0.9,0.3c0.3,0,0.6-0.2,0.9-0.2c0.3,0,0.5,0.2,0.8,0.2c0.3,0,0.7-0.2,1-0.2c0.3,0,0.6,0.2,0.9,0.2
			c0.3,0,0.5-0.2,0.9-0.2s0.5,0.2,0.9,0.2c0.3,0,0.7-0.2,0.9-0.2c0.2,0,0.3,0,0.4,0.1c0.1-0.2,0.2-0.4,0.2-0.6
			c-0.2-0.1-0.4-0.2-0.6-0.2c-0.2,0-0.6,0.2-0.9,0.2c-0.4,0-0.5-0.2-0.9-0.2s-0.6,0.2-0.9,0.2c-0.3,0-0.6-0.2-0.9-0.2
			c-0.3,0-0.7,0.2-1,0.2c-0.3,0-0.5-0.2-0.8-0.2c-0.3,0-0.6,0.2-0.9,0.2c-0.3,0-0.6-0.3-0.9-0.3c-0.3,0-0.6,0.2-0.9,0.2
			c-0.3,0-0.5-0.3-0.9-0.3C297.4,368,297.2,368.1,297,368.2z"/>
		<path class="st0" d="M298.5,370c0.3,0,0.6-0.2,0.9-0.2c0.3,0,0.6,0.3,0.9,0.3c0.3,0,0.6-0.2,0.9-0.2c0.3,0,0.5,0.2,0.8,0.2
			c0.3,0,0.7-0.2,1-0.2c0.3,0,0.6,0.2,0.9,0.2c0.3,0,0.5-0.2,0.9-0.2s0.5,0.2,0.9,0.2c0.2,0,0.4-0.1,0.6-0.1
			c0.2-0.2,0.4-0.5,0.5-0.7c-0.1,0-0.1,0-0.2,0c-0.2,0-0.6,0.2-0.9,0.2c-0.4,0-0.5-0.2-0.9-0.2s-0.6,0.2-0.9,0.2
			c-0.3,0-0.6-0.2-0.9-0.2c-0.3,0-0.7,0.2-1,0.2c-0.3,0-0.5-0.2-0.8-0.2c-0.3,0-0.6,0.2-0.9,0.2c-0.3,0-0.6-0.3-0.9-0.3
			c-0.3,0-0.6,0.2-0.9,0.2c-0.3,0-0.5-0.3-0.9-0.3c-0.1,0-0.2,0-0.3,0c0.1,0.2,0.3,0.5,0.5,0.7C298.1,369.8,298.4,370,298.5,370z"/>
		<path class="st0" d="M298.1,365.7c0,0,0.5,0.2,1.2,1.6c0,0,0.2,0,0.5,0.1c0.3,0.1,0.3,0.2,0.6,0.2c0.3,0,0.5-0.1,0.5-0.1
			s-0.4-1.8-0.6-2.2c0,0,0.1,0,0.2-0.3c0.1-0.3-0.4-1.4-0.8-1.5c0,0-0.1-0.1-0.3,0c0,0-0.2-0.4-0.5-0.4c-0.2,0-0.2,0.2-0.2,0.3
			c0.1,0.1,0.4,0.3,0.4,0.3s-0.1,0.1-0.1,0.3s0.3,0.5,0.4,0.7c0.1,0.2,0.2,0.6,0.3,0.6c0.1,0.1,0.2,0.1,0.3,0.1c0,0,0.5,1.3,0.5,1.8
			C300.4,367.2,299.2,365.7,298.1,365.7z"/>
		<path class="st0" d="M305.8,362.7c0.1-0.1,0-0.4-0.2-0.3c-0.2,0-0.5,0.5-0.5,0.5c-0.2,0-0.3,0-0.3,0c-0.4,0.1-0.9,1.3-0.8,1.7
			c0.1,0.4,0.2,0.4,0.2,0.4c-0.2,0.4-0.6,2.5-0.6,2.5s0.3,0.2,0.5,0.2c0.3,0,0.3-0.1,0.6-0.2s0.3,0,0.3,0c0.2-0.8,0.4-1.5,0.6-1.9
			c0.2-0.4,0.7-0.6,0.7-0.6c-1.3-0.1-2.2,2-2.2,2c0.1-0.6,0.5-1.8,0.5-1.8c0.1,0,0.2,0,0.3-0.1c0.1-0.1,0.2-0.5,0.3-0.7
			c0.1-0.3,0.3-0.6,0.4-0.8c0-0.2-0.1-0.3-0.1-0.3S305.7,362.8,305.8,362.7z"/>
		<path class="st0" d="M302.3,366.8c-0.1-1-0.4-4.4-1.5-4c0,0,0.4,0.3,0.4,0.5c0.1,1-0.2,3.1-0.1,4c0,0,0.2,0,0.4,0
			c0.2,0.1,0.4,0.2,0.6,0.2c0.1,0,0.5-0.2,0.5-0.2s0.1-1.5,0.1-2c0.1-0.6,0.4-1.7,0.4-1.7c0.1,0,0.2-0.1,0.3-0.2
			c0.1-0.1,0.2-0.4,0.2-0.7c0-0.2,0.3-0.9,0.3-1.1c0-0.2-0.2-0.3-0.2-0.3s0.1-0.2,0.1-0.4c0,0,0-0.1,0-0.1c0-0.1,0-0.3-0.2-0.3
			c-0.1,0-0.2,0.1-0.2,0.2c-0.1,0.2-0.1,0.3-0.1,0.3c-0.2,0-0.3,0.1-0.3,0.1c-0.4,0.1-0.7,1.6-0.7,1.9s0.2,0.3,0.2,0.3
			c-0.1,0.2-0.3,0.9-0.4,1.7C302.4,365.8,302.3,366.4,302.3,366.8z"/>
		<path class="st0" d="M330.6,346.1c3.3,0,5.9,2.7,5.9,5.9c0,1.4-0.5,2.7-1.3,3.7h0.6c0.7-1,1.2-2.3,1.2-3.7c0-3.5-2.9-6.4-6.4-6.4
			c-3.5,0-6.4,2.9-6.4,6.4c0,1.4,0.4,2.7,1.2,3.7h0.6c-0.8-1-1.3-2.3-1.3-3.7C324.7,348.8,327.4,346.1,330.6,346.1z"/>
		<path class="st0" d="M334.1,355.4l0-0.5h0.6c0.2,0,0.3-0.1,0.3-0.3l-0.4-5.5c0-0.1-0.1-0.2-0.3-0.2h-1.5v-0.4c0,0,0-0.1,0-0.1
			c0-0.9-0.8-1.6-1.7-1.6c-0.7,0-1.2,0.4-1.5,0.9c-0.5,0.2-0.8,0.6-0.9,1.2h-0.7c-0.1,0-0.3,0.1-0.3,0.2l0,0.2c0,0,0.6,0,0.6,0h0.3
			v0.3h-1.4c-0.1,0-0.3,0.1-0.3,0.2l-0.4,5.5c0,0.2,0.1,0.3,0.3,0.3h7.1C334,355.7,334.1,355.6,334.1,355.4z M334.4,354.2
			c0,0.1-0.1,0.2-0.2,0.2H334l0-0.4h0.4L334.4,354.2z M331,347.4c0.7,0,1.3,0.6,1.3,1.3v0.4h-0.4c-0.1-0.8-0.8-1.4-1.6-1.4
			C330.5,347.5,330.8,347.4,331,347.4z M329.8,348.7c0-0.2,0-0.4,0.1-0.6c0.1,0,0.2,0,0.3,0c0.6,0,1.1,0.4,1.3,1h-1.7V348.7z
			 M329.4,348.4C329.4,348.4,329.3,348.4,329.4,348.4c0,0.1,0,0.1,0,0.1v0.4H329C329.1,348.7,329.2,348.5,329.4,348.4z M329,349.4
			h2.6v0.3H329V349.4z M327.2,350.4c0-0.1,0.1-0.2,0.2-0.2h1.1v0.9c-0.1,0.1-0.2,0.2-0.2,0.3c0,0.2,0.2,0.4,0.4,0.4
			c0.2,0,0.4-0.2,0.4-0.4c0-0.1-0.1-0.3-0.2-0.3v-0.9h2.6v0.9c-0.1,0.1-0.2,0.2-0.2,0.3c0,0.2,0.2,0.4,0.4,0.4
			c0.2,0,0.4-0.2,0.4-0.4c0-0.1-0.1-0.3-0.2-0.3v-0.9h1.1c0.1,0,0.2,0.1,0.2,0.2l0.3,4h-6.7L327.2,350.4z M333.4,355.3h-6.3
			c-0.1,0-0.2-0.1-0.2-0.2l0-0.2h6.8l0,0.2C333.6,355.1,333.5,355.3,333.4,355.3z M333.4,349.7h-1.5v-0.3h1.9c0.1,0,0.2,0.1,0.2,0.2
			l0.3,4h-0.4l-0.3-3.7C333.7,349.8,333.5,349.7,333.4,349.7z"/>
		<path class="st0" d="M272.6,353.9c-3.5,0-6.4,2.9-6.4,6.4c0,1.4,0.4,2.7,1.2,3.7h0.6c-0.8-1-1.3-2.3-1.3-3.7
			c0-3.3,2.7-5.9,5.9-5.9c3.3,0,5.9,2.7,5.9,5.9c0,1.4-0.5,2.7-1.3,3.7h0.6c0.7-1,1.2-2.3,1.2-3.7
			C279,356.8,276.2,353.9,272.6,353.9z"/>
		<path class="st0" d="M276.2,357.3h-1.5v-0.4c0,0,0-0.1,0-0.1c0-0.9-0.8-1.6-1.7-1.6c-0.7,0-1.2,0.4-1.5,0.9
			c-0.5,0.2-0.8,0.6-0.9,1.2h-0.7c-0.1,0-0.3,0.1-0.3,0.2l0,0.2c0,0,0.6,0,0.6,0h0.3v0.3h-1.4c-0.1,0-0.3,0.1-0.3,0.2l-0.4,5.5
			c0,0.2,0.1,0.3,0.3,0.3h7.1c0.2,0,0.3-0.1,0.3-0.3l0-0.5h0.6c0.2,0,0.3-0.1,0.3-0.3l-0.4-5.5C276.4,357.4,276.3,357.3,276.2,357.3
			z M273,355.7c0.7,0,1.3,0.6,1.3,1.3v0.4h-0.4c-0.1-0.8-0.8-1.4-1.6-1.4C272.5,355.8,272.8,355.7,273,355.7z M271.8,357
			c0-0.2,0-0.4,0.1-0.6c0.1,0,0.2,0,0.3,0c0.6,0,1.1,0.4,1.3,1h-1.7V357z M271.3,356.7C271.3,356.7,271.3,356.8,271.3,356.7
			c0,0.1,0,0.1,0,0.1v0.4H271C271.1,357,271.2,356.9,271.3,356.7z M271,357.7h2.6v0.3H271V357.7z M269.2,358.7
			c0-0.1,0.1-0.2,0.2-0.2h1.1v0.9c-0.1,0.1-0.2,0.2-0.2,0.3c0,0.2,0.2,0.4,0.4,0.4c0.2,0,0.4-0.2,0.4-0.4c0-0.1-0.1-0.3-0.2-0.3
			v-0.9h2.6v0.9c-0.1,0.1-0.2,0.2-0.2,0.3c0,0.2,0.2,0.4,0.4,0.4c0.2,0,0.4-0.2,0.4-0.4c0-0.1-0.1-0.3-0.2-0.3v-0.9h1.1
			c0.1,0,0.2,0.1,0.2,0.2l0.3,4h-6.7L269.2,358.7z M275.4,363.6h-6.3c-0.1,0-0.2-0.1-0.2-0.2l0-0.2h6.8l0,0.2
			C275.6,363.5,275.5,363.6,275.4,363.6z M275.7,358.3c0-0.1-0.1-0.2-0.3-0.2h-1.5v-0.3h1.9c0.1,0,0.2,0.1,0.2,0.2l0.3,4h-0.4
			L275.7,358.3z M276.2,362.8H276l0-0.4h0.4l0,0.2C276.4,362.7,276.3,362.8,276.2,362.8z"/>
		<path class="st0" d="M259,372.6c3.3,0,5.9,2.7,5.9,5.9c0,1.4-0.5,2.7-1.3,3.7h0.6c0.7-1,1.2-2.3,1.2-3.7c0-3.5-2.9-6.4-6.4-6.4
			c-3.5,0-6.4,2.9-6.4,6.4c0,1.4,0.4,2.7,1.2,3.7h0.6c-0.8-1-1.3-2.3-1.3-3.7C253.1,375.3,255.7,372.6,259,372.6z"/>
		<path class="st0" d="M262.4,381.9l0-0.5h0.6c0.2,0,0.3-0.1,0.3-0.3l-0.4-5.5c0-0.1-0.1-0.2-0.3-0.2h-1.5V375c0,0,0-0.1,0-0.1
			c0-0.9-0.8-1.6-1.7-1.6c-0.7,0-1.2,0.4-1.5,0.9c-0.5,0.2-0.8,0.6-0.9,1.2h-0.7c-0.1,0-0.3,0.1-0.3,0.2l0,0.2c0,0,0.6,0,0.6,0h0.3
			v0.3h-1.4c-0.1,0-0.3,0.1-0.3,0.2l-0.4,5.5c0,0.2,0.1,0.3,0.3,0.3h7.1C262.3,382.2,262.4,382.1,262.4,381.9z M262.8,380.7
			c0,0.1-0.1,0.2-0.2,0.2h-0.2l0-0.4h0.4L262.8,380.7z M259.4,373.9c0.7,0,1.3,0.6,1.3,1.3v0.4h-0.4c-0.1-0.8-0.8-1.4-1.6-1.4
			C258.8,374,259.1,373.9,259.4,373.9z M258.1,375.2c0-0.2,0-0.4,0.1-0.6c0.1,0,0.2,0,0.3,0c0.6,0,1.1,0.4,1.3,1h-1.7V375.2z
			 M257.7,374.9C257.7,374.9,257.7,374.9,257.7,374.9c0,0.1,0,0.1,0,0.1v0.4h-0.3C257.4,375.2,257.5,375,257.7,374.9z M257.3,375.9
			h2.6v0.3h-2.6V375.9z M255.6,376.9c0-0.1,0.1-0.2,0.2-0.2h1.1v0.9c-0.1,0.1-0.2,0.2-0.2,0.3c0,0.2,0.2,0.4,0.4,0.4
			c0.2,0,0.4-0.2,0.4-0.4c0-0.1-0.1-0.3-0.2-0.3v-0.9h2.6v0.9c-0.1,0.1-0.2,0.2-0.2,0.3c0,0.2,0.2,0.4,0.4,0.4
			c0.2,0,0.4-0.2,0.4-0.4c0-0.1-0.1-0.3-0.2-0.3v-0.9h1.1c0.1,0,0.2,0.1,0.2,0.2l0.3,4h-6.7L255.6,376.9z M261.7,381.8h-6.3
			c-0.1,0-0.2-0.1-0.2-0.2l0-0.2h6.8l0,0.2C262,381.6,261.9,381.8,261.7,381.8z M261.7,376.2h-1.5v-0.3h1.9c0.1,0,0.2,0.1,0.2,0.2
			l0.3,4h-0.4l-0.3-3.7C262,376.3,261.9,376.2,261.7,376.2z"/>
		<path class="st0" d="M209.2,422c-3.5,0-6.4,2.9-6.4,6.4c0,1.4,0.4,2.7,1.2,3.7h0.6c-0.8-1-1.3-2.3-1.3-3.7c0-3.3,2.7-5.9,5.9-5.9
			s5.9,2.7,5.9,5.9c0,1.4-0.5,2.7-1.3,3.7h0.6c0.7-1,1.2-2.3,1.2-3.7C215.6,424.9,212.7,422,209.2,422z"/>
		<path class="st0" d="M212.8,425.3h-1.5v-0.4c0,0,0-0.1,0-0.1c0-0.9-0.8-1.6-1.7-1.6c-0.7,0-1.2,0.4-1.5,0.9
			c-0.5,0.2-0.8,0.6-0.9,1.2h-0.7c-0.1,0-0.3,0.1-0.3,0.2l0,0.2c0,0,0.6,0,0.6,0h0.3v0.3h-1.4c-0.1,0-0.3,0.1-0.3,0.2l-0.4,5.5
			c0,0.2,0.1,0.3,0.3,0.3h7.1c0.2,0,0.3-0.1,0.3-0.3l0-0.5h0.6c0.2,0,0.3-0.1,0.3-0.3l-0.4-5.5C213,425.4,212.9,425.3,212.8,425.3z
			 M209.6,423.8c0.7,0,1.3,0.6,1.3,1.3v0.4h-0.4c-0.1-0.8-0.8-1.4-1.6-1.4C209.1,423.9,209.3,423.8,209.6,423.8z M208.3,425
			c0-0.2,0-0.4,0.1-0.6c0.1,0,0.2,0,0.3,0c0.6,0,1.1,0.4,1.3,1h-1.7V425z M207.9,424.8C207.9,424.8,207.9,424.8,207.9,424.8
			c0,0.1,0,0.1,0,0.1v0.4h-0.3C207.6,425.1,207.8,424.9,207.9,424.8z M207.5,425.8h2.6v0.3h-2.6V425.8z M205.8,426.8
			c0-0.1,0.1-0.2,0.2-0.2h1.1v0.9c-0.1,0.1-0.2,0.2-0.2,0.3c0,0.2,0.2,0.4,0.4,0.4c0.2,0,0.4-0.2,0.4-0.4c0-0.1-0.1-0.3-0.2-0.3
			v-0.9h2.6v0.9c-0.1,0.1-0.2,0.2-0.2,0.3c0,0.2,0.2,0.4,0.4,0.4c0.2,0,0.4-0.2,0.4-0.4c0-0.1-0.1-0.3-0.2-0.3v-0.9h1.1
			c0.1,0,0.2,0.1,0.2,0.2l0.3,4h-6.7L205.8,426.8z M212,431.6h-6.3c-0.1,0-0.2-0.1-0.2-0.2l0-0.2h6.8l0,0.2
			C212.2,431.5,212.1,431.6,212,431.6z M212.2,426.3c0-0.1-0.1-0.2-0.3-0.2h-1.5v-0.3h1.9c0.1,0,0.2,0.1,0.2,0.2l0.3,4h-0.4
			L212.2,426.3z M212.8,430.9h-0.2l0-0.4h0.4l0,0.2C213,430.8,212.9,430.9,212.8,430.9z"/>
		<path class="st0" d="M185.5,435.7c-3.5,0-6.4,2.9-6.4,6.4c0,1.4,0.4,2.7,1.2,3.7h0.6c-0.8-1-1.3-2.3-1.3-3.7
			c0-3.3,2.7-5.9,5.9-5.9c3.3,0,5.9,2.7,5.9,5.9c0,1.4-0.5,2.7-1.3,3.7h0.6c0.7-1,1.2-2.3,1.2-3.7
			C191.9,438.5,189,435.7,185.5,435.7z"/>
		<path class="st0" d="M189,439h-1.5v-0.4c0,0,0-0.1,0-0.1c0-0.9-0.8-1.6-1.7-1.6c-0.7,0-1.2,0.4-1.5,0.9c-0.5,0.2-0.8,0.6-0.9,1.2
			h-0.7c-0.1,0-0.3,0.1-0.3,0.2l0,0.2c0,0,0.6,0,0.6,0h0.3v0.3h-1.4c-0.1,0-0.3,0.1-0.3,0.2l-0.4,5.5c0,0.2,0.1,0.3,0.3,0.3h7.1
			c0.2,0,0.3-0.1,0.3-0.3l0-0.5h0.6c0.2,0,0.3-0.1,0.3-0.3l-0.4-5.5C189.3,439.1,189.2,439,189,439z M185.9,437.4
			c0.7,0,1.3,0.6,1.3,1.3v0.4h-0.4c-0.1-0.8-0.8-1.4-1.6-1.4C185.3,437.5,185.6,437.4,185.9,437.4z M184.6,438.7
			c0-0.2,0-0.4,0.1-0.6c0.1,0,0.2,0,0.3,0c0.6,0,1.1,0.4,1.3,1h-1.7V438.7z M184.2,438.4C184.2,438.5,184.2,438.5,184.2,438.4
			c0,0.1,0,0.1,0,0.1v0.4h-0.3C183.9,438.8,184,438.6,184.2,438.4z M183.8,439.5h2.6v0.3h-2.6V439.5z M182.1,440.4
			c0-0.1,0.1-0.2,0.2-0.2h1.1v0.9c-0.1,0.1-0.2,0.2-0.2,0.3c0,0.2,0.2,0.4,0.4,0.4s0.4-0.2,0.4-0.4c0-0.1-0.1-0.3-0.2-0.3v-0.9h2.6
			v0.9c-0.1,0.1-0.2,0.2-0.2,0.3c0,0.2,0.2,0.4,0.4,0.4c0.2,0,0.4-0.2,0.4-0.4c0-0.1-0.1-0.3-0.2-0.3v-0.9h1.1
			c0.1,0,0.2,0.1,0.2,0.2l0.3,4h-6.7L182.1,440.4z M188.2,445.3h-6.3c-0.1,0-0.2-0.1-0.2-0.2l0-0.2h6.8l0,0.2
			C188.5,445.2,188.4,445.3,188.2,445.3z M188.5,440c0-0.1-0.1-0.2-0.3-0.2h-1.5v-0.3h1.9c0.1,0,0.2,0.1,0.2,0.2l0.3,4h-0.4
			L188.5,440z M189,444.5h-0.2l0-0.4h0.4l0,0.2C189.3,444.4,189.2,444.5,189,444.5z"/>
		<g>
			<path class="st0" d="M87.2,435c-3.5,0-6.4,2.9-6.4,6.4c0,1.4,0.4,2.7,1.2,3.7h0.6c-0.8-1-1.3-2.3-1.3-3.7c0-3.3,2.7-5.9,5.9-5.9
				c3.3,0,5.9,2.7,5.9,5.9c0,1.4-0.5,2.7-1.3,3.7h0.6c0.7-1,1.2-2.3,1.2-3.7C93.6,437.9,90.7,435,87.2,435z"/>
			<path class="st0" d="M90.7,438.3h-1.5v-0.4c0,0,0-0.1,0-0.1c0-0.9-0.8-1.6-1.7-1.6c-0.7,0-1.2,0.4-1.5,0.9
				c-0.5,0.2-0.8,0.6-0.9,1.2h-0.7c-0.1,0-0.3,0.1-0.3,0.2l0,0.2c0,0,0.6,0,0.6,0h0.3v0.3h-1.4c-0.1,0-0.3,0.1-0.3,0.2l-0.4,5.5
				c0,0.2,0.1,0.3,0.3,0.3h7.1c0.2,0,0.3-0.1,0.3-0.3l0-0.5h0.6c0.2,0,0.3-0.1,0.3-0.3l-0.4-5.5C91,438.4,90.8,438.3,90.7,438.3z
				 M87.6,436.8c0.7,0,1.3,0.6,1.3,1.3v0.4h-0.4c-0.1-0.8-0.8-1.4-1.6-1.4C87,436.9,87.3,436.8,87.6,436.8z M86.3,438
				c0-0.2,0-0.4,0.1-0.6c0.1,0,0.2,0,0.3,0c0.6,0,1.1,0.4,1.3,1h-1.7V438z M85.9,437.8C85.9,437.8,85.9,437.8,85.9,437.8
				c0,0.1,0,0.1,0,0.1v0.4h-0.3C85.6,438.1,85.7,437.9,85.9,437.8z M85.5,438.8H88v0.3h-2.6V438.8z M83.7,439.8
				c0-0.1,0.1-0.2,0.2-0.2h1.1v0.9c-0.1,0.1-0.2,0.2-0.2,0.3c0,0.2,0.2,0.4,0.4,0.4s0.4-0.2,0.4-0.4c0-0.1-0.1-0.3-0.2-0.3v-0.9H88
				v0.9c-0.1,0.1-0.2,0.2-0.2,0.3c0,0.2,0.2,0.4,0.4,0.4c0.2,0,0.4-0.2,0.4-0.4c0-0.1-0.1-0.3-0.2-0.3v-0.9h1.1
				c0.1,0,0.2,0.1,0.2,0.2l0.3,4h-6.7L83.7,439.8z M89.9,444.6h-6.3c-0.1,0-0.2-0.1-0.2-0.2l0-0.2h6.8l0,0.2
				C90.2,444.5,90.1,444.6,89.9,444.6z M90.2,439.4c0-0.1-0.1-0.2-0.3-0.2h-1.5v-0.3h1.9c0.1,0,0.2,0.1,0.2,0.2l0.3,4h-0.4
				L90.2,439.4z M90.7,443.9h-0.2l0-0.4h0.4l0,0.2C91,443.8,90.9,443.9,90.7,443.9z"/>
		</g>
		<g>
			<path class="st0" d="M113.7,462.6c-3.5,0-6.4,2.9-6.4,6.4c0,1.4,0.4,2.7,1.2,3.7h0.6c-0.8-1-1.3-2.3-1.3-3.7
				c0-3.3,2.7-5.9,5.9-5.9c3.3,0,5.9,2.7,5.9,5.9c0,1.4-0.5,2.7-1.3,3.7h0.6c0.7-1,1.2-2.3,1.2-3.7
				C120.1,465.5,117.3,462.6,113.7,462.6z"/>
			<path class="st0" d="M113.5,463.3C113.5,463.3,113.5,463.3,113.5,463.3L113.5,463.3L113.5,463.3z"/>
			<path class="st0" d="M113.9,463.3C113.9,463.3,113.9,463.3,113.9,463.3L113.9,463.3L113.9,463.3z"/>
			<path class="st0" d="M115.8,466.5c-0.9,0-1.7,0.3-2.1,0.5c-0.5-0.2-1.2-0.5-2-0.5c0,0,0,0-0.1,0c-0.9,0-1.7,0.3-2.1,0.6l-0.1,0.1
				v5.2h3.5c0.2,0.1,0.5,0.4,0.9,0.4c0,0,0,0,0,0c0.4,0,0.7-0.2,0.9-0.4h3.5v-5.2l-0.1-0.1C117.4,466.8,116.7,466.5,115.8,466.5z
				 M109.8,467.5c0.4-0.2,1-0.4,1.7-0.4c0.8,0,1.4,0.2,1.9,0.4v3.6c-0.5-0.2-1.1-0.4-1.8-0.4c-0.7,0-1.3,0.2-1.8,0.4V467.5z
				 M117.5,471.8h-3.2l-0.1,0.1c-0.1,0.1-0.2,0.3-0.6,0.3c-0.3,0-0.6-0.2-0.6-0.3l-0.1-0.1h-3.2v-0.2c0.4-0.2,1-0.4,1.8-0.5
				c0.9,0,1.5,0.3,2,0.5l0.1,0.1l0.1-0.1c0.4-0.3,1.1-0.6,2-0.5c0.7,0,1.3,0.2,1.7,0.5V471.8z M117.5,471c-0.4-0.2-1-0.4-1.7-0.4
				c-0.8,0-1.4,0.2-1.9,0.4v-3.6c0.4-0.2,1.1-0.5,1.9-0.5c0.7,0,1.3,0.2,1.7,0.5V471z"/>
			<polygon class="st0" points="113.6,464 109.2,466.2 109.2,466.8 113.6,464.6 118.1,466.8 118.1,466.2 			"/>
		</g>
		<path class="st0" d="M245.4,385.5c-0.2-0.1-0.5-0.1-0.8-0.1c-0.3,0-0.5,0-0.8,0.1c-0.5,0.2-0.9,0.5-1.2,0.9
			c-0.3,0.4-0.5,0.9-0.5,1.5c0,0,0,0,0,0c0,0.5,0.2,1,0.4,1.4c0.3,0.4,0.7,0.8,1.2,0.9c0.2,0.1,0.5,0.1,0.8,0.1c0.3,0,0.5,0,0.7-0.1
			c0.5-0.2,1-0.5,1.3-0.9c0.3-0.4,0.5-0.9,0.5-1.4c0,0,0,0,0,0c0-0.5-0.2-1.1-0.5-1.5C246.3,386,245.9,385.7,245.4,385.5z
			 M246.7,387.9c0,0.4-0.1,0.9-0.4,1.2l-0.4-0.3l-0.8,0.6l0.1,0.5c-0.2,0.1-0.4,0.1-0.6,0.1c-0.2,0-0.4,0-0.7-0.1l0.2-0.4l-0.8-0.6
			l-0.4,0.3c-0.2-0.3-0.4-0.7-0.4-1.2c0,0,0,0,0,0l0.5,0l0.3-1l-0.3-0.2c0.3-0.3,0.6-0.6,1-0.7l0.1,0.4l1,0l0.1-0.4
			c0.4,0.1,0.8,0.4,1,0.7l-0.4,0.2l0.3,1L246.7,387.9C246.7,387.9,246.7,387.9,246.7,387.9z"/>
		<polygon class="st0" points="244.1,387.1 243.8,388.1 244.6,388.7 245.4,388.1 245.1,387.2 		"/>
		<path class="st0" d="M239.6,392h2.2v-0.6c-0.6,0-1.2-0.3-1.7-0.7C239.8,391.1,239.7,391.6,239.6,392z"/>
		<path class="st0" d="M242.3,391c0.5,0,1-0.2,1.4-0.5c-0.4-0.3-0.9-0.6-1.4-0.6V391z"/>
		<path class="st0" d="M244.5,392.5h-2.2v0.6c0.7,0,1.3,0.3,1.7,0.7C244.3,393.4,244.5,393,244.5,392.5z"/>
		<path class="st0" d="M244,390.8c-0.5,0.4-1.1,0.6-1.7,0.7v0.6h2.2C244.5,391.6,244.3,391.1,244,390.8z"/>
		<path class="st0" d="M240.1,393.8c0.5-0.4,1.1-0.6,1.7-0.7v-0.6h-2.2C239.7,393,239.8,393.4,240.1,393.8z"/>
		<path class="st0" d="M241.8,389.8c-0.5,0-1,0.3-1.4,0.6c0.4,0.3,0.9,0.5,1.4,0.5V389.8z"/>
		<path class="st0" d="M242.3,394.7c0.5,0,1-0.3,1.4-0.6c-0.4-0.3-0.9-0.5-1.4-0.6V394.7z"/>
		<path class="st0" d="M241.8,393.5c-0.5,0-1,0.2-1.4,0.6c0.4,0.3,0.9,0.6,1.4,0.6V393.5z"/>
		<path class="st0" d="M246,390.8c0.1,0,0.3,0,0.4,0.1c0.1,0,0.2,0.1,0.3,0.1c0.1,0,0.2,0.1,0.3,0.1c0.1,0,0.2,0.1,0.3,0.1
			c0.1,0.1,0.2,0.1,0.3,0.2c0.1,0,0.1,0.1,0.2,0.1c0.1-0.1,0.2-0.2,0.3-0.4c-0.1-0.1-0.2-0.1-0.2-0.2c-0.1-0.1-0.2-0.1-0.3-0.2
			c-0.1,0-0.1-0.1-0.2-0.1c-0.1-0.1-0.2-0.1-0.4-0.1c-0.1,0-0.2,0-0.2-0.1c-0.2,0-0.3-0.1-0.5-0.1c0,0-0.1,0-0.1,0
			c-0.3,0-0.6,0.1-0.9,0.2c-0.1,0.1-0.1,0.2-0.2,0.3c0.2,0,0.4-0.1,0.7-0.1C245.8,390.8,245.9,390.8,246,390.8z"/>
		<path class="st0" d="M248.3,390.1c0,0-0.1,0-0.1,0c-0.1,0-0.1-0.1-0.2-0.1c-0.2-0.1-0.4-0.1-0.6-0.1c-0.1,0-0.1,0-0.2,0
			c-0.4,0-0.9,0.1-1.2,0.3c0.1,0,0.2,0,0.3,0c0.2,0,0.3,0,0.5,0c0.2,0,0.3,0.1,0.5,0.1c0,0,0,0,0,0c0,0,0.1,0,0.1,0
			c0.1,0.1,0.2,0.1,0.4,0.2c0,0,0,0,0,0c0,0,0,0,0.1,0c0.1,0.1,0.2,0.1,0.3,0.2c0.1,0.1,0.1,0.1,0.2,0.2c0.1-0.2,0.2-0.4,0.2-0.5
			c0-0.1,0-0.1,0-0.2c0,0-0.1,0-0.1-0.1C248.4,390.1,248.3,390.1,248.3,390.1z"/>
		<path class="st0" d="M248.5,391.2C248.5,391.2,248.5,391.2,248.5,391.2c-0.1,0.1-0.1,0.2-0.2,0.3c-0.1,0.1-0.2,0.2-0.3,0.3
			c-0.1,0.1-0.2,0.2-0.3,0.2c-0.1,0.1-0.2,0.1-0.2,0.2c0,0-0.1,0.1-0.1,0.1c0,0.1,0,0.2,0,0.3c0,0,0,0.1,0,0.1c0,0,0.1,0,0.1,0
			c0.1,0,0.2-0.1,0.3-0.2c0.1,0,0.1-0.1,0.2-0.1c0.1-0.1,0.2-0.1,0.3-0.2c0.1-0.1,0.2-0.2,0.3-0.3c0.1-0.1,0.2-0.2,0.2-0.3
			c0,0,0,0,0-0.1c0.1-0.2,0.2-0.5,0.3-0.8c0,0,0,0,0,0c-0.1-0.1-0.2-0.3-0.3-0.4C248.7,390.7,248.6,391,248.5,391.2z"/>
		<path class="st0" d="M249.2,391.8c0,0.1-0.1,0.2-0.2,0.3v0c-0.1,0.1-0.2,0.2-0.3,0.3c-0.1,0.1-0.2,0.2-0.2,0.2
			c-0.1,0.1-0.2,0.2-0.3,0.2c0,0-0.1,0.1-0.1,0.1c-0.1,0.1-0.2,0.1-0.3,0.2c-0.1,0-0.2,0.1-0.3,0.1c0,0.1,0.1,0.3,0.1,0.4
			c0.1,0,0.3-0.1,0.4-0.1c0.1,0,0.2-0.1,0.3-0.2c0,0,0,0,0,0c0.1-0.1,0.2-0.1,0.3-0.2c0.1-0.1,0.1-0.1,0.2-0.2
			c0.1-0.1,0.2-0.2,0.3-0.4c0-0.1,0.1-0.1,0.1-0.2c0.1-0.2,0.2-0.5,0.3-0.7c0,0,0,0,0,0c0-0.1-0.1-0.2-0.1-0.4
			C249.3,391.4,249.2,391.6,249.2,391.8z"/>
		<path class="st0" d="M247.9,394.6c-0.2-0.2-0.3-0.4-0.5-0.6c0,0,0,0,0,0c-0.1-0.1-0.1-0.2-0.2-0.3c-0.1-0.1-0.1-0.3-0.1-0.4
			c0-0.1-0.1-0.2-0.1-0.4c0-0.1,0-0.2,0-0.4c0-0.1,0-0.1,0-0.2c-0.1,0-0.2-0.1-0.2-0.1c-0.1,0-0.1-0.1-0.2-0.1c0,0.1,0,0.1,0,0.2
			c0,0.1,0,0.2,0,0.4c0,0.1,0,0.2,0,0.2c0,0.1,0,0.2,0.1,0.4c0,0.1,0.1,0.2,0.1,0.4c0,0.1,0.1,0.2,0.2,0.4c0,0,0,0,0,0
			c0.2,0.3,0.4,0.5,0.6,0.7C247.6,394.7,247.8,394.7,247.9,394.6z"/>
		<path class="st0" d="M246.1,394c0.2,0.3,0.4,0.5,0.6,0.7c0.1,0,0.2,0,0.3,0c-0.2-0.2-0.3-0.3-0.4-0.6c0-0.1-0.1-0.1-0.1-0.2l0,0
			c-0.1-0.1-0.1-0.3-0.2-0.4c0-0.1-0.1-0.2-0.1-0.3c0-0.1,0-0.2,0-0.4c0-0.1,0-0.1,0-0.2c0-0.1,0-0.2,0-0.4c0-0.1,0-0.2,0.1-0.3
			c-0.1,0-0.3-0.1-0.5-0.1c0,0.1-0.1,0.3-0.1,0.4c0,0.1,0,0.2,0,0.4c0,0,0,0,0,0c0,0.1,0,0.3,0,0.4v0c0,0.1,0,0.1,0.1,0.2
			c0,0.2,0.1,0.3,0.2,0.5C246,393.9,246,393.9,246.1,394z"/>
		<path class="st0" d="M245.9,394.4c-0.1-0.1-0.1-0.2-0.2-0.2c-0.1-0.2-0.2-0.3-0.2-0.5c-0.1-0.2-0.1-0.3-0.1-0.5c0,0,0-0.1,0-0.1
			c0-0.1,0-0.2,0-0.3c0,0,0,0,0-0.1c0-0.1,0-0.2,0-0.3c0-0.1,0-0.2,0.1-0.3c-0.2,0-0.5,0.1-0.7,0.1c0,0,0,0-0.1,0c0,0,0,0,0,0
			c0,0,0,0.1,0,0.1c0,0,0,0.1,0,0.1c0,0,0,0,0,0c0,0,0,0.1,0,0.1c0,0.1,0,0.1,0,0.2c0,0.2,0.1,0.3,0.1,0.5v0
			C245,393.7,245.4,394.1,245.9,394.4z"/>
		<path class="st0" d="M244.7,391.8c0.2-0.1,0.5-0.1,0.8-0.1c0,0,0,0,0,0c0.1,0,0.2,0,0.4,0c0.1,0,0.3,0,0.4,0.1
			c0.1,0,0.2,0.1,0.3,0.1c0.1,0,0.3,0.1,0.4,0.2c0,0,0.1,0,0.1,0.1c0.1-0.1,0.2-0.1,0.3-0.2c0,0,0,0,0,0c0,0,0,0,0,0
			c-0.1-0.1-0.2-0.2-0.3-0.2c-0.1-0.1-0.2-0.1-0.3-0.2c-0.1,0-0.2-0.1-0.3-0.1c-0.1,0-0.3-0.1-0.4-0.1c-0.1,0-0.2,0-0.4,0
			c0,0,0,0,0,0c-0.3,0-0.6,0.1-0.9,0.2C244.8,391.5,244.8,391.6,244.7,391.8z"/>
		<path class="st0" d="M248.3,394.4c0.1,0,0.2-0.1,0.2-0.1c0,0,0,0,0.1,0c0,0,0.1-0.1,0.1-0.1c0.1-0.1,0.3-0.3,0.4-0.4l0,0
			c0.3-0.4,0.5-0.9,0.5-1.4c0,0,0,0.1-0.1,0.1c-0.1,0.2-0.2,0.4-0.4,0.5c-0.1,0.1-0.2,0.2-0.4,0.4c0,0-0.1,0-0.1,0.1
			c-0.1,0.1-0.2,0.1-0.3,0.2c0,0,0,0-0.1,0c-0.1,0-0.2,0.1-0.3,0.1c-0.1,0.1-0.2,0.1-0.4,0.1C247.9,394.1,248.1,394.3,248.3,394.4
			C248.3,394.5,248.3,394.4,248.3,394.4z"/>
		<path class="st0" d="M244.6,384.6c-3.5,0-6.4,2.9-6.4,6.4c0,1.4,0.4,2.7,1.2,3.7h0.6c-0.8-1-1.3-2.3-1.3-3.7
			c0-3.3,2.7-5.9,5.9-5.9c3.3,0,5.9,2.7,5.9,5.9c0,1.4-0.5,2.7-1.3,3.7h0.6c0.7-1,1.2-2.3,1.2-3.7
			C251,387.5,248.1,384.6,244.6,384.6z"/>
		<path class="st0" d="M124.4,413.6c-3.5,0-6.4,2.9-6.4,6.4c0,1.4,0.4,2.7,1.2,3.7h0.6c-0.8-1-1.3-2.3-1.3-3.7
			c0-3.3,2.7-5.9,5.9-5.9c3.3,0,5.9,2.7,5.9,5.9c0,1.4-0.5,2.7-1.3,3.7h0.6c0.7-1,1.2-2.3,1.2-3.7
			C130.8,416.4,127.9,413.6,124.4,413.6z"/>
		<polygon class="st0" points="125.7,415.5 123,415.4 123,418.2 120.3,418.2 120.3,420.9 123.1,420.9 123.1,423.7 125.8,423.7 
			125.8,420.9 128.5,420.9 128.5,418.2 125.7,418.2 		"/>
		<path class="st0" d="M144.9,408.8c-3.5,0-6.4,2.9-6.4,6.4c0,1.4,0.4,2.7,1.2,3.7h0.6c-0.8-1-1.3-2.3-1.3-3.7
			c0-3.3,2.7-5.9,5.9-5.9c3.3,0,5.9,2.7,5.9,5.9c0,1.4-0.5,2.7-1.3,3.7h0.6c0.7-1,1.2-2.3,1.2-3.7
			C151.3,411.6,148.4,408.8,144.9,408.8z"/>
		<path class="st0" d="M141.1,418.4l0.2,0.2c0.3,0.3,0.9,0.3,1.2,0l3.7-3.7c0,0,1.3,0.2,1.8-0.4c1.2-1,0.5-2.4,0.5-2.4l-1.4,1.4
			l-0.9-0.9l1.3-1.4c0,0-1-0.7-2.3,0.5c-0.6,0.7-0.3,1.8-0.3,1.8l-3.8,3.7C140.8,417.5,140.8,418.1,141.1,418.4z"/>
		<polygon class="st0" points="142.8,411.6 141.5,410.9 140.9,411.6 141.5,412.9 142.5,413.2 143.3,414.1 143.9,413.4 143.1,412.6 
					"/>
		<path class="st0" d="M146.4,415.6l-1.2,1.2l1.8,1.8c0.4,0.4,1,0.4,1.4,0l0.1-0.1c0.3-0.4,0.3-1,0-1.3l-1.6-1.6H146.4z"/>
		<path class="st0" d="M339.7,363.7c-3.5,0-6.4,2.9-6.4,6.4c0,1.4,0.4,2.7,1.2,3.7h0.6c-0.8-1-1.3-2.3-1.3-3.7
			c0-3.3,2.7-5.9,5.9-5.9c3.3,0,5.9,2.7,5.9,5.9c0,1.4-0.5,2.7-1.3,3.7h0.6c0.7-1,1.2-2.3,1.2-3.7
			C346.1,366.5,343.2,363.7,339.7,363.7z"/>
		<path class="st0" d="M341.8,367c0,0,0.1-0.1,0.1-0.1c0.2-0.3,0.3-0.7,0.1-1.1c0-0.2-0.1-0.3-0.3-0.5c-0.4-0.4-1-0.4-1.4,0
			c-0.1,0.1-0.2,0.3-0.2,0.4c-0.1,0.1-0.1,0.3-0.1,0.4c0,0.3,0.1,0.6,0.3,0.9C340.7,367.4,341.3,367.4,341.8,367z"/>
		<path class="st0" d="M339.1,367c0.2-0.2,0.3-0.5,0.3-0.9c0-0.1,0-0.3-0.1-0.4c0-0.2-0.1-0.3-0.3-0.5c-0.4-0.4-1-0.4-1.4,0
			c-0.1,0.1-0.2,0.3-0.2,0.4c-0.2,0.4-0.2,0.8,0.1,1.2c0,0,0.1,0.1,0.1,0.1C338,367.4,338.7,367.4,339.1,367z"/>
		<path class="st0" d="M337.5,368.1c0-0.4-0.2-0.7-0.5-0.9c-0.1-0.1-0.2-0.1-0.3-0.1c-0.1-0.1-0.3-0.1-0.5-0.1c-0.5,0-1,0.4-1,1
			c0,0.2,0.1,0.4,0.2,0.5c0.1,0.3,0.3,0.6,0.7,0.7c0.1,0,0.2,0.1,0.4,0.1C337,369.2,337.5,368.7,337.5,368.1z"/>
		<path class="st0" d="M343.1,367c-0.2,0-0.3,0-0.5,0.1c-0.1,0-0.2,0.1-0.3,0.1c-0.3,0.2-0.5,0.5-0.5,0.9c0,0.6,0.5,1.1,1.1,1.1
			c0.1,0,0.2,0,0.4-0.1c0.3-0.1,0.5-0.4,0.7-0.7c0.1-0.2,0.2-0.3,0.2-0.5C344,367.4,343.6,367,343.1,367z"/>
		<path class="st0" d="M342.2,370.1C342.2,370.1,342.2,370.1,342.2,370.1c-0.2-0.2-0.4-0.5-0.5-0.8c0,0,0,0,0,0
			c-0.3-0.8-1.1-1.4-2-1.4c-0.9,0-1.7,0.5-2,1.3c0,0,0,0,0,0c0,0,0,0,0,0c0,0,0,0,0,0c0,0,0,0.1,0,0.1c0,0,0,0,0,0c0,0,0,0,0,0
			c-0.1,0.3-0.3,0.5-0.5,0.7c0,0,0,0,0,0c0,0-0.1,0.1-0.1,0.1c0,0,0,0,0,0c-0.3,0.3-0.5,0.8-0.6,1.2c0,0,0,0,0,0c0,0.1,0,0.2,0,0.3
			c0,1.2,1,2.1,2.1,2.1c0.2,0,0.3,0,0.5-0.1c0,0,0,0,0,0c0,0,0.1,0,0.1,0c0,0,0,0,0,0c0.1,0,0.3,0,0.5,0c0.2,0,0.4,0,0.5,0.1
			c0,0,0,0,0,0c0.2,0,0.3,0.1,0.5,0.1c1.2,0,2.1-1,2.1-2.1c0-0.1,0-0.1,0-0.2C342.8,370.9,342.6,370.4,342.2,370.1z"/>
		<path class="st0" d="M373.2,307.1c-3.5,0-6.4,2.9-6.4,6.4c0,1.4,0.4,2.7,1.2,3.7h0.6c-0.8-1-1.3-2.3-1.3-3.7
			c0-3.3,2.7-5.9,5.9-5.9c3.3,0,5.9,2.7,5.9,5.9c0,1.4-0.5,2.7-1.3,3.7h0.6c0.7-1,1.2-2.3,1.2-3.7
			C379.6,309.9,376.7,307.1,373.2,307.1z"/>
		<path class="st0" d="M369.3,311.6c-0.3,0-0.6,0.3-0.6,0.6v1.2c-0.1,0-0.1,0-0.2,0c-0.3,0-0.5,0.2-0.5,0.5v0.7
			c0,0.3,0.2,0.5,0.5,0.5c0.1,0,0.1,0,0.2,0v1.2c0,0.3,0.3,0.6,0.6,0.6c0.3,0,0.6-0.3,0.6-0.6v-3.9
			C369.8,311.8,369.6,311.6,369.3,311.6z"/>
		<path class="st0" d="M375.5,311c-0.4,0-0.7,0.3-0.7,0.7v1.7h-3.2v-1.7c0-0.4-0.3-0.7-0.7-0.7s-0.7,0.3-0.7,0.7v4.8
			c0,0.4,0.3,0.7,0.7,0.7s0.7-0.3,0.7-0.7v-1.7h3.2v1.7c0,0.4,0.3,0.7,0.7,0.7s0.7-0.3,0.7-0.7v-4.8
			C376.2,311.3,375.8,311,375.5,311z"/>
		<path class="st0" d="M377.8,314.9c0.3,0,0.5-0.2,0.5-0.5v-0.7c0-0.3-0.2-0.5-0.5-0.5c-0.1,0-0.1,0-0.2,0v-1.2
			c0-0.3-0.3-0.6-0.6-0.6c-0.3,0-0.6,0.3-0.6,0.6v3.9c0,0.3,0.3,0.6,0.6,0.6c0.3,0,0.6-0.3,0.6-0.6v-1.2
			C377.7,314.9,377.7,314.9,377.8,314.9z"/>
		<path class="st0" d="M84.1,422c0,0.4,0.3,0.7,0.7,0.7c0.4,0,0.7-0.3,0.7-0.7c0-0.4-0.3-0.7-0.7-0.7
			C84.4,421.3,84.1,421.6,84.1,422z M85.2,422c0,0.2-0.2,0.4-0.4,0.4c-0.2,0-0.4-0.2-0.4-0.4c0-0.2,0.2-0.4,0.4-0.4
			C85,421.5,85.2,421.7,85.2,422z"/>
		<path class="st0" d="M88.7,421.3c-0.4,0-0.7,0.3-0.7,0.7c0,0.4,0.3,0.7,0.7,0.7c0.4,0,0.7-0.3,0.7-0.7
			C89.4,421.6,89,421.3,88.7,421.3z M88.7,422.4c-0.2,0-0.4-0.2-0.4-0.4c0-0.2,0.2-0.4,0.4-0.4c0.2,0,0.4,0.2,0.4,0.4
			C89.1,422.2,88.9,422.4,88.7,422.4z"/>
		<path class="st0" d="M84.9,420.1C84.9,420.1,84.9,420,84.9,420.1c0.1,0,0.4,0,0.4,0l0.5-0.1l3.6-0.4v0c0.1,0,0.3-0.1,0.3-0.3h0
			l0.6-3l0,0c0,0,0,0,0-0.1c0-0.2-0.1-0.3-0.3-0.3v0h0H84l-0.3-0.9c0-0.1-0.2-0.3-0.3-0.3v0h-1.1v0c-0.2,0-0.3,0.2-0.3,0.3
			c0,0.2,0.2,0.3,0.3,0.3c0,0,0,0,0,0h0.8l1.3,4.3c-0.1,0.1-0.2,0.3-0.2,0.6c0,0.4,0.4,0.8,0.8,0.8c0,0,0.1,0,0.1,0l0,0l4.1-0.2v0
			c0.1,0,0.3-0.1,0.3-0.3c0-0.2-0.1-0.3-0.3-0.3c0,0,0,0,0,0l-3.4,0.2l-0.4,0l-0.4,0c0,0,0,0,0,0c0,0,0,0,0,0
			c-0.1,0-0.2-0.1-0.2-0.2C84.8,420.2,84.8,420.1,84.9,420.1L84.9,420.1z M88,416.6h1.5l-0.2,1.1H88V416.6z M88,418h1.2l-0.2,0.9
			l-1,0.1V418z M86.2,416.6h1.4v1.1h-1.4V416.6z M86.2,418h1.4v1.1l-1.4,0.2V418z M84.2,416.6h1.7v1.1h-1.4L84.2,416.6z M84.6,418
			h1.3v1.3l-0.8,0.1L84.6,418z"/>
		<path class="st0" d="M81.2,422.6c-0.8-1-1.3-2.3-1.3-3.7c0-3.3,2.7-5.9,5.9-5.9c3.3,0,5.9,2.7,5.9,5.9c0,1.4-0.5,2.7-1.3,3.7H91
			c0.7-1,1.2-2.3,1.2-3.7c0-3.5-2.9-6.4-6.4-6.4c-3.5,0-6.4,2.9-6.4,6.4c0,1.4,0.4,2.7,1.2,3.7H81.2z"/>
		<path class="st0" d="M389.8,261.7c-3.5,0-6.4,2.9-6.4,6.4c0,1.4,0.4,2.7,1.2,3.7h0.6c-0.8-1-1.3-2.3-1.3-3.7
			c0-3.3,2.7-5.9,5.9-5.9c3.3,0,5.9,2.7,5.9,5.9c0,1.4-0.5,2.7-1.3,3.7h0.6c0.7-1,1.2-2.3,1.2-3.7
			C396.2,264.6,393.4,261.7,389.8,261.7z"/>
		<path class="st0" d="M394.6,268.3c-0.1-0.2-0.6-0.8-0.9-1.3c-0.3-0.6-0.2-1.1-0.4-1.3c-0.2-0.2-0.5-0.5-0.5-0.5s0-0.3,0-0.7
			c0-0.1,0-0.3,0-0.4c0-0.2,0-0.5,0-0.6l-0.3,0.5l-0.2,0.3l-0.1,0.2l0-0.2l0-0.4l0-0.6l-0.9,1.1c0,0-2.1-0.7-4.1,1
			c-0.1,0.1,0.5-0.2,0.9-0.1c0,0-2.3,1.4-2.7,2.9c0,0.2,0.3-0.4,0.9-0.5c0,0-0.7,0.7-0.7,1.9c0,0.3,0.1,1.2-0.1,2.2l5.9,0
			c-0.1-0.5-0.4-1-0.9-1.5c0,0-0.5-0.9,0-1.9c0.3-0.6,0.8-0.9,0.8-0.9s0,0.7,0.4,0.9c0.4,0.2,0.7,0.3,1,0.5c0.3,0.3,0.3,0.8,0.9,0.8
			c0.6,0,1.1-0.5,1.2-0.8C394.7,268.7,394.7,268.4,394.6,268.3z"/>
		<path class="st0" d="M337.8,240c-3.5,0-6.4,2.9-6.4,6.4c0,1.4,0.4,2.7,1.2,3.7h0.6c-0.8-1-1.3-2.3-1.3-3.7c0-3.3,2.7-5.9,5.9-5.9
			s5.9,2.7,5.9,5.9c0,1.4-0.5,2.7-1.3,3.7h0.6c0.7-1,1.2-2.3,1.2-3.7C344.2,242.9,341.3,240,337.8,240z"/>
		<path class="st0" d="M340.9,248.8c0.1,0,0.1,0.1,0.2,0.1c0.2,0.1,0.4,0.2,0.4,0.2c0,0,0-0.2-0.2-0.2c-0.2-0.1-0.2-0.1-0.1-0.1
			s0.1,0,0.1-0.1c0-0.1,0-0.3,0-0.3c0,0-0.1,0-0.4,0c-0.1,0-0.2,0-0.3,0l-0.2-0.3c0,0,0,0,0-0.1c0-0.1-0.1-0.2-0.1-0.2
			c0,0,0-0.1-0.1-0.1c0-0.1-0.1-0.1-0.1-0.2c0-0.1-0.1-0.1-0.1-0.2c-0.1-0.1-0.1-0.2-0.2-0.2c0,0-0.1-0.1-0.1-0.1
			c-0.1-0.1-0.1-0.1-0.2-0.2c0,0,0,0-0.1-0.1c-0.1-0.1,0-0.2,0-0.3c0-0.1,0-0.3,0-0.4c0-0.1,0-0.2,0-0.3c0-0.2,0.1-0.4,0.1-0.7
			c0-0.1,0-0.1,0-0.2c0,0,0-0.1,0-0.1c0,0,0-0.1,0-0.1c0,0,0-0.1-0.1-0.1c-0.1-0.1-0.3-0.2-0.5-0.2c-0.1,0-0.2,0-0.3-0.1
			c-0.2-0.1-0.3-0.2-0.3-0.4c0,0,0-0.1,0.1-0.1c0-0.1,0.1-0.3,0.2-0.5c0,0,0.1-0.1,0.1-0.1c0-0.1,0.1-0.2,0.1-0.3c0,0,0-0.1-0.1-0.1
			c0-0.1,0-0.2,0-0.3c0-0.4-0.3-0.7-0.6-0.8c0,0,0,0,0,0c0-0.1-0.1-0.1-0.1-0.1c-0.1,0-0.1,0-0.1,0.1c0,0,0,0,0,0
			c-0.3,0.1-0.6,0.4-0.6,0.8c0,0.1,0,0.2,0,0.3c0,0-0.1,0-0.1,0.1c0,0.1,0,0.2,0.1,0.3c0,0.1,0.1,0.1,0.1,0.1
			c0.1,0.2,0.1,0.4,0.2,0.5c0,0.1,0.1,0.1,0,0.2c0,0.1-0.1,0.2-0.3,0.3c-0.1,0-0.2,0.1-0.3,0.1c-0.2,0-0.4,0.1-0.5,0.2
			c0,0-0.1,0.1-0.1,0.1c0,0,0,0.1,0,0.1c0,0,0,0.1,0,0.1c0,0.1,0,0.1,0,0.2c0,0.2,0,0.4,0.1,0.7c0,0.1,0,0.2,0,0.3
			c0,0.1,0,0.3,0,0.4c0,0.1,0.1,0.2,0,0.3c0,0,0,0-0.1,0.1c-0.1,0.1-0.1,0.1-0.2,0.2c0,0-0.1,0.1-0.1,0.1c-0.1,0.1-0.1,0.2-0.2,0.2
			c0,0.1-0.1,0.1-0.1,0.2c0,0.1-0.1,0.1-0.1,0.2c0,0,0,0.1-0.1,0.1c0,0.1-0.1,0.2-0.1,0.2c0,0,0,0,0,0.1c0,0-0.1,0.1-0.1,0.1
			c0,0,0,0,0,0l-0.1,0.1c0,0,0,0,0,0c0,0,0,0-0.4,0c-0.4,0-0.4,0-0.4,0c0,0,0,0.2,0,0.3s0,0.1,0.1,0.1c0,0,0,0-0.1,0.1
			c-0.2,0.1-0.2,0.2-0.2,0.2c0,0,0.2-0.1,0.4-0.2c0.2-0.1,0.4-0.2,0.4-0.1c0,0,0,0,0,0l0,0l0,0c0,0,0,0,0,0c0,0,0,0,0,0c0,0,0,0,0,0
			c0,0,0,0,0,0c0,0,0,0,0,0c0,0,0,0-0.1,0.1c-0.1,0.1-0.2,0.4-0.1,0.5c0,0.2,0.2,0.3,0.3,0.4c0.1,0,0.2,0.1,0.3,0.1
			c0.2,0.1,0.4,0.1,0.6,0.1c0,0,0,0,0,0c0.1,0,0.2,0,0.4-0.1c0.1,0,0.2,0,0.3-0.1c0.2-0.1,0.4-0.1,0.5-0.2c0.2-0.1,0.5-0.1,0.7-0.3
			c0.1,0,0.1-0.1,0.2-0.1c0,0,0,0,0,0c0.1,0,0.1,0.1,0.2,0.1c0.2,0.1,0.5,0.2,0.7,0.3c0.2,0.1,0.3,0.1,0.5,0.2
			c0.1,0,0.2,0.1,0.3,0.1c0.1,0,0.2,0.1,0.4,0.1c0,0,0,0,0,0c0.2,0,0.4,0,0.6-0.1c0.1,0,0.2-0.1,0.3-0.1c0.2-0.1,0.3-0.2,0.3-0.4
			c0-0.2,0-0.4-0.1-0.5C340.9,248.9,340.9,248.9,340.9,248.8C340.9,248.9,340.9,248.8,340.9,248.8
			C340.9,248.8,340.9,248.8,340.9,248.8C340.9,248.8,340.9,248.8,340.9,248.8C340.9,248.8,340.9,248.8,340.9,248.8
			C340.9,248.8,340.9,248.8,340.9,248.8C340.9,248.8,340.9,248.8,340.9,248.8z M334.3,248.7c-0.1,0-0.1-0.1-0.1-0.2
			c0,0,0.3,0,0.3,0.1C334.5,248.6,334.4,248.7,334.3,248.7z M336.9,247c0,0.1,0,0.1-0.1,0.2c0,0,0,0.1,0,0.1c0,0,0,0,0,0
			c0,0,0,0.1-0.1,0.1c0,0,0,0.1,0,0.1c0,0,0,0.1-0.1,0.1c0,0.1-0.1,0.1-0.1,0.2c0,0,0,0.1,0,0.1c0,0,0,0,0,0c0,0,0,0.1,0,0.1
			c0,0,0,0.1,0,0.1c0,0,0,0,0,0c0,0,0,0.1-0.1,0.1c0,0,0,0-0.1,0c0,0,0,0,0,0c0,0,0,0-0.1,0c0,0,0,0,0,0c-0.1,0-0.1,0-0.2,0
			c0,0-0.1,0-0.1,0c0,0-0.1,0-0.1,0c0,0,0,0-0.1,0c0,0,0,0,0,0c0,0,0,0-0.1,0c0,0,0,0-0.1,0c0,0-0.1,0-0.1,0c0,0,0,0-0.1,0
			c0,0-0.1,0-0.1,0c0,0,0,0,0,0c0,0,0,0,0,0c0,0,0.1-0.1,0.1-0.1c0,0,0.1-0.1,0.1-0.1c0,0,0,0,0.1,0c0,0,0,0,0.1,0c0,0,0,0,0.1-0.1
			c0,0,0.1-0.1,0.1-0.1c0,0,0,0,0.1-0.1c0,0,0.1,0,0.1-0.1c0,0,0.1,0,0.1-0.1c0,0,0.1-0.1,0.1-0.1c0,0,0-0.1,0.1-0.1
			c0,0,0.1-0.1,0.1-0.1c0,0,0.1-0.1,0.1-0.2c0,0,0,0,0,0c0,0,0-0.1,0.1-0.1c0,0,0,0,0-0.1c0,0,0-0.1,0.1-0.1c0-0.1,0.1-0.1,0.1-0.2
			c0,0,0-0.1,0-0.1c0-0.1,0-0.1,0.1-0.2c0,0,0-0.1,0-0.1c0,0,0,0,0,0c0,0,0-0.1,0-0.1c0,0,0,0,0-0.1c0,0,0,0,0-0.1c0,0,0-0.1,0-0.1
			c0,0,0,0,0-0.1c0,0,0,0,0,0c0,0,0,0,0,0c0,0,0,0.1,0,0.1c0,0,0,0.1,0,0.1c0,0,0,0.1,0,0.1c0,0,0,0.1,0,0.1c0,0,0,0.1,0,0.1
			C336.9,246.9,336.9,246.9,336.9,247C336.9,247,336.9,247,336.9,247z M340.3,248.6c0,0-0.1,0-0.1,0c0,0,0,0-0.1,0c0,0-0.1,0-0.1,0
			c0,0,0,0-0.1,0c0,0,0,0-0.1,0c0,0,0,0,0,0c0,0,0,0-0.1,0c0,0-0.1,0-0.1,0c0,0-0.1,0-0.1,0c-0.1,0-0.1,0-0.2,0c0,0,0,0,0,0
			c0,0,0,0-0.1,0c0,0,0,0,0,0c0,0,0,0-0.1,0c0,0-0.1-0.1-0.1-0.1c0,0,0,0,0,0c0,0,0-0.1,0-0.1c0,0,0-0.1,0-0.1c0,0,0,0,0,0
			c0,0,0-0.1,0-0.1c0-0.1-0.1-0.1-0.1-0.2c0,0,0-0.1-0.1-0.1c0,0,0-0.1,0-0.1c0,0,0-0.1-0.1-0.1c0,0,0,0,0,0c0,0,0-0.1,0-0.1
			c0-0.1,0-0.1-0.1-0.2c0,0,0-0.1,0-0.1c0,0,0-0.1,0-0.1c0,0,0-0.1,0-0.1c0,0,0-0.1,0-0.1c0,0,0-0.1,0-0.1c0,0,0-0.1,0-0.1
			c0,0,0-0.1,0-0.1c0,0,0,0,0,0c0,0,0,0,0,0c0,0,0,0,0,0.1c0,0,0,0.1,0,0.1c0,0,0,0,0,0.1c0,0,0,0,0,0.1c0,0,0,0.1,0,0.1
			c0,0,0,0,0,0c0,0,0,0.1,0,0.1c0,0.1,0,0.1,0.1,0.2c0,0,0,0.1,0,0.1c0,0.1,0.1,0.1,0.1,0.2c0,0,0,0.1,0.1,0.1c0,0,0,0,0,0.1
			c0,0,0,0.1,0.1,0.1c0,0,0,0,0,0c0,0.1,0.1,0.1,0.1,0.2c0,0,0.1,0.1,0.1,0.1c0,0,0.1,0.1,0.1,0.1c0,0,0.1,0.1,0.1,0.1
			c0,0,0.1,0,0.1,0.1c0,0,0.1,0,0.1,0.1c0,0,0.1,0,0.1,0.1c0,0,0.1,0.1,0.1,0.1c0,0,0,0,0.1,0.1c0,0,0,0,0.1,0c0,0,0,0,0.1,0
			c0,0,0.1,0.1,0.1,0.1C340.2,248.5,340.2,248.5,340.3,248.6C340.3,248.5,340.3,248.5,340.3,248.6
			C340.3,248.6,340.3,248.6,340.3,248.6z M340.9,248.5c0-0.1,0.3-0.1,0.3-0.1c0,0.1,0,0.2-0.1,0.2
			C341,248.7,340.9,248.6,340.9,248.5z"/>
		<path class="st0" d="M301.4,382c-3.5,0-6.4,2.9-6.4,6.4c0,1.4,0.4,2.7,1.2,3.7h0.6c-0.8-1-1.3-2.3-1.3-3.7c0-3.3,2.7-5.9,5.9-5.9
			c3.3,0,5.9,2.7,5.9,5.9c0,1.4-0.5,2.7-1.3,3.7h0.6c0.7-1,1.2-2.3,1.2-3.7C307.8,384.8,305,382,301.4,382z"/>
		<path class="st0" d="M304.8,387.4l-1.9,1.1l-0.1,0c-0.1,0.1-0.1,0.3-0.1,0.4c0,0.1,0.1,0.1,0.2,0.2c0,0-0.1,0-0.1,0.1
			c-0.2,0.1-0.5,0.2-0.7,0.2v-1.7h0.6c0.1,0,0.2,0,0.2-0.1c0.1-0.1,0.1-0.2,0.1-0.3l0-0.8c0-0.1,0-0.2-0.1-0.3
			c-0.1-0.1-0.2-0.1-0.3-0.1h-0.5c0-0.1,0-0.1,0.1-0.2l0.3-0.4c0.1-0.2,0.5-0.6,0.4-1.3c-0.1-0.7-0.6-1.2-1.2-1.4
			c-0.4-0.1-0.8,0-1.1,0.2c-0.4,0.2-0.6,0.6-0.7,1c-0.1,0.7,0.3,1.3,0.4,1.4l0.2,0.3c0,0.1,0.1,0.1,0.1,0.2l-0.5,0
			c-0.1,0-0.1,0-0.2,0.1c-0.1,0-0.1,0.1-0.2,0.2l0,0v0.8c0,0.1,0,0.3,0.1,0.3c0.1,0,0.1,0.1,0.2,0h0.5l0,1.7c-0.1,0-0.2,0-0.4-0.1
			c-0.2-0.1-0.3-0.1-0.5-0.2c0.1,0,0.1-0.1,0.1-0.1c0.1-0.1,0.1-0.4,0-0.5l-1.8-1.1c-0.1-0.1-0.2-0.1-0.4-0.1
			c-0.2,0-0.3,0.2-0.3,0.4l0,2.3l0.1,0.1c0.1,0.1,0.2,0.1,0.4,0.1c0.1,0,0.1,0,0.2-0.1l0.2-0.2c0.2,0.2,0.4,0.4,0.6,0.6
			c0.3,0.3,0.7,0.5,1.1,0.7c0.3,0.1,0.6,0.3,0.9,0.5c0.1,0.1,0.2,0.1,0.2,0.2c0,0.1,0.1,0.1,0.3,0.2c0,0,0,0,0,0
			c0.1,0,0.3-0.1,0.3-0.1c0.1-0.1,0.2-0.2,0.4-0.3c0.2-0.2,0.5-0.3,0.8-0.4c0.5-0.2,0.9-0.5,1.2-0.8c0.1-0.1,0.3-0.3,0.4-0.4
			l0.1,0.2c0.1,0.2,0.4,0.2,0.5,0.1c0.1-0.1,0.1-0.1,0.2-0.3l0-2.2c0-0.1,0-0.2-0.1-0.3C305.2,387.4,305,387.3,304.8,387.4z
			 M301.4,383.8c0.4,0,0.8,0.3,0.8,0.8s-0.3,0.8-0.8,0.8s-0.8-0.3-0.8-0.8S301,383.8,301.4,383.8z M304.9,389.6l-0.4-0.5l-0.2,0.3
			c-0.2,0.2-0.3,0.4-0.5,0.6c-0.3,0.3-0.7,0.6-1.1,0.8c-0.3,0.1-0.6,0.3-0.8,0.5c-0.1,0.1-0.3,0.2-0.4,0.3l0,0l0,0
			c-0.1-0.1-0.2-0.2-0.3-0.2c-0.3-0.2-0.7-0.5-1-0.6c-0.3-0.2-0.7-0.4-0.9-0.6c-0.3-0.2-0.5-0.5-0.7-0.8l-0.2-0.3l-0.3,0.5l0-1.7
			l1.5,0.9l-0.8,0l0.4,0.4c0.3,0.3,0.7,0.5,1.1,0.7c0.2,0.1,0.5,0.1,0.7,0.1l0.2,0l0-2.7h-0.9v-0.6h0.9l0-0.2c0-0.1,0-0.2,0-0.3
			c0-0.1-0.1-0.3-0.1-0.4l-0.1-0.2c0.2,0.1,0.4,0.2,0.6,0.2c0.2,0,0.5-0.1,0.7-0.2l-0.2,0.3c-0.1,0.1-0.1,0.2-0.1,0.4
			c0,0.1,0,0.2,0,0.3l0,0.2h0.9l0,0.6h-0.9v2.7l0.2,0c0.4,0,0.8-0.1,1.1-0.3c0.3-0.1,0.5-0.3,0.7-0.5l0.4-0.4h-0.8l1.5-0.9V389.6z"
			/>
		<path class="st0" d="M267.2,387c-3.5,0-6.4,2.9-6.4,6.4c0,1.4,0.4,2.6,1.2,3.7h0.6c-0.8-1-1.3-2.3-1.3-3.7c0-3.3,2.6-5.9,5.9-5.9
			c3.3,0,5.9,2.6,5.9,5.9c0,1.4-0.5,2.7-1.3,3.7h0.6c0.7-1,1.2-2.3,1.2-3.7C273.5,389.8,270.7,387,267.2,387z"/>
		<path class="st0" d="M267.1,389.5c0,0,0.2-0.3,0.2-0.3l-1-0.6l-2.2,0.7l0.1,0.3l2.1-0.6C266.3,389.1,267.1,389.5,267.1,389.5z"/>
		<path class="st0" d="M264.2,390.3l2.1-0.6c0,0,0.9,0.5,0.9,0.5c0,0,0.2-0.3,0.2-0.3l-1-0.6l-2.2,0.7L264.2,390.3z"/>
		<path class="st0" d="M264.2,390.9l2.1-0.6c0,0,0.9,0.5,0.9,0.5c0,0,0.2-0.3,0.2-0.3l-1-0.6l-2.2,0.7L264.2,390.9z"/>
		<path class="st0" d="M264.2,391.6l2.1-0.6c0,0,0.9,0.5,0.9,0.5c0,0,0.2-0.3,0.2-0.3l-1-0.6l-2.2,0.7L264.2,391.6z"/>
		<path class="st0" d="M264.2,392.2l2.1-0.6c0,0,0.9,0.5,0.9,0.5c0,0,0.2-0.3,0.2-0.3l-1-0.6l-2.2,0.7L264.2,392.2z"/>
		<path class="st0" d="M264.2,392.9l2.1-0.6c0,0,0.9,0.5,0.9,0.5c0,0,0.2-0.3,0.2-0.3l-1-0.6l-2.2,0.7L264.2,392.9z"/>
		<path class="st0" d="M264.2,393.5l2.1-0.6c0,0,0.9,0.5,0.9,0.5c0,0,0.2-0.3,0.2-0.3l-1-0.6l-2.2,0.7L264.2,393.5z"/>
		<path class="st0" d="M264.2,394.2l2.1-0.6c0,0,0.9,0.5,0.9,0.5c0,0,0.2-0.3,0.2-0.3l-1-0.6l-2.2,0.7L264.2,394.2z"/>
		<path class="st0" d="M264.2,394.8l2.1-0.6c0,0,0.9,0.5,0.9,0.5c0,0,0.2-0.3,0.2-0.3l-1-0.6l-2.2,0.7L264.2,394.8z"/>
		<path class="st0" d="M264.2,395.4l2.1-0.6c0,0,0.9,0.5,0.9,0.5c0,0,0.2-0.3,0.2-0.3l-1-0.6l-2.2,0.7L264.2,395.4z"/>
		<path class="st0" d="M267.6,395.4l2.1-0.6c0,0,0.9,0.5,0.9,0.5c0,0,0.2-0.3,0.2-0.3l-1-0.6l-2.2,0.7L267.6,395.4z"/>
		<path class="st0" d="M267.6,394.8l2.1-0.6c0,0,0.9,0.5,0.9,0.5c0,0,0.2-0.3,0.2-0.3l-1-0.6l-2.2,0.7L267.6,394.8z"/>
		<path class="st0" d="M267.6,394.2l2.1-0.6c0,0,0.9,0.5,0.9,0.5c0,0,0.2-0.3,0.2-0.3l-1-0.6l-2.2,0.7L267.6,394.2z"/>
		<path class="st0" d="M267.6,393.5l2.1-0.6c0,0,0.9,0.5,0.9,0.5c0,0,0.2-0.3,0.2-0.3l-1-0.6l-2.2,0.7L267.6,393.5z"/>
		<path class="st0" d="M267.6,392.9l2.1-0.6c0,0,0.9,0.5,0.9,0.5c0,0,0.2-0.3,0.2-0.3l-1-0.6l-2.2,0.7L267.6,392.9z"/>
		<path class="st0" d="M267.6,392.2l2.1-0.6c0,0,0.9,0.5,0.9,0.5c0,0,0.2-0.3,0.2-0.3l-1-0.6l-2.2,0.7L267.6,392.2z"/>
		<path class="st0" d="M267.6,391.6l2.1-0.6c0,0,0.9,0.5,0.9,0.5c0,0,0.2-0.3,0.2-0.3l-1-0.6l-2.2,0.7L267.6,391.6z"/>
		<path class="st0" d="M270.6,390.8c0,0,0.2-0.3,0.2-0.3l-1-0.6l-2.2,0.7l0.1,0.3l2.1-0.6C269.7,390.3,270.6,390.8,270.6,390.8z"/>
		<path class="st0" d="M270.7,395.8l0.1-0.2l-1-0.6l-2.2,0.7l0.1,0.3v0.7h-0.4l0-0.9l0.1-0.1l-1-0.6l-2.3,0.7l0.1,0.2
			c0,0,0,0.7,0,0.7l-0.9,0v0.3h8v-0.3h-0.5L270.7,395.8z"/>
		<path class="st0" d="M144.2,428.8c-3.5,0-6.4,2.9-6.4,6.4c0,1.4,0.4,2.7,1.2,3.7h0.6c-0.8-1-1.3-2.3-1.3-3.7
			c0-3.3,2.6-5.9,5.9-5.9c3.3,0,5.9,2.6,5.9,5.9c0,1.4-0.5,2.7-1.3,3.7h0.6c0.7-1,1.2-2.3,1.2-3.7
			C150.6,431.6,147.7,428.8,144.2,428.8z"/>
		<polygon class="st0" points="141.8,433 142,433.1 144,431.2 147.1,434.2 145,436.3 144.3,435.6 144.1,435.8 145,436.7 
			147.5,434.2 144,430.8 		"/>
		<polygon class="st0" points="143,436.7 146.2,433.5 146,433.3 143,436.3 140.9,434.2 141.7,433.5 141.5,433.3 140.5,434.2 		"/>
		<polygon class="st0" points="146.5,433.2 147,432.7 144,429.8 141.1,432.7 143.7,435.4 143.9,435.2 141.4,432.7 144,430.2 
			146.6,432.7 146.3,433 		"/>
		
			<rect x="143.7" y="431.9" transform="matrix(0.7071 -0.7071 0.7071 0.7071 -263.467 228.4271)" class="st0" width="0.6" height="0.6"/>
		<path class="st0" d="M142.3,437.3c0.1,0,0.3,0,0.3,0.1l0.1-0.2c-0.1,0-0.2-0.1-0.4-0.1c-0.5,0-0.9,0.4-0.9,0.9
			c0,0.6,0.4,0.9,0.8,0.9c0.2,0,0.4,0,0.5-0.1l0-0.2c-0.1,0-0.2,0.1-0.4,0.1c-0.4,0-0.7-0.3-0.7-0.7
			C141.6,437.5,141.9,437.3,142.3,437.3z"/>
		<polygon class="st0" points="143.2,437.1 143,437.1 143,438.8 143.9,438.8 143.9,438.7 143.2,438.7 		"/>
		<path class="st0" d="M145.1,438.1c0,0.4-0.2,0.5-0.4,0.5c-0.2,0-0.4-0.2-0.4-0.5v-1h-0.2v1c0,0.5,0.3,0.7,0.6,0.7
			c0.4,0,0.6-0.2,0.6-0.7v-1h-0.2V438.1z"/>
		<path class="st0" d="M146.5,437.9L146.5,437.9c0.2-0.1,0.3-0.2,0.3-0.4c0-0.1-0.1-0.2-0.1-0.3c-0.1-0.1-0.2-0.1-0.5-0.1
			c-0.2,0-0.3,0-0.4,0v1.7c0.1,0,0.2,0,0.3,0c0.3,0,0.5-0.1,0.6-0.2c0.1-0.1,0.1-0.2,0.1-0.3C146.8,438.1,146.6,438,146.5,437.9z
			 M145.9,437.3c0,0,0.1,0,0.2,0c0.2,0,0.4,0.1,0.4,0.3c0,0.2-0.1,0.3-0.4,0.3h-0.2V437.3z M146.1,438.7c-0.1,0-0.1,0-0.2,0V438h0.2
			c0.2,0,0.4,0.1,0.4,0.3C146.6,438.6,146.4,438.7,146.1,438.7z"/>
		<g>
			<path class="st0" d="M245.6,405.4L245.6,405.4L245.6,405.4c-0.1-0.3-0.2-0.6-0.2-0.9c0-0.6,0.3-1.2,0.9-1.5l0,0l0,0
				c-0.1-0.2-0.1-0.4-0.1-0.6c0-0.2,0-0.4,0.1-0.5l0.1-0.1c0,0,0,0,0,0c-0.6-0.3-1.3-0.5-2.1-0.6c0,0,0,0,0,0c0,0,0,0,0,0
				c0,0-0.1,0-0.1,0c0,0,0,0,0,0c0,0,0,0,0,0c0,0,0,0.1,0,0.1v0c0,0,0,0,0,0c0,0,0,0,0,0v0c0,0,0,0,0,0c0,0.1,0,0.2,0.1,0.3l0.1,0.3
				l-0.2,0.1c-0.3,0.2-0.6,0.6-0.6,1c0,0.2,0,0.4,0.1,0.5l0.2,0.3l-0.3,0.2c-0.2,0.1-0.4,0.3-0.4,0.5c0.2,0.2,0.3,0.5,0.3,0.8
				c0,0.2,0,0.3-0.1,0.5c0,0,0.1,0.1,0.2,0.1c0.3,0.2,0.7,0.2,1,0.1l0,0c0,0,0.3-0.1,0.6-0.2C245.2,405.6,245.4,405.5,245.6,405.4z"
				/>
			<path class="st0" d="M249.1,407.7c0.1-0.4,0.1-0.7,0.1-1.1c0-1.8-0.9-3.4-2.2-4.4c-0.2-0.1-0.3-0.2-0.5-0.3c0,0-0.1,0-0.1-0.1
				c-0.1,0.2-0.1,0.4-0.1,0.6c0,0.2,0,0.4,0.1,0.5l0.1,0.1l-0.1,0.1c-0.5,0.3-0.8,0.8-0.8,1.4c0,0.3,0.1,0.5,0.2,0.8l0.1,0.2
				l-0.2,0.1c-0.2,0.1-0.3,0.2-0.5,0.4c-0.1,0.1-0.1,0.1-0.1,0.2c-0.1,0.2-0.2,0.5-0.2,0.8c0,0.9,0.7,1.6,1.6,1.6
				c0.3,0,0.4,0,0.6-0.1c0,0,0,0,0,0v-1.1c-0.4-0.2-0.7-0.6-0.8-1l-0.1-0.3l0.9-0.3l0.1,0.2l0-0.2v-0.7h1.1v2.8
				c0,0.1,0.2,0.3,0.4,0.3C249,408,249.1,407.7,249.1,407.7z"/>
			<path class="st0" d="M247.1,406.2c-0.1-0.1-0.2-0.2-0.2-0.3l0-0.2l-0.6,0.2l0,0.2c0.1,0.4,0.5,0.8,0.8,1v3.2l0.9,0v-5.2h-0.9
				V406.2z"/>
			<path class="st0" d="M243.7,400.2c-3.5,0-6.4,2.9-6.4,6.4c0,1.4,0.4,2.7,1.2,3.7h0.6c-0.8-1-1.3-2.3-1.3-3.7
				c0-3.3,2.7-5.9,5.9-5.9c3.3,0,5.9,2.7,5.9,5.9c0,1.4-0.5,2.7-1.3,3.7h0.6c0.7-1,1.2-2.3,1.2-3.7
				C250.1,403,247.3,400.2,243.7,400.2z"/>
			<path class="st0" d="M241.3,405.3c0,0.5,0.4,0.9,0.9,0.9s0.9-0.4,0.9-0.9s-0.4-0.9-0.9-0.9S241.3,404.8,241.3,405.3z"/>
			<path class="st0" d="M242.7,406.4c0,0-0.1,0-0.1-0.1c-0.1-0.1-0.2-0.1-0.3-0.1c-0.4,0-0.8,0-1.1,0c0,0-0.6-0.3-0.7-0.3
				c0.1-0.3,0.3-0.7,0.3-0.9c0.1-0.3,0.1-0.6,0.2-0.9c0,0,0,0,0,0c0,0,0.1,0,0.1,0s-0.1,0-0.1,0c0,0,0,0,0-0.1c0.5,0,0.8-0.5,0.8-1
				c0-0.6-0.4-1-0.9-1c-0.5,0-0.9,0.5-0.9,1c0,0.6,0.4,1,0.8,1c0,0,0,0,0,0c0,0,0,0,0,0c0,0,0,0,0,0c0,0,0,0,0,0
				c0,0-0.2,0.8-0.2,0.9c0,0.1-0.2,0.5-0.3,0.8c-0.3,0-0.5,0.1-0.6,0.3c0,0.2,0,0.3,0.1,0.4c0.3,0.2,0.6,0.3,0.9,0.5h0.5v0.9
				c0,0,0,0.1,0.1,0.1c0,0,0,0.1,0.1,0.1c-0.2,0.5-0.4,1-0.6,1.5c0,0.3,0.1,0.5,0.4,0.5c0.2,0,0.3,0,0.4-0.2
				c0.1-0.4,0.3-0.7,0.4-1.1l0.1,0.4l0.8,0.7c0,0,0.2,0.1,0.5,0c0.2-0.1,0.3-0.4,0.1-0.6c-0.2-0.2-0.4-0.4-0.6-0.6l-0.2-0.6
				c0,0,0.1-0.1,0.1-0.1c0-0.1,0-0.1,0.1-0.2c0-0.1,0-0.2,0-0.3l0.4,0.6c0.1,0.2,0.3,0.3,0.5,0.2c0.2-0.1,0.4-0.3,0.3-0.6
				c-0.2-0.3-0.3-0.6-0.5-0.9L242.7,406.4z"/>
		</g>
	</g>
	<g>
		<rect x="383.5" y="299.1" class="st0" width="39.1" height="10.1"/>
		<g>
			<path class="st5" d="M389.2,302.9c-0.4-0.3-0.7-0.3-0.8-0.3c-0.2,0-0.3,0-0.5,0.2c-0.1,0.1-0.1,0.2-0.1,0.3c0,0.1,0,0.2,0.1,0.3
				c0.1,0.1,0.3,0.2,0.6,0.3l0.4,0.1c0.2,0.1,0.5,0.2,0.7,0.4c0.3,0.3,0.4,0.6,0.4,0.9c0,0.5-0.2,0.9-0.4,1.2
				c-0.4,0.4-1,0.5-1.4,0.5c-0.3,0-0.6-0.1-1-0.2c-0.2-0.1-0.5-0.3-0.7-0.5l0.6-0.8c0.1,0.1,0.3,0.3,0.4,0.4
				c0.2,0.1,0.4,0.2,0.6,0.2c0.1,0,0.3,0,0.5-0.2c0.1-0.1,0.2-0.2,0.2-0.4c0-0.2-0.1-0.3-0.2-0.3c-0.1-0.1-0.4-0.2-0.6-0.3l-0.4-0.1
				c-0.2-0.1-0.5-0.2-0.7-0.4c-0.3-0.3-0.3-0.6-0.3-0.8c0-0.4,0.1-0.8,0.4-1.1c0.3-0.3,0.7-0.4,1.2-0.4c0.3,0,0.9,0.1,1.4,0.5
				L389.2,302.9z"/>
			<path class="st5" d="M394.9,302.4c0.5,0.4,0.7,1.1,0.7,1.8c0,0.6-0.2,1.3-0.7,1.8c-0.4,0.4-1.1,0.7-1.9,0.7
				c-0.9,0-1.5-0.4-1.9-0.7c-0.5-0.4-0.8-1.1-0.8-1.8c0-0.7,0.3-1.4,0.7-1.8c0.3-0.3,0.9-0.7,1.9-0.7
				C393.8,301.7,394.5,301.9,394.9,302.4z M392,303.1c-0.2,0.2-0.4,0.6-0.4,1.1c0,0.4,0.1,0.8,0.4,1.1c0.3,0.3,0.7,0.4,1,0.4
				c0.5,0,0.8-0.2,1.1-0.4c0.2-0.2,0.4-0.5,0.4-1.1c0-0.5-0.2-0.9-0.4-1.1c-0.2-0.2-0.6-0.4-1.1-0.4
				C392.7,302.7,392.3,302.8,392,303.1z"/>
			<path class="st5" d="M400.6,304.6c0,0.5-0.1,1-0.5,1.5c-0.5,0.5-1,0.5-1.5,0.5s-1-0.1-1.5-0.5c-0.5-0.5-0.5-1.1-0.5-1.5v-2.8h1.1
				v2.8c0,0.2,0,0.6,0.3,0.8c0.2,0.2,0.5,0.3,0.7,0.3s0.5,0,0.7-0.3c0.2-0.2,0.3-0.6,0.3-0.8v-2.8h1.1v2.8H400.6z"/>
			<path class="st5" d="M402.7,301.8v3.9h1.5v0.9h-2.6v-4.8H402.7z"/>
			<path class="st5" d="M410.8,302.4c0.5,0.4,0.8,1.1,0.8,1.8c0,0.6-0.2,1.3-0.8,1.8c-0.4,0.4-1.1,0.7-1.9,0.7
				c-0.9,0-1.5-0.4-1.9-0.7c-0.5-0.4-0.7-1.1-0.7-1.8c0-0.7,0.3-1.4,0.7-1.8c0.3-0.3,0.9-0.7,1.9-0.7
				C409.7,301.7,410.3,301.9,410.8,302.4z M407.9,303.1c-0.2,0.2-0.4,0.6-0.4,1.1c0,0.4,0.1,0.8,0.4,1.1c0.3,0.3,0.7,0.4,1,0.4
				c0.5,0,0.8-0.2,1.1-0.4c0.2-0.2,0.4-0.5,0.4-1.1c0-0.5-0.2-0.9-0.4-1.1c-0.2-0.2-0.6-0.4-1.1-0.4
				C408.5,302.7,408.1,302.8,407.9,303.1z"/>
			<path class="st5" d="M416.4,304.6c0,0.5-0.1,1-0.5,1.5c-0.5,0.5-1,0.5-1.5,0.5s-1-0.1-1.5-0.5c-0.5-0.5-0.5-1.1-0.5-1.5v-2.8h1.1
				v2.8c0,0.2,0,0.6,0.3,0.8c0.2,0.2,0.5,0.3,0.7,0.3s0.5,0,0.7-0.3c0.2-0.2,0.3-0.6,0.3-0.8v-2.8h1.1v2.8H416.4z"/>
			<path class="st5" d="M419.2,302.7v3.9h-1.1v-3.9h-1v-0.9h3.2v0.9H419.2z"/>
		</g>
	</g>
</g>
</svg>
