<?xml version="1.0" encoding="utf-8"?>
<!-- Generator: Adobe Illustrator 24.3.0, SVG Export Plug-In . SVG Version: 6.00 Build 0)  -->
<svg version="1.1" id="Capa_1" xmlns="http://www.w3.org/2000/svg" xmlns:xlink="http://www.w3.org/1999/xlink" x="0px" y="0px"
	 viewBox="0 0 205 263" style="enable-background:new 0 0 205 263;" xml:space="preserve">
<style type="text/css">
	.st0{fill:none;stroke:#FFFFFF;stroke-miterlimit:10;}
	.st1{fill:#FFFFFF;}
</style>
<g>
	<g>
		<g>
			<g>
				<path class="st0" d="M65,107.2c0.6-0.4,1.2-0.8,1.7-1.2c1.2-0.9,2.1-1.9,3.4-3.2c1.9-1.8,2-3.9,1.7-5.8
					c-0.3-1.9-1.4-20.4-2-27.9c-0.5-7.5-3.7-7.3-5.6-8c-1.9-0.6-4-1.7-6.2-2.5c-0.3-0.1-0.6-0.2-1-0.3l6.9,49.5
					C64.3,107.6,64.7,107.4,65,107.2z"/>
			</g>
			<g>
				<path class="st0" d="M140.7,189.4c-0.4-1.6-2.3-3.2-5-5.9c-2.8-2.8-16.4-16.3-19.1-18.4c-2.7-2.2-4.7-3.4-8-0.9
					c-2.1,1.6-6.3,4.2-9.8,6.3l36.4,31.6C139.3,196.2,141,190.9,140.7,189.4z"/>
			</g>
			<g>
				<path class="st0" d="M93.7,173.5c-2.7,1.6-4.7,1.2-7.5-1.6c-2.7-2.8-12.3-9.8-21.1-25.4c-6.9-12-9.9-25-10.7-29
					c-0.8-3.9,1.5-5.1,3.7-6.2c1.1-0.5,2.4-1.3,3.7-2.1L54.6,58c-2-0.1-4.4,0.3-6.8,1.7c-4.2,2.3-15.4,7.3-20.9,23.6
					C25.6,87,25,91.1,24.8,95c-0.6,12.7,3.4,24.7,4.1,26.8c0.9,2.7,10.6,44.3,39.8,68.9c29.3,24.6,30.8,20.2,37.1,21.7
					c6.3,1.6,22.3-1.3,27.7-8.1c0.1-0.1,0.2-0.3,0.3-0.4l-37.2-32.2C95.4,172.5,94.3,173.1,93.7,173.5z"/>
			</g>
		</g>
		<g>
			<path class="st1" d="M120.5,24.5l-3.2,4.4c13.4,10.1,22.7,25.5,24.5,43.5c1.5,15.3-2.7,29.7-10.8,41.4l4.4,3.2
				c8.9-12.7,13.5-28.5,11.8-45.1C145.3,52.3,135.2,35.5,120.5,24.5z"/>
			<path class="st1" d="M110.5,38.2l-3.3,4.5c9.5,7.4,16.1,18.5,17.3,31.4c1.1,10.8-1.8,21.1-7.4,29.5l4.5,3.3
				c6.4-9.5,9.6-21.1,8.4-33.4C128.7,59,121.2,46.5,110.5,38.2z"/>
			<path class="st1" d="M100.2,52.2l-3.5,4.7c6.2,4.1,10.6,10.8,11.4,18.8c0.6,6.6-1.3,12.8-5,17.7l4.7,3.4c4.5-6,6.9-13.7,6.1-21.7
				C113.1,65.4,107.8,57.2,100.2,52.2z"/>
		</g>
	</g>
</g>
</svg>
