<?xml version="1.0" encoding="utf-8"?>
<!-- Generator: Adobe Illustrator 24.3.0, SVG Export Plug-In . SVG Version: 6.00 Build 0)  -->
<svg version="1.1" id="Capa_1" xmlns="http://www.w3.org/2000/svg" xmlns:xlink="http://www.w3.org/1999/xlink" x="0px" y="0px"
	 viewBox="0 0 205 263" style="enable-background:new 0 0 205 263;" xml:space="preserve">
<style type="text/css">
	.st0{fill:#FFFFFF;}
</style>
<g>
	<g>
		<g>
			<path class="st0" d="M186.1,45.1H18.9c-1.6,0-2.9,1.3-2.9,2.9v167.1c0,1.6,1.3,2.9,2.9,2.9h167.1c1.6,0,2.9-1.3,2.9-2.9V47.9
				C189,46.4,187.7,45.1,186.1,45.1z M21.8,50.8h43.2c0,8.7,0,34.2,0,34.6c0,26.1-16.1,42.1-43.2,43.1L21.8,50.8z M70.6,91.2h52.1
				v57.6H53.5v-24.8C63.7,116.1,69.9,104.1,70.6,91.2z M102.5,203.5v8.6H21.8v-77.9c9.1-0.1,17.9-2.4,25.9-6.6v23.9
				c0,1.6,1.3,2.9,2.9,2.9h17.3v23.1c0,1.6,1.3,2.9,2.9,2.9h36.5c1.6,0,2.8,0,3.9,0v20.2h-5.8C103.8,200.7,102.5,202,102.5,203.5z
				 M183.2,212.2h-74.9v-5.8h44c2.5,0,5,0,5-2.9v-25.9c0-15.1,9.9-24.8,25.9-25.8L183.2,212.2L183.2,212.2z M183.2,146
				c-19.3,1.1-31.7,13.2-31.7,31.6v23.1c-6.6,0-23.2,0-34.6,0v-23.1c0-0.8-0.3-1.5-0.8-2c-0.6-0.5-1.3-0.8-2.1-0.8
				c-0.4,0-30.7,0-40.3,0v-20.2h51.9c1.6,0,2.9-1.3,2.9-2.9V91.2h54.7L183.2,146L183.2,146z M183.2,85.4H70.8l0,0h-0.3
				c0.3-2.5,0.3-7.6,0.3-18.7V50.8h112.4V85.4z"/>
		</g>
	</g>
</g>
</svg>
