<?xml version="1.0" encoding="utf-8"?>
<!-- Generator: Adobe Illustrator 24.3.0, SVG Export Plug-In . SVG Version: 6.00 Build 0)  -->
<svg version="1.1" id="Capa_1" xmlns="http://www.w3.org/2000/svg" xmlns:xlink="http://www.w3.org/1999/xlink" x="0px" y="0px"
	 viewBox="0 0 205 263" style="enable-background:new 0 0 205 263;" xml:space="preserve">
<style type="text/css">
	.st0{fill:#FFFFFF;}
</style>
<g>
	<g>
		<g>
			<path class="st0" d="M131.1,161.4c-4,0-7.3-2.8-7.3-6.3c0-3.5,3.3-6.3,7.3-6.3c4,0,7.3,2.8,7.3,6.3c0,1.8,1.5,3.3,3.3,3.3
				c1.8,0,3.3-1.5,3.3-3.3c0-6.1-4.5-11.2-10.6-12.6v-1.7c0-1.8-1.5-3.3-3.3-3.3c-1.8,0-3.3,1.5-3.3,3.3v1.7
				c-6.1,1.4-10.6,6.5-10.6,12.6c0,7.2,6.3,13,14,13c4,0,7.3,2.8,7.3,6.3s-3.3,6.3-7.3,6.3c-4,0-7.3-2.8-7.3-6.3
				c0-1.8-1.5-3.3-3.3-3.3c-1.8,0-3.3,1.5-3.3,3.3c0,6.1,4.5,11.2,10.6,12.6v1.4c0,1.8,1.5,3.3,3.3,3.3c1.8,0,3.3-1.5,3.3-3.3V187
				c6.1-1.4,10.6-6.5,10.6-12.6C145.1,167.2,138.8,161.4,131.1,161.4z"/>
		</g>
	</g>
	<g>
		<g>
			<path class="st0" d="M167.5,141.6c-4.3-6.8-10.5-12.2-17.7-15.7c-1.7-0.8-3.6-0.1-4.4,1.6c-0.8,1.7-0.1,3.6,1.6,4.4
				c12.6,6.1,20.8,19,20.8,33c0,6-1.5,11.9-4.3,17.2c-0.9,1.6-0.2,3.6,1.4,4.5c0.5,0.3,1,0.4,1.6,0.4c1.2,0,2.3-0.6,2.9-1.8
				c3.3-6.2,5-13.2,5-20.3C174.4,156.6,172,148.6,167.5,141.6z"/>
		</g>
	</g>
	<g>
		<g>
			<path class="st0" d="M136.3,121.7l-0.2,0c-1.8,0-3.3,1.5-3.3,3.3c0,1.8,1.5,3.3,3.3,3.3l0.2,0c0,0,0,0,0,0c1.8,0,3.3-1.5,3.3-3.3
				C139.6,123.2,138.2,121.7,136.3,121.7z"/>
		</g>
	</g>
	<g>
		<g>
			<path class="st0" d="M115.3,197.9c-12.6-6.1-20.8-19-20.8-33c0-6,1.5-11.9,4.3-17.2c0.9-1.6,0.2-3.6-1.4-4.5
				c-1.6-0.9-3.6-0.2-4.5,1.4c-3.3,6.2-5,13.2-5,20.3c0,8.3,2.4,16.4,6.8,23.3c4.3,6.8,10.5,12.2,17.7,15.7c0.5,0.2,1,0.3,1.4,0.3
				c1.2,0,2.4-0.7,3-1.9C117.6,200.7,116.9,198.7,115.3,197.9z"/>
		</g>
	</g>
	<g>
		<g>
			<path class="st0" d="M126.1,201.5l-0.2,0c-1.8,0-3.3,1.5-3.3,3.3c0,1.8,1.5,3.3,3.3,3.3l0.2,0c1.8,0,3.3-1.5,3.3-3.3
				C129.4,203,128,201.5,126.1,201.5z"/>
		</g>
	</g>
	<g>
		<g>
			<path class="st0" d="M146.2,110.4c-0.4-1-0.9-1.9-1.5-2.7h8.7c8.4,0,15.3-6.9,15.3-15.3s-6.9-15.3-15.3-15.3h-26.6
				c1.7-2.5,2.7-5.4,2.7-8.6c0-8.4-6.9-15.3-15.3-15.3H32.6c-8.4,0-15.3,6.9-15.3,15.3s6.9,15.3,15.3,15.3h26.6
				c-1.7,2.5-2.7,5.4-2.7,8.6c0,3.2,1,6.2,2.7,8.6h-8.7c-8.4,0-15.3,6.9-15.3,15.3c0,4.8,2.3,9.2,5.8,12c-3.5,2.8-5.8,7.1-5.8,12
				s2.3,9.2,5.8,12c-3.5,2.8-5.8,7.1-5.8,12c0,4.8,2.3,9.2,5.8,12c-3.5,2.8-5.8,7.1-5.8,12c0,8.4,6.9,15.3,15.3,15.3h39.2
				c10.3,11,25,18,41.3,18c31.2,0,56.6-25.4,56.6-56.6C187.7,139,170.1,117,146.2,110.4z M153.4,83.8c4.8,0,8.6,3.9,8.6,8.6
				s-3.9,8.6-8.6,8.6h-21.3H71.9c-4.8,0-8.6-3.9-8.6-8.6s3.9-8.6,8.6-8.6H153.4z M32.6,77.1c-4.8,0-8.6-3.9-8.6-8.6s3.9-8.6,8.6-8.6
				h81.5c4.8,0,8.6,3.9,8.6,8.6s-3.9,8.6-8.6,8.6H32.6z M50.6,107.7h81.5c1.3,0,2.6,0.3,3.8,0.9c-1.6-0.1-3.2-0.2-4.8-0.2
				c-15.6,0-29.8,6.4-40,16.6H50.6c-4.8,0-8.6-3.9-8.6-8.6S45.8,107.7,50.6,107.7z M50.6,131.7h34.8c-3.8,5.2-6.7,11-8.6,17.3H50.6
				c-4.8,0-8.6-3.9-8.6-8.6C42,135.5,45.8,131.7,50.6,131.7z M50.6,155.6h24.7c-0.5,3-0.8,6.1-0.8,9.3c0,2.7,0.2,5.4,0.6,8H50.6
				c-4.8,0-8.6-3.9-8.6-8.6S45.8,155.6,50.6,155.6z M50.6,196.9c-4.8,0-8.6-3.9-8.6-8.6c0-4.8,3.9-8.6,8.6-8.6h25.9
				c1.7,6.3,4.4,12.1,8,17.3H50.6z M131.1,214.8c-27.5,0-49.9-22.4-49.9-49.9s22.4-49.9,49.9-49.9s49.9,22.4,49.9,49.9
				S158.6,214.8,131.1,214.8z"/>
		</g>
	</g>
</g>
</svg>
