<?xml version="1.0" encoding="utf-8"?>
<!-- Generator: Adobe Illustrator 24.3.0, SVG Export Plug-In . SVG Version: 6.00 Build 0)  -->
<svg version="1.1" id="Capa_1" xmlns="http://www.w3.org/2000/svg" xmlns:xlink="http://www.w3.org/1999/xlink" x="0px" y="0px"
	 viewBox="0 0 237.5 205.8" style="enable-background:new 0 0 237.5 205.8;" xml:space="preserve">
<style type="text/css">
	.st0{enable-background:new    ;}
	.st1{fill:#021D49;}
	.st2{fill:none;stroke:#021D49;stroke-miterlimit:10;}
</style>
<g class="st0">
	<path class="st1" d="M25.8,82.8h0.7v7h2.9v0.7h-3.6V82.8z"/>
</g>
<g class="st0">
	<path class="st1" d="M33.7,82.6c1.1,0,2.1,0.4,2.8,1.2c0.8,0.8,1.1,1.7,1.1,2.9c0,1.1-0.4,2.1-1.1,2.9c-0.8,0.8-1.7,1.2-2.8,1.2
		s-2-0.4-2.8-1.2s-1.1-1.7-1.1-2.8c0-0.7,0.2-1.4,0.5-2.1c0.3-0.6,0.8-1.1,1.4-1.5C32.4,82.8,33,82.6,33.7,82.6z M33.8,83.4
		c-0.5,0-1.1,0.1-1.6,0.4c-0.5,0.3-0.9,0.7-1.2,1.2s-0.4,1.1-0.4,1.7c0,0.9,0.3,1.7,0.9,2.3c0.6,0.6,1.3,0.9,2.2,0.9
		c0.6,0,1.1-0.1,1.6-0.4c0.5-0.3,0.9-0.7,1.1-1.2c0.3-0.5,0.4-1.1,0.4-1.7c0-0.6-0.1-1.2-0.4-1.7c-0.3-0.5-0.7-0.9-1.2-1.2
		C34.8,83.5,34.3,83.4,33.8,83.4z"/>
</g>
<g class="st0">
	<path class="st1" d="M38.1,83.6v-0.8h4.1v0.8h-1.7v6.9h-0.8v-6.9H38.1z"/>
	<path class="st1" d="M43.2,82.8h4.3v0.8H44V86h3.5v0.8H44v3h3.5v0.8h-4.2L43.2,82.8L43.2,82.8z"/>
</g>
<g class="st0">
	<path class="st1" d="M19.9,100.6v7.9h-0.7v-1c-0.3,0.4-0.6,0.7-1,0.8c-0.4,0.2-0.8,0.3-1.2,0.3c-0.8,0-1.4-0.3-2-0.9
		c-0.5-0.6-0.8-1.3-0.8-2.1s0.3-1.5,0.8-2.1c0.6-0.6,1.2-0.9,2-0.9c0.5,0,0.9,0.1,1.2,0.3c0.4,0.2,0.7,0.5,1,0.9v-3.2H19.9z
		 M17.1,103.4c-0.4,0-0.8,0.1-1.1,0.3c-0.3,0.2-0.6,0.5-0.8,0.8c-0.2,0.4-0.3,0.7-0.3,1.1c0,0.4,0.1,0.8,0.3,1.2
		c0.2,0.4,0.5,0.7,0.8,0.9s0.7,0.3,1.1,0.3s0.8-0.1,1.1-0.3c0.3-0.2,0.6-0.5,0.8-0.8c0.2-0.3,0.3-0.7,0.3-1.2c0-0.7-0.2-1.2-0.6-1.7
		C18.2,103.6,17.7,103.4,17.1,103.4z"/>
	<path class="st1" d="M26.1,106.6l0.6,0.3c-0.2,0.4-0.4,0.7-0.7,1s-0.5,0.4-0.9,0.6c-0.3,0.1-0.7,0.2-1.1,0.2
		c-0.9,0-1.6-0.3-2.1-0.9c-0.5-0.6-0.8-1.3-0.8-2.1c0-0.7,0.2-1.4,0.6-1.9c0.5-0.7,1.3-1.1,2.2-1.1c0.9,0,1.7,0.4,2.2,1.1
		c0.4,0.5,0.6,1.2,0.6,1.9h-4.9c0,0.7,0.2,1.2,0.6,1.6c0.4,0.4,0.9,0.6,1.5,0.6c0.3,0,0.6,0,0.8-0.2c0.3-0.1,0.5-0.2,0.7-0.4
		C25.7,107.3,25.9,107,26.1,106.6z M26.1,105.1c-0.1-0.4-0.2-0.7-0.4-0.9c-0.2-0.2-0.4-0.4-0.7-0.6s-0.6-0.2-0.9-0.2
		c-0.5,0-1,0.2-1.4,0.5c-0.3,0.3-0.5,0.7-0.6,1.2H26.1z"/>
	<path class="st1" d="M32.2,100.8h1.5v7.7H33v-6.9h-1.2L32.2,100.8z"/>
	<path class="st1" d="M37.2,103.2h-0.7c0-0.8,0.3-1.4,0.7-1.9c0.5-0.5,1-0.7,1.7-0.7s1.2,0.2,1.7,0.7c0.4,0.5,0.6,1,0.6,1.6
		c0,0.4-0.1,0.8-0.3,1.2s-0.6,0.9-1.2,1.6l-1.8,2.1h3.4v0.7h-5l2.8-3.2c0.6-0.6,0.9-1.1,1.1-1.4s0.3-0.6,0.3-1s-0.2-0.8-0.5-1.1
		s-0.7-0.5-1.1-0.5c-0.5,0-0.9,0.2-1.2,0.5C37.5,102.2,37.3,102.6,37.2,103.2z"/>
	<path class="st1" d="M45.7,104.3c0.5,0.3,0.9,0.6,1.1,0.9c0.2,0.3,0.3,0.7,0.3,1.1c0,0.6-0.2,1.1-0.6,1.6c-0.5,0.6-1.1,0.8-2,0.8
		c-0.8,0-1.4-0.2-1.9-0.7c-0.4-0.5-0.6-1-0.6-1.6c0-0.4,0.1-0.8,0.3-1.2c0.2-0.3,0.6-0.6,1.1-0.9c-0.4-0.2-0.6-0.4-0.8-0.7
		s-0.3-0.6-0.3-0.9c0-0.3,0.1-0.7,0.3-1s0.5-0.6,0.8-0.8s0.7-0.3,1.1-0.3c0.4,0,0.7,0.1,1.1,0.3c0.3,0.2,0.6,0.4,0.8,0.8
		c0.2,0.3,0.3,0.7,0.3,1s-0.1,0.7-0.3,0.9C46.4,103.9,46.1,104.1,45.7,104.3z M44.7,104.7c-0.5,0-0.9,0.2-1.3,0.5
		c-0.3,0.3-0.5,0.7-0.5,1.2c0,0.3,0.1,0.5,0.2,0.8c0.1,0.3,0.4,0.4,0.6,0.6c0.3,0.1,0.6,0.2,0.9,0.2c0.5,0,1-0.2,1.3-0.5
		s0.5-0.7,0.5-1.2c0-0.4-0.2-0.8-0.5-1.1C45.6,104.8,45.1,104.7,44.7,104.7z M44.6,101.4c-0.4,0-0.7,0.1-1,0.4
		c-0.3,0.2-0.4,0.5-0.4,0.9c0,0.3,0.1,0.7,0.4,0.9c0.3,0.3,0.6,0.4,1,0.4c0.2,0,0.5-0.1,0.7-0.2s0.4-0.3,0.5-0.5s0.2-0.4,0.2-0.7
		s-0.1-0.6-0.4-0.9C45.4,101.5,45.1,101.4,44.6,101.4z"/>
	<path class="st1" d="M51.1,102.8h0.7v1c0.2-0.4,0.5-0.6,0.8-0.8c0.4-0.2,0.7-0.3,1.1-0.3c0.3,0,0.5,0.1,0.8,0.2
		c0.2,0.1,0.4,0.3,0.6,0.4c0.2,0.2,0.3,0.4,0.4,0.8c0.2-0.4,0.5-0.8,0.9-1s0.7-0.3,1.1-0.3c0.4,0,0.7,0.1,1,0.3s0.5,0.5,0.6,0.8
		s0.2,0.9,0.2,1.6v3.1h-0.7v-3.1c0-0.6,0-1-0.1-1.3c-0.1-0.2-0.2-0.4-0.4-0.6c-0.2-0.1-0.4-0.2-0.7-0.2s-0.7,0.1-0.9,0.3
		c-0.3,0.2-0.5,0.5-0.6,0.8s-0.2,0.9-0.2,1.7v2.2H55v-2.9c0-0.7,0-1.2-0.1-1.4s-0.2-0.4-0.4-0.6c-0.2-0.1-0.4-0.2-0.7-0.2
		s-0.6,0.1-0.9,0.3c-0.3,0.2-0.5,0.5-0.6,0.8s-0.2,0.9-0.2,1.6v2.4h-0.7v-5.6H51.1z"/>
</g>
<g class="st0">
	<path class="st1" d="M60.8,101.9h-0.4c0-0.4,0.2-0.8,0.4-1.1c0.3-0.3,0.6-0.4,1-0.4s0.7,0.1,1,0.4c0.2,0.3,0.4,0.6,0.4,0.9
		c0,0.3-0.1,0.5-0.2,0.7s-0.3,0.5-0.7,0.9l-1.1,1.2h2v0.4h-2.9L62,103c0.3-0.4,0.6-0.6,0.7-0.8s0.2-0.4,0.2-0.6
		c0-0.3-0.1-0.5-0.3-0.7c-0.2-0.2-0.4-0.3-0.7-0.3c-0.3,0-0.5,0.1-0.7,0.3C60.9,101.3,60.8,101.5,60.8,101.9z"/>
</g>
<g>
	<g class="st0">
		<path class="st1" d="M37.4,122.5l8.8,18.8h-2l-3-6.2h-8.1l-2.9,6.2h-2.1l8.9-18.8H37.4z M37.1,126.5l-3.2,6.8h6.4L37.1,126.5z"/>
	</g>
</g>
<rect x="2.2" y="29.8" class="st2" width="69.8" height="171"/>
<g class="st0">
	<path class="st1" d="M108.1,82.8h0.7v7h2.9v0.7h-3.6V82.8z"/>
</g>
<g class="st0">
	<path class="st1" d="M116.1,82.6c1.1,0,2.1,0.4,2.8,1.2c0.8,0.8,1.1,1.7,1.1,2.9c0,1.1-0.4,2.1-1.1,2.9c-0.8,0.8-1.7,1.2-2.8,1.2
		c-1.1,0-2-0.4-2.8-1.2s-1.1-1.7-1.1-2.8c0-0.7,0.2-1.4,0.5-2.1c0.3-0.6,0.8-1.1,1.4-1.5C114.7,82.8,115.4,82.6,116.1,82.6z
		 M116.1,83.4c-0.5,0-1.1,0.1-1.6,0.4c-0.5,0.3-0.9,0.7-1.2,1.2c-0.3,0.5-0.4,1.1-0.4,1.7c0,0.9,0.3,1.7,0.9,2.3s1.3,0.9,2.2,0.9
		c0.6,0,1.1-0.1,1.6-0.4c0.5-0.3,0.9-0.7,1.1-1.2c0.3-0.5,0.4-1.1,0.4-1.7c0-0.6-0.1-1.2-0.4-1.7s-0.7-0.9-1.2-1.2
		C117.2,83.5,116.7,83.4,116.1,83.4z"/>
</g>
<g class="st0">
	<path class="st1" d="M120.4,83.6v-0.8h4.1v0.8h-1.7v6.9H122v-6.9H120.4z"/>
	<path class="st1" d="M125.6,82.8h4.3v0.8h-3.5V86h3.5v0.8h-3.5v3h3.5v0.8h-4.2v-7.8H125.6z"/>
</g>
<g>
	<g class="st0">
		<path class="st1" d="M109.5,122.5l8.8,18.8h-2l-3-6.2h-8.1l-2.9,6.2h-2.1l8.9-18.8H109.5z M109.3,126.5l-3.2,6.8h6.4L109.3,126.5z
			"/>
		<path class="st1" d="M128.9,122.5l8.8,18.8h-2l-3-6.2h-8.1l-2.9,6.2h-2.1l8.9-18.8H128.9z M128.6,126.5l-3.2,6.8h6.4L128.6,126.5z
			"/>
	</g>
</g>
<g>
	<rect x="84" y="21.5" class="st2" width="69.7" height="179.3"/>
</g>
<g class="st0">
	<path class="st1" d="M189.2,82.8h0.7v7h2.9v0.7h-3.6L189.2,82.8L189.2,82.8z"/>
</g>
<g class="st0">
	<path class="st1" d="M197.2,82.6c1.1,0,2.1,0.4,2.8,1.2c0.8,0.8,1.1,1.7,1.1,2.9c0,1.1-0.4,2.1-1.1,2.9c-0.8,0.8-1.7,1.2-2.8,1.2
		s-2-0.4-2.8-1.2s-1.1-1.7-1.1-2.8c0-0.7,0.2-1.4,0.5-2.1c0.3-0.6,0.8-1.1,1.4-1.5C195.9,82.8,196.5,82.6,197.2,82.6z M197.2,83.4
		c-0.5,0-1.1,0.1-1.6,0.4s-0.9,0.7-1.2,1.2s-0.4,1.1-0.4,1.7c0,0.9,0.3,1.7,0.9,2.3c0.6,0.6,1.3,0.9,2.2,0.9c0.6,0,1.1-0.1,1.6-0.4
		c0.5-0.3,0.9-0.7,1.1-1.2c0.3-0.5,0.4-1.1,0.4-1.7c0-0.6-0.1-1.2-0.4-1.7s-0.7-0.9-1.2-1.2S197.8,83.4,197.2,83.4z"/>
</g>
<g class="st0">
	<path class="st1" d="M201.6,83.6v-0.8h4.1v0.8H204v6.9h-0.8v-6.9H201.6z"/>
	<path class="st1" d="M206.7,82.8h4.3v0.8h-3.5V86h3.5v0.8h-3.5v3h3.5v0.8h-4.3V82.8z"/>
</g>
<g class="st0">
	<path class="st1" d="M183.6,124.4l7.9,17h-1.8l-2.7-5.6h-7.3l-2.6,5.6h-1.9l8-17H183.6z M183.4,128l-2.9,6.1h5.8L183.4,128z"/>
	<path class="st1" d="M201.1,124.4l7.9,17h-1.8l-2.7-5.6h-7.3l-2.6,5.6h-1.9l8-17H201.1z M200.9,128l-2.9,6.1h5.8L200.9,128z"/>
	<path class="st1" d="M218.6,124.4l7.9,17h-1.8l-2.7-5.6h-7.3l-2.6,5.6h-1.9l8-17H218.6z M218.4,128l-2.9,6.1h5.8L218.4,128z"/>
</g>
<rect x="166" y="1.3" class="st2" width="69.8" height="199.4"/>
<g class="st0">
	<path class="st1" d="M22.1,113.9v5.7h-0.7v-1c-0.3,0.4-0.6,0.7-1,0.8c-0.4,0.2-0.8,0.3-1.2,0.3c-0.8,0-1.4-0.3-2-0.9
		c-0.6-0.6-0.8-1.3-0.8-2.1s0.3-1.5,0.8-2.1s1.2-0.9,2-0.9c0.5,0,0.9,0.1,1.2,0.3c0.4,0.2,0.7,0.5,1,0.9v-1H22.1z M19.2,114.4
		c-0.4,0-0.8,0.1-1.1,0.3c-0.3,0.2-0.6,0.5-0.8,0.8c-0.2,0.4-0.3,0.7-0.3,1.2c0,0.4,0.1,0.8,0.3,1.1c0.2,0.4,0.5,0.7,0.8,0.9
		s0.7,0.3,1.1,0.3s0.8-0.1,1.1-0.3c0.3-0.2,0.6-0.5,0.8-0.8s0.3-0.7,0.3-1.2c0-0.7-0.2-1.2-0.6-1.7
		C20.4,114.6,19.8,114.4,19.2,114.4z"/>
	<path class="st1" d="M27.6,111.8h1.5v7.7h-0.7v-6.9h-1.2L27.6,111.8z"/>
	<path class="st1" d="M33.4,119.7l-0.6-0.4l2-3.2c-0.3,0.1-0.5,0.1-0.8,0.1c-0.6,0-1.1-0.2-1.5-0.7c-0.4-0.4-0.6-1-0.6-1.6
		c0-0.4,0.1-0.8,0.3-1.2c0.2-0.4,0.5-0.6,0.8-0.9c0.4-0.2,0.8-0.3,1.2-0.3s0.8,0.1,1.1,0.3s0.6,0.5,0.8,0.9s0.3,0.8,0.3,1.2
		c0,0.3-0.1,0.7-0.2,1c-0.1,0.3-0.3,0.8-0.7,1.3L33.4,119.7z M34.2,115.6c0.4,0,0.8-0.2,1.1-0.5s0.5-0.7,0.5-1.1
		c0-0.4-0.2-0.8-0.5-1.1s-0.7-0.5-1.1-0.5c-0.4,0-0.8,0.2-1.1,0.5s-0.5,0.7-0.5,1.1c0,0.4,0.2,0.8,0.5,1.1S33.8,115.6,34.2,115.6z"
		/>
	<path class="st1" d="M39.2,119.7l-0.6-0.4l2-3.2c-0.3,0.1-0.5,0.1-0.8,0.1c-0.6,0-1.1-0.2-1.5-0.7c-0.4-0.4-0.6-1-0.6-1.6
		c0-0.4,0.1-0.8,0.3-1.2s0.5-0.6,0.8-0.9c0.4-0.2,0.8-0.3,1.2-0.3s0.8,0.1,1.1,0.3s0.6,0.5,0.8,0.9s0.3,0.8,0.3,1.2
		c0,0.3-0.1,0.7-0.2,1c-0.1,0.3-0.3,0.8-0.7,1.3L39.2,119.7z M40,115.6c0.4,0,0.8-0.2,1.1-0.5s0.5-0.7,0.5-1.1
		c0-0.4-0.2-0.8-0.5-1.1s-0.7-0.5-1.1-0.5c-0.4,0-0.8,0.2-1.1,0.5s-0.5,0.7-0.5,1.1c0,0.4,0.2,0.8,0.5,1.1S39.5,115.6,40,115.6z"/>
	<path class="st1" d="M46.6,113.9h0.7v1c0.2-0.4,0.5-0.6,0.8-0.8c0.4-0.2,0.7-0.3,1.1-0.3c0.3,0,0.5,0.1,0.8,0.2
		c0.2,0.1,0.4,0.3,0.6,0.4s0.3,0.4,0.4,0.8c0.2-0.4,0.5-0.8,0.9-1s0.7-0.3,1.1-0.3c0.4,0,0.7,0.1,1,0.3s0.5,0.5,0.6,0.8
		c0.1,0.4,0.2,0.9,0.2,1.6v3.1h-0.7v-3.1c0-0.6,0-1-0.1-1.3c-0.1-0.2-0.2-0.4-0.4-0.6c-0.2-0.1-0.4-0.2-0.7-0.2s-0.7,0.1-0.9,0.3
		c-0.3,0.2-0.5,0.5-0.6,0.8s-0.2,0.9-0.2,1.7v2.2h-0.7v-2.9c0-0.7,0-1.2-0.1-1.4s-0.2-0.4-0.4-0.6s-0.4-0.2-0.7-0.2
		s-0.6,0.1-0.9,0.3c-0.3,0.2-0.5,0.5-0.6,0.8s-0.2,0.9-0.2,1.6v2.4h-0.7v-5.6H46.6z"/>
</g>
<g class="st0">
	<path class="st1" d="M56.2,112.9h-0.5c0-0.4,0.2-0.8,0.4-1.1c0.3-0.3,0.6-0.4,1-0.4s0.7,0.1,1,0.4c0.2,0.3,0.4,0.6,0.4,0.9
		c0,0.3-0.1,0.5-0.2,0.7s-0.3,0.5-0.7,0.9l-1.1,1.2h2v0.4h-2.9l1.7-1.9c0.3-0.4,0.6-0.6,0.7-0.8c0.1-0.2,0.2-0.4,0.2-0.6
		c0-0.3-0.1-0.5-0.3-0.7s-0.4-0.3-0.7-0.3s-0.5,0.1-0.7,0.3C56.3,112.3,56.2,112.5,56.2,112.9z"/>
</g>
<g class="st0">
	<path class="st1" d="M100.2,100.6v7.9h-0.7v-1c-0.3,0.4-0.6,0.7-1,0.8c-0.4,0.2-0.8,0.3-1.2,0.3c-0.8,0-1.4-0.3-2-0.9
		c-0.5-0.6-0.8-1.3-0.8-2.1s0.3-1.5,0.8-2.1c0.6-0.6,1.2-0.9,2-0.9c0.5,0,0.9,0.1,1.2,0.3c0.4,0.2,0.7,0.5,1,0.9v-3.2H100.2z
		 M97.4,103.4c-0.4,0-0.8,0.1-1.1,0.3c-0.3,0.2-0.6,0.5-0.8,0.8c-0.2,0.4-0.3,0.7-0.3,1.1c0,0.4,0.1,0.8,0.3,1.2
		c0.2,0.4,0.5,0.7,0.8,0.9s0.7,0.3,1.1,0.3s0.8-0.1,1.1-0.3c0.3-0.2,0.6-0.5,0.8-0.8c0.2-0.3,0.3-0.7,0.3-1.2c0-0.7-0.2-1.2-0.6-1.7
		C98.5,103.6,98,103.4,97.4,103.4z"/>
	<path class="st1" d="M106.5,106.6l0.6,0.3c-0.2,0.4-0.4,0.7-0.7,1s-0.5,0.4-0.9,0.6c-0.3,0.1-0.7,0.2-1.1,0.2
		c-0.9,0-1.6-0.3-2.1-0.9c-0.5-0.6-0.8-1.3-0.8-2.1c0-0.7,0.2-1.4,0.6-1.9c0.5-0.7,1.3-1.1,2.2-1.1c0.9,0,1.7,0.4,2.2,1.1
		c0.4,0.5,0.6,1.2,0.6,1.9h-4.9c0,0.7,0.2,1.2,0.6,1.6c0.4,0.4,0.9,0.6,1.5,0.6c0.3,0,0.6,0,0.8-0.2c0.3-0.1,0.5-0.2,0.7-0.4
		C106,107.3,106.2,107,106.5,106.6z M106.5,105.1c-0.1-0.4-0.2-0.7-0.4-0.9c-0.2-0.2-0.4-0.4-0.7-0.6s-0.6-0.2-0.9-0.2
		c-0.5,0-1,0.2-1.4,0.5c-0.3,0.3-0.5,0.7-0.6,1.2H106.5z"/>
	<path class="st1" d="M111.8,103.2h-0.7c0-0.8,0.3-1.4,0.7-1.9c0.5-0.5,1-0.7,1.7-0.7s1.2,0.2,1.7,0.7c0.4,0.5,0.6,1,0.6,1.6
		c0,0.4-0.1,0.8-0.3,1.2c-0.2,0.4-0.6,0.9-1.2,1.6l-1.8,2.1h3.4v0.7h-5l2.8-3.2c0.6-0.6,0.9-1.1,1.1-1.4s0.3-0.6,0.3-1
		s-0.2-0.8-0.5-1.1s-0.7-0.5-1.1-0.5c-0.5,0-0.9,0.2-1.2,0.5C112,102.2,111.9,102.6,111.8,103.2z"/>
	<path class="st1" d="M116.7,104.7c0-1,0.1-1.8,0.3-2.4c0.2-0.6,0.5-1,0.9-1.3s0.8-0.4,1.3-0.4s0.9,0.1,1.3,0.4
		c0.4,0.3,0.7,0.7,0.9,1.3c0.2,0.6,0.3,1.3,0.3,2.3s-0.1,1.7-0.3,2.3c-0.2,0.6-0.5,1-0.9,1.3s-0.8,0.4-1.3,0.4s-0.9-0.1-1.3-0.4
		c-0.4-0.3-0.7-0.7-0.9-1.3S116.7,105.7,116.7,104.7z M117.4,104.7c0,0.9,0.1,1.5,0.2,2c0.1,0.4,0.4,0.8,0.7,1
		c0.3,0.2,0.6,0.3,0.9,0.3s0.6-0.1,0.9-0.3s0.5-0.6,0.7-1c0.2-0.5,0.3-1.2,0.3-2s-0.1-1.4-0.2-1.9c-0.2-0.5-0.4-0.9-0.7-1.1
		c-0.3-0.2-0.6-0.3-0.9-0.3s-0.6,0.1-0.9,0.3s-0.5,0.6-0.7,1C117.5,103.2,117.4,103.8,117.4,104.7z"/>
	<path class="st1" d="M122.4,104.7c0-1,0.1-1.8,0.3-2.4c0.2-0.6,0.5-1,0.9-1.3s0.8-0.4,1.3-0.4s0.9,0.1,1.3,0.4s0.7,0.7,0.9,1.3
		s0.3,1.3,0.3,2.3s-0.1,1.7-0.3,2.3s-0.5,1-0.9,1.3s-0.8,0.4-1.3,0.4s-0.9-0.1-1.3-0.4c-0.4-0.3-0.7-0.7-0.9-1.3
		S122.4,105.7,122.4,104.7z M123.1,104.7c0,0.9,0.1,1.5,0.2,2s0.4,0.8,0.7,1s0.6,0.3,0.9,0.3c0.3,0,0.6-0.1,0.9-0.3
		c0.3-0.2,0.5-0.6,0.7-1c0.2-0.5,0.3-1.2,0.3-2s-0.1-1.4-0.2-1.9c-0.2-0.5-0.4-0.9-0.7-1.1c-0.3-0.2-0.6-0.3-0.9-0.3
		c-0.3,0-0.6,0.1-0.9,0.3c-0.3,0.2-0.5,0.6-0.7,1C123.2,103.2,123.1,103.8,123.1,104.7z"/>
	<path class="st1" d="M131.5,102.8h0.7v1c0.2-0.4,0.5-0.6,0.8-0.8c0.4-0.2,0.7-0.3,1.1-0.3c0.3,0,0.5,0.1,0.8,0.2s0.4,0.3,0.6,0.4
		c0.2,0.2,0.3,0.4,0.4,0.8c0.2-0.4,0.5-0.8,0.9-1s0.7-0.3,1.1-0.3c0.4,0,0.7,0.1,1,0.3s0.5,0.5,0.6,0.8s0.2,0.9,0.2,1.6v3.1H139
		v-3.1c0-0.6,0-1-0.1-1.3s-0.2-0.4-0.4-0.6c-0.2-0.1-0.4-0.2-0.7-0.2s-0.7,0.1-0.9,0.3c-0.3,0.2-0.5,0.5-0.6,0.8s-0.2,0.9-0.2,1.7
		v2.2h-0.7v-2.9c0-0.7,0-1.2-0.1-1.4s-0.2-0.4-0.4-0.6c-0.2-0.1-0.4-0.2-0.7-0.2s-0.6,0.1-0.9,0.3c-0.3,0.2-0.5,0.5-0.6,0.8
		s-0.2,0.9-0.2,1.6v2.4h-0.7v-5.6H131.5z"/>
</g>
<g class="st0">
	<path class="st1" d="M141.1,101.9h-0.4c0-0.4,0.2-0.8,0.4-1.1c0.3-0.3,0.6-0.4,1-0.4s0.7,0.1,1,0.4c0.2,0.3,0.4,0.6,0.4,0.9
		c0,0.3-0.1,0.5-0.2,0.7s-0.3,0.5-0.7,0.9l-1.1,1.2h2v0.4h-2.9l1.7-1.9c0.3-0.4,0.6-0.6,0.7-0.8c0.1-0.2,0.2-0.4,0.2-0.6
		c0-0.3-0.1-0.5-0.3-0.7s-0.4-0.3-0.7-0.3s-0.5,0.1-0.7,0.3C141.2,101.3,141.1,101.5,141.1,101.9z"/>
</g>
<g class="st0">
	<path class="st1" d="M100.5,113.1v6.4h-0.8v-1.1c-0.3,0.4-0.7,0.7-1.1,0.9s-0.9,0.3-1.4,0.3c-0.9,0-1.6-0.3-2.2-1s-0.9-1.5-0.9-2.4
		s0.3-1.7,0.9-2.4s1.4-1,2.3-1c0.5,0,1,0.1,1.4,0.3s0.8,0.6,1.1,1v-1.2h0.7V113.1z M97.3,113.7c-0.4,0-0.9,0.1-1.2,0.3
		c-0.4,0.2-0.7,0.5-0.9,0.9c-0.2,0.4-0.3,0.8-0.3,1.3c0,0.4,0.1,0.9,0.3,1.3c0.2,0.4,0.5,0.7,0.9,1c0.4,0.2,0.8,0.3,1.2,0.3
		c0.4,0,0.8-0.1,1.2-0.3c0.4-0.2,0.7-0.5,0.9-0.9c0.2-0.4,0.3-0.8,0.3-1.3c0-0.7-0.2-1.4-0.7-1.9C98.6,114,98,113.7,97.3,113.7z"/>
	<path class="st1" d="M106.1,112.8h-0.9c0.2-0.7,0.5-1.3,0.9-1.6c0.4-0.4,1-0.6,1.6-0.6c0.4,0,0.8,0.1,1.2,0.3
		c0.4,0.2,0.7,0.5,0.9,0.8s0.3,0.7,0.3,1.1c0,0.7-0.4,1.3-1.1,1.8c0.4,0.2,0.7,0.4,1,0.7c0.4,0.5,0.5,1,0.5,1.5s-0.1,1-0.4,1.4
		c-0.2,0.4-0.6,0.8-1,1s-0.9,0.4-1.4,0.4c-0.7,0-1.3-0.2-1.8-0.6c-0.5-0.4-0.8-1.1-0.9-1.9h0.8c0.1,0.6,0.4,1,0.6,1.2
		c0.3,0.3,0.8,0.5,1.3,0.5c0.6,0,1.1-0.2,1.5-0.6c0.4-0.4,0.6-0.8,0.6-1.3c0-0.3-0.1-0.7-0.3-0.9c-0.2-0.3-0.4-0.5-0.7-0.7
		c-0.3-0.1-0.8-0.2-1.4-0.3v-0.8c0.4,0,0.7-0.1,1-0.2s0.5-0.3,0.7-0.5c0.1-0.2,0.2-0.5,0.2-0.7c0-0.4-0.1-0.7-0.4-1
		s-0.7-0.4-1.1-0.4s-0.7,0.1-0.9,0.3C106.5,112,106.3,112.3,106.1,112.8z"/>
	<path class="st1" d="M113.3,119.7l-0.7-0.5l2.3-3.5c-0.3,0.1-0.6,0.2-0.9,0.2c-0.7,0-1.2-0.2-1.7-0.7s-0.7-1.1-0.7-1.8
		c0-0.5,0.1-0.9,0.3-1.3c0.2-0.4,0.5-0.7,1-1c0.4-0.2,0.9-0.4,1.3-0.4c0.5,0,0.9,0.1,1.3,0.3s0.7,0.6,0.9,1c0.2,0.4,0.3,0.9,0.3,1.3
		c0,0.4-0.1,0.7-0.2,1.1s-0.4,0.9-0.7,1.4L113.3,119.7z M114.2,115.1c0.5,0,0.9-0.2,1.2-0.5c0.3-0.4,0.5-0.8,0.5-1.3
		s-0.2-0.9-0.5-1.3c-0.3-0.4-0.8-0.5-1.2-0.5c-0.5,0-0.9,0.2-1.2,0.5s-0.5,0.8-0.5,1.3s0.2,0.9,0.5,1.3
		C113.3,114.9,113.7,115.1,114.2,115.1z"/>
	<path class="st1" d="M119.7,119.7l-0.7-0.5l2.3-3.5c-0.3,0.1-0.6,0.2-0.9,0.2c-0.7,0-1.2-0.2-1.7-0.7s-0.7-1.1-0.7-1.8
		c0-0.5,0.1-0.9,0.3-1.3c0.2-0.4,0.5-0.7,1-1c0.4-0.2,0.8-0.4,1.3-0.4s0.9,0.1,1.3,0.3s0.7,0.6,0.9,1c0.2,0.4,0.3,0.9,0.3,1.3
		c0,0.4-0.1,0.7-0.2,1.1c-0.1,0.4-0.4,0.9-0.7,1.4L119.7,119.7z M120.6,115.1c0.5,0,0.9-0.2,1.2-0.5c0.3-0.4,0.5-0.8,0.5-1.3
		s-0.2-0.9-0.5-1.3s-0.8-0.5-1.2-0.5c-0.5,0-0.9,0.2-1.2,0.5s-0.5,0.8-0.5,1.3s0.2,0.9,0.5,1.3C119.7,114.9,120.1,115.1,120.6,115.1
		z"/>
	<path class="st1" d="M128,113.1h0.8v1.1c0.3-0.4,0.6-0.7,0.9-0.9c0.4-0.2,0.8-0.4,1.3-0.4c0.3,0,0.6,0.1,0.9,0.2
		c0.3,0.1,0.5,0.3,0.7,0.5s0.3,0.5,0.4,0.9c0.3-0.5,0.6-0.9,1-1.1c0.4-0.3,0.8-0.4,1.3-0.4c0.4,0,0.8,0.1,1.1,0.3s0.6,0.5,0.7,0.9
		c0.2,0.4,0.2,1,0.2,1.8v3.5h-0.8V116c0-0.7,0-1.2-0.1-1.4c-0.1-0.3-0.3-0.5-0.5-0.6c-0.2-0.2-0.5-0.2-0.8-0.2
		c-0.4,0-0.7,0.1-1.1,0.4s-0.6,0.5-0.7,0.9c-0.1,0.4-0.2,1-0.2,2v2.5h-0.8v-3.3c0-0.8,0-1.3-0.1-1.6s-0.3-0.5-0.5-0.7
		s-0.5-0.2-0.8-0.2c-0.4,0-0.7,0.1-1,0.3s-0.6,0.5-0.7,0.9c-0.2,0.4-0.2,1-0.2,1.8v2.7h-0.8v-6.4H128z"/>
</g>
<g class="st0">
	<path class="st1" d="M138.8,112h-0.5c0-0.5,0.2-0.9,0.5-1.2s0.7-0.5,1.1-0.5c0.4,0,0.8,0.1,1.1,0.4c0.3,0.3,0.4,0.7,0.4,1.1
		c0,0.3-0.1,0.6-0.2,0.8c-0.1,0.2-0.4,0.6-0.8,1l-1.2,1.4h2.2v0.5h-3.3l1.9-2.1c0.4-0.4,0.6-0.7,0.7-0.9c0.1-0.2,0.2-0.4,0.2-0.6
		c0-0.3-0.1-0.5-0.3-0.7s-0.5-0.3-0.7-0.3c-0.3,0-0.6,0.1-0.8,0.3C139,111.3,138.8,111.6,138.8,112z"/>
</g>
<g class="st0">
	<path class="st1" d="M185,114.2v5.7h-0.7v-1c-0.3,0.4-0.6,0.7-1,0.8c-0.4,0.2-0.8,0.3-1.2,0.3c-0.8,0-1.4-0.3-2-0.9
		s-0.8-1.3-0.8-2.1s0.3-1.5,0.8-2.1c0.6-0.6,1.2-0.9,2-0.9c0.5,0,0.9,0.1,1.2,0.3c0.4,0.2,0.7,0.5,1,0.9v-1H185z M182.2,114.8
		c-0.4,0-0.8,0.1-1.1,0.3s-0.6,0.5-0.8,0.8c-0.2,0.4-0.3,0.7-0.3,1.2c0,0.4,0.1,0.8,0.3,1.1c0.2,0.4,0.5,0.7,0.8,0.9
		s0.7,0.3,1.1,0.3c0.4,0,0.8-0.1,1.1-0.3s0.6-0.5,0.8-0.8s0.3-0.7,0.3-1.2c0-0.7-0.2-1.2-0.6-1.7C183.3,115,182.8,114.8,182.2,114.8
		z"/>
	<path class="st1" d="M192.5,112l0.6,0.4l-2,3.1c0.3-0.1,0.5-0.1,0.8-0.1c0.6,0,1.1,0.2,1.5,0.7c0.4,0.4,0.6,1,0.6,1.6
		c0,0.4-0.1,0.8-0.3,1.2s-0.5,0.6-0.8,0.9s-0.8,0.3-1.2,0.3s-0.8-0.1-1.1-0.3s-0.6-0.5-0.8-0.9s-0.3-0.8-0.3-1.2
		c0-0.3,0.1-0.6,0.2-1c0.1-0.3,0.3-0.8,0.7-1.3L192.5,112z M191.6,116.1c-0.4,0-0.8,0.2-1.1,0.5s-0.5,0.7-0.5,1.1
		c0,0.4,0.2,0.8,0.5,1.1s0.7,0.5,1.1,0.5c0.4,0,0.8-0.2,1.1-0.5s0.5-0.7,0.5-1.1c0-0.4-0.2-0.8-0.5-1.1S192.1,116.1,191.6,116.1z"/>
	<path class="st1" d="M194.7,116c0-1,0.1-1.8,0.3-2.4c0.2-0.6,0.5-1,0.9-1.3s0.8-0.4,1.3-0.4s0.9,0.1,1.3,0.4s0.7,0.7,0.9,1.3
		s0.3,1.3,0.3,2.3s-0.1,1.7-0.3,2.3s-0.5,1-0.9,1.3s-0.8,0.4-1.3,0.4s-0.9-0.1-1.3-0.4c-0.4-0.3-0.7-0.7-0.9-1.3
		C194.8,117.8,194.7,117.1,194.7,116z M195.4,116.1c0,0.9,0.1,1.5,0.2,2c0.2,0.4,0.4,0.8,0.7,1s0.6,0.3,0.9,0.3
		c0.3,0,0.6-0.1,0.9-0.3s0.5-0.6,0.7-1c0.2-0.5,0.3-1.2,0.3-2s-0.1-1.4-0.2-1.9c-0.2-0.5-0.4-0.9-0.7-1.1s-0.6-0.3-0.9-0.3
		c-0.3,0-0.6,0.1-0.9,0.3s-0.5,0.6-0.7,1S195.4,115.2,195.4,116.1z"/>
	<path class="st1" d="M200.4,116c0-1,0.1-1.8,0.3-2.4s0.5-1,0.9-1.3s0.8-0.4,1.3-0.4s0.9,0.1,1.3,0.4c0.4,0.3,0.7,0.7,0.9,1.3
		s0.3,1.3,0.3,2.3s-0.1,1.7-0.3,2.3s-0.5,1-0.9,1.3s-0.8,0.4-1.3,0.4s-0.9-0.1-1.3-0.4c-0.4-0.3-0.7-0.7-0.9-1.3
		S200.4,117.1,200.4,116z M201.1,116.1c0,0.9,0.1,1.5,0.2,2c0.2,0.4,0.4,0.8,0.7,1s0.6,0.3,0.9,0.3c0.3,0,0.6-0.1,0.9-0.3
		c0.3-0.2,0.5-0.6,0.7-1c0.2-0.5,0.3-1.2,0.3-2s-0.1-1.4-0.2-1.9c-0.2-0.5-0.4-0.9-0.7-1.1s-0.6-0.3-0.9-0.3c-0.3,0-0.6,0.1-0.9,0.3
		s-0.5,0.6-0.7,1S201.1,115.2,201.1,116.1z"/>
	<path class="st1" d="M209.5,114.2h0.7v1c0.2-0.4,0.5-0.6,0.8-0.8c0.4-0.2,0.7-0.3,1.1-0.3c0.3,0,0.5,0.1,0.8,0.2
		c0.2,0.1,0.4,0.3,0.6,0.4s0.3,0.4,0.4,0.8c0.2-0.4,0.5-0.8,0.9-1s0.7-0.3,1.1-0.3c0.4,0,0.7,0.1,1,0.3s0.5,0.5,0.6,0.8
		c0.1,0.4,0.2,0.9,0.2,1.6v3.1H217v-3.1c0-0.6,0-1-0.1-1.3c-0.1-0.2-0.2-0.4-0.4-0.6c-0.2-0.1-0.4-0.2-0.7-0.2s-0.7,0.1-0.9,0.3
		c-0.3,0.2-0.5,0.5-0.6,0.8s-0.2,0.9-0.2,1.7v2.2h-0.7v-2.9c0-0.7,0-1.2-0.1-1.4s-0.2-0.4-0.4-0.6s-0.4-0.2-0.7-0.2
		s-0.6,0.1-0.9,0.3c-0.3,0.2-0.5,0.5-0.6,0.8s-0.2,0.9-0.2,1.6v2.4h-0.7v-5.6H209.5z"/>
</g>
<g class="st0">
	<path class="st1" d="M219.1,113.2h-0.4c0-0.4,0.2-0.8,0.4-1.1c0.3-0.3,0.6-0.4,1-0.4s0.7,0.1,1,0.4c0.2,0.3,0.4,0.6,0.4,0.9
		c0,0.3-0.1,0.5-0.2,0.7s-0.3,0.5-0.7,0.9l-1.1,1.2h2v0.4h-2.9l1.7-1.9c0.3-0.4,0.6-0.6,0.7-0.8c0.1-0.2,0.2-0.4,0.2-0.6
		c0-0.3-0.1-0.5-0.3-0.7s-0.4-0.3-0.7-0.3s-0.5,0.1-0.7,0.3S219.1,112.9,219.1,113.2z"/>
</g>
<g class="st0">
	<path class="st1" d="M181.5,100.6v7.9h-0.7v-1c-0.3,0.4-0.6,0.7-1,0.8c-0.4,0.2-0.8,0.3-1.2,0.3c-0.8,0-1.4-0.3-2-0.9
		s-0.8-1.3-0.8-2.1s0.3-1.5,0.8-2.1c0.6-0.6,1.2-0.9,2-0.9c0.5,0,0.9,0.1,1.2,0.3s0.7,0.5,1,0.9v-3.2H181.5z M178.6,103.4
		c-0.4,0-0.8,0.1-1.1,0.3s-0.6,0.5-0.8,0.8c-0.2,0.4-0.3,0.7-0.3,1.1c0,0.4,0.1,0.8,0.3,1.2s0.5,0.7,0.8,0.9s0.7,0.3,1.1,0.3
		c0.4,0,0.8-0.1,1.1-0.3s0.6-0.5,0.8-0.8s0.3-0.7,0.3-1.2c0-0.7-0.2-1.2-0.6-1.7C179.8,103.6,179.2,103.4,178.6,103.4z"/>
	<path class="st1" d="M187.7,106.6l0.6,0.3c-0.2,0.4-0.4,0.7-0.7,1s-0.5,0.4-0.9,0.6c-0.3,0.1-0.7,0.2-1.1,0.2
		c-0.9,0-1.6-0.3-2.1-0.9c-0.5-0.6-0.8-1.3-0.8-2.1c0-0.7,0.2-1.4,0.6-1.9c0.5-0.7,1.3-1.1,2.2-1.1s1.7,0.4,2.2,1.1
		c0.4,0.5,0.6,1.2,0.6,1.9h-4.9c0,0.7,0.2,1.2,0.6,1.6c0.4,0.4,0.9,0.6,1.5,0.6c0.3,0,0.6,0,0.8-0.2c0.3-0.1,0.5-0.2,0.7-0.4
		C187.3,107.3,187.5,107,187.7,106.6z M187.7,105.1c-0.1-0.4-0.2-0.7-0.4-0.9s-0.4-0.4-0.7-0.6c-0.3-0.1-0.6-0.2-0.9-0.2
		c-0.5,0-1,0.2-1.4,0.5c-0.3,0.3-0.5,0.7-0.6,1.2H187.7z"/>
	<path class="st1" d="M196.2,100.6h0.2v5.4h0.9v0.7h-0.9v1.8h-0.7v-1.8h-3.6L196.2,100.6z M195.7,106v-3.2l-2.2,3.2H195.7z"/>
	<path class="st1" d="M197.9,104.7c0-1,0.1-1.8,0.3-2.4c0.2-0.6,0.5-1,0.9-1.3s0.8-0.4,1.3-0.4s0.9,0.1,1.3,0.4
		c0.4,0.3,0.7,0.7,0.9,1.3s0.3,1.3,0.3,2.3s-0.1,1.7-0.3,2.3s-0.5,1-0.9,1.3s-0.8,0.4-1.3,0.4s-0.9-0.1-1.3-0.4
		c-0.4-0.3-0.7-0.7-0.9-1.3C198,106.5,197.9,105.7,197.9,104.7z M198.6,104.7c0,0.9,0.1,1.5,0.2,2c0.1,0.4,0.4,0.8,0.7,1
		s0.6,0.3,0.9,0.3c0.3,0,0.6-0.1,0.9-0.3c0.3-0.2,0.5-0.6,0.7-1c0.2-0.5,0.3-1.2,0.3-2s-0.1-1.4-0.2-1.9c-0.2-0.5-0.4-0.9-0.7-1.1
		c-0.3-0.2-0.6-0.3-0.9-0.3c-0.3,0-0.6,0.1-0.9,0.3c-0.3,0.2-0.5,0.6-0.7,1C198.7,103.2,198.6,103.8,198.6,104.7z"/>
	<path class="st1" d="M203.6,104.7c0-1,0.1-1.8,0.3-2.4c0.2-0.6,0.5-1,0.9-1.3s0.8-0.4,1.3-0.4s0.9,0.1,1.3,0.4s0.7,0.7,0.9,1.3
		s0.3,1.3,0.3,2.3s-0.1,1.7-0.3,2.3s-0.5,1-0.9,1.3s-0.8,0.4-1.3,0.4s-0.9-0.1-1.3-0.4c-0.4-0.3-0.7-0.7-0.9-1.3
		S203.6,105.7,203.6,104.7z M204.3,104.7c0,0.9,0.1,1.5,0.2,2s0.4,0.8,0.7,1s0.6,0.3,0.9,0.3c0.3,0,0.6-0.1,0.9-0.3
		c0.3-0.2,0.5-0.6,0.7-1c0.2-0.5,0.3-1.2,0.3-2s-0.1-1.4-0.2-1.9c-0.2-0.5-0.4-0.9-0.7-1.1c-0.3-0.2-0.6-0.3-0.9-0.3
		c-0.3,0-0.6,0.1-0.9,0.3c-0.3,0.2-0.5,0.6-0.7,1C204.4,103.2,204.3,103.8,204.3,104.7z"/>
	<path class="st1" d="M212.7,102.8h0.7v1c0.2-0.4,0.5-0.6,0.8-0.8c0.4-0.2,0.7-0.3,1.1-0.3c0.3,0,0.5,0.1,0.8,0.2s0.4,0.3,0.6,0.4
		c0.2,0.2,0.3,0.4,0.4,0.8c0.2-0.4,0.5-0.8,0.9-1s0.7-0.3,1.1-0.3c0.4,0,0.7,0.1,1,0.3s0.5,0.5,0.6,0.8s0.2,0.9,0.2,1.6v3.1h-0.7
		v-3.1c0-0.6,0-1-0.1-1.3s-0.2-0.4-0.4-0.6c-0.2-0.1-0.4-0.2-0.7-0.2s-0.7,0.1-0.9,0.3c-0.3,0.2-0.5,0.5-0.6,0.8s-0.2,0.9-0.2,1.7
		v2.2h-0.7v-2.9c0-0.7,0-1.2-0.1-1.4s-0.2-0.4-0.4-0.6c-0.2-0.1-0.4-0.2-0.7-0.2s-0.6,0.1-0.9,0.3c-0.3,0.2-0.5,0.5-0.6,0.8
		s-0.2,0.9-0.2,1.6v2.4h-1V102.8z"/>
</g>
<g class="st0">
	<path class="st1" d="M222.3,101.9h-0.4c0-0.4,0.2-0.8,0.4-1.1c0.3-0.3,0.6-0.4,1-0.4s0.7,0.1,1,0.4c0.2,0.3,0.4,0.6,0.4,0.9
		c0,0.3-0.1,0.5-0.2,0.7s-0.3,0.5-0.7,0.9l-1.1,1.2h2v0.4h-2.9l1.7-1.9c0.3-0.4,0.6-0.6,0.7-0.8c0.1-0.2,0.2-0.4,0.2-0.6
		c0-0.3-0.1-0.5-0.3-0.7s-0.4-0.3-0.7-0.3s-0.5,0.1-0.7,0.3C222.4,101.3,222.3,101.5,222.3,101.9z"/>
</g>
</svg>
