<?xml version="1.0" encoding="utf-8"?>
<!-- Generator: Adobe Illustrator 24.3.0, SVG Export Plug-In . SVG Version: 6.00 Build 0)  -->
<svg version="1.1" id="Capa_1" xmlns="http://www.w3.org/2000/svg" xmlns:xlink="http://www.w3.org/1999/xlink" x="0px" y="0px"
	 viewBox="0 0 81.3 210.2" style="enable-background:new 0 0 81.3 210.2;" xml:space="preserve">
<style type="text/css">
	.st0{enable-background:new    ;}
	.st1{fill:#021D49;}
	.st2{fill:none;stroke:#021D49;stroke-miterlimit:10;}
</style>
<g class="st0">
	<path class="st1" d="M29,85.9h0.7v7h2.9v0.7H29V85.9z"/>
</g>
<g class="st0">
	<path class="st1" d="M37,85.7c1.1,0,2.1,0.4,2.8,1.2c0.8,0.8,1.1,1.7,1.1,2.9c0,1.1-0.4,2.1-1.1,2.9c-0.8,0.8-1.7,1.2-2.8,1.2
		c-1.1,0-2-0.4-2.8-1.2c-0.8-0.8-1.1-1.7-1.1-2.8c0-0.7,0.2-1.4,0.5-2.1c0.3-0.6,0.8-1.1,1.4-1.5C35.7,85.8,36.3,85.7,37,85.7z
		 M37,86.4c-0.5,0-1.1,0.1-1.6,0.4c-0.5,0.3-0.9,0.7-1.2,1.2s-0.4,1.1-0.4,1.7c0,0.9,0.3,1.7,0.9,2.3c0.6,0.6,1.3,0.9,2.2,0.9
		c0.6,0,1.1-0.1,1.6-0.4s0.9-0.7,1.1-1.2c0.3-0.5,0.4-1.1,0.4-1.7c0-0.6-0.1-1.2-0.4-1.7c-0.3-0.5-0.7-0.9-1.2-1.2
		C38.1,86.6,37.6,86.4,37,86.4z"/>
</g>
<g class="st0">
	<path class="st1" d="M41.4,86.6v-0.8h4.1v0.8h-1.7v6.9H43v-6.9H41.4z"/>
	<path class="st1" d="M46.5,85.9h4.3v0.8h-3.5V89h3.5v0.8h-3.5v3h3.5v0.8h-4.2V85.9z"/>
</g>
<g class="st0">
	<path class="st1" d="M23.4,127.4l7.9,17h-1.8l-2.7-5.6h-7.3l-2.6,5.6H15l8-17H23.4z M23.2,131l-2.9,6.1h5.8L23.2,131z"/>
	<path class="st1" d="M40.9,127.4l7.9,17H47l-2.7-5.6H37l-2.6,5.6h-1.9l8-17H40.9z M40.7,131l-2.9,6.1h5.8L40.7,131z"/>
	<path class="st1" d="M58.4,127.4l7.9,17h-1.8l-2.7-5.6h-7.3l-2.6,5.6H50l8-17H58.4z M58.2,131l-2.9,6.1h5.8L58.2,131z"/>
</g>
<rect x="5.8" y="4.4" class="st2" width="69.8" height="199.4"/>
<g class="st0">
	<path class="st1" d="M24.8,117.2v5.7h-0.7v-1c-0.3,0.4-0.6,0.7-1,0.8c-0.4,0.2-0.8,0.3-1.2,0.3c-0.8,0-1.4-0.3-2-0.9
		c-0.6-0.6-0.8-1.3-0.8-2.1c0-0.8,0.3-1.5,0.8-2.1s1.2-0.9,2-0.9c0.5,0,0.9,0.1,1.2,0.3c0.4,0.2,0.7,0.5,1,0.9v-1H24.8z M22,117.8
		c-0.4,0-0.8,0.1-1.1,0.3c-0.3,0.2-0.6,0.5-0.8,0.8c-0.2,0.4-0.3,0.7-0.3,1.2c0,0.4,0.1,0.8,0.3,1.1c0.2,0.4,0.5,0.7,0.8,0.9
		s0.7,0.3,1.1,0.3c0.4,0,0.8-0.1,1.1-0.3c0.3-0.2,0.6-0.5,0.8-0.8s0.3-0.7,0.3-1.2c0-0.7-0.2-1.2-0.6-1.7
		C23.1,118,22.6,117.8,22,117.8z"/>
	<path class="st1" d="M32.3,115l0.6,0.4l-2,3.1c0.3-0.1,0.5-0.1,0.8-0.1c0.6,0,1.1,0.2,1.5,0.7c0.4,0.4,0.6,1,0.6,1.6
		c0,0.4-0.1,0.8-0.3,1.2s-0.5,0.6-0.8,0.9s-0.8,0.3-1.2,0.3c-0.4,0-0.8-0.1-1.1-0.3c-0.3-0.2-0.6-0.5-0.8-0.9s-0.3-0.8-0.3-1.2
		c0-0.3,0.1-0.6,0.2-1c0.1-0.3,0.3-0.8,0.7-1.3L32.3,115z M31.4,119.1c-0.4,0-0.8,0.2-1.1,0.5c-0.3,0.3-0.5,0.7-0.5,1.1
		c0,0.4,0.2,0.8,0.5,1.1c0.3,0.3,0.7,0.5,1.1,0.5c0.4,0,0.8-0.2,1.1-0.5c0.3-0.3,0.5-0.7,0.5-1.1c0-0.4-0.2-0.8-0.5-1.1
		C32.2,119.3,31.9,119.1,31.4,119.1z"/>
	<path class="st1" d="M34.5,119.1c0-1,0.1-1.8,0.3-2.4c0.2-0.6,0.5-1,0.9-1.3c0.4-0.3,0.8-0.4,1.3-0.4c0.5,0,0.9,0.1,1.3,0.4
		c0.4,0.3,0.7,0.7,0.9,1.3c0.2,0.6,0.3,1.3,0.3,2.3c0,1-0.1,1.7-0.3,2.3c-0.2,0.6-0.5,1-0.9,1.3s-0.8,0.4-1.3,0.4
		c-0.5,0-0.9-0.1-1.3-0.4c-0.4-0.3-0.7-0.7-0.9-1.3S34.5,120.1,34.5,119.1z M35.2,119.1c0,0.9,0.1,1.5,0.2,2c0.1,0.4,0.4,0.8,0.7,1
		c0.3,0.2,0.6,0.3,0.9,0.3c0.3,0,0.6-0.1,0.9-0.3c0.3-0.2,0.5-0.6,0.7-1c0.2-0.5,0.3-1.2,0.3-2c0-0.8-0.1-1.4-0.2-1.9
		c-0.2-0.5-0.4-0.9-0.7-1.1c-0.3-0.2-0.6-0.3-0.9-0.3c-0.3,0-0.6,0.1-0.9,0.3c-0.3,0.2-0.5,0.6-0.7,1
		C35.3,117.6,35.2,118.2,35.2,119.1z"/>
	<path class="st1" d="M40.2,119.1c0-1,0.1-1.8,0.3-2.4c0.2-0.6,0.5-1,0.9-1.3c0.4-0.3,0.8-0.4,1.3-0.4c0.5,0,0.9,0.1,1.3,0.4
		c0.4,0.3,0.7,0.7,0.9,1.3c0.2,0.6,0.3,1.3,0.3,2.3c0,1-0.1,1.7-0.3,2.3c-0.2,0.6-0.5,1-0.9,1.3c-0.4,0.3-0.8,0.4-1.3,0.4
		c-0.5,0-0.9-0.1-1.3-0.4c-0.4-0.3-0.7-0.7-0.9-1.3S40.2,120.1,40.2,119.1z M40.9,119.1c0,0.9,0.1,1.5,0.2,2c0.1,0.4,0.4,0.8,0.7,1
		c0.3,0.2,0.6,0.3,0.9,0.3c0.3,0,0.6-0.1,0.9-0.3c0.3-0.2,0.5-0.6,0.7-1c0.2-0.5,0.3-1.2,0.3-2c0-0.8-0.1-1.4-0.2-1.9
		c-0.2-0.5-0.4-0.9-0.7-1.1s-0.6-0.3-0.9-0.3c-0.3,0-0.6,0.1-0.9,0.3c-0.3,0.2-0.5,0.6-0.7,1C41,117.6,40.9,118.2,40.9,119.1z"/>
	<path class="st1" d="M49.3,117.2H50v1c0.2-0.4,0.5-0.6,0.8-0.8c0.4-0.2,0.7-0.3,1.1-0.3c0.3,0,0.5,0.1,0.8,0.2
		c0.2,0.1,0.4,0.3,0.6,0.4s0.3,0.4,0.4,0.8c0.2-0.4,0.5-0.8,0.9-1c0.4-0.2,0.7-0.3,1.1-0.3c0.4,0,0.7,0.1,1,0.3
		c0.3,0.2,0.5,0.5,0.6,0.8c0.1,0.4,0.2,0.9,0.2,1.6v3.1h-0.7v-3.1c0-0.6,0-1-0.1-1.3c-0.1-0.2-0.2-0.4-0.4-0.6
		c-0.2-0.1-0.4-0.2-0.7-0.2c-0.3,0-0.7,0.1-0.9,0.3c-0.3,0.2-0.5,0.5-0.6,0.8c-0.1,0.3-0.2,0.9-0.2,1.7v2.2H53V120
		c0-0.7,0-1.2-0.1-1.4c-0.1-0.2-0.2-0.4-0.4-0.6s-0.4-0.2-0.7-0.2c-0.3,0-0.6,0.1-0.9,0.3c-0.3,0.2-0.5,0.5-0.6,0.8
		c-0.1,0.3-0.2,0.9-0.2,1.6v2.4h-0.7V117.2z"/>
</g>
<g class="st0">
	<path class="st1" d="M58.9,116.3h-0.4c0-0.4,0.2-0.8,0.4-1.1c0.3-0.3,0.6-0.4,1-0.4c0.4,0,0.7,0.1,1,0.4c0.2,0.3,0.4,0.6,0.4,0.9
		c0,0.3-0.1,0.5-0.2,0.7s-0.3,0.5-0.7,0.9l-1.1,1.2h2v0.4h-2.9l1.7-1.9c0.3-0.4,0.6-0.6,0.7-0.8c0.1-0.2,0.2-0.4,0.2-0.6
		c0-0.3-0.1-0.5-0.3-0.7c-0.2-0.2-0.4-0.3-0.7-0.3c-0.3,0-0.5,0.1-0.7,0.3S58.9,115.9,58.9,116.3z"/>
</g>
<g class="st0">
	<path class="st1" d="M21.3,103.7v7.9h-0.7v-1c-0.3,0.4-0.6,0.7-1,0.8c-0.4,0.2-0.8,0.3-1.2,0.3c-0.8,0-1.4-0.3-2-0.9
		c-0.5-0.6-0.8-1.3-0.8-2.1c0-0.8,0.3-1.5,0.8-2.1c0.6-0.6,1.2-0.9,2-0.9c0.5,0,0.9,0.1,1.2,0.3c0.4,0.2,0.7,0.5,1,0.9v-3.2H21.3z
		 M18.4,106.4c-0.4,0-0.8,0.1-1.1,0.3c-0.3,0.2-0.6,0.5-0.8,0.8c-0.2,0.4-0.3,0.7-0.3,1.1c0,0.4,0.1,0.8,0.3,1.2
		c0.2,0.4,0.5,0.7,0.8,0.9c0.3,0.2,0.7,0.3,1.1,0.3c0.4,0,0.8-0.1,1.1-0.3c0.3-0.2,0.6-0.5,0.8-0.8c0.2-0.3,0.3-0.7,0.3-1.2
		c0-0.7-0.2-1.2-0.6-1.7C19.6,106.6,19,106.4,18.4,106.4z"/>
	<path class="st1" d="M27.5,109.7l0.6,0.3c-0.2,0.4-0.4,0.7-0.7,1s-0.5,0.4-0.9,0.6c-0.3,0.1-0.7,0.2-1.1,0.2
		c-0.9,0-1.6-0.3-2.1-0.9c-0.5-0.6-0.8-1.3-0.8-2.1c0-0.7,0.2-1.4,0.6-1.9c0.5-0.7,1.3-1.1,2.2-1.1c0.9,0,1.7,0.4,2.2,1.1
		c0.4,0.5,0.6,1.2,0.6,1.9h-4.9c0,0.7,0.2,1.2,0.6,1.6c0.4,0.4,0.9,0.6,1.5,0.6c0.3,0,0.6,0,0.8-0.2c0.3-0.1,0.5-0.2,0.7-0.4
		C27.1,110.3,27.3,110,27.5,109.7z M27.5,108.1c-0.1-0.4-0.2-0.7-0.4-0.9c-0.2-0.2-0.4-0.4-0.7-0.6s-0.6-0.2-0.9-0.2
		c-0.5,0-1,0.2-1.4,0.5c-0.3,0.3-0.5,0.7-0.6,1.2H27.5z"/>
	<path class="st1" d="M36,103.7h0.2v5.4h0.9v0.7h-0.9v1.8h-0.7v-1.8h-3.6L36,103.7z M35.5,109v-3.2l-2.2,3.2H35.5z"/>
	<path class="st1" d="M37.7,107.7c0-1,0.1-1.8,0.3-2.4c0.2-0.6,0.5-1,0.9-1.3c0.4-0.3,0.8-0.4,1.3-0.4c0.5,0,0.9,0.1,1.3,0.4
		c0.4,0.3,0.7,0.7,0.9,1.3c0.2,0.6,0.3,1.3,0.3,2.3c0,1-0.1,1.7-0.3,2.3c-0.2,0.6-0.5,1-0.9,1.3s-0.8,0.4-1.3,0.4
		c-0.5,0-0.9-0.1-1.3-0.4c-0.4-0.3-0.7-0.7-0.9-1.3S37.7,108.7,37.7,107.7z M38.4,107.7c0,0.9,0.1,1.5,0.2,2c0.1,0.4,0.4,0.8,0.7,1
		c0.3,0.2,0.6,0.3,0.9,0.3c0.3,0,0.6-0.1,0.9-0.3c0.3-0.2,0.5-0.6,0.7-1c0.2-0.5,0.3-1.2,0.3-2c0-0.8-0.1-1.4-0.2-1.9
		s-0.4-0.9-0.7-1.1c-0.3-0.2-0.6-0.3-0.9-0.3c-0.3,0-0.6,0.1-0.9,0.3c-0.3,0.2-0.5,0.6-0.7,1C38.5,106.2,38.4,106.8,38.4,107.7z"/>
	<path class="st1" d="M43.4,107.7c0-1,0.1-1.8,0.3-2.4c0.2-0.6,0.5-1,0.9-1.3c0.4-0.3,0.8-0.4,1.3-0.4c0.5,0,0.9,0.1,1.3,0.4
		s0.7,0.7,0.9,1.3c0.2,0.6,0.3,1.3,0.3,2.3c0,1-0.1,1.7-0.3,2.3c-0.2,0.6-0.5,1-0.9,1.3c-0.4,0.3-0.8,0.4-1.3,0.4
		c-0.5,0-0.9-0.1-1.3-0.4c-0.4-0.3-0.7-0.7-0.9-1.3S43.4,108.7,43.4,107.7z M44.1,107.7c0,0.9,0.1,1.5,0.2,2s0.4,0.8,0.7,1
		c0.3,0.2,0.6,0.3,0.9,0.3c0.3,0,0.6-0.1,0.9-0.3c0.3-0.2,0.5-0.6,0.7-1c0.2-0.5,0.3-1.2,0.3-2c0-0.8-0.1-1.4-0.2-1.9
		s-0.4-0.9-0.7-1.1c-0.3-0.2-0.6-0.3-0.9-0.3c-0.3,0-0.6,0.1-0.9,0.3c-0.3,0.2-0.5,0.6-0.7,1C44.2,106.2,44.1,106.8,44.1,107.7z"/>
	<path class="st1" d="M52.5,105.9h0.7v1c0.2-0.4,0.5-0.6,0.8-0.8c0.4-0.2,0.7-0.3,1.1-0.3c0.3,0,0.5,0.1,0.8,0.2
		c0.2,0.1,0.4,0.3,0.6,0.4c0.2,0.2,0.3,0.4,0.4,0.8c0.2-0.4,0.5-0.8,0.9-1c0.4-0.2,0.7-0.3,1.1-0.3c0.4,0,0.7,0.1,1,0.3
		c0.3,0.2,0.5,0.5,0.6,0.8s0.2,0.9,0.2,1.6v3.1H60v-3.1c0-0.6,0-1-0.1-1.3s-0.2-0.4-0.4-0.6c-0.2-0.1-0.4-0.2-0.7-0.2
		c-0.3,0-0.7,0.1-0.9,0.3c-0.3,0.2-0.5,0.5-0.6,0.8c-0.1,0.3-0.2,0.9-0.2,1.7v2.2h-0.7v-2.9c0-0.7,0-1.2-0.1-1.4
		c-0.1-0.2-0.2-0.4-0.4-0.6c-0.2-0.1-0.4-0.2-0.7-0.2c-0.3,0-0.6,0.1-0.9,0.3c-0.3,0.2-0.5,0.5-0.6,0.8c-0.1,0.3-0.2,0.9-0.2,1.6
		v2.4h-0.7V105.9z"/>
</g>
<g class="st0">
	<path class="st1" d="M62.1,104.9h-0.4c0-0.4,0.2-0.8,0.4-1.1c0.3-0.3,0.6-0.4,1-0.4c0.4,0,0.7,0.1,1,0.4c0.2,0.3,0.4,0.6,0.4,0.9
		c0,0.3-0.1,0.5-0.2,0.7s-0.3,0.5-0.7,0.9l-1.1,1.2h2v0.4h-2.9l1.7-1.9c0.3-0.4,0.6-0.6,0.7-0.8c0.1-0.2,0.2-0.4,0.2-0.6
		c0-0.3-0.1-0.5-0.3-0.7s-0.4-0.3-0.7-0.3c-0.3,0-0.5,0.1-0.7,0.3C62.2,104.3,62.1,104.5,62.1,104.9z"/>
</g>
</svg>
