<?xml version="1.0" encoding="utf-8"?>
<!-- Generator: Adobe Illustrator 24.3.0, SVG Export Plug-In . SVG Version: 6.00 Build 0)  -->
<svg version="1.1" id="Capa_1" xmlns="http://www.w3.org/2000/svg" xmlns:xlink="http://www.w3.org/1999/xlink" x="0px" y="0px"
	 viewBox="0 0 81.3 182.2" style="enable-background:new 0 0 81.3 182.2;" xml:space="preserve">
<style type="text/css">
	.st0{enable-background:new    ;}
	.st1{fill:#021D49;}
	.st2{fill:none;stroke:#021D49;stroke-miterlimit:10;}
</style>
<g class="st0">
	<path class="st1" d="M30.1,59.2h0.7v7h2.9v0.7h-3.6V59.2z"/>
</g>
<g class="st0">
	<path class="st1" d="M38,59c1.1,0,2.1,0.4,2.8,1.2c0.8,0.8,1.1,1.7,1.1,2.9c0,1.1-0.4,2.1-1.1,2.9c-0.8,0.8-1.7,1.2-2.8,1.2
		c-1.1,0-2-0.4-2.8-1.2c-0.8-0.8-1.1-1.7-1.1-2.8c0-0.7,0.2-1.4,0.5-2.1c0.3-0.6,0.8-1.1,1.4-1.5C36.7,59.2,37.3,59,38,59z
		 M38.1,59.8c-0.5,0-1.1,0.1-1.6,0.4c-0.5,0.3-0.9,0.7-1.2,1.2s-0.4,1.1-0.4,1.7c0,0.9,0.3,1.7,0.9,2.3c0.6,0.6,1.3,0.9,2.2,0.9
		c0.6,0,1.1-0.1,1.6-0.4s0.9-0.7,1.1-1.2c0.3-0.5,0.4-1.1,0.4-1.7c0-0.6-0.1-1.2-0.4-1.7c-0.3-0.5-0.7-0.9-1.2-1.2
		C39.1,59.9,38.6,59.8,38.1,59.8z"/>
</g>
<g class="st0">
	<path class="st1" d="M42.4,60v-0.8h4.1V60h-1.7v6.9H44V60H42.4z"/>
	<path class="st1" d="M47.5,59.2h4.3V60h-3.5v2.4h3.5v0.8h-3.5v3h3.5v0.8h-4.2V59.2z"/>
</g>
<g class="st0">
	<path class="st1" d="M24.2,77v7.9h-0.7v-1c-0.3,0.4-0.6,0.7-1,0.8c-0.4,0.2-0.8,0.3-1.2,0.3c-0.8,0-1.4-0.3-2-0.9
		c-0.5-0.6-0.8-1.3-0.8-2.1c0-0.8,0.3-1.5,0.8-2.1c0.6-0.6,1.2-0.9,2-0.9c0.5,0,0.9,0.1,1.2,0.3c0.4,0.2,0.7,0.5,1,0.9V77H24.2z
		 M21.4,79.8c-0.4,0-0.8,0.1-1.1,0.3s-0.6,0.5-0.8,0.8s-0.3,0.7-0.3,1.1c0,0.4,0.1,0.8,0.3,1.1s0.5,0.7,0.8,0.9
		c0.3,0.2,0.7,0.3,1.1,0.3c0.4,0,0.8-0.1,1.1-0.3c0.3-0.2,0.6-0.5,0.8-0.8c0.2-0.3,0.3-0.7,0.3-1.2c0-0.7-0.2-1.2-0.6-1.7
		S22,79.8,21.4,79.8z"/>
	<path class="st1" d="M30.4,83l0.6,0.3c-0.2,0.4-0.4,0.7-0.7,1s-0.5,0.4-0.9,0.6s-0.7,0.2-1.1,0.2c-0.9,0-1.6-0.3-2.1-0.9
		c-0.5-0.6-0.8-1.3-0.8-2.1c0-0.7,0.2-1.4,0.6-1.9c0.5-0.7,1.3-1.1,2.2-1.1c0.9,0,1.7,0.4,2.2,1.1c0.4,0.5,0.6,1.2,0.6,1.9h-4.9
		c0,0.7,0.2,1.2,0.6,1.6c0.4,0.4,0.9,0.6,1.5,0.6c0.3,0,0.6-0.1,0.8-0.2c0.3-0.1,0.5-0.2,0.7-0.4C30,83.7,30.2,83.4,30.4,83z
		 M30.4,81.5c-0.1-0.4-0.2-0.7-0.4-0.9c-0.2-0.2-0.4-0.4-0.7-0.6s-0.6-0.2-0.9-0.2c-0.5,0-1,0.2-1.4,0.5c-0.3,0.3-0.5,0.7-0.6,1.2
		H30.4z"/>
	<path class="st1" d="M36.5,77.2H38v7.7h-0.7V78h-1.2L36.5,77.2z"/>
	<path class="st1" d="M41.5,79.6h-0.7c0-0.8,0.3-1.4,0.7-1.9c0.5-0.5,1-0.7,1.7-0.7c0.7,0,1.2,0.2,1.7,0.7c0.4,0.5,0.6,1,0.6,1.6
		c0,0.4-0.1,0.8-0.3,1.2c-0.2,0.4-0.6,0.9-1.2,1.6l-1.8,2.1h3.4v0.7h-5l2.8-3.2c0.6-0.6,1-1.1,1.1-1.4c0.2-0.3,0.3-0.6,0.3-1
		c0-0.4-0.2-0.8-0.5-1.1s-0.7-0.5-1.1-0.5c-0.5,0-0.9,0.2-1.2,0.5C41.8,78.6,41.6,79,41.5,79.6z"/>
	<path class="st1" d="M50,80.7c0.5,0.3,0.9,0.6,1.1,0.9c0.2,0.3,0.3,0.7,0.3,1.1c0,0.6-0.2,1.1-0.6,1.6c-0.5,0.6-1.1,0.8-2,0.8
		c-0.8,0-1.4-0.2-1.9-0.7c-0.4-0.5-0.6-1-0.6-1.6c0-0.4,0.1-0.8,0.3-1.2c0.2-0.3,0.6-0.6,1.1-0.9c-0.4-0.2-0.6-0.4-0.8-0.7
		c-0.2-0.3-0.3-0.6-0.3-0.9c0-0.3,0.1-0.7,0.3-1c0.2-0.3,0.5-0.6,0.8-0.8S48.6,77,49,77c0.4,0,0.7,0.1,1.1,0.3
		c0.3,0.2,0.6,0.4,0.8,0.8c0.2,0.3,0.3,0.7,0.3,1S51,79.7,50.8,80S50.4,80.5,50,80.7z M49,81.1c-0.5,0-0.9,0.2-1.3,0.5
		c-0.3,0.3-0.5,0.7-0.5,1.2c0,0.3,0.1,0.5,0.2,0.8c0.1,0.3,0.4,0.4,0.6,0.6c0.3,0.1,0.6,0.2,0.9,0.2c0.5,0,1-0.2,1.3-0.5
		c0.3-0.3,0.5-0.7,0.5-1.2c0-0.4-0.2-0.8-0.5-1.1C49.9,81.2,49.4,81.1,49,81.1z M48.9,77.8c-0.4,0-0.7,0.1-1,0.4
		c-0.3,0.2-0.4,0.5-0.4,0.9c0,0.3,0.1,0.7,0.4,0.9s0.6,0.4,1,0.4c0.2,0,0.5-0.1,0.7-0.2s0.4-0.3,0.5-0.5s0.2-0.4,0.2-0.7
		c0-0.3-0.1-0.6-0.4-0.9C49.7,77.9,49.4,77.8,48.9,77.8z"/>
	<path class="st1" d="M55.4,79.2h0.7v1c0.2-0.4,0.5-0.6,0.8-0.8c0.4-0.2,0.7-0.3,1.1-0.3c0.3,0,0.5,0.1,0.8,0.2
		c0.2,0.1,0.4,0.3,0.6,0.4c0.2,0.2,0.3,0.4,0.4,0.8c0.2-0.4,0.5-0.8,0.9-1s0.7-0.3,1.1-0.3c0.4,0,0.7,0.1,1,0.3
		c0.3,0.2,0.5,0.5,0.6,0.8c0.1,0.4,0.2,0.9,0.2,1.6v3.1h-0.7v-3.1c0-0.6,0-1-0.1-1.3s-0.2-0.4-0.4-0.6c-0.2-0.1-0.4-0.2-0.7-0.2
		c-0.3,0-0.7,0.1-0.9,0.3c-0.3,0.2-0.5,0.5-0.6,0.8s-0.2,0.9-0.2,1.7v2.2h-0.7V82c0-0.7,0-1.2-0.1-1.4c-0.1-0.2-0.2-0.4-0.4-0.6
		c-0.2-0.1-0.4-0.2-0.7-0.2c-0.3,0-0.6,0.1-0.9,0.3c-0.3,0.2-0.5,0.5-0.6,0.8c-0.1,0.3-0.2,0.9-0.2,1.6v2.4h-0.7V79.2z"/>
</g>
<g class="st0">
	<path class="st1" d="M65.1,78.3h-0.4c0-0.4,0.2-0.8,0.4-1.1c0.3-0.3,0.6-0.4,1-0.4c0.4,0,0.7,0.1,1,0.4c0.2,0.3,0.4,0.6,0.4,0.9
		c0,0.3-0.1,0.5-0.2,0.7s-0.3,0.5-0.7,0.9l-1.1,1.2h2v0.4h-2.9l1.7-1.9c0.3-0.4,0.6-0.6,0.7-0.8c0.1-0.2,0.2-0.4,0.2-0.6
		c0-0.3-0.1-0.5-0.3-0.7c-0.2-0.2-0.4-0.3-0.7-0.3c-0.3,0-0.5,0.1-0.7,0.3S65.1,77.9,65.1,78.3z"/>
</g>
<g>
	<g class="st0">
		<path class="st1" d="M41.7,98.9l8.8,18.8h-2l-3-6.2h-8.1l-2.9,6.2h-2.1l8.9-18.8H41.7z M41.4,102.9l-3.2,6.8h6.4L41.4,102.9z"/>
	</g>
</g>
<rect x="6.5" y="6.2" class="st2" width="69.8" height="171"/>
<g class="st0">
	<path class="st1" d="M26.4,90.2v5.7h-0.7v-1c-0.3,0.4-0.6,0.7-1,0.8c-0.4,0.2-0.8,0.3-1.2,0.3c-0.8,0-1.4-0.3-2-0.9
		c-0.6-0.6-0.8-1.3-0.8-2.1c0-0.8,0.3-1.5,0.8-2.1c0.6-0.6,1.2-0.9,2-0.9c0.5,0,0.9,0.1,1.2,0.3c0.4,0.2,0.7,0.5,1,0.9v-1H26.4z
		 M23.5,90.8c-0.4,0-0.8,0.1-1.1,0.3c-0.3,0.2-0.6,0.5-0.8,0.8c-0.2,0.4-0.3,0.7-0.3,1.1c0,0.4,0.1,0.8,0.3,1.1
		c0.2,0.4,0.5,0.7,0.8,0.9s0.7,0.3,1.1,0.3c0.4,0,0.8-0.1,1.1-0.3c0.3-0.2,0.6-0.5,0.8-0.8s0.3-0.7,0.3-1.2c0-0.7-0.2-1.2-0.6-1.7
		C24.7,91,24.1,90.8,23.5,90.8z"/>
	<path class="st1" d="M31.9,88.2h1.5v7.7h-0.7V89h-1.2L31.9,88.2z"/>
	<path class="st1" d="M37.7,96.1l-0.6-0.4l2-3.2c-0.3,0.1-0.5,0.1-0.8,0.1c-0.6,0-1.1-0.2-1.5-0.7c-0.4-0.4-0.6-1-0.6-1.6
		c0-0.4,0.1-0.8,0.3-1.2c0.2-0.4,0.5-0.6,0.8-0.9c0.4-0.2,0.8-0.3,1.2-0.3c0.4,0,0.8,0.1,1.1,0.3c0.3,0.2,0.6,0.5,0.8,0.9
		c0.2,0.4,0.3,0.8,0.3,1.2c0,0.3-0.1,0.6-0.2,1c-0.1,0.3-0.3,0.8-0.7,1.3L37.7,96.1z M38.5,92c0.4,0,0.8-0.2,1.1-0.5
		c0.3-0.3,0.5-0.7,0.5-1.1s-0.2-0.8-0.5-1.1c-0.3-0.3-0.7-0.5-1.1-0.5c-0.4,0-0.8,0.2-1.1,0.5C37.1,89.6,37,90,37,90.4
		s0.2,0.8,0.5,1.1C37.7,91.9,38.1,92,38.5,92z"/>
	<path class="st1" d="M43.5,96.1l-0.6-0.4l2-3.2c-0.3,0.1-0.5,0.1-0.8,0.1c-0.6,0-1.1-0.2-1.5-0.7c-0.4-0.4-0.6-1-0.6-1.6
		c0-0.4,0.1-0.8,0.3-1.2c0.2-0.4,0.5-0.6,0.8-0.9c0.4-0.2,0.8-0.3,1.2-0.3c0.4,0,0.8,0.1,1.1,0.3c0.3,0.2,0.6,0.5,0.8,0.9
		c0.2,0.4,0.3,0.8,0.3,1.2c0,0.3-0.1,0.6-0.2,1c-0.1,0.3-0.3,0.8-0.7,1.3L43.5,96.1z M44.3,92c0.4,0,0.8-0.2,1.1-0.5
		c0.3-0.3,0.5-0.7,0.5-1.1s-0.2-0.8-0.5-1.1c-0.3-0.3-0.7-0.5-1.1-0.5c-0.4,0-0.8,0.2-1.1,0.5c-0.3,0.3-0.5,0.7-0.5,1.1
		s0.2,0.8,0.5,1.1C43.5,91.9,43.8,92,44.3,92z"/>
	<path class="st1" d="M50.8,90.2h0.7v1c0.2-0.4,0.5-0.6,0.8-0.8c0.4-0.2,0.7-0.3,1.1-0.3c0.3,0,0.5,0.1,0.8,0.2
		c0.2,0.1,0.4,0.3,0.6,0.4c0.2,0.2,0.3,0.4,0.4,0.8c0.2-0.4,0.5-0.8,0.9-1c0.4-0.2,0.7-0.3,1.1-0.3c0.4,0,0.7,0.1,1,0.3
		c0.3,0.2,0.5,0.5,0.6,0.8c0.1,0.4,0.2,0.9,0.2,1.6v3.1h-0.7v-3.1c0-0.6,0-1-0.1-1.3c-0.1-0.2-0.2-0.4-0.4-0.6s-0.4-0.2-0.7-0.2
		c-0.3,0-0.7,0.1-0.9,0.3c-0.3,0.2-0.5,0.5-0.6,0.8c-0.1,0.3-0.2,0.9-0.2,1.7v2.2h-0.7V93c0-0.7,0-1.2-0.1-1.4
		c-0.1-0.2-0.2-0.4-0.4-0.6c-0.2-0.1-0.4-0.2-0.7-0.2c-0.3,0-0.6,0.1-0.9,0.3c-0.3,0.2-0.5,0.5-0.6,0.8c-0.1,0.3-0.2,0.9-0.2,1.6
		v2.4h-0.7V90.2z"/>
</g>
<g class="st0">
	<path class="st1" d="M60.5,89.3H60c0-0.4,0.2-0.8,0.4-1.1c0.3-0.3,0.6-0.4,1-0.4c0.4,0,0.7,0.1,1,0.4c0.2,0.3,0.4,0.6,0.4,0.9
		c0,0.3-0.1,0.5-0.2,0.7s-0.3,0.5-0.7,0.9l-1.1,1.2h2v0.4h-2.9l1.7-1.9c0.3-0.4,0.6-0.6,0.7-0.8c0.1-0.2,0.2-0.4,0.2-0.6
		c0-0.3-0.1-0.5-0.3-0.7s-0.4-0.3-0.7-0.3c-0.3,0-0.5,0.1-0.7,0.3C60.6,88.7,60.5,88.9,60.5,89.3z"/>
</g>
</svg>
