<?xml version="1.0" encoding="utf-8"?>
<!-- Generator: Adobe Illustrator 24.3.0, SVG Export Plug-In . SVG Version: 6.00 Build 0)  -->
<svg version="1.1" id="Capa_1" xmlns="http://www.w3.org/2000/svg" xmlns:xlink="http://www.w3.org/1999/xlink" x="0px" y="0px"
	 viewBox="0 0 81.3 188.9" style="enable-background:new 0 0 81.3 188.9;" xml:space="preserve">
<style type="text/css">
	.st0{enable-background:new    ;}
	.st1{fill:#021D49;}
	.st2{fill:none;stroke:#021D49;stroke-miterlimit:10;}
</style>
<g class="st0">
	<path class="st1" d="M29.9,65.6h0.7v7h2.9v0.7h-3.6V65.6z"/>
</g>
<g class="st0">
	<path class="st1" d="M37.9,65.4c1.1,0,2.1,0.4,2.8,1.2c0.8,0.8,1.1,1.7,1.1,2.9c0,1.1-0.4,2.1-1.1,2.9c-0.8,0.8-1.7,1.2-2.8,1.2
		c-1.1,0-2-0.4-2.8-1.2c-0.8-0.8-1.1-1.7-1.1-2.8c0-0.7,0.2-1.4,0.5-2.1c0.3-0.6,0.8-1.1,1.4-1.5C36.5,65.6,37.2,65.4,37.9,65.4z
		 M37.9,66.2c-0.5,0-1.1,0.1-1.6,0.4c-0.5,0.3-0.9,0.7-1.2,1.2s-0.4,1.1-0.4,1.7c0,0.9,0.3,1.7,0.9,2.3c0.6,0.6,1.3,0.9,2.2,0.9
		c0.6,0,1.1-0.1,1.6-0.4s0.9-0.7,1.1-1.2c0.3-0.5,0.4-1.1,0.4-1.7c0-0.6-0.1-1.2-0.4-1.7c-0.3-0.5-0.7-0.9-1.2-1.2
		C39,66.3,38.4,66.2,37.9,66.2z"/>
</g>
<g class="st0">
	<path class="st1" d="M42.2,66.4v-0.8h4.1v0.8h-1.7v6.9h-0.8v-6.9H42.2z"/>
	<path class="st1" d="M47.3,65.6h4.3v0.8h-3.5v2.4h3.5v0.8h-3.5v3h3.5v0.8h-4.2V65.6z"/>
</g>
<g>
	<g class="st0">
		<path class="st1" d="M31.3,105.3l8.8,18.8h-2l-3-6.2h-8.1l-2.9,6.2h-2.1l8.9-18.8H31.3z M31,109.3l-3.2,6.8h6.4L31,109.3z"/>
		<path class="st1" d="M50.6,105.3l8.8,18.8h-2l-3-6.2h-8.1l-2.9,6.2h-2.1l8.9-18.8H50.6z M50.4,109.3l-3.2,6.8h6.4L50.4,109.3z"/>
	</g>
</g>
<g>
	<rect x="5.8" y="4.3" class="st2" width="69.7" height="179.3"/>
</g>
<g class="st0">
	<path class="st1" d="M22,83.4v7.9h-0.7v-1c-0.3,0.4-0.6,0.7-1,0.8c-0.4,0.2-0.8,0.3-1.2,0.3c-0.8,0-1.4-0.3-2-0.9
		c-0.5-0.6-0.8-1.3-0.8-2.1c0-0.8,0.3-1.5,0.8-2.1c0.6-0.6,1.2-0.9,2-0.9c0.5,0,0.9,0.1,1.2,0.3c0.4,0.2,0.7,0.5,1,0.9v-3.2H22z
		 M19.2,86.2c-0.4,0-0.8,0.1-1.1,0.3s-0.6,0.5-0.8,0.8S17,88.1,17,88.5c0,0.4,0.1,0.8,0.3,1.1s0.5,0.7,0.8,0.9
		c0.3,0.2,0.7,0.3,1.1,0.3c0.4,0,0.8-0.1,1.1-0.3c0.3-0.2,0.6-0.5,0.8-0.8c0.2-0.3,0.3-0.7,0.3-1.2c0-0.7-0.2-1.2-0.6-1.7
		S19.8,86.2,19.2,86.2z"/>
	<path class="st1" d="M28.2,89.4l0.6,0.3c-0.2,0.4-0.4,0.7-0.7,1s-0.5,0.4-0.9,0.6s-0.7,0.2-1.1,0.2c-0.9,0-1.6-0.3-2.1-0.9
		c-0.5-0.6-0.8-1.3-0.8-2.1c0-0.7,0.2-1.4,0.6-1.9c0.5-0.7,1.3-1.1,2.2-1.1c0.9,0,1.7,0.4,2.2,1.1c0.4,0.5,0.6,1.2,0.6,1.9h-4.9
		c0,0.7,0.2,1.2,0.6,1.6c0.4,0.4,0.9,0.6,1.5,0.6c0.3,0,0.6-0.1,0.8-0.2c0.3-0.1,0.5-0.2,0.7-0.4C27.8,90.1,28,89.8,28.2,89.4z
		 M28.2,87.9c-0.1-0.4-0.2-0.7-0.4-0.9c-0.2-0.2-0.4-0.4-0.7-0.6s-0.6-0.2-0.9-0.2c-0.5,0-1,0.2-1.4,0.5c-0.3,0.3-0.5,0.7-0.6,1.2
		H28.2z"/>
	<path class="st1" d="M33.6,86h-0.7c0-0.8,0.3-1.4,0.7-1.9c0.5-0.5,1-0.7,1.7-0.7c0.7,0,1.2,0.2,1.7,0.7c0.4,0.5,0.6,1,0.6,1.6
		c0,0.4-0.1,0.8-0.3,1.2c-0.2,0.4-0.6,0.9-1.2,1.6l-1.8,2.1h3.4v0.7h-5l2.8-3.2c0.6-0.6,0.9-1.1,1.1-1.4c0.2-0.3,0.3-0.6,0.3-1
		c0-0.4-0.2-0.8-0.5-1.1s-0.7-0.5-1.1-0.5c-0.5,0-0.9,0.2-1.2,0.5C33.8,85,33.6,85.4,33.6,86z"/>
	<path class="st1" d="M38.5,87.5c0-1,0.1-1.8,0.3-2.4c0.2-0.6,0.5-1,0.9-1.3c0.4-0.3,0.8-0.4,1.3-0.4c0.5,0,0.9,0.1,1.3,0.4
		s0.7,0.7,0.9,1.3c0.2,0.6,0.3,1.3,0.3,2.3c0,1-0.1,1.7-0.3,2.3s-0.5,1-0.9,1.3s-0.8,0.4-1.3,0.4c-0.5,0-0.9-0.1-1.3-0.4
		c-0.4-0.3-0.7-0.7-0.9-1.3S38.5,88.5,38.5,87.5z M39.2,87.5c0,0.9,0.1,1.5,0.2,2c0.1,0.4,0.4,0.8,0.7,1c0.3,0.2,0.6,0.3,0.9,0.3
		c0.3,0,0.6-0.1,0.9-0.3s0.5-0.6,0.7-1c0.2-0.5,0.3-1.2,0.3-2c0-0.8-0.1-1.4-0.2-1.9c-0.2-0.5-0.4-0.9-0.7-1.1
		c-0.3-0.2-0.6-0.3-0.9-0.3c-0.3,0-0.6,0.1-0.9,0.3c-0.3,0.2-0.5,0.6-0.7,1C39.2,85.9,39.2,86.6,39.2,87.5z"/>
	<path class="st1" d="M44.2,87.5c0-1,0.1-1.8,0.3-2.4c0.2-0.6,0.5-1,0.9-1.3s0.8-0.4,1.3-0.4c0.5,0,0.9,0.1,1.3,0.4
		c0.4,0.3,0.7,0.7,0.9,1.3c0.2,0.6,0.3,1.3,0.3,2.3c0,1-0.1,1.7-0.3,2.3c-0.2,0.6-0.5,1-0.9,1.3c-0.4,0.3-0.8,0.4-1.3,0.4
		c-0.5,0-0.9-0.1-1.3-0.4c-0.4-0.3-0.7-0.7-0.9-1.3S44.2,88.5,44.2,87.5z M44.9,87.5c0,0.9,0.1,1.5,0.2,2c0.2,0.4,0.4,0.8,0.7,1
		c0.3,0.2,0.6,0.3,0.9,0.3c0.3,0,0.6-0.1,0.9-0.3c0.3-0.2,0.5-0.6,0.7-1c0.2-0.5,0.3-1.2,0.3-2c0-0.8-0.1-1.4-0.2-1.9
		s-0.4-0.9-0.7-1.1s-0.6-0.3-0.9-0.3c-0.3,0-0.6,0.1-0.9,0.3s-0.5,0.6-0.7,1S44.9,86.6,44.9,87.5z"/>
	<path class="st1" d="M53.2,85.6h0.7v1c0.2-0.4,0.5-0.6,0.8-0.8c0.4-0.2,0.7-0.3,1.1-0.3c0.3,0,0.5,0.1,0.8,0.2
		c0.2,0.1,0.4,0.3,0.6,0.4c0.2,0.2,0.3,0.4,0.4,0.8c0.2-0.4,0.5-0.8,0.9-1c0.4-0.2,0.7-0.3,1.1-0.3c0.4,0,0.7,0.1,1,0.3
		c0.3,0.2,0.5,0.5,0.6,0.8c0.1,0.4,0.2,0.9,0.2,1.6v3.1h-0.7v-3.1c0-0.6,0-1-0.1-1.3c-0.1-0.2-0.2-0.4-0.4-0.6s-0.4-0.2-0.7-0.2
		c-0.3,0-0.7,0.1-0.9,0.3c-0.3,0.2-0.5,0.5-0.6,0.8c-0.1,0.3-0.2,0.9-0.2,1.7v2.2H57v-2.9c0-0.7,0-1.2-0.1-1.4
		c-0.1-0.2-0.2-0.4-0.4-0.6c-0.2-0.1-0.4-0.2-0.7-0.2c-0.3,0-0.6,0.1-0.9,0.3c-0.3,0.2-0.5,0.5-0.6,0.8c-0.1,0.3-0.2,0.9-0.2,1.6
		v2.4h-0.7V85.6z"/>
</g>
<g class="st0">
	<path class="st1" d="M62.8,84.7h-0.4c0-0.4,0.2-0.8,0.4-1.1c0.3-0.3,0.6-0.4,1-0.4c0.4,0,0.7,0.1,1,0.4c0.2,0.3,0.4,0.6,0.4,0.9
		c0,0.3-0.1,0.5-0.2,0.7s-0.3,0.5-0.7,0.9l-1.1,1.2h2v0.4h-2.9l1.7-1.9c0.3-0.4,0.6-0.6,0.7-0.8c0.1-0.2,0.2-0.4,0.2-0.6
		c0-0.3-0.1-0.5-0.3-0.7c-0.2-0.2-0.4-0.3-0.7-0.3c-0.3,0-0.5,0.1-0.7,0.3S62.9,84.3,62.8,84.7z"/>
</g>
<g class="st0">
	<path class="st1" d="M22.3,95.9v6.4h-0.8v-1.1c-0.3,0.4-0.7,0.7-1.1,0.9s-0.9,0.3-1.4,0.3c-0.9,0-1.6-0.3-2.2-1
		c-0.6-0.7-0.9-1.5-0.9-2.4c0-0.9,0.3-1.7,0.9-2.4s1.4-1,2.3-1c0.5,0,1,0.1,1.4,0.3c0.4,0.2,0.8,0.6,1.1,1v-1.2H22.3z M19.1,96.5
		c-0.4,0-0.9,0.1-1.2,0.3c-0.4,0.2-0.7,0.5-0.9,0.9c-0.2,0.4-0.3,0.8-0.3,1.3c0,0.4,0.1,0.9,0.3,1.3c0.2,0.4,0.5,0.7,0.9,1
		c0.4,0.2,0.8,0.3,1.2,0.3c0.4,0,0.8-0.1,1.2-0.3c0.4-0.2,0.7-0.5,0.9-0.9c0.2-0.4,0.3-0.8,0.3-1.3c0-0.7-0.2-1.4-0.7-1.9
		C20.3,96.8,19.8,96.5,19.1,96.5z"/>
	<path class="st1" d="M27.9,95.6h-0.9c0.2-0.7,0.5-1.3,0.9-1.6c0.4-0.4,1-0.6,1.6-0.6c0.4,0,0.8,0.1,1.2,0.3
		c0.4,0.2,0.7,0.5,0.9,0.8s0.3,0.7,0.3,1.1c0,0.7-0.4,1.3-1.1,1.8c0.4,0.2,0.7,0.4,1,0.7c0.4,0.5,0.5,1,0.5,1.5c0,0.5-0.1,1-0.4,1.4
		c-0.2,0.4-0.6,0.8-1,1s-0.9,0.4-1.4,0.4c-0.7,0-1.3-0.2-1.8-0.6c-0.5-0.4-0.8-1.1-0.9-1.9h0.8c0.1,0.6,0.4,1,0.6,1.2
		c0.3,0.3,0.8,0.5,1.3,0.5c0.6,0,1.1-0.2,1.5-0.6c0.4-0.4,0.6-0.8,0.6-1.3c0-0.3-0.1-0.7-0.3-0.9c-0.2-0.3-0.4-0.5-0.7-0.7
		c-0.3-0.1-0.8-0.2-1.4-0.3v-0.8c0.4,0,0.7-0.1,1-0.2s0.5-0.3,0.7-0.5c0.1-0.2,0.2-0.5,0.2-0.7c0-0.4-0.1-0.7-0.4-1
		c-0.3-0.3-0.7-0.4-1.1-0.4c-0.4,0-0.7,0.1-0.9,0.3C28.3,94.8,28.1,95.1,27.9,95.6z"/>
	<path class="st1" d="M35,102.5l-0.7-0.5l2.3-3.5c-0.3,0.1-0.6,0.2-0.9,0.2c-0.7,0-1.2-0.2-1.7-0.7s-0.7-1.1-0.7-1.8
		c0-0.5,0.1-0.9,0.3-1.3s0.5-0.7,1-1c0.4-0.2,0.9-0.4,1.3-0.4c0.5,0,0.9,0.1,1.3,0.3c0.4,0.2,0.7,0.6,0.9,1s0.3,0.9,0.3,1.3
		c0,0.4-0.1,0.7-0.2,1.1s-0.4,0.9-0.7,1.4L35,102.5z M36,97.9c0.5,0,0.9-0.2,1.2-0.5c0.3-0.4,0.5-0.8,0.5-1.3s-0.2-0.9-0.5-1.3
		c-0.3-0.4-0.8-0.5-1.2-0.5c-0.5,0-0.9,0.2-1.2,0.5c-0.3,0.4-0.5,0.8-0.5,1.3s0.2,0.9,0.5,1.3C35.1,97.7,35.5,97.9,36,97.9z"/>
	<path class="st1" d="M41.5,102.5l-0.7-0.5l2.3-3.5c-0.3,0.1-0.6,0.2-0.9,0.2c-0.7,0-1.2-0.2-1.7-0.7s-0.7-1.1-0.7-1.8
		c0-0.5,0.1-0.9,0.3-1.3s0.5-0.7,1-1c0.4-0.2,0.9-0.4,1.3-0.4c0.5,0,0.9,0.1,1.3,0.3c0.4,0.2,0.7,0.6,0.9,1S45,95.6,45,96
		c0,0.4-0.1,0.7-0.2,1.1c-0.1,0.4-0.4,0.9-0.7,1.4L41.5,102.5z M42.4,97.9c0.5,0,0.9-0.2,1.2-0.5c0.3-0.4,0.5-0.8,0.5-1.3
		s-0.2-0.9-0.5-1.3c-0.3-0.4-0.8-0.5-1.2-0.5c-0.5,0-0.9,0.2-1.2,0.5c-0.3,0.4-0.5,0.8-0.5,1.3s0.2,0.9,0.5,1.3
		C41.5,97.7,41.9,97.9,42.4,97.9z"/>
	<path class="st1" d="M49.8,95.9h0.8V97c0.3-0.4,0.6-0.7,0.9-0.9c0.4-0.2,0.8-0.4,1.3-0.4c0.3,0,0.6,0.1,0.9,0.2
		c0.3,0.1,0.5,0.3,0.7,0.5c0.2,0.2,0.3,0.5,0.4,0.9c0.3-0.5,0.6-0.9,1-1.1c0.4-0.3,0.8-0.4,1.3-0.4c0.4,0,0.8,0.1,1.1,0.3
		c0.3,0.2,0.6,0.5,0.7,0.9c0.2,0.4,0.2,1,0.2,1.8v3.5h-0.8v-3.5c0-0.7,0-1.2-0.1-1.4c-0.1-0.3-0.3-0.5-0.5-0.6
		c-0.2-0.2-0.5-0.2-0.8-0.2c-0.4,0-0.7,0.1-1.1,0.4c-0.3,0.2-0.6,0.5-0.7,0.9c-0.1,0.4-0.2,1-0.2,2v2.5H54V99c0-0.8,0-1.3-0.1-1.6
		c-0.1-0.3-0.3-0.5-0.5-0.7c-0.2-0.2-0.5-0.2-0.8-0.2c-0.4,0-0.7,0.1-1,0.3c-0.3,0.2-0.6,0.5-0.7,0.9c-0.2,0.4-0.2,1-0.2,1.8v2.7
		h-0.8V95.9z"/>
</g>
<g class="st0">
	<path class="st1" d="M60.6,94.8h-0.5c0-0.5,0.2-0.9,0.5-1.2s0.7-0.5,1.1-0.5c0.4,0,0.8,0.1,1.1,0.4s0.4,0.7,0.4,1.1
		c0,0.3-0.1,0.6-0.2,0.8c-0.1,0.2-0.4,0.6-0.8,1l-1.2,1.4h2.2v0.5H60l1.9-2.1c0.4-0.4,0.6-0.7,0.7-0.9c0.1-0.2,0.2-0.4,0.2-0.6
		c0-0.3-0.1-0.5-0.3-0.7c-0.2-0.2-0.5-0.3-0.8-0.3c-0.3,0-0.6,0.1-0.8,0.3C60.7,94.1,60.6,94.4,60.6,94.8z"/>
</g>
</svg>
