<?xml version="1.0" encoding="utf-8"?>
<!-- Generator: Adobe Illustrator 24.3.0, SVG Export Plug-In . SVG Version: 6.00 Build 0)  -->
<svg version="1.1" id="Capa_1" xmlns="http://www.w3.org/2000/svg" xmlns:xlink="http://www.w3.org/1999/xlink" x="0px" y="0px"
	 viewBox="0 0 443.7 569.3" style="enable-background:new 0 0 443.7 569.3;" xml:space="preserve">
<style type="text/css">
	.st0{fill:#4076AD;}
	.st1{fill:#FFFFFF;}
</style>
<image style="overflow:visible;enable-background:new    ;" width="800" height="1020" xlink:href="master plan portto blanco 8.png"  transform="matrix(0.5546 0 0 0.5581 0 0)">
</image>
<path class="st0" d="M310.3,243.5l-0.4,33.2h3.7c0,0,0,20.9,0,23.3c0,2.5,0.9,17.5,0.9,19.8c0,2.3,0.2,10.6,0.6,13.4
	c0.4,2.8,4.4,1.3,4.4,1.3s20.6-6.6,33.1-15.7c9.8-7.1,22.2-14.9,23.3-21c1.2-6.5,0.5-29.8,0.5-29.8l-0.3-21.6c0,0-2.4-0.8-2.6-4.5
	c-0.2-3.8,3.2-5.4,3.2-5.4l-32.4,4.2l0.9,7.5l-8.7,1l-0.1-7.8L310.3,243.5z"/>
<path class="st0" d="M404.5,254v30.6h-24.4l-0.3,80.5l33-1.5c0,0,0.7-0.1,1-0.2c0.3-0.1,2-1.9,4.4-1.5c2.4,0.5,3.4,1.5,3.4,1.5
	l1.5,0.6l10.2-88.7L404.5,254z"/>
<path class="st0" d="M287.3,447.1l24.8-8.7l-12.5-37.2c0,0-7.6,2.5-14.1,4c-4.2,0.9-12,1.7-12,1.7s5,14.8,9.2,28.2
	C283.8,438.3,287.3,447.1,287.3,447.1z"/>
<g>
	<path class="st1" d="M322.6,275.3l1.9,4.7l1.9-4.7h1.4l-3,7H324l-2.9-7H322.6z"/>
	<path class="st1" d="M332.9,276.4h-2.6v1.5h2.4v1.2h-2.4v1.9h2.6v1.2h-3.8v-7h3.8V276.4z"/>
	<path class="st1" d="M336.6,275.3c0.9,0,1.4,0.3,1.8,0.5c0.5,0.4,0.7,1,0.7,1.5c0,0.7-0.3,1.3-0.9,1.6c-0.2,0.1-0.4,0.3-0.8,0.3
		l2.2,3h-1.7l-1.9-2.8h-0.2v2.8h-1.4v-7H336.6z M336,278.5h0.4c0.3,0,1.4,0,1.4-1c0-1-1.1-1-1.3-1h-0.4L336,278.5L336,278.5z"/>
	<path class="st1" d="M344.8,275.3h1l1.9,4.4l2-4.4h1l1.2,7h-1.5l-0.6-4.3l-2,4.3h-0.4l-1.8-4.3l-0.7,4.3h-1.4L344.8,275.3z"/>
	<path class="st1" d="M357.4,280.8h-2.8l-0.6,1.4h-1.4l3-7h1.1l2.9,7h-1.4L357.4,280.8z M357,279.7l-1-2.5l-1,2.5H357z M355.2,274.1
		l1.4-1.4l0.9,0.8l-1.8,1.3L355.2,274.1z"/>
	<path class="st1" d="M363.8,276.9c-0.4-0.5-0.9-0.6-1.1-0.6c-0.8,0-0.9,0.4-0.9,0.9c0,0.2,0.1,0.3,0.3,0.5c0.2,0.2,0.4,0.3,0.9,0.4
		c0.5,0.2,1,0.3,1.4,0.7c0.3,0.3,0.6,0.8,0.6,1.4c0,1.4-1,2.3-2.5,2.3c-1.3,0-2-0.8-2.4-1.3l0.9-0.9c0.3,0.7,0.9,0.9,1.4,0.9
		c0.6,0,1.1-0.3,1.1-0.9c0-0.3-0.1-0.4-0.3-0.6c-0.3-0.3-0.7-0.3-1.1-0.5c-0.3-0.1-0.8-0.3-1.2-0.6c-0.3-0.2-0.6-0.6-0.6-1.3
		c0-1,0.7-2,2.2-2c0.4,0,1.3,0.1,2,0.9L363.8,276.9z"/>
</g>
<g>
	<path class="st1" d="M386.8,303.2l1.8,4.5l1.8-4.5h1.5l-2.8,6.7h-0.8l-2.8-6.7H386.8z"/>
	<path class="st1" d="M396.6,304.4h-2.4v1.5h2.3v1.1h-2.3v1.8h2.4v1.1h-3.7v-6.7h3.7V304.4z"/>
	<path class="st1" d="M400.1,303.2c0.9,0,1.4,0.3,1.7,0.5c0.5,0.4,0.7,1,0.7,1.5c0,0.7-0.3,1.2-0.8,1.5c-0.2,0.1-0.4,0.3-0.8,0.3
		l2.1,2.8h-1.6l-1.8-2.7h-0.2v2.7h-1.3v-6.6L400.1,303.2L400.1,303.2z M399.5,306.3h0.3c0.3,0,1.3,0,1.3-1c0-1-1-1-1.3-1h-0.4
		L399.5,306.3L399.5,306.3L399.5,306.3z"/>
	<path class="st1" d="M408,303.2h0.9l1.8,4.2l1.9-4.2h0.9l1.1,6.7h-1.5l-0.6-4.1l-1.8,4.1h-0.4l-1.7-4.1l-0.7,4.1h-1.3L408,303.2z"
		/>
	<path class="st1" d="M420.1,308.5h-2.7l-0.6,1.4h-1.4l2.8-6.7h1l2.8,6.7h-1.4L420.1,308.5z M419.6,307.5l-0.9-2.4l-0.9,2.4H419.6z
		 M417.9,302.1l1.4-1.5l0.9,0.7l-1.7,1.2L417.9,302.1z"/>
	<path class="st1" d="M426.3,304.8c-0.4-0.5-0.9-0.6-1.1-0.6c-0.7,0-0.9,0.4-0.9,0.8c0,0.2,0.1,0.3,0.2,0.4c0.2,0.2,0.3,0.3,0.8,0.3
		c0.5,0.2,1,0.3,1.4,0.7c0.3,0.3,0.6,0.7,0.6,1.4c0,1.3-0.9,2.2-2.3,2.2c-1.2,0-2-0.8-2.3-1.3l0.9-0.8c0.3,0.7,0.9,0.9,1.4,0.9
		c0.6,0,1-0.3,1-0.9c0-0.3-0.1-0.4-0.3-0.6c-0.3-0.3-0.7-0.3-1-0.5c-0.3-0.1-0.8-0.3-1.1-0.6c-0.3-0.2-0.5-0.6-0.5-1.2
		c0-0.9,0.7-2,2.1-2c0.4,0,1.2,0.1,1.9,0.8L426.3,304.8z"/>
</g>
<g>
	<g>
		<path class="st1" d="M334.6,288c-0.1-0.2-0.2-0.3-0.3-0.4c-0.1-0.1-0.3-0.2-0.7-0.2c-0.6,0-0.9,0.3-0.9,0.9c0,0.3,0.1,0.3,0.2,0.5
			c0.2,0.2,0.3,0.3,0.6,0.3l0.5,0.3c0.3,0.2,0.7,0.3,0.9,0.5c0.3,0.3,0.4,0.6,0.4,1c0,1-0.8,1.7-1.8,1.7c-0.3,0-0.9-0.1-1.2-0.4
			c-0.3-0.3-0.4-0.7-0.5-1l0.6-0.2c0,0.3,0.2,0.5,0.3,0.7c0.3,0.3,0.5,0.3,0.9,0.3c0.8,0,1.1-0.5,1.1-1.1c0-0.3-0.1-0.5-0.3-0.7
			c-0.2-0.2-0.3-0.3-0.7-0.4l-0.5-0.3c-0.3-0.1-0.5-0.3-0.8-0.4c-0.3-0.3-0.4-0.5-0.4-0.9c0-0.9,0.7-1.4,1.6-1.4
			c0.3,0,0.6,0.1,0.9,0.3c0.3,0.2,0.4,0.4,0.5,0.6L334.6,288z"/>
		<path class="st1" d="M339.7,287.4h-2.3v1.7h2.2v0.6h-2.2v2.2h2.3v0.6h-3v-5.7h3V287.4z"/>
		<path class="st1" d="M341.8,286.8v5.1h1.5v0.6h-2.2v-5.7L341.8,286.8L341.8,286.8z"/>
		<path class="st1" d="M344.2,286.8l1.6,4.3l1.6-4.3h0.7l-2.3,6l-2.3-6H344.2L344.2,286.8z"/>
		<path class="st1" d="M352,290.9h-2.4l-0.7,1.6h-0.7l2.6-6l2.6,6h-0.7L352,290.9z M351.7,290.3l-0.9-2.3l-0.9,2.3H351.7z"/>
	</g>
</g>
<g>
	<path class="st1" d="M390.3,314.8c0.3,0,0.9,0,1.3,0.3c0.2,0.2,0.5,0.5,0.5,1.2c0,0.3-0.1,0.8-0.6,1.1c0.8,0.2,1.1,0.9,1.1,1.5
		c0,0.6-0.3,1-0.6,1.2c-0.4,0.3-0.9,0.3-1.4,0.3h-1.5v-5.8L390.3,314.8L390.3,314.8L390.3,314.8z M389.9,317.4h0.5
		c0.3,0,1.1-0.1,1.1-0.9c0-0.9-0.9-0.9-1.1-0.9h-0.5V317.4z M389.9,320h0.7c0.3,0,0.7,0,1-0.3c0.3-0.2,0.3-0.4,0.3-0.8
		c0-0.4-0.3-0.7-0.5-0.9c-0.2-0.1-0.5-0.2-0.9-0.2h-0.7L389.9,320L389.9,320z"/>
	<path class="st1" d="M393.9,317.7c0-1.7,1.3-2.9,3-2.9s3,1.3,3,2.9c0,1.7-1.3,2.9-3,2.9S393.9,319.4,393.9,317.7z M394.6,317.7
		c0,1.3,1,2.3,2.3,2.3s2.3-1,2.3-2.3s-1-2.3-2.3-2.3S394.6,316.4,394.6,317.7z"/>
	<path class="st1" d="M403.8,316c-0.1-0.2-0.2-0.3-0.3-0.4c-0.1-0.1-0.3-0.2-0.7-0.2c-0.6,0-0.9,0.3-0.9,0.9c0,0.3,0.1,0.3,0.2,0.5
		c0.2,0.2,0.3,0.3,0.6,0.3l0.5,0.3c0.3,0.2,0.7,0.3,0.9,0.5c0.3,0.3,0.4,0.6,0.4,1c0,1-0.8,1.7-1.8,1.7c-0.3,0-0.9-0.1-1.2-0.4
		c-0.3-0.3-0.4-0.7-0.5-1l0.6-0.2c0,0.3,0.2,0.5,0.3,0.7c0.3,0.3,0.5,0.3,0.9,0.3c0.8,0,1.1-0.5,1.1-1.1c0-0.3-0.1-0.5-0.3-0.7
		c-0.2-0.2-0.3-0.3-0.7-0.4l-0.5-0.3c-0.3-0.1-0.5-0.3-0.8-0.4c-0.3-0.3-0.4-0.5-0.4-0.9c0-0.9,0.7-1.5,1.6-1.5
		c0.3,0,0.6,0.1,0.9,0.3c0.3,0.2,0.4,0.4,0.5,0.6L403.8,316z"/>
	<path class="st1" d="M410.4,320.1c-0.3,0.2-0.8,0.5-1.7,0.5c-1.6,0-3-1.3-3-2.9c0-1.7,1.3-2.9,3-2.9c1.6,0,3,1.3,3,2.9
		c0,1-0.4,1.7-0.8,2.1l0.9,0.9H411L410.4,320.1z M410.4,319.3c0.2-0.3,0.6-0.8,0.6-1.5c0-1.3-1-2.3-2.3-2.3s-2.3,1-2.3,2.3
		s1,2.3,2.3,2.3c0.3,0,0.9-0.1,1.3-0.3l-1.4-1.5h0.9L410.4,319.3z"/>
	<path class="st1" d="M413.8,318.3c0,0.5,0,1,0.4,1.4c0.3,0.2,0.6,0.3,0.9,0.3s0.7-0.1,0.9-0.3c0.4-0.3,0.4-0.9,0.4-1.4v-3.5h0.6
		v3.7c0,0.5-0.1,0.9-0.3,1.4c-0.3,0.4-0.9,0.8-1.6,0.8s-1.3-0.3-1.6-0.8c-0.3-0.4-0.3-0.9-0.3-1.4v-3.7h0.6L413.8,318.3L413.8,318.3
		z"/>
	<path class="st1" d="M422,315.4h-2.3v1.7h2.2v0.6h-2.2v2.2h2.3v0.6h-3v-5.8h3V315.4z"/>
</g>
<g>
	<path class="st1" d="M289.9,409.2l1.8,4.4l1.8-4.4h1.4l-2.8,6.6h-0.8l-2.8-6.6H289.9z"/>
	<path class="st1" d="M299.6,410.4h-2.4v1.4h2.3v1.1h-2.3v1.8h2.4v1.1H296v-6.6h3.6V410.4z"/>
	<path class="st1" d="M303.1,409.2c0.9,0,1.4,0.3,1.7,0.5c0.5,0.4,0.7,1,0.7,1.4c0,0.7-0.3,1.2-0.8,1.5c-0.2,0.1-0.4,0.3-0.8,0.3
		l2,2.8h-1.6l-1.8-2.6h-0.2v2.6h-1.3v-6.5L303.1,409.2z M302.5,412.3h0.3c0.3,0,1.3,0,1.3-1c0-1-1-1-1.3-1h-0.4L302.5,412.3
		L302.5,412.3z"/>
	<path class="st1" d="M310.9,409.2h0.9l1.8,4.2l1.9-4.2h0.9l1.1,6.6h-1.4l-0.6-4.1l-1.8,4.1h-0.4l-1.7-4.1l-0.7,4.1h-1.3
		L310.9,409.2z"/>
	<path class="st1" d="M322.9,414.5h-2.6l-0.6,1.4h-1.4l2.8-6.6h1l2.8,6.6h-1.4L322.9,414.5z M322.4,413.5l-0.9-2.4l-0.9,2.4H322.4z
		 M320.7,408.1l1.4-1.4l0.8,0.7l-1.7,1.2L320.7,408.1z"/>
	<path class="st1" d="M329,410.8c-0.4-0.5-0.8-0.6-1.1-0.6c-0.7,0-0.9,0.4-0.9,0.8c0,0.2,0.1,0.3,0.2,0.4c0.2,0.2,0.3,0.3,0.8,0.3
		c0.5,0.2,1,0.3,1.4,0.7c0.3,0.3,0.6,0.7,0.6,1.4c0,1.3-0.9,2.2-2.3,2.2c-1.2,0-2-0.8-2.3-1.3l0.8-0.8c0.3,0.7,0.9,0.8,1.4,0.8
		c0.6,0,1-0.3,1-0.9c0-0.3-0.1-0.4-0.3-0.6c-0.3-0.3-0.7-0.3-1-0.5c-0.3-0.1-0.8-0.3-1.1-0.6c-0.3-0.2-0.5-0.6-0.5-1.2
		c0-0.9,0.7-2,2.1-2c0.4,0,1.2,0.1,1.9,0.8L329,410.8z"/>
</g>
<g>
	<path class="st1" d="M289.5,432.3h-0.9v0.7h0.9v0.3h-0.9v0.9h0.9v0.3h-1.2v-2.3h1.2V432.3z"/>
	<path class="st1" d="M290.9,432.3v2h-0.3v-2H290V432h1.4v0.3H290.9z"/>
	<path class="st1" d="M293.3,433.7h-1l-0.3,0.7h-0.3l1.1-2.4l1,2.4h-0.3L293.3,433.7z M293.2,433.4l-0.4-0.9l-0.4,0.9H293.2z"/>
	<path class="st1" d="M295,432c0.3,0,0.4,0,0.6,0.2s0.2,0.3,0.2,0.5c0,0.3-0.2,0.7-0.8,0.7h-0.3v1h-0.3V432H295L295,432L295,432z
		 M294.8,433.1h0.2c0.3,0,0.5-0.2,0.5-0.4c0-0.3-0.3-0.4-0.5-0.4h-0.2V433.1z"/>
	<path class="st1" d="M297.5,433.7h-1l-0.3,0.7H296l1.1-2.4l1,2.4h-0.3L297.5,433.7z M297.4,433.4l-0.4-0.9l-0.4,0.9H297.4z"/>
	<path class="st1" d="M300,434c-0.2-0.3-0.3-0.5-0.3-0.8c0-0.3,0.1-0.6,0.3-0.8c0.2-0.3,0.4-0.3,0.6-0.3s0.4,0.1,0.6,0.3
		s0.3,0.5,0.3,0.8c0,0.3-0.1,0.6-0.3,0.8c-0.2,0.3-0.4,0.3-0.6,0.3S300.2,434.3,300,434z M300.2,432.5c-0.1,0.2-0.2,0.4-0.2,0.7
		s0.1,0.5,0.2,0.7c0.1,0.2,0.3,0.3,0.4,0.3s0.3-0.1,0.4-0.3c0.1-0.2,0.2-0.4,0.2-0.7s-0.1-0.5-0.2-0.7c-0.1-0.2-0.3-0.3-0.4-0.3
		S300.3,432.3,300.2,432.5z"/>
	<path class="st1" d="M302.5,432.3h-0.4l0.2-0.3h0.5v2.3h-0.3L302.5,432.3L302.5,432.3z"/>
</g>
<g>
	<path class="st1" d="M110.1,38.7l3.5-20.7h5.3l4.2,11l4.4-11h5.4l3.1,20.7h-5.4l-1.5-11.9l-5,11.9h-2.1l-4.8-11.9l-1.8,11.9H110.1z
		"/>
	<path class="st1" d="M154.3,35.2h-7.5l-1.4,3.5h-5.7l7.9-20.7h5.9l7.8,20.7h-5.7L154.3,35.2z M152.9,31.1l-2.3-6.7l-2.3,6.7H152.9z
		"/>
	<path class="st1" d="M166.6,32.5c1.1,1.1,2.9,2.1,4.7,2.1c1.1,0,1.7-0.3,2.1-0.7c0.3-0.3,0.5-0.8,0.5-1.3c0-0.4-0.2-0.9-0.6-1.2
		c-0.5-0.5-1.3-0.7-2.7-1.1l-1.4-0.4c-0.9-0.3-2.1-0.7-3-1.7c-1.1-1.1-1.2-2.6-1.2-3.7c0-2.5,1-4.1,1.9-5c1.1-1.1,2.8-2,5.3-2
		c2,0,4.4,0.7,6.4,1.7l-2.1,4.2c-1.6-1.3-2.8-1.4-3.5-1.4c-0.5,0-1.2,0.1-1.8,0.6c-0.3,0.3-0.5,0.7-0.5,1.1c0,0.4,0.1,0.7,0.3,0.9
		c0.2,0.2,0.5,0.6,1.8,0.9l1.6,0.5c1.3,0.4,2.7,0.9,3.7,2c1.1,1.1,1.3,2.3,1.3,3.7c0,1.9-0.5,3.7-2,5.2c-1.8,1.8-3.9,2.1-6.1,2.1
		c-1.3,0-2.5-0.1-4.1-0.7c-0.3-0.1-1.6-0.6-3.1-1.6L166.6,32.5z"/>
	<path class="st1" d="M193.1,22.6v16.1h-5.4V22.6h-4.4V18h14.2v4.6H193.1z"/>
	<path class="st1" d="M213.9,22.6h-6.4V26h6v4.6h-6v3.6h6.4v4.6h-11.7V18h11.7V22.6z"/>
	<path class="st1" d="M228,18c1.5,0,3.5,0.2,5.1,1.8c1.2,1.2,1.8,3,1.8,4.6c0,1.8-0.6,3.3-1.6,4.3c-0.8,0.8-1.9,1.2-2.9,1.4l6.5,8.5
		h-6.7l-5.1-7.9v7.9h-5.4V18H228z M225,27.3h1c0.8,0,2-0.2,2.6-0.8c0.4-0.4,0.7-1.1,0.7-1.7c0-0.6-0.2-1.3-0.7-1.7
		c-0.5-0.5-1.4-0.8-2.6-0.8h-1V27.3z"/>
	<path class="st1" d="M256.3,31.8v6.8h-5.4V18h8.6c1.8,0,3.7,0.3,5.2,1.9c1.6,1.5,1.9,3.3,1.9,5c0,1.6-0.2,3.6-1.8,5.1
		c-1.6,1.6-3.5,1.8-5.1,1.8H256.3z M256.3,27.5h1.8c0.6,0,1.6-0.1,2.3-0.7c0.7-0.6,0.7-1.4,0.7-1.9c0-0.6-0.1-1.3-0.6-1.9
		c-0.6-0.7-1.6-0.7-2.3-0.7h-1.8V27.5z"/>
	<path class="st1" d="M277.2,18v16.1h6.4v4.6h-11.8V18H277.2z"/>
	<path class="st1" d="M301.3,35.2h-7.5l-1.4,3.5h-5.7l7.9-20.7h5.9l7.8,20.7h-5.7L301.3,35.2z M299.9,31.1l-2.3-6.7l-2.3,6.7H299.9z
		"/>
	<path class="st1" d="M313,38.7V18h5.4l9.9,12.6V18h5.4v20.7h-5.4L318.4,26v12.6H313z"/>
</g>
<g>
	<g>
		<g>
			<g>
				<path class="st1" d="M261.5,105.7l20.2,20.2l-14.3,14.3l-5.5-5.5l0.8-0.8l4.5,4.5l0.2,0.2l0.2-0.2l12.3-12.3l0.2-0.2l-0.2-0.2
					l-18.2-18.2l-0.2-0.2l-0.2,0.2l-11.9,11.9l-0.8-0.8L261.5,105.7"/>
			</g>
			<g>
				<path class="st1" d="M246.7,120.4l0.8,0.8l-4.5,4.5l-0.2,0.2l0.2,0.2l12.3,12.3l0.2,0.2l0.2-0.2l17.9-17.9l0.8,0.8l-18.9,18.9
					l-14.3-14.3L246.7,120.4z"/>
			</g>
			<g>
				<path class="st1" d="M261.5,99.7l17.2,17.2l-2.4,2.4l-0.8-0.8l1.4-1.4l0.2-0.2l-0.2-0.2l-15.2-15.2l-0.2-0.2l-0.2,0.2
					l-15.2,15.2l-0.2,0.2l0.2,0.2l14.8,14.9l-0.8,0.8l-15.9-15.9L261.5,99.7"/>
			</g>
			<g>
				<path class="st1" d="M261.5,111.7l2.3,2.3l-2.3,2.3l-2.3-2.3L261.5,111.7"/>
			</g>
		</g>
		<g>
			<g>
				<g>
					<path class="st1" d="M289.2,108.9v-0.1h3.7c0.6,0,1.2,0.1,1.7,0.3c0.5,0.2,0.9,0.4,1.2,0.7s0.6,0.6,0.7,1
						c0.2,0.4,0.2,0.8,0.2,1.2c0,0.4-0.1,0.8-0.2,1.2c-0.1,0.4-0.4,0.7-0.7,1s-0.7,0.5-1.2,0.7c-0.5,0.2-1.1,0.3-1.8,0.3
						c-0.2,0-0.6,0-1.2-0.1v3.9c0,0.8,0.4,1.2,1.2,1.3v0.1h-3.6v-0.1c0.4,0,0.6-0.1,0.9-0.3c0.2-0.2,0.3-0.5,0.3-1v-8.6
						c0-0.3,0-0.5-0.1-0.7c-0.1-0.2-0.2-0.3-0.3-0.4c-0.1-0.1-0.2-0.1-0.4-0.2c-0.1,0-0.2-0.1-0.3-0.1H289.2z M291.6,109.2v5.4
						c0.4,0.1,0.8,0.1,1.2,0.1c0.7,0,1.4-0.2,1.9-0.6c0.5-0.4,0.8-1.1,0.8-2.1c0-0.8-0.2-1.5-0.7-2.1c-0.5-0.5-1.1-0.8-2.1-0.8
						C292.3,109.1,292,109.1,291.6,109.2z"/>
					<path class="st1" d="M310.5,114.5c0,1.1-0.3,2.1-0.8,3c-0.5,0.9-1.3,1.7-2.2,2.2c-0.9,0.5-1.9,0.8-3,0.8
						c-1.1,0-2.1-0.3-3.1-0.8c-0.9-0.5-1.7-1.3-2.2-2.2c-0.5-0.9-0.8-1.9-0.8-3c0-0.8,0.2-1.6,0.5-2.4c0.3-0.7,0.8-1.4,1.3-1.9
						c0.6-0.5,1.2-1,2-1.3c0.7-0.3,1.5-0.4,2.3-0.4c0.8,0,1.5,0.1,2.2,0.4c0.7,0.3,1.4,0.7,1.9,1.2c0.6,0.5,1,1.2,1.3,1.9
						C310.4,112.8,310.5,113.6,310.5,114.5z M309.2,114.6c0-1.5-0.3-2.7-0.8-3.6c-0.5-0.9-1.2-1.4-1.9-1.7c-0.7-0.3-1.4-0.4-2-0.4
						c-0.5,0-1,0.1-1.5,0.2c-0.5,0.2-1,0.4-1.5,0.9c-0.5,0.4-0.9,1-1.2,1.8c-0.3,0.8-0.5,1.7-0.5,2.8c0,1,0.1,1.8,0.4,2.6
						c0.3,0.7,0.6,1.3,1.1,1.8c0.5,0.5,1,0.8,1.5,1c0.6,0.2,1.1,0.3,1.7,0.3c0.5,0,1.1-0.1,1.6-0.3c0.5-0.2,1-0.5,1.5-0.9
						c0.5-0.4,0.8-1,1.1-1.7C309,116.5,309.2,115.6,309.2,114.6z"/>
					<path class="st1" d="M312.5,109h-0.2v-0.2h4c0.6,0,1.2,0.1,1.6,0.3c0.4,0.2,0.8,0.4,1,0.7c0.2,0.3,0.4,0.6,0.5,1
						c0.1,0.3,0.2,0.7,0.2,1c0,0.4-0.1,0.8-0.3,1.2c-0.2,0.4-0.4,0.7-0.8,1c-0.4,0.3-0.8,0.5-1.3,0.6v0c0.7,0.3,1.3,1,1.9,2l1,1.7
						c0.5,0.8,0.8,1.3,1.1,1.5s0.6,0.3,0.8,0.3v0.1h-2.1c-0.1-0.1-0.2-0.2-0.2-0.3c-0.1-0.1-0.2-0.2-0.2-0.3
						c-0.1-0.1-0.1-0.2-0.2-0.4c-0.1-0.2-0.2-0.2-0.2-0.3l-1.4-2.3c-0.3-0.5-0.6-0.8-0.8-1.1c-0.3-0.3-0.6-0.5-0.8-0.6
						c-0.2-0.1-0.5-0.2-0.7-0.2c-0.2,0-0.4,0-0.7,0v4.2c0,0.8,0.4,1.2,1.2,1.3v0.1h-3.6v-0.1c0.2,0,0.4-0.1,0.6-0.1
						c0.2-0.1,0.3-0.2,0.4-0.4c0.1-0.2,0.2-0.4,0.2-0.7v-8.6c0-0.5-0.1-0.8-0.3-1C313,109.1,312.8,109,312.5,109z M314.8,114.4h0.7
						c0.7,0,1.2-0.1,1.7-0.3c0.4-0.2,0.8-0.5,1-0.8c0.2-0.4,0.3-0.8,0.3-1.3c0-0.4-0.1-0.9-0.3-1.3c-0.2-0.4-0.5-0.8-0.9-1.1
						c-0.4-0.3-1-0.4-1.7-0.4c-0.3,0-0.5,0-0.7,0.1V114.4z"/>
					<path class="st1" d="M338.1,108.2c-0.3,0.4-0.7,0.6-1.1,0.6h-6.2h-1.2h-6.2c-0.2,0-0.3,0-0.5,0c-0.1,0-0.2,0-0.3-0.1
						c-0.1,0-0.2-0.1-0.2-0.2s-0.1-0.2-0.2-0.3h-0.1v2.8h0.1c0.1-0.7,0.3-1.2,0.7-1.4c0.4-0.2,0.8-0.3,1.4-0.3h2.3v9.6
						c0,0.4-0.1,0.8-0.4,1c-0.2,0.2-0.5,0.3-0.9,0.3v0.1h3.6v-0.1c-0.8,0-1.2-0.4-1.2-1.3v-9.6h2.8h0.6h1.7v9.6c0,0.4-0.1,0.8-0.4,1
						c-0.2,0.2-0.5,0.3-0.9,0.3v0.1h3.6v-0.1c-0.8,0-1.2-0.4-1.2-1.3v-9.6h2.3c0.6,0,1,0.1,1.4,0.3c0.4,0.2,0.6,0.7,0.7,1.4h0.1
						v-2.8H338.1z"/>
					<path class="st1" d="M351.5,114.5c0,1.1-0.3,2.1-0.8,3c-0.5,0.9-1.3,1.7-2.2,2.2c-0.9,0.5-1.9,0.8-3,0.8
						c-1.1,0-2.1-0.3-3.1-0.8c-0.9-0.5-1.7-1.3-2.2-2.2c-0.5-0.9-0.8-1.9-0.8-3c0-0.8,0.2-1.6,0.5-2.4c0.3-0.7,0.8-1.4,1.3-1.9
						c0.6-0.5,1.2-1,2-1.3c0.7-0.3,1.5-0.4,2.3-0.4c0.8,0,1.5,0.1,2.2,0.4c0.7,0.3,1.4,0.7,1.9,1.2c0.6,0.5,1,1.2,1.3,1.9
						C351.3,112.8,351.5,113.6,351.5,114.5z M350.1,114.6c0-1.5-0.3-2.7-0.8-3.6c-0.5-0.9-1.2-1.4-1.9-1.7c-0.7-0.3-1.4-0.4-2-0.4
						c-0.5,0-1,0.1-1.5,0.2c-0.5,0.2-1,0.4-1.5,0.9c-0.5,0.4-0.9,1-1.2,1.8c-0.3,0.8-0.5,1.7-0.5,2.8c0,1,0.1,1.8,0.4,2.6
						c0.3,0.7,0.6,1.3,1.1,1.8c0.5,0.5,1,0.8,1.5,1c0.6,0.2,1.1,0.3,1.7,0.3c0.5,0,1.1-0.1,1.6-0.3c0.5-0.2,1-0.5,1.5-0.9
						c0.5-0.4,0.8-1,1.1-1.7C350,116.5,350.1,115.6,350.1,114.6z"/>
					<path class="st1" d="M363.3,120.2H359v-0.1h0.2c0.3,0,0.5-0.1,0.7-0.3c0.2-0.2,0.3-0.5,0.3-0.9v-8.6c0-0.4-0.1-0.7-0.3-1
						c-0.2-0.2-0.5-0.3-0.8-0.3H359v-0.1h3.7c0.5,0,0.9,0.1,1.4,0.2c0.4,0.1,0.8,0.3,1.1,0.6c0.3,0.3,0.5,0.5,0.7,0.9
						c0.2,0.3,0.2,0.7,0.2,1c0,0.7-0.2,1.2-0.7,1.7c-0.4,0.4-1,0.7-1.8,0.9v0c0.3,0,0.7,0.1,1,0.2c0.3,0.1,0.6,0.2,0.9,0.3
						c0.3,0.1,0.5,0.3,0.7,0.5c0.2,0.2,0.4,0.4,0.5,0.6c0.1,0.2,0.2,0.5,0.3,0.7c0.1,0.3,0.1,0.5,0.1,0.8c0,0.6-0.2,1.1-0.5,1.5
						c-0.3,0.4-0.7,0.8-1,1C365.1,120.1,364.3,120.2,363.3,120.2z M361.4,114h0.7c0.6,0,1-0.1,1.3-0.2c0.2-0.1,0.3-0.2,0.5-0.3
						c0.2-0.1,0.3-0.4,0.5-0.7c0.2-0.3,0.2-0.7,0.2-1.1c0-0.3-0.1-0.7-0.2-1c-0.1-0.3-0.3-0.6-0.5-0.8c-0.2-0.2-0.5-0.4-0.7-0.6
						c-0.3-0.1-0.6-0.2-0.9-0.2c-0.3,0-0.6,0.1-1,0.2V114z M362.6,114.4h-1.2v4.1c0,0.3,0,0.5,0.1,0.7c0.1,0.2,0.2,0.3,0.4,0.5
						c0.2,0.1,0.6,0.2,1.1,0.2c1,0,1.8-0.3,2.2-1c0.3-0.5,0.5-1,0.5-1.6c0-0.4-0.1-0.8-0.2-1.2c-0.2-0.4-0.4-0.6-0.6-0.9
						c-0.3-0.2-0.6-0.4-1-0.6C363.5,114.5,363.1,114.4,362.6,114.4z"/>
					<path class="st1" d="M368.6,120.1h0.2c0.3,0,0.5-0.1,0.7-0.3c0.2-0.2,0.3-0.5,0.3-0.9v-8.6c0-0.5-0.1-0.8-0.4-1
						c-0.2-0.2-0.5-0.3-0.9-0.3v-0.1h3.7v0.1c-0.3,0-0.6,0.1-0.9,0.3c-0.2,0.2-0.4,0.5-0.4,1v8.3c0,0.5,0.1,0.8,0.4,1
						c0.2,0.2,0.7,0.3,1.2,0.3h1c0.4,0,0.8-0.1,1-0.2c0.3-0.1,0.5-0.3,0.6-0.5c0.2-0.2,0.3-0.5,0.5-0.9h0.1l-0.4,1.9h-6.8V120.1z"/>
					<path class="st1" d="M382.2,108.7l3.4,9.8c0.2,0.5,0.4,0.9,0.5,1.1c0.2,0.2,0.3,0.4,0.5,0.4c0.1,0.1,0.3,0.1,0.6,0.1v0.1h-3.7
						v-0.1c0.4,0,0.7,0,0.9-0.1c0.2-0.1,0.3-0.3,0.3-0.6c0-0.2,0-0.4-0.1-0.7c0,0,0-0.1,0-0.1l-1-3h-4l-0.9,2.8
						c-0.1,0.4-0.2,0.7-0.2,0.9c0,0.3,0.1,0.5,0.2,0.6c0.2,0.1,0.4,0.2,0.7,0.2v0.1h-2.7v-0.1c0.4,0,0.7-0.2,0.9-0.4
						s0.4-0.6,0.6-1.2l3.2-9.8H382.2z M379.6,115.2h3.6l-1.9-5.4h0L379.6,115.2z"/>
					<path class="st1" d="M400.2,108.8v0.1c-0.3,0-0.5,0.1-0.7,0.2s-0.3,0.2-0.4,0.4c-0.1,0.2-0.1,0.5-0.1,1v10h-0.1l-8.8-9.8v7
						c0,0.6,0,1,0.1,1.3c0,0.3,0.1,0.5,0.2,0.6c0.2,0.3,0.5,0.4,1,0.4v0.1h-2.9v-0.1c0.3,0,0.6-0.1,0.7-0.2c0.2-0.1,0.3-0.3,0.4-0.7
						c0.1-0.3,0.1-0.8,0.1-1.5v-7.5l-0.4-0.4c-0.3-0.4-0.6-0.6-0.8-0.7c-0.2-0.1-0.5-0.2-0.8-0.2v-0.1h2.1l8.6,9.7v-7.4
						c0-0.6,0-1-0.1-1.2c0-0.3-0.2-0.5-0.3-0.7c-0.2-0.2-0.5-0.3-0.9-0.3v-0.1H400.2z"/>
					<path class="st1" d="M412,111.4h-0.1c-0.1-0.6-0.4-1-0.8-1.4c-0.4-0.4-0.9-0.7-1.5-0.8c-0.6-0.2-1.1-0.3-1.6-0.3
						c-0.7,0-1.3,0.1-1.8,0.4c-0.6,0.3-1.1,0.7-1.5,1.2c-0.4,0.5-0.7,1.1-1,1.8c-0.2,0.7-0.3,1.5-0.3,2.3c0,0.8,0.1,1.5,0.3,2.2
						c0.2,0.7,0.6,1.3,1,1.8c0.4,0.5,0.9,0.9,1.5,1.1c0.6,0.3,1.2,0.4,1.9,0.4c0.6,0,1.2-0.1,1.9-0.4c0.7-0.2,1.3-0.6,1.9-1.2v0.4
						c-0.7,0.5-1.3,0.9-1.9,1.2c-0.6,0.2-1.3,0.4-2.1,0.4c-0.9,0-1.7-0.2-2.5-0.5c-0.7-0.3-1.4-0.8-1.9-1.3
						c-0.5-0.6-0.9-1.2-1.2-1.9c-0.3-0.7-0.4-1.4-0.4-2.2c0-1.1,0.3-2.1,0.8-3.1c0.5-1,1.3-1.7,2.2-2.3c0.9-0.6,2-0.8,3-0.8
						c0.7,0,1.4,0.1,2.2,0.3l0.8,0.2c0.2,0,0.3,0,0.4,0c0.2,0,0.3,0,0.4-0.1c0.1-0.1,0.1-0.2,0.2-0.3h0.1L412,111.4z"/>
					<path class="st1" d="M425.9,114.5c0,1.1-0.3,2.1-0.8,3c-0.5,0.9-1.3,1.7-2.2,2.2c-0.9,0.5-1.9,0.8-3,0.8
						c-1.1,0-2.1-0.3-3.1-0.8c-0.9-0.5-1.7-1.3-2.2-2.2c-0.5-0.9-0.8-1.9-0.8-3c0-0.8,0.2-1.6,0.5-2.4c0.3-0.7,0.8-1.4,1.3-1.9
						c0.6-0.5,1.2-1,2-1.3c0.7-0.3,1.5-0.4,2.3-0.4c0.8,0,1.5,0.1,2.2,0.4c0.7,0.3,1.4,0.7,1.9,1.2c0.6,0.5,1,1.2,1.3,1.9
						C425.8,112.8,425.9,113.6,425.9,114.5z M424.6,114.6c0-1.5-0.3-2.7-0.8-3.6c-0.5-0.9-1.2-1.4-1.9-1.7c-0.7-0.3-1.4-0.4-2-0.4
						c-0.5,0-1,0.1-1.5,0.2c-0.5,0.2-1,0.4-1.5,0.9c-0.5,0.4-0.9,1-1.2,1.8c-0.3,0.8-0.5,1.7-0.5,2.8c0,1,0.1,1.8,0.4,2.6
						c0.3,0.7,0.6,1.3,1.1,1.8c0.5,0.5,1,0.8,1.5,1c0.6,0.2,1.1,0.3,1.7,0.3c0.5,0,1.1-0.1,1.6-0.3c0.5-0.2,1-0.5,1.5-0.9
						c0.5-0.4,0.8-1,1.1-1.7C424.4,116.5,424.6,115.6,424.6,114.6z"/>
				</g>
				<g>
					<path class="st1" d="M296.8,133c-0.8-0.9-1.9-1.4-3-1.4c-2.3,0-4,1.8-4,3.9c0,2.6,2.2,3.9,4,3.9c0.9,0,2.1-0.3,3-1.3v0.7
						c-0.9,0.8-2,1.1-3,1.1c-2.7,0-4.6-2-4.6-4.4c0-2.5,2.1-4.4,4.6-4.4c1.7,0,2.7,0.9,3,1.1V133z"/>
					<path class="st1" d="M308.7,131.3v8.6h-0.6v-8.6H308.7z"/>
					<path class="st1" d="M320.3,139.9l1-8.9l3.8,8l3.8-8l1,8.9h-0.6l-0.8-6.9c0,0-3.5,7.2-3.5,7.2l-3.5-7.2l-0.8,6.9H320.3z"/>
					<path class="st1" d="M346.1,137h-3.8l-1.2,2.8h-0.6l3.7-8.9l3.7,8.9h-0.6L346.1,137z M345.9,136.5l-1.7-4.1l-1.7,4.1H345.9z"/>
					<path class="st1" d="M359.8,131.8v8.1h-0.6v-8.1h-2.3v-0.5h5.2v0.5H359.8z"/>
					<path class="st1" d="M376.8,137H373l-1.2,2.8h-0.6l3.7-8.9l3.7,8.9h-0.6L376.8,137z M376.5,136.5l-1.7-4.1l-1.7,4.1H376.5z"/>
					<path class="st1" d="M393,139.9l-2.9-4.1h-0.3v4.1h-0.6v-8.6h1.3c0.7,0,1.3,0.1,1.9,0.4c0.7,0.5,0.9,1.2,0.9,1.8
						c0,0.9-0.4,1.7-1.5,2.1c-0.5,0.2-0.9,0.2-1.1,0.2l2.9,4.1H393z M389.9,135.3h0.9c1.3,0,2-0.6,2-1.8c0-0.9-0.4-1.3-0.8-1.5
						c-0.4-0.2-1-0.3-1.4-0.3h-0.7V135.3z"/>
					<path class="st1" d="M405.4,131.3v8.6h-0.6v-8.6H405.4z"/>
					<path class="st1" d="M425.9,135.6c0,2.5-2,4.4-4.6,4.4c-2.6,0-4.6-1.9-4.6-4.4c0-2.5,2-4.4,4.6-4.4
						C423.9,131.1,425.9,133.1,425.9,135.6z M425.3,135.6c0-2.2-1.7-3.9-4-3.9c-2.3,0-4,1.7-4,3.9c0,2.2,1.7,3.9,4,3.9
						C423.6,139.5,425.3,137.8,425.3,135.6z"/>
				</g>
			</g>
			<polygon class="st1" points="425.9,124.9 290.9,124.9 289.2,126.6 424.3,126.6 			"/>
		</g>
	</g>
	<g>
		<g>
			<path class="st1" d="M429.8,136.1c0.4,0,0.6,0.1,0.8,0.2c0.2,0.2,0.3,0.4,0.3,0.7c0,0.3-0.1,0.5-0.3,0.7
				c-0.1,0.1-0.2,0.1-0.3,0.1l0.9,1.2h-0.7l-0.8-1.2h-0.1v1.2h-0.6v-3H429.8z M429.5,137.5h0.2c0.1,0,0.6,0,0.6-0.4
				c0-0.4-0.5-0.4-0.6-0.4h-0.2V137.5z"/>
		</g>
		<path class="st1" d="M429.9,140c-1.3,0-2.3-1-2.3-2.3s1-2.3,2.3-2.3c1.3,0,2.3,1,2.3,2.3S431.2,140,429.9,140z M429.9,135.7
			c-1.1,0-2,0.9-2,2c0,1.1,0.9,2,2,2c1.1,0,2-0.9,2-2C431.8,136.6,431,135.7,429.9,135.7z"/>
	</g>
</g>
<g>
	<path class="st1" d="M304.3,481.6H303v-1.8h3.5v9.3h-2.2V481.6z"/>
	<path class="st1" d="M315.2,488.3c-0.5,0.5-1.4,1-2.5,1c-1.1,0-1.9-0.4-2.5-1c-0.9-0.9-1.3-2.3-1.3-3.9c0-1.6,0.4-3,1.3-3.9
		c0.6-0.5,1.4-1,2.5-1c1.1,0,2,0.4,2.5,1c0.9,0.9,1.3,2.3,1.3,3.9C316.5,486,316.1,487.4,315.2,488.3z M311.8,481.7
		c-0.7,0.7-0.8,2-0.8,2.7c0,0.7,0.1,2,0.8,2.7c0.3,0.2,0.5,0.4,0.9,0.4s0.6-0.1,0.9-0.4c0.7-0.6,0.8-2,0.8-2.7c0-0.7-0.1-2-0.8-2.7
		c-0.3-0.2-0.5-0.4-0.9-0.4S312.1,481.5,311.8,481.7z"/>
	<path class="st1" d="M326.5,486.5h-4l-1.1,2.6h-1.1l4.3-9.8l4.2,9.8h-1.1L326.5,486.5z M326.1,485.5l-1.6-3.7l-1.6,3.7H326.1z"/>
	<path class="st1" d="M329.8,483.3h1v0.6c0.3-0.5,0.8-0.8,1.4-0.8c1,0,1.5,0.7,1.6,0.9c0.6-0.9,1.4-0.9,1.8-0.9
		c1.7,0,1.9,1.4,1.9,2.3v3.7h-1v-3.5c0-0.7-0.1-1.5-1-1.5c-1.2,0-1.3,1.1-1.3,1.8v3.2h-1v-3.4c0-0.4,0-1.6-1.1-1.6
		c-1.1,0-1.3,1.2-1.3,1.9v3.2h-1V483.3z"/>
	<path class="st1" d="M344.5,487.6c-0.2,0.3-0.4,0.7-0.7,0.9c-0.5,0.5-1.2,0.7-1.9,0.7c-1.4,0-2.9-0.9-2.9-3c0-1.7,1.1-3.1,2.8-3.1
		c1.1,0,1.8,0.6,2.2,1.1c0.4,0.5,0.6,1.4,0.5,2.2h-4.5c0,1.2,0.8,2,1.8,2c0.5,0,0.9-0.1,1.2-0.4c0.3-0.2,0.5-0.5,0.6-0.8
		L344.5,487.6z M343.5,485.5c-0.2-0.9-0.9-1.5-1.7-1.5s-1.6,0.6-1.7,1.5H343.5z"/>
	<path class="st1" d="M346.1,483.3h1v0.7c0.2-0.2,0.7-0.8,1.7-0.8c0.7,0,1.3,0.3,1.7,0.8c0.3,0.4,0.3,0.9,0.3,1.6v3.6h-1v-3.6
		c0-0.3,0-0.8-0.3-1.1c-0.2-0.3-0.5-0.4-1-0.4c-0.4,0-0.7,0.1-1,0.4c-0.4,0.5-0.4,1.1-0.4,1.6v3h-1V483.3z"/>
	<path class="st1" d="M353.2,480.4c0.4,0,0.7,0.3,0.7,0.7c0,0.4-0.3,0.7-0.7,0.7c-0.4,0-0.7-0.3-0.7-0.7
		C352.5,480.7,352.8,480.4,353.2,480.4z M353.7,483.3v5.8h-1v-5.8H353.7z"/>
	<path class="st1" d="M360.1,478.9h1v10.2h-1v-0.8c-0.3,0.4-1,1-2,1c-1.5,0-2.8-1-2.8-3.1c0-2,1.3-3,2.8-3c1.1,0,1.7,0.6,2,1V478.9z
		 M356.3,486.2c0,1.2,0.7,2.2,1.9,2.2c1.2,0,1.9-1,1.9-2.2c0-1.5-1-2.2-1.9-2.2C357.2,484,356.3,484.8,356.3,486.2z"/>
	<path class="st1" d="M367.4,483.3h1v5.8h-1v-0.8c-0.3,0.4-1,1-2,1c-1.5,0-2.8-1-2.8-3.1c0-2,1.3-3,2.8-3c1.1,0,1.7,0.6,2,1V483.3z
		 M363.6,486.2c0,1.2,0.7,2.2,1.9,2.2c1.2,0,1.9-1,1.9-2.2c0-1.5-1-2.2-1.9-2.2C364.6,484,363.6,484.8,363.6,486.2z"/>
	<path class="st1" d="M374.8,478.9h1v10.2h-1v-0.8c-0.3,0.4-1,1-2,1c-1.5,0-2.8-1-2.8-3.1c0-2,1.3-3,2.8-3c1.1,0,1.7,0.6,2,1V478.9z
		 M371,486.2c0,1.2,0.7,2.2,1.9,2.2c1.2,0,1.9-1,1.9-2.2c0-1.5-1-2.2-1.9-2.2C371.9,484,371,484.8,371,486.2z"/>
	<path class="st1" d="M382.9,487.6c-0.2,0.3-0.4,0.7-0.7,0.9c-0.5,0.5-1.2,0.7-1.9,0.7c-1.4,0-2.9-0.9-2.9-3c0-1.7,1.1-3.1,2.8-3.1
		c1.1,0,1.8,0.6,2.2,1.1c0.4,0.5,0.6,1.4,0.5,2.2h-4.5c0,1.2,0.8,2,1.8,2c0.5,0,0.9-0.1,1.2-0.4c0.3-0.2,0.5-0.5,0.6-0.8
		L382.9,487.6z M381.9,485.5c-0.2-0.9-0.9-1.5-1.7-1.5s-1.6,0.6-1.7,1.5H381.9z"/>
	<path class="st1" d="M386.8,484.6c-0.1-0.3-0.4-0.6-0.8-0.6c-0.4,0-0.7,0.2-0.7,0.7c0,0.4,0.3,0.5,0.9,0.8c0.8,0.4,1.2,0.6,1.5,0.9
		c0.3,0.3,0.3,0.6,0.3,0.9c0,1.2-0.9,1.9-2,1.9c-0.2,0-1.5,0-2-1.5l0.9-0.4c0.1,0.3,0.4,1,1.2,1c0.7,0,1-0.5,1-0.9
		c0-0.5-0.4-0.7-0.9-1c-0.7-0.3-1.1-0.5-1.4-0.9c-0.2-0.3-0.3-0.6-0.3-0.9c0-1,0.7-1.6,1.7-1.6c0.3,0,1.1,0.1,1.6,1.1L386.8,484.6z"
		/>
	<path class="st1" d="M303.1,505.9l2.5-3.1c-0.3,0.1-0.6,0.1-0.9,0.1c-1,0-1.8-0.4-2.4-0.9c-0.5-0.5-0.8-1.2-0.8-2.3
		c0-1.4,0.6-2.1,0.9-2.4c0.9-1,2.2-1,2.9-1c1.5,0,2.3,0.5,2.8,0.9c0.5,0.4,1,1.2,1,2.4c0,0.6-0.1,1.3-0.4,1.9
		c-0.2,0.5-0.7,1.2-1.1,1.7l-2.1,2.8L303.1,505.9z M304.2,498.5c-0.2,0.2-0.5,0.5-0.5,1.2c0,0.6,0.2,1,0.5,1.2
		c0.3,0.3,0.7,0.4,1.1,0.4c0.5,0,0.9-0.2,1.1-0.4c0.2-0.2,0.5-0.6,0.5-1.2c0-0.4-0.1-0.8-0.5-1.1c-0.2-0.2-0.6-0.4-1.1-0.4
		C304.9,498.1,304.5,498.3,304.2,498.5z"/>
	<path class="st1" d="M321.1,498.6c-0.3-0.3-0.7-0.6-1.2-0.9c-0.5-0.2-1.1-0.4-1.6-0.4c-2.2,0-3.8,1.7-3.8,3.9
		c0,2.5,2.1,3.8,3.8,3.8c0.6,0,1.2-0.2,1.7-0.4c0.5-0.3,0.9-0.6,1.1-0.8v1.3c-1,0.7-2.1,0.9-2.8,0.9c-2.8,0-4.8-2.1-4.8-4.8
		c0-2.8,2.1-4.9,4.9-4.9c0.6,0,1.6,0.1,2.8,0.9V498.6z"/>
	<path class="st1" d="M323.8,495.7v10.2h-1v-10.2H323.8z"/>
	<path class="st1" d="M326.7,503.5c0,0.4,0,0.9,0.3,1.2c0.2,0.2,0.5,0.4,1,0.4s0.9-0.3,1-0.4c0.3-0.4,0.3-0.8,0.3-1.2v-3.4h1v3.5
		c0,0.7-0.1,1.2-0.5,1.8c-0.5,0.5-1.2,0.7-1.8,0.7s-1.3-0.2-1.8-0.7c-0.5-0.5-0.5-1-0.5-1.8v-3.5h1V503.5z"/>
	<path class="st1" d="M334.6,501.4c-0.1-0.3-0.4-0.6-0.8-0.6c-0.4,0-0.7,0.2-0.7,0.7c0,0.4,0.3,0.5,0.9,0.8c0.8,0.4,1.2,0.6,1.5,0.9
		c0.3,0.3,0.3,0.6,0.3,0.9c0,1.2-0.9,1.9-2,1.9c-0.2,0-1.5,0-2-1.5l0.9-0.4c0.1,0.3,0.4,1,1.2,1c0.7,0,1-0.5,1-0.9
		c0-0.5-0.4-0.7-0.9-1c-0.7-0.3-1.1-0.5-1.4-0.9c-0.2-0.3-0.3-0.6-0.3-0.9c0-1,0.7-1.6,1.7-1.6c0.3,0,1.1,0.1,1.6,1.1L334.6,501.4z"
		/>
	<path class="st1" d="M338.2,501v4.9h-1V501h-0.6v-0.9h0.6V498h1v2.1h1v0.9H338.2z"/>
	<path class="st1" d="M345.3,504.4c-0.2,0.3-0.4,0.7-0.7,0.9c-0.5,0.5-1.2,0.7-1.9,0.7c-1.4,0-2.9-0.9-2.9-3c0-1.7,1.1-3.1,2.8-3.1
		c1.1,0,1.8,0.6,2.2,1.1c0.4,0.5,0.6,1.4,0.5,2.2h-4.5c0,1.2,0.8,2,1.8,2c0.5,0,0.9-0.1,1.2-0.4c0.3-0.2,0.5-0.5,0.6-0.8
		L345.3,504.4z M344.3,502.3c-0.2-0.9-0.9-1.5-1.7-1.5c-0.9,0-1.6,0.6-1.7,1.5H344.3z"/>
	<path class="st1" d="M346.8,500.1h1v0.6c0.1-0.2,0.5-0.8,1.3-0.8c0.3,0,0.6,0.1,0.9,0.2l-0.5,0.9c-0.2-0.2-0.4-0.2-0.6-0.2
		c-0.4,0-0.7,0.2-0.8,0.4c-0.2,0.2-0.3,0.6-0.3,1.6v3.1h-1V500.1z"/>
	<path class="st1" d="M353.2,501.4c-0.1-0.3-0.4-0.6-0.8-0.6c-0.4,0-0.7,0.2-0.7,0.7c0,0.4,0.3,0.5,0.9,0.8c0.8,0.4,1.2,0.6,1.5,0.9
		c0.3,0.3,0.3,0.6,0.3,0.9c0,1.2-0.9,1.9-2,1.9c-0.2,0-1.5,0-2-1.5l0.9-0.4c0.1,0.3,0.4,1,1.2,1c0.7,0,1-0.5,1-0.9
		c0-0.5-0.4-0.7-0.9-1c-0.7-0.3-1.1-0.5-1.4-0.9c-0.2-0.3-0.3-0.6-0.3-0.9c0-1,0.7-1.6,1.7-1.6c0.3,0,1.1,0.1,1.6,1.1L353.2,501.4z"
		/>
	<path class="st1" d="M304.3,515.2H303v-1.8h3.5v9.3h-2.2V515.2z"/>
	<path class="st1" d="M309.8,520.5l1.8,0.1l-2.1,3.9l-1.3-0.1L309.8,520.5z"/>
	<path class="st1" d="M317.7,515.2h-4.1v-1.8h7.4l-5.5,9.6l-2-0.5L317.7,515.2z"/>
	<path class="st1" d="M322.1,522.1c-0.7-0.6-0.9-1.4-0.9-2c0-0.8,0.4-1.3,0.6-1.6c0.3-0.3,0.8-0.6,1.2-0.7c-0.2-0.1-0.6-0.3-0.9-0.6
		c-0.4-0.4-0.6-0.9-0.6-1.5c0-0.8,0.3-1.3,0.7-1.7c0.7-0.7,1.6-0.9,2.4-0.9c0.8,0,1.7,0.2,2.4,0.9c0.4,0.4,0.7,1,0.7,1.7
		c0,0.6-0.2,1.1-0.6,1.5c-0.3,0.3-0.6,0.5-0.9,0.6c0.4,0.1,0.9,0.4,1.2,0.7c0.3,0.3,0.6,0.8,0.6,1.6c0,0.6-0.2,1.4-0.9,2
		c-0.8,0.7-1.7,0.8-2.6,0.8C323.8,522.9,322.9,522.9,322.1,522.1z M323.8,519c-0.2,0.2-0.4,0.6-0.4,0.9c0,0.3,0.1,0.7,0.4,0.9
		c0.2,0.2,0.6,0.3,0.9,0.3s0.7-0.1,0.9-0.3c0.2-0.2,0.4-0.5,0.4-1c0-0.4-0.2-0.7-0.4-0.9c-0.2-0.2-0.6-0.3-0.9-0.3
		C324.3,518.7,324,518.8,323.8,519z M323.9,515c-0.2,0.2-0.4,0.5-0.4,0.8c0,0.4,0.2,0.6,0.4,0.8c0.2,0.2,0.5,0.3,0.8,0.3
		c0.3,0,0.6-0.1,0.8-0.3c0.2-0.2,0.4-0.5,0.4-0.8c0-0.5-0.3-0.7-0.4-0.8c-0.2-0.2-0.5-0.3-0.8-0.3
		C324.4,514.7,324.1,514.8,323.9,515z"/>
	<path class="st1" d="M335.8,515.2h-3.2l-0.3,1.2c0.2,0,0.5-0.1,0.8-0.1c1.1,0,1.9,0.4,2.4,0.9c0.4,0.4,0.9,1.1,0.9,2.3
		c0,1.2-0.5,2-1,2.4c-0.9,0.8-1.9,1-2.8,1c-0.9,0-1.9-0.1-3.1-1l0.5-2c0.3,0.3,0.6,0.6,0.9,0.8c0.4,0.3,0.9,0.4,1.4,0.4
		c0.5,0,1-0.1,1.3-0.4c0.3-0.2,0.5-0.6,0.5-1.2c0-0.6-0.3-0.9-0.5-1.1c-0.1-0.1-0.6-0.5-1.6-0.5c-0.8,0-1.4,0.2-1.9,0.5l1-5.1h4.6
		V515.2z"/>
	<path class="st1" d="M342.8,513.3v8.4h2.6v1h-3.6v-9.3H342.8z"/>
	<path class="st1" d="M346.1,519.8c0-1.8,1.3-3.1,3.1-3.1s3.1,1.3,3.1,3.1c0,1.8-1.3,3.1-3.1,3.1S346.1,521.6,346.1,519.8z
		 M347.2,519.8c0,1.4,1,2.2,2,2.2c1.1,0,2-0.7,2-2.2c0-1.4-1-2.2-2-2.2S347.2,518.4,347.2,519.8z"/>
	<path class="st1" d="M354.9,517.8v4.9h-1v-4.9h-0.6v-0.9h0.6v-2.1h1v2.1h1v0.9H354.9z"/>
	<path class="st1" d="M362,521.2c-0.2,0.3-0.4,0.7-0.7,0.9c-0.5,0.5-1.2,0.7-1.9,0.7c-1.4,0-2.9-0.9-2.9-3c0-1.7,1.1-3.1,2.8-3.1
		c1.1,0,1.8,0.6,2.2,1.1c0.4,0.5,0.6,1.4,0.5,2.2h-4.5c0,1.2,0.8,2,1.8,2c0.5,0,0.9-0.1,1.2-0.4c0.3-0.2,0.5-0.5,0.6-0.8L362,521.2z
		 M361,519.1c-0.2-0.9-0.9-1.5-1.7-1.5c-0.9,0-1.6,0.6-1.7,1.5H361z"/>
	<path class="st1" d="M366,518.2c-0.1-0.3-0.4-0.6-0.8-0.6c-0.4,0-0.7,0.2-0.7,0.7c0,0.4,0.3,0.5,0.9,0.8c0.8,0.4,1.2,0.6,1.5,0.9
		c0.3,0.3,0.3,0.6,0.3,0.9c0,1.2-0.9,1.9-2,1.9c-0.2,0-1.5,0-2-1.5l0.9-0.4c0.1,0.3,0.4,1,1.2,1c0.7,0,1-0.5,1-0.9
		c0-0.5-0.4-0.7-0.9-1c-0.7-0.3-1.1-0.5-1.4-0.9c-0.2-0.3-0.3-0.6-0.3-0.9c0-1,0.7-1.6,1.7-1.6c0.3,0,1.1,0.1,1.6,1.1L366,518.2z"/>
	<path class="st1" d="M305.1,530.1c1.2,0,2.5,0.2,3.7,1.3c0.8,0.8,1.3,1.9,1.3,3.3c0,1.5-0.5,2.5-1.3,3.3c-1.3,1.3-2.9,1.4-3.7,1.4
		h-3v-9.3H305.1z M304.3,537.7h0.6c0.4,0,1.4,0,2.1-0.6c0.5-0.4,0.9-1.2,0.9-2.3c0-1-0.4-1.7-0.8-2c-0.7-0.7-1.6-0.8-2.3-0.8h-0.6
		V537.7z"/>
	<path class="st1" d="M317.9,536.7h-4.7c0,0.3,0.1,0.8,0.4,1.1c0.3,0.3,0.7,0.4,1,0.4c0.3,0,0.6-0.1,0.8-0.2c0,0,0.3-0.2,0.4-0.5
		l1.9,0.2c-0.3,0.9-0.8,1.3-1.2,1.6c-0.6,0.4-1.3,0.5-2,0.5c-0.9,0-1.8-0.2-2.5-0.9c-0.5-0.5-0.9-1.4-0.9-2.4c0-0.9,0.3-1.8,1-2.5
		c0.8-0.8,1.7-0.9,2.4-0.9s1.7,0.1,2.5,0.9c0.7,0.8,0.9,1.8,0.9,2.5V536.7z M316,535.5c0-0.1-0.1-0.4-0.4-0.7
		c-0.2-0.2-0.5-0.3-1-0.3c-0.5,0-0.8,0.2-1,0.4c-0.2,0.2-0.3,0.4-0.3,0.7H316z"/>
	<path class="st1" d="M323,534.8c-0.3-0.2-0.7-0.4-1.1-0.4c-0.2,0-0.4,0.1-0.6,0.2c-0.1,0.1-0.1,0.2-0.1,0.3c0,0.1,0.1,0.2,0.2,0.3
		c0.1,0.1,0.3,0.1,0.6,0.2l0.5,0.2c0.4,0.1,0.7,0.3,1,0.5c0.4,0.3,0.5,0.7,0.5,1.2c0,0.8-0.4,1.4-0.6,1.6c-0.6,0.6-1.4,0.7-2,0.7
		c-0.8,0-1.8-0.2-2.6-0.9l0.9-1.4c0.2,0.2,0.5,0.4,0.7,0.5c0.3,0.1,0.6,0.2,0.8,0.2c0.1,0,0.4,0,0.6-0.1c0.1-0.1,0.2-0.3,0.2-0.4
		c0-0.1,0-0.3-0.2-0.4c-0.1-0.1-0.3-0.1-0.6-0.2l-0.5-0.2c-0.4-0.1-0.7-0.3-1-0.6c-0.3-0.3-0.4-0.7-0.4-1.1c0-0.6,0.2-1.1,0.6-1.4
		c0.6-0.5,1.3-0.6,1.9-0.6c0.9,0,1.6,0.2,2.1,0.5L323,534.8z"/>
	<path class="st1" d="M332,539.5h-2v-0.8c-0.3,0.4-0.9,1-2,1c-0.9,0-1.6-0.3-2.1-0.9c-0.6-0.6-1-1.5-1-2.5c0-1,0.4-1.9,1-2.5
		c0.5-0.5,1.3-0.8,2.2-0.8c0.7,0,1.4,0.2,1.9,0.9v-4.7h2V539.5z M327.5,535.2c-0.3,0.3-0.5,0.7-0.5,1.2c0,0.5,0.2,0.9,0.5,1.1
		c0.3,0.3,0.7,0.4,1,0.4c0.4,0,0.8-0.2,1.1-0.5c0.2-0.2,0.5-0.6,0.5-1.1c0-0.5-0.2-0.9-0.4-1.1c-0.3-0.3-0.7-0.5-1.1-0.5
		C328.1,534.8,327.8,534.9,327.5,535.2z"/>
	<path class="st1" d="M340,536.7h-4.7c0,0.3,0.1,0.8,0.4,1.1c0.3,0.3,0.7,0.4,1,0.4c0.3,0,0.6-0.1,0.8-0.2c0,0,0.3-0.2,0.4-0.5
		l1.9,0.2c-0.3,0.9-0.8,1.3-1.2,1.6c-0.6,0.4-1.3,0.5-2,0.5c-0.9,0-1.8-0.2-2.5-0.9c-0.5-0.5-0.9-1.4-0.9-2.4c0-0.9,0.3-1.8,1-2.5
		c0.8-0.8,1.7-0.9,2.4-0.9s1.7,0.1,2.5,0.9c0.7,0.8,0.9,1.8,0.9,2.5V536.7z M338.2,535.5c0-0.1-0.1-0.4-0.4-0.7
		c-0.2-0.2-0.5-0.3-1-0.3c-0.5,0-0.8,0.2-1,0.4c-0.2,0.2-0.3,0.4-0.3,0.7H338.2z"/>
	<path class="st1" d="M347.5,531.1h-1.6l0.5-1h2.1v9.3h-1V531.1z"/>
	<path class="st1" d="M350.3,539.5l3.4-3.9c0.2-0.3,0.9-1,1.1-1.4c0.4-0.6,0.5-1.1,0.5-1.4c0-1.1-0.8-1.8-1.9-1.8
		c-0.7,0-1.2,0.3-1.6,0.8c-0.2,0.3-0.3,0.6-0.3,1.1h-1c0-0.9,0.3-1.5,0.7-1.9c0.4-0.4,1-1,2.2-1c1.7,0,2.9,1.2,2.9,2.8
		c0,0.6-0.2,1.2-0.7,2c-0.4,0.5-0.9,1.1-1.3,1.6l-1.9,2.2h4v1H350.3z"/>
	<path class="st1" d="M363.9,536.9c0,1.5-1,2.7-2.9,2.7c-1.9,0-2.9-1.3-2.9-2.7c0-1,0.5-1.9,1.4-2.3c-0.7-0.4-1.1-1.2-1.1-2
		c0-1.3,0.9-2.6,2.6-2.6c1.7,0,2.6,1.3,2.6,2.6c0,0.9-0.4,1.6-1.1,2C363.4,535.1,363.9,535.9,363.9,536.9z M362.8,536.9
		c0-1.1-0.8-1.8-1.8-1.8c-1.1,0-1.8,0.7-1.8,1.8c0,1.1,0.7,1.8,1.8,1.8C362.1,538.7,362.8,538,362.8,536.9z M362.6,532.6
		c0-1-0.7-1.7-1.6-1.7s-1.6,0.6-1.6,1.7c0,0.9,0.7,1.6,1.6,1.6C361.9,534.2,362.6,533.5,362.6,532.6z"/>
	<path class="st1" d="M365.9,533.7h1v0.6c0.3-0.5,0.8-0.8,1.4-0.8c1,0,1.5,0.7,1.6,0.9c0.6-0.9,1.4-0.9,1.8-0.9
		c1.7,0,1.9,1.4,1.9,2.3v3.7h-1V536c0-0.7-0.1-1.5-1-1.5c-1.2,0-1.3,1.1-1.3,1.8v3.2h-1V536c0-0.4,0-1.6-1.1-1.6
		c-1.1,0-1.3,1.2-1.3,1.9v3.2h-1V533.7z"/>
	<path class="st1" d="M375,534.8l2-2.3c0.1-0.2,0.5-0.6,0.6-0.8c0.2-0.4,0.3-0.6,0.3-0.8c0-0.6-0.4-1.1-1.1-1.1
		c-0.4,0-0.7,0.2-0.9,0.5c-0.1,0.2-0.2,0.4-0.2,0.6h-0.6c0-0.5,0.2-0.9,0.4-1.1c0.2-0.3,0.6-0.6,1.3-0.6c1,0,1.7,0.7,1.7,1.6
		c0,0.4-0.1,0.7-0.4,1.2c-0.2,0.3-0.5,0.7-0.7,0.9l-1.1,1.3h2.3v0.6H375z"/>
	<path class="st1" d="M387.9,533.7h1v5.8h-1v-0.8c-0.3,0.4-1,1-2,1c-1.5,0-2.8-1-2.8-3.1c0-2,1.3-3,2.8-3c1.1,0,1.7,0.6,2,1V533.7z
		 M384.1,536.6c0,1.2,0.7,2.2,1.9,2.2c1.2,0,1.9-1,1.9-2.2c0-1.5-1-2.2-1.9-2.2C385,534.4,384.1,535.2,384.1,536.6z"/>
	<path class="st1" d="M398.6,530.5l-2.1,3c0.3-0.1,0.5-0.1,0.8-0.1c1.8,0,3,1.3,3,3.1c0,1.9-1.3,3.2-3.2,3.2c-2.2,0-3.2-1.7-3.2-3.2
		c0-0.3,0.1-1.2,0.8-2.1l3.2-4.4L398.6,530.5z M399.3,536.5c0-1.2-0.9-2.2-2.2-2.2c-1.3,0-2.2,0.9-2.2,2.2c0,1.2,0.9,2.2,2.2,2.2
		C398.4,538.7,399.3,537.7,399.3,536.5z"/>
	<path class="st1" d="M402.6,538.3c-0.6-0.9-0.9-2.1-0.9-3.4c0-1.3,0.3-2.5,0.9-3.4c0.7-1,1.7-1.4,2.4-1.4c0.7,0,1.7,0.4,2.4,1.4
		c0.6,0.9,0.9,2.1,0.9,3.4c0,1.3-0.3,2.5-0.9,3.4c-0.7,1-1.7,1.4-2.4,1.4C404.3,539.7,403.4,539.3,402.6,538.3z M403.4,532
		c-0.5,0.8-0.7,1.9-0.7,2.8c0,1,0.2,2,0.7,2.8c0.5,0.8,1.1,1,1.6,1c0.5,0,1.1-0.3,1.6-1c0.5-0.8,0.7-1.9,0.7-2.8c0-1-0.2-2-0.7-2.8
		c-0.5-0.8-1.1-1-1.6-1C404.6,530.9,403.9,531.2,403.4,532z"/>
	<path class="st1" d="M410.6,538.3c-0.6-0.9-0.9-2.1-0.9-3.4c0-1.3,0.3-2.5,0.9-3.4c0.7-1,1.7-1.4,2.4-1.4c0.7,0,1.7,0.4,2.4,1.4
		c0.6,0.9,0.9,2.1,0.9,3.4c0,1.3-0.3,2.5-0.9,3.4c-0.7,1-1.7,1.4-2.4,1.4C412.2,539.7,411.3,539.3,410.6,538.3z M411.4,532
		c-0.5,0.8-0.7,1.9-0.7,2.8c0,1,0.2,2,0.7,2.8c0.5,0.8,1.1,1,1.6,1c0.5,0,1.1-0.3,1.6-1c0.5-0.8,0.7-1.9,0.7-2.8c0-1-0.2-2-0.7-2.8
		c-0.5-0.8-1.1-1-1.6-1C412.5,530.9,411.9,531.2,411.4,532z"/>
	<path class="st1" d="M417.9,533.7h1v0.6c0.3-0.5,0.8-0.8,1.4-0.8c1,0,1.5,0.7,1.6,0.9c0.6-0.9,1.4-0.9,1.8-0.9
		c1.7,0,1.9,1.4,1.9,2.3v3.7h-1V536c0-0.7-0.1-1.5-1-1.5c-1.2,0-1.3,1.1-1.3,1.8v3.2h-1V536c0-0.4,0-1.6-1.1-1.6
		c-1.1,0-1.3,1.2-1.3,1.9v3.2h-1V533.7z"/>
	<path class="st1" d="M427,534.8l2-2.3c0.1-0.2,0.5-0.6,0.6-0.8c0.2-0.4,0.3-0.6,0.3-0.8c0-0.6-0.4-1.1-1.1-1.1
		c-0.4,0-0.7,0.2-0.9,0.5c-0.1,0.2-0.2,0.4-0.2,0.6h-0.6c0-0.5,0.2-0.9,0.4-1.1c0.2-0.3,0.6-0.6,1.3-0.6c1,0,1.7,0.7,1.7,1.6
		c0,0.4-0.1,0.7-0.4,1.2c-0.2,0.3-0.5,0.7-0.7,0.9l-1.1,1.3h2.3v0.6H427z"/>
</g>
<g>
	<path class="st1" d="M297.7,418.4v5.1h1.6v0.6h-2.2v-5.7H297.7z"/>
	<path class="st1" d="M304.1,422.4h-2.5l-0.8,1.6h-0.8l2.6-6l2.5,6h-0.8L304.1,422.4z M303.9,421.8l-1-2.3l-1,2.3H303.9z"/>
	<path class="st1" d="M310,421.1h2.5v0.2c0,0.7-0.2,1.3-0.5,1.9c-0.2,0.3-0.8,1-2.2,1c-1.7,0-3-1.3-3-3c0-1.7,1.3-3,3.1-3
		c0.5,0,1.2,0.2,1.8,0.6c0.3,0.2,0.5,0.4,0.7,0.7l-0.4,0.4c-0.2-0.3-0.3-0.4-0.5-0.6c-0.3-0.2-0.8-0.4-1.4-0.4c-1.4,0-2.4,1-2.4,2.4
		c0,1.6,1.3,2.4,2.4,2.4c0.8,0,1.4-0.4,1.8-1c0.2-0.2,0.2-0.4,0.3-0.8h-1.7v-0.8H310z"/>
	<path class="st1" d="M314.1,421.1c0-1.7,1.3-3,3.1-3c1.6,0,3.1,1.3,3.1,3c0,1.7-1.3,3-3.1,3C315.5,424.2,314.1,422.9,314.1,421.1z
		 M314.8,421.1c0,1.3,1,2.4,2.4,2.4c1.3,0,2.4-1,2.4-2.4c0-1.3-1-2.4-2.4-2.4C315.8,418.8,314.8,419.9,314.8,421.1z"/>
</g>
</svg>
