<?xml version="1.0" encoding="utf-8"?>
<!-- Generator: Adobe Illustrator 24.3.0, SVG Export Plug-In . SVG Version: 6.00 Build 0)  -->
<svg version="1.1" id="Capa_1" xmlns="http://www.w3.org/2000/svg" xmlns:xlink="http://www.w3.org/1999/xlink" x="0px" y="0px"
	 viewBox="0 0 87.2 45.5" style="enable-background:new 0 0 87.2 45.5;" xml:space="preserve">
<style type="text/css">
	.st0{fill:#FFFFFF;}
	.st1{fill:#00A6CE;}
	.st2{fill:none;}
</style>
<g>
	<g>
		<path class="st0" d="M4,16H0.6v-5.3h9.7v24.2H4V16z"/>
		<path class="st0" d="M30.7,16h-8.4l-0.4,2.7c0.9-0.1,1.6-0.2,2-0.2c3.2,0,5.2,1.2,6.4,2.4c1.1,1.1,2.2,2.9,2.2,5.7
			c0,2.9-1.2,4.9-2.3,6c-2.2,2.3-5.2,2.7-7.5,2.7c-3.7,0-6.2-0.9-8.1-2.2l0.9-5.9c1.3,1.2,2.5,1.8,2.9,2c1.1,0.5,2.4,0.8,3.6,0.8
			c1.3,0,2.4-0.4,3.1-1.2c0.5-0.6,0.9-1.5,0.9-2.5c0-1.3-0.6-2.1-1.2-2.6c-1.3-1.2-3.5-1.2-4.4-1.2c-1.7,0-3.1,0.4-4.4,1l2.1-13
			h12.6L30.7,16L30.7,16z"/>
	</g>
	<g>
		<g>
			<path class="st1" d="M0.7,44.1v-6h2c0.6,0,1.6,0.1,2.4,0.8c0.7,0.7,0.8,1.5,0.8,2.2c0,0.8-0.2,1.5-0.8,2.1
				c-0.5,0.5-1.3,0.9-2.3,0.9H0.7z M2.2,42.8h0.3c0.4,0,0.9,0,1.3-0.4c0.2-0.2,0.5-0.6,0.5-1.2c0-0.6-0.2-1-0.5-1.3
				c-0.4-0.3-0.9-0.4-1.2-0.4H2.2V42.8z"/>
		</g>
		<g>
			<path class="st1" d="M10.3,39.5H8.5v1h1.8v1.3H8.5v1h1.8v1.3H6.9v-6h3.4L10.3,39.5L10.3,39.5z"/>
		</g>
		<g>
			<path class="st1" d="M17.8,44c-0.6,0.2-1,0.3-1.3,0.3c-1,0-1.8-0.4-2.3-0.9c-0.6-0.6-0.9-1.4-0.9-2.2c0-0.8,0.4-1.7,0.9-2.2
				s1.3-0.9,2.3-0.9c0.3,0,0.8,0,1.4,0.3v1.8c-0.5-0.6-1.1-0.7-1.4-0.7c-0.5,0-0.8,0.1-1.1,0.4c-0.4,0.3-0.5,0.8-0.5,1.2
				c0,0.4,0.2,0.9,0.5,1.2c0.3,0.2,0.7,0.4,1.1,0.4c0.2,0,0.8,0,1.4-0.6L17.8,44L17.8,44z"/>
		</g>
		<g>
			<path class="st1" d="M21.3,38.1c0.5,0,1,0.1,1.5,0.5c0.3,0.3,0.5,0.9,0.5,1.3c0,0.5-0.2,1-0.5,1.2c-0.2,0.2-0.5,0.4-0.8,0.4
				l1.9,2.4h-1.9l-1.5-2.3v2.3h-1.5v-6L21.3,38.1L21.3,38.1z M20.4,40.8h0.3c0.2,0,0.6-0.1,0.8-0.2c0.1-0.1,0.2-0.3,0.2-0.5
				c0-0.2-0.1-0.4-0.2-0.5c-0.1-0.1-0.4-0.2-0.7-0.2h-0.3C20.4,39.3,20.4,40.8,20.4,40.8z"/>
		</g>
		<g>
			<path class="st1" d="M27.9,39.5h-1.8v1h1.8v1.3h-1.8v1h1.8v1.3h-3.4v-6h3.4V39.5z M27.4,36.5L26,37.7l-0.7-0.5l1.1-1.4L27.4,36.5
				z"/>
		</g>
		<g>
			<path class="st1" d="M29,44.1v-6h2c0.6,0,1.6,0.1,2.4,0.8c0.7,0.7,0.8,1.5,0.8,2.2c0,0.8-0.2,1.5-0.8,2.1
				c-0.5,0.5-1.3,0.9-2.3,0.9H29z M30.5,42.8h0.3c0.4,0,0.9,0,1.3-0.4c0.2-0.2,0.5-0.6,0.5-1.2c0-0.6-0.2-1-0.5-1.3
				c-0.4-0.3-0.9-0.4-1.2-0.4h-0.4V42.8z"/>
		</g>
		<g>
			<path class="st1" d="M36.8,38.1v6h-1.5v-6H36.8z"/>
		</g>
		<g>
			<path class="st1" d="M40.3,39.5v4.7h-1.5v-4.7h-1.3v-1.3h4.1v1.3H40.3z"/>
		</g>
		<g>
			<path class="st1" d="M47.7,43.4c-0.6,0.6-1.5,0.9-2.4,0.9s-1.8-0.3-2.3-0.9c-0.6-0.6-0.9-1.4-0.9-2.2c0-0.8,0.3-1.6,0.9-2.2
				c0.6-0.6,1.5-0.9,2.3-0.9c0.9,0,1.8,0.3,2.4,0.9c0.6,0.6,0.9,1.4,0.9,2.2C48.7,41.9,48.4,42.8,47.7,43.4z M44.2,40
				c-0.3,0.3-0.5,0.8-0.5,1.2c0,0.5,0.2,0.9,0.5,1.1c0.3,0.3,0.7,0.5,1.2,0.5c0.5,0,0.9-0.2,1.2-0.5c0.3-0.3,0.5-0.7,0.5-1.2
				c0-0.5-0.2-0.9-0.5-1.2c-0.3-0.3-0.8-0.5-1.2-0.5C45,39.5,44.5,39.7,44.2,40z"/>
		</g>
		<g>
			<path class="st1" d="M51.9,44.1v-6h2c0.6,0,1.6,0.1,2.4,0.8c0.7,0.7,0.8,1.5,0.8,2.2c0,0.8-0.2,1.5-0.8,2.1
				c-0.5,0.5-1.3,0.9-2.3,0.9H51.9z M53.4,42.8h0.3c0.4,0,0.9,0,1.3-0.4c0.2-0.2,0.5-0.6,0.5-1.2c0-0.6-0.2-1-0.5-1.3
				c-0.4-0.3-0.8-0.4-1.2-0.4h-0.4L53.4,42.8L53.4,42.8z"/>
		</g>
		<g>
			<path class="st1" d="M59.7,38.1v6h-1.5v-6H59.7z"/>
		</g>
		<g>
			<path class="st1" d="M63.4,38.1c0.5,0,1,0.1,1.5,0.5c0.3,0.3,0.5,0.9,0.5,1.3c0,0.5-0.2,1-0.5,1.2c-0.2,0.2-0.6,0.4-0.8,0.4
				l1.9,2.4H64l-1.5-2.3v2.3H61v-6L63.4,38.1L63.4,38.1z M62.5,40.8h0.3c0.2,0,0.6-0.1,0.8-0.2c0.1-0.1,0.2-0.3,0.2-0.5
				c0-0.2-0.1-0.4-0.2-0.5c-0.1-0.1-0.4-0.2-0.7-0.2h-0.3V40.8z"/>
		</g>
		<g>
			<path class="st1" d="M70.1,39.5h-1.8v1H70v1.3h-1.8v1h1.8v1.3h-3.4v-6h3.4V39.5z"/>
		</g>
		<g>
			<path class="st1" d="M75.4,44c-0.6,0.2-1,0.3-1.3,0.3c-1,0-1.8-0.4-2.3-0.9c-0.6-0.6-0.9-1.4-0.9-2.2c0-0.8,0.4-1.7,0.9-2.2
				S73.1,38,74,38c0.3,0,0.8,0,1.4,0.3v1.8c-0.5-0.6-1.1-0.7-1.3-0.7c-0.4,0-0.8,0.1-1.1,0.4c-0.4,0.3-0.5,0.8-0.5,1.2
				c0,0.4,0.2,0.9,0.5,1.2c0.3,0.2,0.7,0.4,1.1,0.4c0.2,0,0.8,0,1.3-0.6L75.4,44L75.4,44z"/>
		</g>
		<g>
			<path class="st1" d="M78.9,39.5v4.7h-1.6v-4.7h-1.3v-1.3h4.1v1.3H78.9z"/>
		</g>
		<g>
			<path class="st1" d="M86.3,43.4c-0.6,0.6-1.5,0.9-2.4,0.9s-1.8-0.3-2.3-0.9c-0.6-0.6-0.9-1.4-0.9-2.2c0-0.8,0.3-1.6,0.9-2.2
				c0.6-0.6,1.5-0.9,2.3-0.9c0.9,0,1.8,0.3,2.4,0.9c0.6,0.6,0.9,1.4,0.9,2.2C87.2,41.9,86.9,42.8,86.3,43.4z M82.8,40
				c-0.3,0.3-0.5,0.8-0.5,1.2c0,0.5,0.2,0.9,0.5,1.1c0.3,0.3,0.7,0.5,1.2,0.5c0.5,0,0.9-0.2,1.2-0.5c0.3-0.3,0.5-0.7,0.5-1.2
				c0-0.5-0.2-0.9-0.5-1.2c-0.3-0.3-0.8-0.5-1.2-0.5C83.5,39.5,83.1,39.7,82.8,40z"/>
		</g>
	</g>
	<g>
		<path class="st0" d="M42,30.7h-4.3l-1.1,2.4h-1.7l5-10.6l4.8,10.6H43L42,30.7z M41.4,29.3l-1.5-3.4l-1.5,3.4H41.4z"/>
		<path class="st0" d="M46.3,33.2V22.5l7.3,7.6v-7h1.5v10.7l-7.3-7.6v7L46.3,33.2L46.3,33.2z M53.6,20.9c-0.3,0.7-0.9,1.3-1.8,1.3
			c-0.4,0-0.6-0.1-0.8-0.2c-0.5-0.2-0.4-0.2-0.6-0.3c-0.2-0.1-0.4-0.1-0.6-0.1c-0.2,0-0.6,0.1-0.8,0.6l-0.9-0.6
			c0.1-0.2,0.4-0.6,0.6-0.8c0.4-0.4,0.8-0.4,1-0.4s0.5,0.1,0.7,0.1c0.1,0,0.3,0.1,0.7,0.3c0.2,0.1,0.4,0.2,0.6,0.2
			c0.3,0,0.7-0.3,0.8-0.8L53.6,20.9z"/>
		<path class="st0" d="M67.9,28.1c0,3-2.2,5.2-5.2,5.2s-5.2-2.3-5.2-5.2s2.2-5.2,5.2-5.2S67.9,25.2,67.9,28.1z M66.4,28.1
			c0-2.2-1.5-3.8-3.7-3.8S59,25.9,59,28.2s1.5,3.8,3.7,3.8S66.4,30.4,66.4,28.1z"/>
		<path class="st0" d="M74.5,25.4c-0.1-0.2-0.2-0.4-0.4-0.6c-0.3-0.3-0.7-0.4-1.1-0.4c-0.9,0-1.4,0.6-1.4,1.2c0,0.3,0.1,0.8,1.1,1.2
			l1,0.4c1.8,0.8,2.4,1.8,2.4,3c0,1.9-1.4,3.2-3.2,3.2c-1.2,0-1.8-0.4-2.4-1c-0.5-0.6-0.8-1.3-0.8-2l1.5-0.3c0,0.5,0.2,1,0.4,1.3
			c0.3,0.4,0.7,0.6,1.3,0.6c0.9,0,1.7-0.7,1.7-1.7c0-1-0.8-1.5-1.4-1.7l-1-0.4c-0.8-0.4-2.1-1-2.1-2.5c0-1.4,1.1-2.6,2.9-2.6
			c1.1,0,1.7,0.4,2,0.7c0.3,0.2,0.6,0.6,0.8,1L74.5,25.4z"/>
	</g>
	<rect x="0.1" class="st2" width="87.2" height="44.8"/>
	<g>
		<path class="st0" d="M1.9,2.9h2.8V0.2h1.9v7.3H4.7v-3H1.9v3H0V0.2h1.9V2.9z"/>
		<path class="st0" d="M13.4,6.3h-2.7l-0.5,1.2h-2L11,0.2h2.1l2.8,7.3h-2L13.4,6.3z M12.9,4.8L12,2.4l-0.8,2.4H12.9z"/>
		<path class="st0" d="M17.7,5.3c0.4,0.4,1,0.8,1.7,0.8c0.4,0,0.6-0.1,0.7-0.2c0.1-0.1,0.2-0.3,0.2-0.5c0-0.1,0-0.3-0.2-0.4
			c-0.2-0.2-0.5-0.2-1-0.4l-0.5-0.2c-0.3-0.1-0.8-0.3-1.1-0.6c-0.4-0.4-0.4-0.9-0.4-1.3c0-0.9,0.4-1.5,0.7-1.8
			c0.4-0.4,1-0.7,1.9-0.7c0.7,0,1.6,0.2,2.3,0.6l-0.8,1.5c-0.6-0.5-1-0.5-1.2-0.5c-0.2,0-0.4,0-0.6,0.2c-0.1,0.1-0.2,0.2-0.2,0.4
			c0,0.1,0,0.2,0.1,0.3c0,0.1,0.2,0.2,0.6,0.3L20.5,3c0.5,0.1,1,0.3,1.3,0.7c0.4,0.4,0.5,0.8,0.5,1.3c0,0.7-0.2,1.3-0.7,1.8
			c-0.6,0.6-1.4,0.8-2.2,0.8c-0.5,0-0.9,0-1.4-0.2c-0.1,0-0.6-0.2-1.1-0.6L17.7,5.3z"/>
		<path class="st0" d="M27.1,1.8v5.7h-1.9V1.8h-1.6V0.2h5v1.6L27.1,1.8L27.1,1.8z"/>
		<path class="st0" d="M34.4,6.3h-2.7l-0.5,1.2h-2l2.8-7.3h2.1l2.8,7.3h-2L34.4,6.3z M33.9,4.8l-0.8-2.4l-0.8,2.4H33.9z"/>
	</g>
</g>
</svg>
