<?xml version="1.0" encoding="utf-8"?>
<!-- Generator: Adobe Illustrator 24.2.3, SVG Export Plug-In . SVG Version: 6.00 Build 0)  -->
<svg version="1.1" id="Capa_1" xmlns="http://www.w3.org/2000/svg" xmlns:xlink="http://www.w3.org/1999/xlink" x="0px" y="0px"
	 viewBox="0 0 87.19 45.5" style="enable-background:new 0 0 87.19 45.5;" xml:space="preserve">
<style type="text/css">
	.st0{fill:#002856;}
	.st1{fill:#00A6CE;}
	.st2{fill:none;}
</style>
<g>
	<g>
		<path class="st0" d="M4.04,16.03H0.6V10.7h9.71v24.16H4.04V16.03z"/>
		<path class="st0" d="M30.69,16.03h-8.37l-0.44,2.68c0.91-0.15,1.63-0.18,1.96-0.18c3.22,0,5.25,1.23,6.37,2.39
			c1.09,1.09,2.21,2.93,2.21,5.72c0,2.9-1.16,4.85-2.32,6.05c-2.25,2.32-5.22,2.72-7.53,2.72c-3.66,0-6.19-0.94-8.15-2.17l0.94-5.87
			c1.27,1.16,2.5,1.77,2.9,1.96c1.09,0.51,2.43,0.83,3.62,0.83c1.27,0,2.43-0.43,3.15-1.19c0.54-0.58,0.94-1.45,0.94-2.46
			c0-1.27-0.62-2.14-1.16-2.61c-1.3-1.16-3.55-1.2-4.35-1.2c-1.7,0-3.15,0.36-4.45,1.01l2.1-13h12.57V16.03z"/>
	</g>
	<g>
		<g>
			<path class="st1" d="M0.67,44.11v-5.97H2.7c0.6,0,1.6,0.08,2.37,0.82c0.7,0.67,0.83,1.53,0.83,2.18c0,0.79-0.2,1.49-0.78,2.07
				c-0.47,0.47-1.27,0.9-2.29,0.9H0.67z M2.21,42.8h0.31c0.38,0,0.9-0.03,1.31-0.43c0.2-0.19,0.46-0.56,0.46-1.23
				c0-0.56-0.17-1.03-0.47-1.31c-0.37-0.34-0.85-0.38-1.24-0.38H2.21V42.8z"/>
		</g>
		<g>
			<path class="st1" d="M10.34,39.46H8.49v0.99h1.75v1.32H8.49v1.03h1.84v1.32H6.94v-5.97h3.39V39.46z"/>
		</g>
		<g>
			<path class="st1" d="M17.81,43.95c-0.62,0.22-0.96,0.3-1.34,0.3c-1.04,0-1.82-0.41-2.31-0.9c-0.58-0.58-0.9-1.4-0.9-2.18
				c0-0.85,0.37-1.66,0.9-2.2c0.53-0.54,1.32-0.93,2.26-0.93c0.29,0,0.75,0.04,1.4,0.3v1.85c-0.5-0.62-1.09-0.65-1.35-0.65
				c-0.45,0-0.79,0.13-1.07,0.39c-0.37,0.34-0.52,0.81-0.52,1.23c0,0.41,0.17,0.87,0.48,1.16c0.26,0.24,0.67,0.41,1.11,0.41
				c0.23,0,0.81-0.03,1.35-0.63V43.95z"/>
		</g>
		<g>
			<path class="st1" d="M21.27,38.14c0.45,0,1.02,0.07,1.46,0.53c0.34,0.35,0.51,0.87,0.51,1.34c0,0.51-0.18,0.96-0.47,1.24
				c-0.23,0.22-0.55,0.36-0.82,0.41l1.87,2.44h-1.92l-1.49-2.29v2.29h-1.55v-5.97H21.27z M20.4,40.82h0.3
				c0.23,0,0.56-0.06,0.75-0.24c0.12-0.12,0.2-0.31,0.2-0.5c0-0.18-0.07-0.38-0.21-0.5c-0.14-0.14-0.4-0.23-0.74-0.23h-0.3V40.82z"
				/>
		</g>
		<g>
			<path class="st1" d="M27.91,39.46h-1.84v0.99h1.75v1.32h-1.75v1.03h1.84v1.32h-3.39v-5.97h3.39V39.46z M27.38,36.45L26,37.67
				l-0.66-0.49l1.14-1.38L27.38,36.45z"/>
		</g>
		<g>
			<path class="st1" d="M28.95,44.11v-5.97h2.03c0.6,0,1.6,0.08,2.37,0.82c0.7,0.67,0.83,1.53,0.83,2.18c0,0.79-0.2,1.49-0.78,2.07
				c-0.47,0.47-1.27,0.9-2.29,0.9H28.95z M30.5,42.8h0.31c0.38,0,0.9-0.03,1.31-0.43c0.2-0.19,0.46-0.56,0.46-1.23
				c0-0.56-0.17-1.03-0.46-1.31c-0.37-0.34-0.85-0.38-1.24-0.38H30.5V42.8z"/>
		</g>
		<g>
			<path class="st1" d="M36.78,38.14v5.97h-1.55v-5.97H36.78z"/>
		</g>
		<g>
			<path class="st1" d="M40.35,39.46v4.66H38.8v-4.66h-1.27v-1.32h4.09v1.32H40.35z"/>
		</g>
		<g>
			<path class="st1" d="M47.74,43.36c-0.61,0.58-1.47,0.89-2.36,0.89c-0.89,0-1.75-0.31-2.35-0.89c-0.64-0.61-0.94-1.44-0.94-2.23
				c0-0.8,0.31-1.64,0.94-2.24c0.61-0.58,1.47-0.89,2.35-0.89c0.89,0,1.75,0.3,2.36,0.89c0.64,0.6,0.94,1.44,0.94,2.24
				C48.68,41.92,48.38,42.75,47.74,43.36z M44.18,39.99c-0.32,0.31-0.47,0.75-0.47,1.17c0,0.53,0.25,0.9,0.47,1.11
				c0.29,0.28,0.69,0.47,1.21,0.47c0.53,0,0.92-0.19,1.2-0.46c0.28-0.28,0.48-0.69,0.48-1.15c0-0.47-0.21-0.88-0.48-1.15
				c-0.33-0.31-0.79-0.47-1.2-0.47C44.96,39.51,44.5,39.66,44.18,39.99z"/>
		</g>
		<g>
			<path class="st1" d="M51.87,44.11v-5.97h2.03c0.6,0,1.6,0.08,2.37,0.82c0.7,0.67,0.83,1.53,0.83,2.18c0,0.79-0.2,1.49-0.78,2.07
				c-0.47,0.47-1.27,0.9-2.29,0.9H51.87z M53.41,42.8h0.31c0.38,0,0.9-0.03,1.31-0.43c0.2-0.19,0.46-0.56,0.46-1.23
				c0-0.56-0.17-1.03-0.47-1.31c-0.37-0.34-0.85-0.38-1.24-0.38h-0.38V42.8z"/>
		</g>
		<g>
			<path class="st1" d="M59.69,38.14v5.97h-1.55v-5.97H59.69z"/>
		</g>
		<g>
			<path class="st1" d="M63.42,38.14c0.45,0,1.02,0.07,1.46,0.53c0.34,0.35,0.51,0.87,0.51,1.34c0,0.51-0.18,0.96-0.47,1.24
				c-0.23,0.22-0.55,0.36-0.82,0.41l1.87,2.44h-1.93l-1.49-2.29v2.29H61v-5.97H63.42z M62.55,40.82h0.3c0.23,0,0.56-0.06,0.75-0.24
				c0.12-0.12,0.2-0.31,0.2-0.5c0-0.18-0.07-0.38-0.21-0.5c-0.14-0.14-0.4-0.23-0.74-0.23h-0.3V40.82z"/>
		</g>
		<g>
			<path class="st1" d="M70.06,39.46h-1.84v0.99h1.75v1.32h-1.75v1.03h1.84v1.32h-3.39v-5.97h3.39V39.46z"/>
		</g>
		<g>
			<path class="st1" d="M75.39,43.95c-0.62,0.22-0.96,0.3-1.34,0.3c-1.04,0-1.82-0.41-2.31-0.9c-0.58-0.58-0.9-1.4-0.9-2.18
				c0-0.85,0.37-1.66,0.9-2.2c0.53-0.54,1.33-0.93,2.26-0.93c0.29,0,0.75,0.04,1.4,0.3v1.85c-0.5-0.62-1.09-0.65-1.35-0.65
				c-0.45,0-0.79,0.13-1.07,0.39c-0.37,0.34-0.52,0.81-0.52,1.23c0,0.41,0.17,0.87,0.48,1.16c0.26,0.24,0.67,0.41,1.11,0.41
				c0.23,0,0.81-0.03,1.35-0.63V43.95z"/>
		</g>
		<g>
			<path class="st1" d="M78.92,39.46v4.66h-1.55v-4.66H76.1v-1.32h4.09v1.32H78.92z"/>
		</g>
		<g>
			<path class="st1" d="M86.31,43.36c-0.61,0.58-1.47,0.89-2.36,0.89c-0.89,0-1.75-0.31-2.35-0.89c-0.64-0.61-0.94-1.44-0.94-2.23
				c0-0.8,0.31-1.64,0.94-2.24c0.61-0.58,1.47-0.89,2.35-0.89c0.89,0,1.75,0.3,2.36,0.89c0.64,0.6,0.94,1.44,0.94,2.24
				C87.25,41.92,86.95,42.75,86.31,43.36z M82.75,39.99c-0.32,0.31-0.47,0.75-0.47,1.17c0,0.53,0.25,0.9,0.47,1.11
				c0.29,0.28,0.69,0.47,1.21,0.47c0.53,0,0.92-0.19,1.2-0.46c0.28-0.28,0.48-0.69,0.48-1.15c0-0.47-0.21-0.88-0.48-1.15
				c-0.33-0.31-0.79-0.47-1.2-0.47C83.53,39.51,83.07,39.66,82.75,39.99z"/>
		</g>
	</g>
	<g>
		<path class="st0" d="M41.99,30.74H37.7l-1.1,2.42h-1.66l5-10.63l4.76,10.63h-1.66L41.99,30.74z M41.37,29.3l-1.49-3.4l-1.55,3.4
			H41.37z"/>
		<path class="st0" d="M46.34,33.16V22.45l7.28,7.63v-6.95h1.53v10.66l-7.28-7.63v7.01H46.34z M53.56,20.87
			c-0.35,0.71-0.86,1.26-1.75,1.26c-0.36,0-0.57-0.08-0.83-0.2c-0.45-0.21-0.44-0.23-0.63-0.3c-0.17-0.06-0.38-0.14-0.56-0.14
			c-0.21,0-0.56,0.06-0.77,0.63l-0.89-0.62c0.14-0.24,0.38-0.59,0.63-0.81c0.41-0.35,0.81-0.41,1.05-0.41s0.51,0.06,0.74,0.14
			c0.11,0.04,0.32,0.12,0.69,0.32c0.18,0.09,0.39,0.21,0.62,0.21c0.33,0,0.66-0.26,0.81-0.78L53.56,20.87z"/>
		<path class="st0" d="M67.9,28.15c0,2.95-2.21,5.21-5.22,5.21s-5.22-2.26-5.22-5.21c0-2.95,2.21-5.21,5.22-5.21
			S67.9,25.2,67.9,28.15z M66.36,28.15c0-2.23-1.54-3.79-3.69-3.79s-3.69,1.57-3.69,3.79s1.54,3.79,3.69,3.79
			S66.36,30.38,66.36,28.15z"/>
		<path class="st0" d="M74.53,25.35c-0.09-0.23-0.23-0.44-0.45-0.63c-0.32-0.26-0.65-0.36-1.08-0.36c-0.93,0-1.41,0.56-1.41,1.2
			c0,0.3,0.11,0.83,1.08,1.22l1.01,0.41c1.85,0.75,2.36,1.81,2.36,2.95c0,1.91-1.36,3.22-3.24,3.22c-1.16,0-1.85-0.44-2.36-1.01
			c-0.54-0.6-0.78-1.26-0.84-1.96l1.52-0.33c0,0.5,0.18,0.96,0.42,1.28c0.29,0.36,0.71,0.6,1.31,0.6c0.93,0,1.66-0.68,1.66-1.68
			c0-1.02-0.78-1.45-1.45-1.72l-0.96-0.41c-0.83-0.35-2.05-1.04-2.05-2.54c0-1.36,1.05-2.65,2.93-2.65c1.08,0,1.7,0.41,2.02,0.68
			c0.27,0.24,0.56,0.59,0.77,1.01L74.53,25.35z"/>
	</g>
	<rect x="0.07" class="st2" width="87.19" height="44.8"/>
	<g>
		<path class="st0" d="M1.9,2.9h2.75V0.17h1.91V7.5H4.65V4.53H1.9V7.5H0V0.17h1.9V2.9z"/>
		<path class="st0" d="M13.38,6.27h-2.66l-0.5,1.23H8.21l2.82-7.34h2.08l2.76,7.34h-2.04L13.38,6.27z M12.87,4.82l-0.83-2.38
			l-0.8,2.38H12.87z"/>
		<path class="st0" d="M17.71,5.3c0.41,0.38,1.02,0.75,1.68,0.75c0.38,0,0.62-0.12,0.74-0.25c0.11-0.11,0.19-0.28,0.19-0.46
			c0-0.14-0.05-0.31-0.21-0.44c-0.19-0.17-0.47-0.24-0.95-0.38l-0.5-0.15c-0.31-0.1-0.76-0.26-1.06-0.59
			c-0.37-0.41-0.42-0.92-0.42-1.3c0-0.9,0.35-1.45,0.67-1.77C18.24,0.32,18.85,0,19.75,0c0.73,0,1.57,0.23,2.27,0.59l-0.76,1.49
			c-0.57-0.45-1-0.5-1.25-0.5c-0.19,0-0.44,0.04-0.63,0.22c-0.11,0.11-0.19,0.23-0.19,0.4c0,0.13,0.02,0.23,0.1,0.33
			c0.05,0.07,0.19,0.2,0.64,0.33l0.58,0.18c0.46,0.14,0.95,0.31,1.33,0.73c0.37,0.4,0.47,0.8,0.47,1.31c0,0.67-0.17,1.32-0.69,1.85
			c-0.63,0.63-1.39,0.75-2.17,0.75c-0.46,0-0.9-0.04-1.44-0.24c-0.12-0.04-0.58-0.22-1.11-0.58L17.71,5.3z"/>
		<path class="st0" d="M27.07,1.78V7.5h-1.9V1.78h-1.56V0.17h5.03v1.62H27.07z"/>
		<path class="st0" d="M34.42,6.27h-2.66l-0.5,1.23h-2.01l2.82-7.34h2.08l2.76,7.34h-2.04L34.42,6.27z M33.91,4.82l-0.83-2.38
			l-0.8,2.38H33.91z"/>
	</g>
</g>
</svg>
