<?xml version="1.0" encoding="utf-8"?>
<!-- Generator: Adobe Illustrator 24.3.0, SVG Export Plug-In . SVG Version: 6.00 Build 0)  -->
<svg version="1.1" id="Capa_1" xmlns="http://www.w3.org/2000/svg" xmlns:xlink="http://www.w3.org/1999/xlink" x="0px" y="0px"
	 viewBox="0 0 87.2 45.5" style="enable-background:new 0 0 87.2 45.5;" xml:space="preserve">
<style type="text/css">
	.st0{fill:#FFFFFF;}
	.st1{fill:#00A6CE;}
	.st2{fill:none;}
</style>
<g>
	<g>
		<path class="st0" d="M21.5,6.1h-3.5V0.6h10v24.9h-6.5C21.5,25.5,21.5,6.1,21.5,6.1z"/>
		<path class="st0" d="M50,23.2C48,25.1,45.5,26,43.1,26s-4.9-0.9-6.9-2.8C34,21,32.5,17.4,32.5,13c0-4.4,1.5-8,3.7-10.2
			c2-1.9,4.5-2.8,6.9-2.8S48,0.9,50,2.8C52.2,5,53.7,8.6,53.7,13C53.7,17.4,52.2,21,50,23.2z M41.1,6.6c-1.3,1.2-2.2,4.2-2.2,6.5
			c0,2,0.7,5.2,2.2,6.5c0.5,0.5,1.2,0.8,2,0.8s1.5-0.3,2-0.8c1.4-1.2,2.2-4.3,2.2-6.5c0-2.2-0.9-5.4-2.2-6.5c-0.5-0.4-1.2-0.8-2-0.8
			S41.6,6.1,41.1,6.6z"/>
		<path class="st0" d="M57.1,10.5c-1.1-1.2-1.6-2.5-1.6-4c0-1.6,0.6-3.2,1.5-4.2c1.6-1.8,3.8-2,5.2-2c2.7,0,4.3,0.9,5.3,2
			c0.8,0.8,1.6,2.1,1.6,4.1c0,1.9-0.8,3.2-1.6,4.2c-1.6,1.6-3.7,2-5.3,2C60.6,12.5,58.7,12.2,57.1,10.5z M60.3,4.4
			c-0.5,0.5-0.8,1.2-0.8,1.9c0,0.9,0.4,1.6,1,2.1c0.5,0.4,1.1,0.7,1.8,0.7s1.5-0.3,2-0.8c0.5-0.5,0.8-1.2,0.8-2
			c0-0.8-0.3-1.5-0.9-2.1c-0.6-0.5-1.2-0.7-1.9-0.7C61.5,3.6,60.8,4,60.3,4.4z M76.6,0.6h3.2L65.4,25.5h-3.2L76.6,0.6z M74.4,23.8
			c-1.1-1.2-1.6-2.5-1.6-4c0-1.6,0.6-3.2,1.5-4.2c1.6-1.8,3.8-2,5.2-2c2.7,0,4.3,0.9,5.3,2c0.8,0.8,1.6,2.1,1.6,4.1
			c0,1.9-0.8,3.2-1.6,4.1c-1.6,1.6-3.7,2-5.3,2C77.9,25.8,76,25.5,74.4,23.8z M77.7,17.7c-0.5,0.5-0.8,1.2-0.8,1.9
			c0,0.9,0.4,1.6,1,2.1c0.4,0.4,1.1,0.7,1.8,0.7s1.5-0.3,2-0.8c0.5-0.5,0.8-1.2,0.8-2c0-0.8-0.3-1.5-0.9-2.1
			c-0.6-0.5-1.2-0.7-1.9-0.7C78.9,16.9,78.1,17.2,77.7,17.7z"/>
	</g>
	<g>
		<path class="st0" d="M19.7,38.3c1,0,1.8,0.1,2.5,0.7c0.8,0.6,1.3,1.6,1.3,2.7s-0.5,2.1-1.4,2.7c-0.8,0.6-1.5,0.7-2.5,0.7h-1.8
			v-6.8L19.7,38.3L19.7,38.3z M19.2,44h0.4c0.3,0,1.1,0,1.7-0.5c0.5-0.4,0.9-1.1,0.9-1.8c0-0.7-0.3-1.4-0.8-1.8
			c-0.5-0.4-1.2-0.5-1.7-0.5h-0.4V44z"/>
		<path class="st0" d="M28.8,39.5h-2.5V41h2.3v1.1h-2.3V44h2.5v1.1H25v-6.8h3.8V39.5z"/>
		<path class="st0" d="M36.7,39.5h-2.5V41h2.3v1.1h-2.3V44h2.5v1.1h-3.8v-6.8h3.8V39.5z"/>
		<path class="st0" d="M38.2,45.1v-6.8h0.9l4.1,4.5v-4.5h1.3v6.8h-0.9l-4.1-4.5v4.5H38.2z"/>
		<path class="st0" d="M49.9,41.5H53v0.1c0,0.5-0.1,1.9-1,2.8c-0.7,0.7-1.6,0.9-2.4,0.9c-0.8,0-1.7-0.2-2.5-0.9
			c-0.2-0.2-1-1.1-1-2.6c0-1.3,0.6-2.1,1-2.5c0.5-0.5,1.4-1,2.7-1c0.5,0,1,0.1,1.6,0.4c0.4,0.2,0.9,0.6,1.3,1.2l-1.2,0.6
			c-0.2-0.5-0.6-0.7-0.8-0.8c-0.3-0.1-0.6-0.2-1-0.2c-0.5,0-1.2,0.2-1.6,0.6c-0.4,0.4-0.7,1-0.7,1.8c0,0.9,0.4,1.5,0.7,1.7
			c0.3,0.3,0.8,0.6,1.5,0.6c0.5,0,1-0.1,1.3-0.4c0.3-0.2,0.5-0.5,0.6-1h-1.8L49.9,41.5L49.9,41.5z"/>
		<path class="st0" d="M58.3,43.7h-2.7l-0.6,1.4h-1.4l2.9-6.8h1l2.8,6.8h-1.4L58.3,43.7z M57.9,42.6l-1-2.5l-1,2.5H57.9z"/>
		<path class="st0" d="M61.3,45.1v-6.8h0.9l4.1,4.5v-4.5h1.3v6.8h-0.9l-4.1-4.5v4.5H61.3z"/>
		<path class="st0" d="M74.5,44.9c-0.4,0.2-0.9,0.4-1.7,0.4c-1.2,0-1.9-0.4-2.5-1c-0.8-0.8-1.1-1.6-1.1-2.6c0-1.2,0.5-2.1,1.1-2.7
			c0.7-0.6,1.5-0.9,2.5-0.9c0.5,0,1.1,0.1,1.7,0.4v1.5c-0.6-0.7-1.4-0.8-1.6-0.8c-1.4,0-2.2,1.1-2.2,2.4c0,1.5,1.2,2.3,2.3,2.3
			c0.6,0,1.2-0.3,1.6-0.7V44.9z"/>
		<path class="st0" d="M77.3,40.9h2.9v-2.6h1.3v6.8h-1.3v-3h-2.9v3h-1.3v-6.8h1.3V40.9z"/>
		<path class="st0" d="M87,39.5h-2.4V41h2.3v1.1h-2.3V44H87v1.1h-3.8v-6.8H87L87,39.5L87,39.5z"/>
	</g>
	<g>
		<g>
			<rect x="17.9" y="31.6" class="st1" width="69.1" height="2.3"/>
		</g>
	</g>
	<rect y="0.7" class="st2" width="87.2" height="44.8"/>
</g>
</svg>
