<?xml version="1.0" encoding="utf-8"?>
<!-- Generator: Adobe Illustrator 24.2.3, SVG Export Plug-In . SVG Version: 6.00 Build 0)  -->
<svg version="1.1" id="Capa_1" xmlns="http://www.w3.org/2000/svg" xmlns:xlink="http://www.w3.org/1999/xlink" x="0px" y="0px"
	 viewBox="0 0 87.19 45.5" style="enable-background:new 0 0 87.19 45.5;" xml:space="preserve">
<style type="text/css">
	.st0{fill:#002856;}
	.st1{fill:#00A6CE;}
	.st2{fill:none;}
</style>
<g>
	<g>
		<path class="st0" d="M21.47,6.05h-3.55V0.56h10.02v24.93h-6.47V6.05z"/>
		<path class="st0" d="M49.98,23.21c-1.94,1.91-4.45,2.84-6.88,2.84c-2.43,0-4.93-0.93-6.88-2.84c-2.24-2.2-3.7-5.79-3.7-10.16
			c0-4.41,1.46-8,3.7-10.2C38.17,0.93,40.67,0,43.1,0c2.43,0,4.93,0.93,6.88,2.84c2.24,2.2,3.7,5.79,3.7,10.2
			C53.68,17.41,52.22,21,49.98,23.21z M41.12,6.58c-1.35,1.16-2.17,4.19-2.17,6.5c0,1.98,0.71,5.23,2.17,6.5
			c0.49,0.45,1.23,0.79,1.98,0.79s1.49-0.34,1.98-0.79c1.38-1.2,2.17-4.33,2.17-6.47c0-2.2-0.86-5.38-2.17-6.54
			c-0.49-0.45-1.23-0.79-1.98-0.79S41.61,6.13,41.12,6.58z"/>
		<path class="st0" d="M57.11,10.54c-1.08-1.16-1.57-2.5-1.57-4.04c0-1.61,0.56-3.18,1.53-4.22c1.57-1.76,3.81-1.98,5.23-1.98
			c2.69,0,4.3,0.93,5.31,1.98c0.75,0.79,1.57,2.09,1.57,4.11c0,1.91-0.75,3.25-1.61,4.15c-1.57,1.64-3.66,1.98-5.27,1.98
			C60.59,12.52,58.68,12.18,57.11,10.54z M60.32,4.45c-0.49,0.52-0.75,1.23-0.75,1.94c0,0.86,0.41,1.64,0.97,2.13
			c0.45,0.41,1.08,0.67,1.83,0.67s1.49-0.34,1.98-0.79c0.49-0.49,0.82-1.23,0.82-2.02c0-0.75-0.3-1.53-0.9-2.09
			c-0.56-0.52-1.2-0.71-1.91-0.71C61.52,3.59,60.77,3.96,60.32,4.45z M76.62,0.56h3.25L65.41,25.49h-3.21L76.62,0.56z M74.45,23.8
			c-1.08-1.16-1.57-2.5-1.57-4.04c0-1.61,0.56-3.18,1.53-4.22c1.57-1.76,3.81-1.98,5.23-1.98c2.69,0,4.3,0.93,5.31,1.98
			c0.75,0.79,1.57,2.09,1.57,4.11c0,1.91-0.75,3.25-1.61,4.15c-1.57,1.64-3.66,1.98-5.27,1.98C77.93,25.78,76.02,25.45,74.45,23.8z
			 M77.66,17.71c-0.49,0.52-0.75,1.23-0.75,1.94c0,0.86,0.41,1.64,0.97,2.13c0.45,0.41,1.08,0.67,1.83,0.67s1.49-0.34,1.98-0.78
			c0.49-0.49,0.82-1.23,0.82-2.02c0-0.75-0.3-1.53-0.9-2.09c-0.56-0.52-1.2-0.71-1.91-0.71C78.86,16.85,78.11,17.23,77.66,17.71z"/>
	</g>
	<g>
		<path class="st0" d="M19.68,38.31c0.95,0,1.77,0.1,2.53,0.66c0.83,0.62,1.3,1.61,1.3,2.74s-0.47,2.11-1.37,2.74
			c-0.8,0.56-1.54,0.65-2.49,0.65H17.9v-6.8H19.68z M19.23,43.97h0.41c0.34,0,1.07-0.02,1.66-0.45c0.54-0.39,0.85-1.08,0.85-1.8
			c0-0.71-0.3-1.41-0.84-1.81c-0.55-0.41-1.22-0.45-1.67-0.45h-0.41V43.97z"/>
		<path class="st0" d="M28.76,39.45h-2.45v1.52h2.34v1.14h-2.34v1.86h2.45v1.14h-3.77v-6.8h3.77V39.45z"/>
		<path class="st0" d="M36.69,39.45h-2.45v1.52h2.34v1.14h-2.34v1.86h2.45v1.14h-3.77v-6.8h3.77V39.45z"/>
		<path class="st0" d="M38.23,45.11v-6.8h0.92l4.14,4.54v-4.54h1.33v6.8h-0.92l-4.14-4.55v4.55H38.23z"/>
		<path class="st0" d="M49.86,41.47h3.12v0.08c0,0.46-0.06,1.89-1,2.81c-0.7,0.7-1.57,0.9-2.42,0.9c-0.85,0-1.72-0.17-2.47-0.92
			c-0.23-0.23-1.01-1.09-1.01-2.62c0-1.31,0.59-2.12,1-2.53c0.51-0.52,1.37-1.04,2.68-1.04c0.51,0,1.05,0.08,1.57,0.36
			c0.44,0.22,0.92,0.63,1.27,1.24l-1.15,0.62c-0.23-0.46-0.58-0.69-0.8-0.8c-0.29-0.14-0.64-0.21-0.96-0.21
			c-0.54,0-1.15,0.19-1.57,0.6c-0.39,0.38-0.68,1.03-0.68,1.79c0,0.91,0.39,1.45,0.67,1.72c0.31,0.3,0.78,0.58,1.51,0.58
			c0.45,0,0.96-0.12,1.34-0.41c0.26-0.2,0.53-0.55,0.64-1.04h-1.75V41.47z"/>
		<path class="st0" d="M58.28,43.68h-2.74l-0.6,1.43H53.5l2.93-6.8h1.04l2.84,6.8h-1.43L58.28,43.68z M57.89,42.6l-0.97-2.45
			l-0.97,2.45H57.89z"/>
		<path class="st0" d="M61.35,45.11v-6.8h0.92l4.14,4.54v-4.54h1.33v6.8h-0.92l-4.14-4.55v4.55H61.35z"/>
		<path class="st0" d="M74.47,44.87c-0.41,0.21-0.95,0.4-1.68,0.4c-1.19,0-1.92-0.41-2.49-0.95c-0.79-0.75-1.09-1.6-1.09-2.6
			c0-1.23,0.51-2.12,1.09-2.66c0.68-0.64,1.53-0.9,2.5-0.9c0.48,0,1.05,0.08,1.67,0.42v1.55c-0.62-0.71-1.4-0.76-1.64-0.76
			c-1.37,0-2.25,1.12-2.25,2.38c0,1.51,1.16,2.32,2.3,2.32c0.63,0,1.19-0.27,1.59-0.74V44.87z"/>
		<path class="st0" d="M77.27,40.94h2.87v-2.63h1.33v6.8h-1.33v-3.03h-2.87v3.03h-1.33v-6.8h1.33V40.94z"/>
		<path class="st0" d="M87.04,39.45H84.6v1.52h2.34v1.14H84.6v1.86h2.45v1.14h-3.77v-6.8h3.77V39.45z"/>
	</g>
	<g>
		<g>
			<rect x="17.9" y="31.64" class="st1" width="69.14" height="2.26"/>
		</g>
	</g>
	<rect y="0.7" class="st2" width="87.19" height="44.8"/>
</g>
</svg>
