<?xml version="1.0" encoding="utf-8"?>
<!-- Generator: Adobe Illustrator 24.3.0, SVG Export Plug-In . SVG Version: 6.00 Build 0)  -->
<svg version="1.1" id="Capa_1" xmlns="http://www.w3.org/2000/svg" xmlns:xlink="http://www.w3.org/1999/xlink" x="0px" y="0px"
	 viewBox="0 0 144.3 165.3" style="enable-background:new 0 0 144.3 165.3;" xml:space="preserve">
<style type="text/css">
	.st0{filter:url(#Adobe_OpacityMaskFilter);}
	.st1{mask:url(#SVGID_1_);}
	.st2{fill:#002856;}
	.st3{fill:#FFFFFF;}
</style>
<g>
	<defs>
		<filter id="Adobe_OpacityMaskFilter" filterUnits="userSpaceOnUse" x="2.1" y="132.7" width="140.2" height="29.8">
			<feFlood  style="flood-color:white;flood-opacity:1" result="back"/>
			<feBlend  in="SourceGraphic" in2="back" mode="normal"/>
		</filter>
	</defs>
	<mask maskUnits="userSpaceOnUse" x="2.1" y="132.7" width="140.2" height="29.8" id="SVGID_1_">
		<g class="st0">
			<image style="overflow:visible;" width="145" height="35" xlink:href="5591B0F8.jpg"  transform="matrix(1 0 0 1 0 130.3)">
			</image>
		</g>
	</mask>
	<g class="st1">
		<g>
			<g>
				<g>
					<g>
						<g>
							<g>
								<g>
									<g>
										<g>
											<g>
												<ellipse class="st2" cx="72.2" cy="147.6" rx="70.1" ry="14.9"/>
											</g>
										</g>
									</g>
								</g>
							</g>
						</g>
					</g>
				</g>
			</g>
		</g>
	</g>
</g>
<path class="st3" d="M50.4,120.4c0,0,9.6,4.5,20.9,4.3s29.7-7.6,29.7-7.6l8.6,15.6c0,0-13.4,8.2-22.9,9.4c-9.4,1.2-21.4,2.6-29.1,0
	s-24.3-10.7-24.3-10.7l10-15.4L50.4,120.4z"/>
<g>
	<g>
		<g>
			<path class="st2" d="M19.1,74l7.7-20.1h4.9L39.4,74h-4.9l-1.6-4.3h-7.8L23.7,74H19.1z M31.9,66.3l-2.2-6.5
				c-0.1-0.2-0.1-0.5-0.2-1s-0.2-1-0.3-1.7c-0.1,0.7-0.2,1.2-0.3,1.8s-0.2,0.9-0.2,1l-2.2,6.4H31.9z"/>
			<path class="st2" d="M41.5,74V53.9h4.3v16.5h6.9V74H41.5z"/>
			<path class="st2" d="M55.7,74V53.9H60V74H55.7z"/>
			<path class="st2" d="M61.5,74l7.7-20.1H74L81.8,74h-4.9l-1.6-4.3h-7.8L66.1,74H61.5z M74.3,66.3L72,59.8c-0.1-0.2-0.2-0.5-0.2-1
				s-0.2-1-0.3-1.7c-0.1,0.7-0.2,1.2-0.3,1.8c-0.1,0.5-0.2,0.9-0.2,1l-2.2,6.4C68.8,66.3,74.3,66.3,74.3,66.3z"/>
			<path class="st2" d="M83.3,74V53.9h5.5c2.2,0,3.9,0.2,5.1,0.5s2.3,0.8,3.3,1.5c1.2,0.9,2.1,2,2.8,3.4s0.9,3,0.9,4.7
				c0,1.8-0.3,3.4-1,4.8c-0.6,1.4-1.6,2.5-2.8,3.4c-0.9,0.7-1.9,1.1-3.1,1.4c-1,0.2-2.7,0.4-4.8,0.4h-1.5C87.7,74,83.3,74,83.3,74z
				 M87.6,70.4H90c2.2,0,3.9-0.5,4.9-1.5s1.6-2.7,1.6-4.9c0-2.2-0.5-3.8-1.6-4.9c-1-1-2.7-1.5-4.9-1.5h-2.4V70.4z"/>
			<path class="st2" d="M125.2,64c0,1.4-0.3,2.8-0.8,4.1s-1.3,2.4-2.3,3.4s-2.2,1.8-3.5,2.3s-2.7,0.8-4.1,0.8
				c-1.2,0-2.4-0.2-3.6-0.6s-2.3-1-3.2-1.8c-1.3-1-2.2-2.2-2.9-3.6c-0.7-1.4-1-2.9-1-4.5c0-1.5,0.3-2.8,0.8-4.1s1.3-2.4,2.3-3.4
				s2.2-1.7,3.5-2.3c1.3-0.5,2.7-0.8,4.1-0.8s2.8,0.3,4.1,0.8c1.3,0.5,2.5,1.3,3.5,2.3s1.8,2.1,2.3,3.4
				C124.9,61.2,125.2,62.5,125.2,64z M114.5,70.7c1.8,0,3.3-0.6,4.5-1.9s1.8-2.9,1.8-4.8c0-1.9-0.6-3.5-1.8-4.8
				c-1.2-1.3-2.7-2-4.5-2s-3.3,0.7-4.5,2s-1.8,2.9-1.8,4.8s0.6,3.6,1.8,4.8C111.1,70.1,112.6,70.7,114.5,70.7z"/>
		</g>
	</g>
	<g>
		<path class="st2" d="M82,128.9c-0.5-0.2-1.3-0.2-2.5,0L79,129l0.6,3.8l0.5-0.1c1.2-0.2,2-0.5,2.4-0.8c0.3-0.3,0.5-0.8,0.4-1.5
			C82.8,129.6,82.5,129.1,82,128.9z"/>
		<path class="st2" d="M98.2,123.1c-0.5-0.1-1.1,0-1.8,0.4l-0.4,0.2l2,3.8l0.4-0.2c0.7-0.4,1.2-0.8,1.4-1.3c0.2-0.5,0.1-1.1-0.3-1.8
			C99.1,123.5,98.7,123.2,98.2,123.1z"/>
		<path class="st2" d="M111.7,115.9l1.9,3.8l2.4-2.5l-3.9-1.8c-0.1-0.1-0.3-0.2-0.6-0.3c-0.2-0.2-0.6-0.4-0.9-0.6
			c0.2,0.3,0.4,0.6,0.6,0.9C111.5,115.6,111.6,115.8,111.7,115.9z"/>
		<path class="st2" d="M142.3,36.8V24.4l-25.6-13.5c0,0-1.1-0.6-2.9-0.6c-1.2,0-2.5,0.6-2.5,0.6l-4.3,2.3c0,0-0.7,0.4-1.4,0.4
			c-0.8,0-1.7-0.7-1.7-0.7L91.1,3.5c0,0-1.2-1-3.1-1c-1.8,0-3.5,1.2-3.5,1.2l-8.7,6.6c0,0-0.6,0.5-1.4,0.6s-1.5-0.2-1.5-0.2L69.2,9
			c0,0-1.1-0.6-2.8-0.4c-1.4,0.1-2.6,1-2.6,1l-10.7,8.2c0,0-0.6,0.5-1.2,0.6c-0.9,0.1-1.5-0.1-1.5-0.1L37,13.8c0,0-0.8-0.3-2-0.3
			c-1.1,0.1-2,0.5-2,0.5L10.6,24l0,0l-8.4,3.7v9.1l0,0v38.6c0,14.6,4.5,28.1,12.1,39.3c1.5,2.3,3.2,4.5,5,6.5
			c4,4.6,8.6,8.7,13.6,12.1c11.2,7.6,24.8,12.1,39.3,12.1s28.1-4.5,39.3-12.1c5-3.4,9.6-7.5,13.6-12.1c1.8-2.1,3.5-4.3,5-6.5
			c7.6-11.2,12.1-24.8,12.1-39.3L142.3,36.8L142.3,36.8z M36.5,117.2l-2.1-0.1c0.1-0.4,0.2-0.7,0.1-1.1c-0.1-0.3-0.3-0.7-0.5-1
			c-0.3-0.4-0.7-0.6-1.1-0.7c-0.4-0.1-0.8,0.1-1,0.3c-0.5,0.4-0.5,1.3,0,2.6c0.1,0.2,0.2,0.4,0.2,0.6c0.4,1.1,0.5,2,0.4,2.8
			s-0.4,1.4-1,1.9c-0.8,0.8-1.8,1.1-2.8,1s-2-0.6-2.9-1.6c-0.6-0.7-1.1-1.4-1.3-2.1c-0.2-0.7-0.2-1.4,0-2l2.2-0.1
			c-0.2,0.4-0.3,0.9-0.2,1.4s0.3,0.9,0.6,1.3c0.4,0.4,0.8,0.7,1.3,0.8c0.5,0.1,0.8-0.1,1.2-0.4c0.4-0.4,0.4-1.2,0-2.5
			c-0.1-0.4-0.2-0.7-0.3-1c-0.3-1.2-0.4-2.1-0.3-2.7c0.1-0.7,0.4-1.2,1-1.7c0.7-0.7,1.6-0.9,2.6-0.8c1,0.1,2,0.7,2.8,1.6
			c0.5,0.5,0.8,1.1,1,1.7C36.6,115.9,36.6,116.5,36.5,117.2z M48.3,136.7l-2.8-1.4l2.7-5.4l-5.6-2.8l-2.7,5.4l-2.8-1.4l6.5-12.9
			l2.8,1.4l-2.6,5.2l5.6,2.8l2.6-5.2l2.8,1.4L48.3,136.7z M68.9,129.8l-5.4-0.6l-0.3,3l5.4,0.6l-0.3,2.6l-5.4-0.6l-0.4,3.6l5.4,0.6
			l-0.3,2.6l-8.5-1l1.7-14.4l8.5,1L68.9,129.8z M84.9,140.2l-4.9-6l1.1,6.7l-3.1,0.5l-2.4-14.3l4.4-0.7c1.7-0.3,3.1-0.2,4.1,0.3
			s1.6,1.5,1.8,2.8c0.2,1,0,1.9-0.5,2.7s-1.2,1.3-2.1,1.6l5,5.8L84.9,140.2z M102.6,126.3c-0.4,1.1-1.3,2.1-2.8,2.9l-0.8,0.4
			l2.6,4.9l-2.8,1.5l-6.9-12.8l3.1-1.7c1.7-0.9,3.1-1.2,4.2-1s2.1,1,2.8,2.3C102.9,124,103.1,125.2,102.6,126.3z M120.6,119.3
			l-2.6-1.1l-3.4,3.5l1.3,2.5l-2,2.1l-5.7-12.2l2.1-2.2l12.4,5.3L120.6,119.3z M130.2,63.3c0,32-26,58-58,58s-58-26-58-58V45.5l0,0
			v-7.1L33,30c0,0,0.9-0.4,2-0.5c1.1,0,2,0.3,2,0.3l13.2,4.4c0,0,0.7,0.3,1.5,0.1c0.7-0.1,1.2-0.5,1.2-0.5l10.7-8.2
			c0,0,1.3-0.9,2.7-1c1.7-0.2,2.8,0.4,2.8,0.4l3.8,1.6c0,0,0.5,0.3,1.2,0.2c0.8-0.1,1.4-0.6,1.4-0.6l8.7-6.6c0,0,1.8-1.2,3.7-1.2
			c1.9,0,3.1,1,3.1,1l13,9.5c0,0,0.5,0.5,1.5,0.5c0.7,0,1.4-0.4,1.4-0.4l4.3-2.3c0,0,1-0.5,2.6-0.5c1.5,0,2.7,0.7,2.7,0.7l13.6,7
			v11.5l0,0L130.2,63.3L130.2,63.3z"/>
	</g>
	<g>
		<polygon class="st2" points="49.5,85.5 49.6,86.1 48.5,85.6 48.5,85.6 46.5,84.5 44.5,85.6 44.5,85.6 43.5,86.1 43.6,85.5 
			44.1,82.7 41.6,80.3 45,79.8 45.8,78.2 46.5,76.7 47.3,78.2 48.1,79.8 51.5,80.3 49,82.7 		"/>
		<polygon class="st2" points="62.3,85.5 62.4,86.1 61.4,85.6 61.4,85.6 59.4,84.5 57.4,85.6 57.4,85.6 56.3,86.1 56.4,85.5 
			56.9,82.7 54.4,80.3 57.9,79.8 58.7,78.2 59.4,76.7 60.1,78.2 60.9,79.8 64.3,80.3 61.8,82.7 		"/>
		<polygon class="st2" points="75.2,85.5 75.3,86.1 74.2,85.6 74.2,85.6 72.2,84.5 70.2,85.6 70.2,85.6 69.2,86.1 69.3,85.5 
			69.8,82.7 67.3,80.3 70.7,79.8 71.5,78.2 72.2,76.7 73,78.2 73.8,79.8 77.2,80.3 74.7,82.7 		"/>
		<polygon class="st2" points="88,85.5 88.1,86.1 87.1,85.6 87.1,85.6 85.1,84.5 83.1,85.6 83.1,85.6 82,86.1 82.2,85.5 82.6,82.7 
			80.2,80.3 83.6,79.8 84.4,78.2 85.1,76.7 85.8,78.2 86.6,79.8 90,80.3 87.6,82.7 		"/>
		<polygon class="st2" points="100.9,85.5 101,86.1 100,85.6 100,85.6 98,84.5 96,85.6 96,85.6 94.9,86.1 95,85.5 95.5,82.7 
			93,80.3 96.4,79.8 97.2,78.2 98,76.7 98.7,78.2 99.5,79.8 102.9,80.3 100.4,82.7 		"/>
	</g>
</g>
</svg>
