<?xml version="1.0" encoding="utf-8"?>
<!-- Generator: Adobe Illustrator 24.2.3, SVG Export Plug-In . SVG Version: 6.00 Build 0)  -->
<svg version="1.1" id="Capa_1" xmlns="http://www.w3.org/2000/svg" xmlns:xlink="http://www.w3.org/1999/xlink" x="0px" y="0px"
	 viewBox="0 0 87.19 45.5" style="enable-background:new 0 0 87.19 45.5;" xml:space="preserve">
<style type="text/css">
	.st0{fill:#002856;}
	.st1{fill:#00A6CE;}
	.st2{fill:none;}
</style>
<g>
	<g>
		<path class="st0" d="M15.94,24.67h2.67v4.39h-2.67v4.16h-5.28v-4.16H0v-3.66L8.48,11.2h7.46V24.67z M10.66,24.67v-8.98l-5.18,8.98
			H10.66z"/>
		<path class="st0" d="M36.07,23.31c1.35,1.32,1.68,2.81,1.68,3.89c0,1.49-0.63,3-1.78,4.16c-0.76,0.76-2.74,2.34-6.67,2.34
			c-3.76,0-5.71-1.45-6.57-2.31c-1.19-1.19-1.81-2.77-1.81-4.19c0-1.45,0.69-3.04,1.62-3.96c0.69-0.69,1.81-1.32,2.77-1.62
			c-0.76-0.3-1.49-0.76-1.98-1.25c-0.69-0.69-1.49-1.82-1.49-3.5c0-1.65,0.73-3.14,1.82-4.16c1.35-1.25,3.47-2.01,5.88-2.01
			c2.38,0,4.39,0.79,5.68,2.11c0.83,0.82,1.62,2.14,1.62,4.03c0,1.58-0.59,2.67-1.35,3.43c-0.53,0.53-1.39,1.06-2.24,1.35
			C34.42,21.99,35.38,22.62,36.07,23.31z M27.49,24.7c-0.53,0.53-0.79,1.19-0.79,1.82c0,0.59,0.2,1.29,0.76,1.85
			c0.46,0.46,1.12,0.79,1.88,0.79c0.79,0,1.35-0.26,1.85-0.76c0.53-0.53,0.79-1.12,0.79-1.88c0-0.73-0.26-1.32-0.79-1.82
			c-0.59-0.56-1.29-0.76-1.85-0.76C28.71,23.94,28.02,24.2,27.49,24.7z M27.59,15.29c-0.43,0.46-0.66,1.09-0.66,1.68
			c0,0.56,0.3,1.16,0.69,1.58c0.5,0.53,1.16,0.73,1.75,0.73c0.5,0,1.09-0.13,1.62-0.66c0.5-0.5,0.76-1.12,0.76-1.68
			c0-0.59-0.26-1.29-0.76-1.75c-0.46-0.43-0.96-0.66-1.58-0.66C28.58,14.53,27.98,14.86,27.59,15.29z"/>
	</g>
	<g>
		<g>
			<path class="st1" d="M0.89,42.42c0.41,0.38,1.02,0.75,1.68,0.75c0.38,0,0.62-0.12,0.74-0.25c0.11-0.11,0.19-0.28,0.19-0.46
				c0-0.14-0.05-0.31-0.21-0.44c-0.19-0.17-0.47-0.24-0.95-0.38l-0.5-0.15c-0.31-0.1-0.76-0.26-1.06-0.59
				c-0.37-0.41-0.42-0.92-0.42-1.3c0-0.9,0.35-1.45,0.67-1.77c0.37-0.37,0.99-0.69,1.88-0.69c0.73,0,1.57,0.23,2.27,0.59l-0.76,1.49
				c-0.57-0.45-1-0.5-1.25-0.5c-0.19,0-0.44,0.04-0.63,0.22c-0.11,0.11-0.19,0.23-0.19,0.4c0,0.13,0.02,0.23,0.1,0.33
				c0.05,0.07,0.19,0.2,0.64,0.33l0.58,0.18c0.46,0.14,0.95,0.31,1.33,0.73c0.37,0.4,0.47,0.8,0.47,1.31c0,0.67-0.17,1.32-0.69,1.85
				c-0.63,0.63-1.39,0.75-2.17,0.75c-0.46,0-0.9-0.04-1.44-0.24c-0.12-0.04-0.58-0.22-1.11-0.58L0.89,42.42z"/>
		</g>
		<g>
			<path class="st1" d="M9.69,37.28v7.34h-1.9v-7.34H9.69z"/>
		</g>
		<g>
			<path class="st1" d="M12.33,44.62v-7.34h1.9l3.51,4.49v-4.49h1.9v7.34h-1.9l-3.51-4.49v4.49H12.33z"/>
		</g>
		<g>
			<path class="st1" d="M27.85,37.28v7.34h-1.9v-7.34H27.85z"/>
		</g>
		<g>
			<path class="st1" d="M30.49,44.62v-7.34h1.9l3.51,4.49v-4.49h1.9v7.34h-1.9l-3.51-4.49v4.49H30.49z"/>
		</g>
		<g>
			<path class="st1" d="M43.22,38.9v5.72h-1.9V38.9h-1.56v-1.62h5.03v1.62H43.22z"/>
		</g>
		<g>
			<path class="st1" d="M50.9,38.9h-2.27v1.22h2.15v1.62h-2.15V43h2.27v1.62h-4.17v-7.34h4.17V38.9z"/>
		</g>
		<g>
			<path class="st1" d="M56.18,37.28c0.55,0,1.25,0.09,1.79,0.65c0.42,0.43,0.63,1.07,0.63,1.65c0,0.63-0.22,1.18-0.58,1.53
				c-0.29,0.28-0.67,0.44-1.01,0.51l2.3,3h-2.37l-1.83-2.82v2.82h-1.9v-7.34H56.18z M55.11,40.57h0.36c0.29,0,0.69-0.08,0.92-0.3
				c0.14-0.14,0.24-0.38,0.24-0.62c0-0.22-0.09-0.46-0.25-0.62c-0.18-0.18-0.5-0.29-0.91-0.29h-0.36V40.57z"/>
		</g>
		<g>
			<path class="st1" d="M65.37,38.9h-2.27v1.22h2.15v1.62h-2.15V43h2.27v1.62H61.2v-7.34h4.17V38.9z"/>
		</g>
		<g>
			<path class="st1" d="M68.17,42.42c0.41,0.38,1.02,0.75,1.68,0.75c0.38,0,0.62-0.12,0.74-0.25c0.11-0.11,0.19-0.28,0.19-0.46
				c0-0.14-0.05-0.31-0.21-0.44c-0.19-0.17-0.47-0.24-0.95-0.38l-0.5-0.15c-0.31-0.1-0.76-0.26-1.06-0.59
				c-0.37-0.41-0.42-0.92-0.42-1.3c0-0.9,0.35-1.45,0.67-1.77c0.37-0.37,0.99-0.69,1.88-0.69c0.73,0,1.57,0.23,2.27,0.59l-0.76,1.49
				c-0.57-0.45-1-0.5-1.25-0.5c-0.19,0-0.44,0.04-0.63,0.22c-0.11,0.11-0.19,0.23-0.19,0.4c0,0.13,0.02,0.23,0.1,0.33
				c0.05,0.07,0.19,0.2,0.64,0.33l0.58,0.18c0.46,0.14,0.95,0.31,1.33,0.73c0.37,0.4,0.47,0.8,0.47,1.31c0,0.67-0.17,1.32-0.69,1.85
				c-0.63,0.63-1.39,0.75-2.17,0.75c-0.46,0-0.9-0.04-1.44-0.24c-0.12-0.04-0.58-0.22-1.11-0.58L68.17,42.42z"/>
		</g>
		<g>
			<path class="st1" d="M79.23,38.9h-2.27v1.22h2.15v1.62h-2.15V43h2.27v1.62h-4.17v-7.34h4.17V38.9z"/>
		</g>
		<g>
			<path class="st1" d="M82.03,42.42c0.41,0.38,1.02,0.75,1.68,0.75c0.38,0,0.62-0.12,0.74-0.25c0.11-0.11,0.19-0.28,0.19-0.46
				c0-0.14-0.05-0.31-0.21-0.44c-0.19-0.17-0.47-0.24-0.95-0.38l-0.5-0.15c-0.31-0.1-0.76-0.26-1.06-0.59
				c-0.37-0.41-0.42-0.92-0.42-1.3c0-0.9,0.35-1.45,0.67-1.77c0.37-0.37,0.99-0.69,1.88-0.69c0.73,0,1.57,0.23,2.27,0.59l-0.76,1.49
				c-0.57-0.45-1-0.5-1.25-0.5c-0.19,0-0.44,0.04-0.63,0.22c-0.11,0.11-0.19,0.23-0.19,0.4c0,0.13,0.02,0.23,0.1,0.33
				c0.05,0.07,0.19,0.2,0.64,0.33l0.58,0.18c0.46,0.14,0.95,0.31,1.33,0.73c0.37,0.4,0.47,0.8,0.47,1.31c0,0.67-0.17,1.32-0.69,1.85
				c-0.63,0.63-1.39,0.75-2.17,0.75c-0.46,0-0.9-0.04-1.44-0.24c-0.12-0.04-0.58-0.22-1.11-0.58L82.03,42.42z"/>
		</g>
	</g>
	<g>
		<path class="st0" d="M41.17,33.53l2.24-11.48l3.71,8.29l3.75-8.29l2.02,11.48h-1.67l-1.09-6.43l-3.1,6.93l-3.07-6.95l-1.12,6.45
			H41.17z"/>
		<path class="st0" d="M61.41,24.39h-4.26v2.71h4.13v1.54h-4.13v3.36h4.26v1.54h-5.89V22.85h5.89V24.39z"/>
		<path class="st0" d="M68.53,25.22c-0.1-0.24-0.24-0.46-0.48-0.67c-0.34-0.27-0.69-0.38-1.15-0.38c-0.99,0-1.5,0.59-1.5,1.28
			c0,0.32,0.11,0.88,1.15,1.3l1.07,0.43c1.97,0.8,2.51,1.92,2.51,3.14c0,2.03-1.44,3.43-3.44,3.43c-1.23,0-1.97-0.46-2.51-1.07
			c-0.58-0.64-0.83-1.34-0.9-2.08l1.62-0.35c0,0.53,0.19,1.02,0.45,1.36c0.3,0.38,0.75,0.64,1.39,0.64c0.99,0,1.76-0.72,1.76-1.79
			c0-1.09-0.83-1.54-1.54-1.83l-1.02-0.43c-0.88-0.37-2.18-1.1-2.18-2.71c0-1.44,1.12-2.82,3.12-2.82c1.15,0,1.81,0.43,2.15,0.72
			c0.29,0.26,0.59,0.63,0.82,1.07L68.53,25.22z"/>
		<path class="st0" d="M78.47,24.39h-4.26v2.71h4.13v1.54h-4.13v3.36h4.26v1.54h-5.89V22.85h5.89V24.39z"/>
		<path class="st0" d="M85.58,25.22c-0.1-0.24-0.24-0.46-0.48-0.67c-0.34-0.27-0.69-0.38-1.15-0.38c-0.99,0-1.5,0.59-1.5,1.28
			c0,0.32,0.11,0.88,1.15,1.3l1.07,0.43c1.97,0.8,2.51,1.92,2.51,3.14c0,2.03-1.44,3.43-3.44,3.43c-1.23,0-1.97-0.46-2.51-1.07
			c-0.58-0.64-0.83-1.34-0.9-2.08l1.62-0.35c0,0.53,0.19,1.02,0.45,1.36c0.3,0.38,0.75,0.64,1.39,0.64c0.99,0,1.76-0.72,1.76-1.79
			c0-1.09-0.83-1.54-1.54-1.83l-1.02-0.43c-0.88-0.37-2.18-1.1-2.18-2.71c0-1.44,1.12-2.82,3.12-2.82c1.15,0,1.81,0.43,2.15,0.72
			c0.29,0.26,0.59,0.63,0.82,1.07L85.58,25.22z"/>
	</g>
	<g>
		<path class="st0" d="M2.31,2.9h2.75V0.17h1.91V7.5H5.06V4.53H2.31V7.5h-1.9V0.17h1.9V2.9z"/>
		<path class="st0" d="M13.78,6.27h-2.66l-0.5,1.23H8.61l2.82-7.34h2.08l2.76,7.34h-2.04L13.78,6.27z M13.28,4.82l-0.83-2.38
			l-0.8,2.38H13.28z"/>
		<path class="st0" d="M18.12,5.3c0.41,0.38,1.02,0.75,1.68,0.75c0.38,0,0.62-0.12,0.74-0.25c0.11-0.11,0.19-0.28,0.19-0.46
			c0-0.14-0.05-0.31-0.21-0.44c-0.19-0.17-0.47-0.24-0.95-0.38l-0.5-0.15c-0.31-0.1-0.76-0.26-1.06-0.59
			c-0.37-0.41-0.42-0.92-0.42-1.3c0-0.9,0.35-1.45,0.67-1.77C18.65,0.32,19.26,0,20.15,0c0.73,0,1.57,0.23,2.27,0.59l-0.76,1.49
			c-0.57-0.45-1-0.5-1.25-0.5c-0.19,0-0.44,0.04-0.63,0.22c-0.11,0.11-0.19,0.23-0.19,0.4c0,0.13,0.02,0.23,0.1,0.33
			c0.05,0.07,0.19,0.2,0.64,0.33l0.58,0.18c0.46,0.14,0.95,0.31,1.33,0.73c0.37,0.4,0.47,0.8,0.47,1.31c0,0.67-0.17,1.32-0.69,1.85
			c-0.63,0.63-1.39,0.75-2.17,0.75c-0.46,0-0.9-0.04-1.44-0.24c-0.12-0.04-0.58-0.22-1.11-0.58L18.12,5.3z"/>
		<path class="st0" d="M27.48,1.78V7.5h-1.9V1.78h-1.56V0.17h5.03v1.62H27.48z"/>
		<path class="st0" d="M34.83,6.27h-2.66l-0.5,1.23h-2.01l2.82-7.34h2.08l2.76,7.34h-2.04L34.83,6.27z M34.32,4.82L33.5,2.44
			l-0.8,2.38H34.32z"/>
	</g>
	<rect class="st2" width="87.19" height="44.8"/>
</g>
</svg>
