<?xml version="1.0" encoding="utf-8"?>
<!-- Generator: Adobe Illustrator 24.3.0, SVG Export Plug-In . SVG Version: 6.00 Build 0)  -->
<svg version="1.1" id="Capa_1" xmlns="http://www.w3.org/2000/svg" xmlns:xlink="http://www.w3.org/1999/xlink" x="0px" y="0px"
	 viewBox="0 0 87.2 45.5" style="enable-background:new 0 0 87.2 45.5;" xml:space="preserve">
<style type="text/css">
	.st0{fill:#FFFFFF;}
	.st1{fill:#00A6CE;}
	.st2{fill:none;}
</style>
<g>
	<g>
		<path class="st0" d="M15.9,24.7h2.7v4.4h-2.7v4.2h-5.3v-4.2H0v-3.7l8.5-14.2h7.5V24.7z M10.7,24.7v-9l-5.2,9H10.7z"/>
		<path class="st0" d="M36.1,23.3c1.3,1.3,1.7,2.8,1.7,3.9c0,1.5-0.6,3-1.8,4.2c-0.8,0.8-2.7,2.3-6.7,2.3c-3.8,0-5.7-1.5-6.6-2.3
			c-1.2-1.2-1.8-2.8-1.8-4.2c0-1.5,0.7-3,1.6-4c0.7-0.7,1.8-1.3,2.8-1.6c-0.8-0.3-1.5-0.8-2-1.2c-0.7-0.7-1.5-1.8-1.5-3.5
			c0-1.6,0.7-3.1,1.8-4.2c1.4-1.2,3.5-2,5.9-2c2.4,0,4.4,0.8,5.7,2.1c0.8,0.8,1.6,2.1,1.6,4c0,1.6-0.6,2.7-1.3,3.4
			c-0.5,0.5-1.4,1.1-2.2,1.4C34.4,22,35.4,22.6,36.1,23.3z M27.5,24.7c-0.5,0.5-0.8,1.2-0.8,1.8c0,0.6,0.2,1.3,0.8,1.9
			c0.5,0.5,1.1,0.8,1.9,0.8c0.8,0,1.4-0.3,1.9-0.8c0.5-0.5,0.8-1.1,0.8-1.9c0-0.7-0.3-1.3-0.8-1.8c-0.6-0.6-1.3-0.8-1.9-0.8
			C28.7,23.9,28,24.2,27.5,24.7z M27.6,15.3c-0.4,0.5-0.7,1.1-0.7,1.7c0,0.6,0.3,1.2,0.7,1.6c0.5,0.5,1.2,0.7,1.8,0.7
			c0.5,0,1.1-0.1,1.6-0.7c0.5-0.5,0.8-1.1,0.8-1.7c0-0.6-0.3-1.3-0.8-1.8c-0.5-0.4-1-0.7-1.6-0.7C28.6,14.5,28,14.9,27.6,15.3z"/>
	</g>
	<g>
		<g>
			<path class="st1" d="M0.9,42.4c0.4,0.4,1,0.8,1.7,0.8c0.4,0,0.6-0.1,0.7-0.2c0.1-0.1,0.2-0.3,0.2-0.5c0-0.1,0-0.3-0.2-0.4
				c-0.2-0.2-0.5-0.2-1-0.4l-0.5-0.2c-0.3-0.1-0.8-0.3-1.1-0.6c-0.4-0.4-0.4-0.9-0.4-1.3c0-0.9,0.3-1.5,0.7-1.8
				c0.4-0.4,1-0.7,1.9-0.7c0.7,0,1.6,0.2,2.3,0.6l-0.8,1.5c-0.6-0.5-1-0.5-1.2-0.5c-0.2,0-0.4,0-0.6,0.2c-0.1,0.1-0.2,0.2-0.2,0.4
				c0,0.1,0,0.2,0.1,0.3c0,0.1,0.2,0.2,0.6,0.3l0.6,0.2c0.5,0.1,0.9,0.3,1.3,0.7c0.4,0.4,0.5,0.8,0.5,1.3c0,0.7-0.2,1.3-0.7,1.8
				c-0.6,0.6-1.4,0.8-2.2,0.8c-0.5,0-0.9,0-1.4-0.2c-0.1,0-0.6-0.2-1.1-0.6L0.9,42.4z"/>
		</g>
		<g>
			<path class="st1" d="M9.7,37.3v7.3H7.8v-7.3H9.7z"/>
		</g>
		<g>
			<path class="st1" d="M12.3,44.6v-7.3h1.9l3.5,4.5v-4.5h1.9v7.3h-1.9l-3.5-4.5v4.5C14.2,44.6,12.3,44.6,12.3,44.6z"/>
		</g>
		<g>
			<path class="st1" d="M27.9,37.3v7.3H26v-7.3H27.9z"/>
		</g>
		<g>
			<path class="st1" d="M30.5,44.6v-7.3h1.9l3.5,4.5v-4.5h1.9v7.3h-1.9l-3.5-4.5v4.5C32.4,44.6,30.5,44.6,30.5,44.6z"/>
		</g>
		<g>
			<path class="st1" d="M43.2,38.9v5.7h-1.9v-5.7h-1.6v-1.6h5v1.6H43.2z"/>
		</g>
		<g>
			<path class="st1" d="M50.9,38.9h-2.3v1.2h2.2v1.6h-2.2V43h2.3v1.6h-4.2v-7.3h4.2V38.9z"/>
		</g>
		<g>
			<path class="st1" d="M56.2,37.3c0.5,0,1.2,0.1,1.8,0.7c0.4,0.4,0.6,1.1,0.6,1.7c0,0.6-0.2,1.2-0.6,1.5c-0.3,0.3-0.7,0.4-1,0.5
				l2.3,3h-2.4l-1.8-2.8v2.8h-1.9v-7.3H56.2z M55.1,40.6h0.4c0.3,0,0.7-0.1,0.9-0.3c0.1-0.1,0.2-0.4,0.2-0.6c0-0.2-0.1-0.5-0.2-0.6
				c-0.2-0.2-0.5-0.3-0.9-0.3h-0.4V40.6z"/>
		</g>
		<g>
			<path class="st1" d="M65.4,38.9h-2.3v1.2h2.1v1.6h-2.2V43h2.3v1.6h-4.2v-7.3h4.2V38.9z"/>
		</g>
		<g>
			<path class="st1" d="M68.2,42.4c0.4,0.4,1,0.8,1.7,0.8c0.4,0,0.6-0.1,0.7-0.2c0.1-0.1,0.2-0.3,0.2-0.5c0-0.1-0.1-0.3-0.2-0.4
				c-0.2-0.2-0.5-0.2-0.9-0.4l-0.5-0.2c-0.3-0.1-0.8-0.3-1.1-0.6c-0.4-0.4-0.4-0.9-0.4-1.3c0-0.9,0.3-1.5,0.7-1.8
				c0.4-0.4,1-0.7,1.9-0.7c0.7,0,1.6,0.2,2.3,0.6l-0.8,1.5c-0.6-0.5-1-0.5-1.2-0.5c-0.2,0-0.4,0-0.6,0.2c-0.1,0.1-0.2,0.2-0.2,0.4
				c0,0.1,0,0.2,0.1,0.3c0.1,0.1,0.2,0.2,0.6,0.3l0.6,0.2c0.5,0.1,0.9,0.3,1.3,0.7c0.4,0.4,0.5,0.8,0.5,1.3c0,0.7-0.2,1.3-0.7,1.8
				c-0.6,0.6-1.4,0.8-2.2,0.8c-0.5,0-0.9,0-1.4-0.2c-0.1,0-0.6-0.2-1.1-0.6L68.2,42.4z"/>
		</g>
		<g>
			<path class="st1" d="M79.2,38.9H77v1.2h2.2v1.6H77V43h2.3v1.6h-4.2v-7.3h4.2V38.9z"/>
		</g>
		<g>
			<path class="st1" d="M82,42.4c0.4,0.4,1,0.8,1.7,0.8c0.4,0,0.6-0.1,0.7-0.2c0.1-0.1,0.2-0.3,0.2-0.5c0-0.1-0.1-0.3-0.2-0.4
				c-0.2-0.2-0.5-0.2-0.9-0.4L83,41.5c-0.3-0.1-0.8-0.3-1.1-0.6c-0.4-0.4-0.4-0.9-0.4-1.3c0-0.9,0.3-1.5,0.7-1.8
				c0.4-0.4,1-0.7,1.9-0.7c0.7,0,1.6,0.2,2.3,0.6l-0.8,1.5c-0.6-0.5-1-0.5-1.2-0.5c-0.2,0-0.4,0-0.6,0.2c-0.1,0.1-0.2,0.2-0.2,0.4
				c0,0.1,0,0.2,0.1,0.3c0.1,0.1,0.2,0.2,0.6,0.3l0.6,0.2c0.5,0.1,0.9,0.3,1.3,0.7c0.4,0.4,0.5,0.8,0.5,1.3c0,0.7-0.2,1.3-0.7,1.8
				c-0.6,0.6-1.4,0.8-2.2,0.8c-0.5,0-0.9,0-1.4-0.2c-0.1,0-0.6-0.2-1.1-0.6L82,42.4z"/>
		</g>
	</g>
	<g>
		<path class="st0" d="M41.2,33.5L43.4,22l3.7,8.3l3.8-8.3l2,11.5h-1.7l-1.1-6.4L47,34l-3.1-7l-1.1,6.5H41.2z"/>
		<path class="st0" d="M61.4,24.4h-4.3v2.7h4.1v1.5h-4.1V32h4.3v1.5h-5.9V22.9h5.9C61.4,22.9,61.4,24.4,61.4,24.4z"/>
		<path class="st0" d="M68.5,25.2c-0.1-0.2-0.2-0.5-0.5-0.7c-0.3-0.3-0.7-0.4-1.2-0.4c-1,0-1.5,0.6-1.5,1.3c0,0.3,0.1,0.9,1.2,1.3
			l1.1,0.4c2,0.8,2.5,1.9,2.5,3.1c0,2-1.4,3.4-3.4,3.4c-1.2,0-2-0.5-2.5-1.1c-0.6-0.6-0.8-1.3-0.9-2.1l1.6-0.4c0,0.5,0.2,1,0.4,1.4
			c0.3,0.4,0.8,0.6,1.4,0.6c1,0,1.8-0.7,1.8-1.8c0-1.1-0.8-1.5-1.5-1.8l-1-0.4c-0.9-0.4-2.2-1.1-2.2-2.7c0-1.4,1.1-2.8,3.1-2.8
			c1.2,0,1.8,0.4,2.2,0.7c0.3,0.3,0.6,0.6,0.8,1.1L68.5,25.2z"/>
		<path class="st0" d="M78.5,24.4h-4.3v2.7h4.1v1.5h-4.1V32h4.3v1.5h-5.9V22.9h5.9V24.4z"/>
		<path class="st0" d="M85.6,25.2c-0.1-0.2-0.2-0.5-0.5-0.7c-0.3-0.3-0.7-0.4-1.2-0.4c-1,0-1.5,0.6-1.5,1.3c0,0.3,0.1,0.9,1.2,1.3
			l1.1,0.4c2,0.8,2.5,1.9,2.5,3.1c0,2-1.4,3.4-3.4,3.4c-1.2,0-2-0.5-2.5-1.1c-0.6-0.6-0.8-1.3-0.9-2.1l1.6-0.4c0,0.5,0.2,1,0.4,1.4
			c0.3,0.4,0.8,0.6,1.4,0.6c1,0,1.8-0.7,1.8-1.8c0-1.1-0.8-1.5-1.5-1.8l-1-0.4c-0.9-0.4-2.2-1.1-2.2-2.7c0-1.4,1.1-2.8,3.1-2.8
			c1.2,0,1.8,0.4,2.2,0.7c0.3,0.3,0.6,0.6,0.8,1.1L85.6,25.2z"/>
	</g>
	<g>
		<path class="st0" d="M2.3,2.9h2.8V0.2H7v7.3H5.1v-3H2.3v3H0.4V0.2h1.9V2.9z"/>
		<path class="st0" d="M13.8,6.3h-2.7l-0.5,1.2h-2l2.8-7.3h2.1l2.8,7.3h-2L13.8,6.3z M13.3,4.8l-0.8-2.4l-0.8,2.4H13.3z"/>
		<path class="st0" d="M18.1,5.3c0.4,0.4,1,0.8,1.7,0.8c0.4,0,0.6-0.1,0.7-0.2c0.1-0.1,0.2-0.3,0.2-0.5c0-0.1,0-0.3-0.2-0.4
			c-0.2-0.2-0.5-0.2-1-0.4l-0.5-0.2c-0.3-0.1-0.8-0.3-1.1-0.6c-0.4-0.4-0.4-0.9-0.4-1.3c0-0.9,0.4-1.5,0.7-1.8
			c0.4-0.4,1-0.7,1.9-0.7c0.7,0,1.6,0.2,2.3,0.6l-0.8,1.5c-0.6-0.5-1-0.5-1.2-0.5c-0.2,0-0.4,0-0.6,0.2c-0.1,0.1-0.2,0.2-0.2,0.4
			c0,0.1,0,0.2,0.1,0.3c0,0.1,0.2,0.2,0.6,0.3L20.9,3c0.5,0.1,1,0.3,1.3,0.7c0.4,0.4,0.5,0.8,0.5,1.3c0,0.7-0.2,1.3-0.7,1.8
			c-0.6,0.6-1.4,0.8-2.2,0.8c-0.5,0-0.9,0-1.4-0.2c-0.1,0-0.6-0.2-1.1-0.6L18.1,5.3z"/>
		<path class="st0" d="M27.5,1.8v5.7h-1.9V1.8H24V0.2h5v1.6L27.5,1.8L27.5,1.8z"/>
		<path class="st0" d="M34.8,6.3h-2.7l-0.5,1.2h-2l2.8-7.3h2.1l2.8,7.3h-2L34.8,6.3z M34.3,4.8l-0.8-2.4l-0.8,2.4H34.3z"/>
	</g>
	<rect class="st2" width="87.2" height="44.8"/>
</g>
</svg>
