<?xml version="1.0" encoding="utf-8"?>
<!-- Generator: Adobe Illustrator 24.3.0, SVG Export Plug-In . SVG Version: 6.00 Build 0)  -->
<svg version="1.1" id="Capa_1" xmlns="http://www.w3.org/2000/svg" xmlns:xlink="http://www.w3.org/1999/xlink" x="0px" y="0px"
	 viewBox="0 0 1014 394" style="enable-background:new 0 0 1014 394;" xml:space="preserve">
<style type="text/css">
	.st0{fill-rule:evenodd;clip-rule:evenodd;fill:#6B4B31;}
	.st1{fill-rule:evenodd;clip-rule:evenodd;fill:#4D78A7;}
	.st2{fill-rule:evenodd;clip-rule:evenodd;fill:#304F8A;}
	.st3{fill-rule:evenodd;clip-rule:evenodd;fill:#778641;}
	.st4{fill-rule:evenodd;clip-rule:evenodd;fill:#FFB259;}
	.st5{fill-rule:evenodd;clip-rule:evenodd;fill:#5CBBA2;}
	.st6{fill-rule:evenodd;clip-rule:evenodd;fill:#E4361F;}
	.st7{fill:#6B4B31;}
	.st8{fill:none;stroke:#020203;stroke-width:0.5;stroke-linecap:round;stroke-linejoin:round;stroke-miterlimit:10;}
	.st9{fill:#FFFFFF;}
	.st10{fill:#2D2A4C;}
	.st11{fill:none;stroke:#9D9D9C;stroke-width:6;stroke-miterlimit:10;}
	.st12{fill:#282D53;}
</style>
<polygon class="st0" points="147,256.9 143.4,254.9 139.9,252.7 136.7,250.1 133.8,247.3 131.1,244.2 128.7,240.9 126.6,237.4 
	124.9,233.7 123.5,229.9 122.4,225.9 121.7,221.9 121.4,217.8 121.4,213.7 121.9,209.7 122.7,205.6 123.8,201.7 125.3,197.9 
	127.2,194.3 129.3,190.8 131.8,187.6 134.6,184.5 137.6,181.8 140.8,179.3 145.9,176 151.2,172.9 156.5,170 162.1,167.4 
	167.7,165.1 175,257.4 175.7,266.7 169.8,265.2 164,263.5 158.2,261.6 152.5,259.3 "/>
<polygon class="st0" points="862.9,223.4 874.1,225.3 885.3,226.8 886.2,237.6 864.2,239.3 "/>
<polygon class="st0" points="394,196 453.4,115 460.3,114.3 461.1,114.3 461.9,114.7 462.4,115.4 462.7,116.2 462.7,117 
	462.3,117.8 401.2,201 401.2,201.1 381.6,229.8 369.5,231.9 "/>
<polygon class="st0" points="502.8,147.7 444.5,233.2 437.9,233.5 437.1,233.4 436.4,233 435.9,232.3 435.6,231.6 435.6,230.8 
	436,230 495.5,142.7 495.6,142.6 511.1,121.1 521.7,121.4 "/>
<polygon class="st0" points="558.4,55.1 580.7,24.1 639.7,19.4 642,48.5 "/>
<polygon class="st0" points="809.7,132.2 862.7,132.7 862.3,176.8 861.9,210.7 861.9,210.7 860,209.1 850,206.9 840.1,204.4 
	830.4,201.6 820.7,198.5 811.1,195.1 811.2,194.8 809.1,194.1 "/>
<polygon class="st0" points="737.2,155.4 737.2,155.4 737.6,156.3 737.8,157.3 737.6,158.3 737.2,159.2 736.6,160 734.9,161.9 
	733.5,164 732.5,166.2 731.8,168.7 731.5,171.1 731.6,173.7 732.1,176.1 732.9,178.5 734.1,180.7 735.6,182.7 737.4,184.4 
	739.5,185.9 740.1,186.4 740.5,187.1 740.6,187.8 740.4,188.6 739,191.7 737.3,194.7 734.7,193.3 732.3,191.6 730,189.6 
	728.1,187.4 726.4,185 725,182.4 723.9,179.7 723.2,176.8 722.7,173.9 722.7,170.9 723,168 723.6,165.1 724.6,162.3 725.8,159.6 
	727.4,157.1 729.3,154.8 731.4,152.8 733.8,151 735.6,153.1 "/>
<polygon class="st1" points="216.7,144.6 216.7,144.6 207.4,146.1 198,147.4 191.3,148.4 184.7,149.7 178.2,151.3 171.7,153.2 
	165.4,155.5 159.1,158 158.3,157.6 157.9,157.5 157.5,157.5 154.3,159 146.3,58.5 309.2,45.6 315.6,126.7 315.7,127.8 "/>
<polygon class="st1" points="22.5,212.1 111.7,220.6 112.3,224.9 113.1,229.2 114.3,233.4 115.8,237.5 117.7,241.4 119.8,245.2 
	122.3,248.8 125,252.2 128,255.3 131.2,258.3 134.6,260.9 138.3,263.3 142.1,265.4 150.9,376.9 5.7,388.4 "/>
<polygon class="st1" points="343.1,361.7 402.8,278.7 402.8,278.6 426,244.7 426.4,244.2 427,243.9 427.7,243.8 432.7,243.5 
	551.3,238.4 551.4,239.5 559.7,344.5 "/>
<polygon class="st1" points="699,218.8 692.9,220.5 686.7,221.8 680.5,222.8 674.2,223.4 667.9,223.6 444.5,233.2 502.8,147.7 
	521.7,121.4 522.7,121.4 534.3,122.1 545.8,123.1 557.3,124.4 568.8,126 634.5,136.2 646.2,137.9 658,139.3 669.8,140.3 
	681.7,141.1 687.1,141.5 692.5,142.2 697.9,143.3 703.2,144.6 708.4,146.2 713.6,148.2 718.6,150.4 721,151.7 723.3,153.3 
	725.5,155.1 727.4,157.1 725.8,159.6 724.6,162.3 723.6,165.1 723,168 722.7,170.9 722.7,173.9 723.2,176.8 723.9,179.7 725,182.4 
	726.4,185 728.1,187.4 730,189.6 732.3,191.6 734.7,193.3 737.3,194.7 735.2,197.6 732.8,200.3 730.2,202.8 727.3,205 722,208.4 
	716.5,211.5 710.8,214.3 705,216.7 "/>
<polygon class="st1" points="637.5,117.9 571.7,107.6 560.8,106.1 550,104.8 539.1,103.8 528.2,103 527.4,102.9 526.7,102.4 
	526.3,101.8 526.1,101 526.1,100.3 526.5,99.6 558.4,55.1 642,48.5 639.7,19.4 652.4,18.4 776.6,8.6 694.9,122.6 694.1,123.6 
	688.4,122.9 682.6,122.5 671.3,121.8 660,120.7 648.7,119.5 "/>
<polygon class="st1" points="282.5,144.5 286,143.9 286.4,143.8 286.6,143.5 287.1,142.6 432.8,117.9 442.5,116.4 452.2,115.1 
	453.4,115 394,196 369.5,231.9 369.5,231.9 368.6,232 299.5,244.7 "/>
<polygon class="st2" points="175,257.4 167.7,165.1 173.8,162.9 180,161 186.4,159.4 192.8,158.1 199.2,157.1 208.8,155.8 
	218.3,154.3 282.3,143.4 299.5,244.7 253.9,253 242.8,255.2 231.8,257.6 225.6,258.9 219.3,259.9 213,260.5 206.6,260.8 
	200.2,260.8 193.9,260.5 187.5,259.8 181.2,258.8 "/>
<polygon class="st2" points="36.3,67.2 22.5,212.1 111.7,220.6 111.6,216.3 111.7,212 112.3,207.7 113.1,203.5 114.3,199.3 
	115.8,195.2 117.6,191.3 119.7,187.6 122.2,184 124.8,180.6 127.8,177.4 131,174.5 134.4,171.9 135.3,171.2 141.4,167.2 
	147.8,163.5 154.4,160.2 146.3,58.5 "/>
<polygon class="st2" points="309.2,45.6 527.4,28.3 504.6,60.1 504.6,60.1 473.5,102.6 473,103 472.4,103.3 471.8,103.4 
	461.8,104.3 451.8,105.3 441.8,106.6 431.8,108.1 320.5,127 319.8,126.3 319.5,126.1 319.1,126.1 315.6,126.7 "/>
<polygon class="st2" points="150.9,376.9 142.2,266.6 145.4,268.1 145.8,268.2 146.2,268.1 147.1,267.6 153.5,270.3 160.1,272.6 
	166.8,274.6 173.6,276.2 180.5,277.6 187.4,278.5 194.4,279.2 201.4,279.4 208.4,279.4 215.4,279 222.3,278.2 229.2,277.1 
	236.1,275.7 245.5,273.6 254.9,271.8 361.8,252.2 362.7,252.2 363.4,252.6 364,253.2 364.4,254 364.4,254.8 364,255.6 304.9,342.4 
	304.9,342.5 288.5,366 "/>
<polygon class="st2" points="862.9,223.4 864.2,239.3 866.2,265 641.1,282.9 645.5,337.7 559.7,344.5 551.4,239.5 554.9,239.4 
	555.3,239.3 555.6,239 556.1,238.2 668.2,233.4 674.4,233.2 680.7,232.7 686.9,231.8 693,230.5 699.1,229 705,227.1 710.9,224.9 
	716.6,222.4 722.2,219.6 727.6,216.5 732.9,213 735.9,210.8 738.8,208.2 741.4,205.5 743.8,202.5 745.9,199.3 747.8,196 
	749.4,192.6 750.7,189 751,188.3 751.5,187.8 752.2,187.5 754.4,186.7 756.5,185.6 757.2,185.3 758,185.3 758.8,185.5 767.9,190.5 
	777.1,195.2 786.5,199.5 796,203.6 797.6,205.6 801.7,207.2 801.6,207.5 805.8,209.1 805.9,208.8 815.9,212.4 826.1,215.7 
	836.4,218.6 846.7,221.2 857.1,223.5 859.5,222.7 "/>
<polygon class="st2" points="776.6,8.6 829.4,4.4 863.1,86.8 862.7,132.7 809.7,132.2 809.1,194.1 807,193.3 806.9,193.5 
	802.8,191.9 800.4,192.2 791.4,188.3 782.5,184.2 773.7,179.8 765.1,175.1 764.5,174.6 764.1,173.8 764,173 764,171.1 763.8,169.2 
	763.4,167.3 762.8,165.6 761.6,163.4 760.2,161.4 758.5,159.6 756.5,158.2 754.4,157 752.1,156.2 749.6,155.7 748.9,155.5 
	748.3,155.1 747.9,154.5 746.1,151.2 744,148 741.6,145 739,142.2 736.2,139.7 733.1,137.4 729.9,135.3 726.6,133.6 721.5,131.3 
	716.2,129.2 710.9,127.5 705.6,125.9 700.1,124.7 699.1,123.2 698.8,122.9 698.4,122.8 694.9,122.6 "/>
<polygon class="st3" points="521.6,53.4 532.5,38.1 532.9,37.4 532.9,36.5 532.6,35.7 532.1,35.1 530.6,34 530.4,33.8 530.5,33.6 
	530.6,33.4 531.1,32.8 531.8,32.5 532.5,32.3 564.6,29.8 565.6,29.9 566.4,30.3 567,31 567.3,31.9 567.3,32.9 566.9,33.8 
	565.5,35.7 565.1,35.7 563.6,34.7 562.8,34.3 562,34.3 561.2,34.6 560.5,35.2 538.6,65.7 "/>
<polygon class="st3" points="385.6,233.9 386.9,231.9 387.1,231.8 387.3,231.9 388.8,232.9 389.5,233.2 390.3,233.3 390.9,233.1 
	391.4,232.8 391.9,232.3 406,211.5 406.3,210.9 406.4,210.3 406.3,209.7 406,209 405.5,208.4 404,207.4 403.8,207.2 403.9,207 
	404.3,206.3 405.7,204.3 405.8,204.2 407.7,201.6 407.9,201.5 408.1,201.6 408.6,201.9 409.6,202.6 410.2,203 411,203.1 
	411.6,202.9 412.2,202.6 412.6,202.2 432.8,174.7 433.4,177 434.3,179.3 435.5,181.4 437,183.3 438.7,184.9 440.7,186.3 
	442.8,187.4 445.1,188.2 447.5,188.6 449.9,188.7 452.3,188.5 426.4,226.5 426.1,227.1 426,227.7 426.1,228.3 426.4,229 427,229.6 
	428.5,230.6 428.6,230.8 428.6,231 427.3,232.9 426.7,233.5 426.1,233.9 425.3,234 422.1,234.2 411.9,235 409.2,235.3 406.8,235.5 
	397.7,236.5 388,237.8 387.2,237.8 386.4,237.5 385.8,237 385.3,236.3 385.1,235.5 385.2,234.6 "/>
<polygon class="st3" points="447.1,155.3 472.4,120.6 472.7,120.1 472.9,119.4 472.8,118.8 472.5,118.1 472,117.6 470.5,116.5 
	470.4,116.3 470.4,116.1 471.9,114.1 472.4,113.6 473,113.3 473.8,113.1 477.1,112.9 487.1,112.4 487.3,112.4 488.9,112.4 
	496.4,112.2 505.7,112.2 506.2,112.2 507,112.5 507.6,113 508,113.8 508.2,114.6 508.1,115.4 507.7,116.1 506.4,118 506.2,118.2 
	505.9,118.1 504.5,117.1 503.8,116.7 503,116.6 502.4,116.8 501.8,117.1 501.4,117.6 490.8,132.3 490.5,132.9 490.4,133.5 
	490.4,134.2 490.8,134.9 491.3,135.4 492.8,136.5 492.9,136.7 492.8,136.9 492.4,137.4 491,139.4 490.9,139.5 489.1,142.2 
	488.9,142.3 488.7,142.2 488.1,141.8 487.3,141.2 486.6,140.9 485.8,140.8 485.2,141 484.6,141.3 484.2,141.8 465.9,168.6 
	465.2,166.1 464.2,163.8 462.8,161.7 461.1,159.8 459.1,158.2 456.9,156.9 454.6,155.9 452.1,155.3 449.6,155.1 "/>
<polygon class="st3" points="483.2,98.7 484.7,96.6 486.5,97.8 487.1,98.2 487.9,98.2 488.5,98.1 489.1,97.8 489.5,97.3 509.2,70.6 
	509.5,70 509.6,69.4 509.5,68.8 509.2,68 508.7,67.5 507.2,66.4 507.1,66.2 507.2,66 507.5,65.5 509,63.4 509.1,63.4 510.9,60.8 
	511.1,60.7 511.4,60.7 511.9,61.1 512.8,61.8 513.5,62.1 514.3,62.2 514.9,62.1 515.5,61.7 515.9,61.3 521.6,53.4 538.6,65.7 
	517.6,95 517.3,95.6 517.2,96.2 517.2,96.9 517.5,97.6 518.1,98.1 519.5,99.2 519.7,99.4 519.6,99.6 518.2,101.5 517.7,102 
	517,102.4 516.2,102.5 513.2,102.5 503.5,102.3 500.1,102.4 497.3,102.4 494.7,102.4 485.3,102.7 484.7,102.6 483.9,102.3 
	483.3,101.8 482.9,101.1 482.7,100.3 482.8,99.4 "/>
<polygon class="st3" points="432.9,174.5 433.3,173.8 433.4,173 433.3,172.6 433.4,170.2 433.9,167.8 434.6,165.5 435.8,163.4 
	437.2,161.5 438.9,159.8 440.8,158.3 443,157.2 445.2,156.4 445.7,156.3 446.4,156 446.9,155.4 447.1,155.3 449.1,155.1 
	451.2,155.2 453.3,155.5 455.3,156.2 457.3,157 459.1,158.2 460.8,159.6 462.3,161.1 463.6,162.8 464.6,164.6 465.4,166.6 
	465.9,168.6 465.8,168.8 465.5,169.4 465.4,170.1 465.4,170.3 465.4,170.7 465.4,173.1 465.1,175.5 464.4,177.8 463.3,180 
	462,181.9 460.3,183.7 458.4,185.2 456.3,186.4 454.1,187.3 453.7,187.4 453,187.7 452.5,188.3 452.3,188.5 450.3,188.7 
	448.2,188.7 446.1,188.4 444.1,187.9 441.8,186.9 439.7,185.7 437.8,184.1 436.1,182.3 434.9,180.5 434,178.7 433.3,176.7 
	432.8,174.7 "/>
<polygon class="st3" points="349.5,294.5 374.9,257.2 375.2,256.6 375.3,256 375.2,255.3 374.9,254.7 374.3,254.1 372.8,253.1 
	372.7,252.9 372.8,252.7 374.1,250.7 374.5,250.2 375.1,249.9 375.7,249.7 379.5,249 390.3,247.4 392.3,247.1 394.4,246.8 
	404.7,245.6 414.3,244.6 415,244.7 415.7,245 416.4,245.5 416.8,246.2 417,247 416.9,247.8 416.6,248.6 415.3,250.5 415.1,250.6 
	414.8,250.6 413.3,249.6 412.7,249.3 411.9,249.2 411.3,249.3 410.7,249.7 410.3,250.1 397.9,268.2 397.7,268.8 397.6,269.5 
	397.6,270.1 398,270.8 398.5,271.3 400,272.3 400.1,272.5 400.1,272.8 399.6,273.4 398.3,275.4 398.2,275.5 396.4,278.1 
	396.1,278.2 395.9,278.2 395.4,277.8 394.4,277.1 393.8,276.8 393,276.7 392.4,276.9 391.8,277.2 391.4,277.6 369.1,308.6 "/>
<polygon class="st3" points="301.9,356.4 308.1,347.6 309.4,345.7 309.5,345.5 311.3,343 311.5,342.8 311.7,342.9 312.4,343.3 
	313.2,343.9 313.9,344.2 314.6,344.3 315.3,344.1 315.8,343.8 316.2,343.3 349.5,294.5 369.1,308.6 339.2,350.2 338.9,350.8 
	338.7,351.4 338.8,352.1 339.1,352.8 339.7,353.3 341.1,354.4 341.3,354.6 341.2,354.8 339.9,356.6 339.4,357.2 338.7,357.5 
	338,357.7 334.6,358 325.1,358.7 324.2,358.8 323.5,358.8 323.5,358.8 313.7,359.6 304.2,360.4 303.5,360.3 302.8,360 302.1,359.5 
	301.7,358.8 301.5,358 301.6,357.2 "/>
<polygon class="st4" points="231.8,257.6 242.8,255.2 253.9,253 369.5,231.9 381.6,229.8 375.3,239.1 374.6,239.7 373.8,240.1 
	371.1,240.5 255.5,261.7 245.2,263.7 235,265.9 235,265.9 228.5,267.3 221.9,268.4 215.3,269.2 208.7,269.6 202.1,269.7 
	195.4,269.4 188.8,268.8 182.2,267.9 175.7,266.7 175,257.4 181.2,258.8 187.5,259.8 193.9,260.4 200.2,260.8 206.6,260.8 
	213,260.5 219.3,259.9 225.6,258.9 "/>
<polygon class="st4" points="516.6,113.3 517.1,112.8 517.7,112.5 518.5,112.4 531.4,113.1 544.4,114.1 557.3,115.5 570.2,117.3 
	570.2,117.3 635.8,127.5 647.4,129.2 658.9,130.5 670.5,131.5 682.1,132.3 688.1,132.7 694,133.5 699.8,134.7 705.6,136.1 
	711.3,137.9 716.9,140 722.4,142.4 725.5,144.1 728.5,146.1 731.3,148.4 733.8,151 731.4,152.8 729.3,154.8 727.4,157.1 
	725.5,155.1 723.3,153.3 721,151.7 718.6,150.4 713.6,148.2 708.4,146.2 703.2,144.6 697.9,143.3 692.5,142.2 687.1,141.5 
	681.7,141.1 669.8,140.3 658,139.3 646.2,137.9 634.5,136.2 568.8,126 557.3,124.4 545.8,123.1 534.3,122.1 522.7,121.4 
	511.1,121.1 "/>
<polygon class="st5" points="315.7,127.8 315.6,126.7 319.1,126.1 319.5,126.1 319.8,126.3 320.5,127 "/>
<polygon class="st5" points="282.3,143.4 287.1,142.6 286.6,143.5 286.4,143.8 286,143.9 282.5,144.5 "/>
<polygon class="st5" points="694.9,122.6 698.4,122.8 698.8,122.9 699.1,123.2 700.1,124.7 694.1,123.6 "/>
<polygon class="st5" points="554.9,239.4 551.4,239.5 551.3,238.4 556.1,238.2 555.6,239 555.3,239.3 "/>
<polygon class="st5" points="145.4,268.1 142.2,266.6 142.1,265.4 144.5,266.5 147.1,267.6 146.2,268.1 145.8,268.2 "/>
<rect x="798.8" y="199" transform="matrix(0.355 -0.9349 0.9349 0.355 332.086 883.6564)" class="st6" width="15.2" height="4.4"/>
<polygon class="st3" points="864.2,239.3 886.2,237.6 885.3,226.8 896.4,227.9 907.6,228.6 908.2,228.8 908.9,229.1 909.3,229.7 
	910.6,231.4 912.1,232.9 913.8,234.1 915.7,235 917.7,235.7 919.8,235.9 921.9,235.9 923.9,235.5 925.9,234.8 927.8,233.7 
	929.4,232.4 930.8,230.9 932,229.1 932.4,228.5 933,228.1 933.7,227.9 943.6,226.8 953.6,225.3 963.4,223.5 973.2,221.5 
	978.5,256.1 866.2,265 "/>
<polygon class="st3" points="971.4,209.4 961.8,211.4 952.2,213.1 942.5,214.6 932.7,215.7 932,215.7 931.3,215.4 930.8,214.9 
	929.3,213.3 927.5,211.9 925.6,210.9 923.4,210.2 921.2,209.9 919,209.9 916.9,210.4 914.8,211.2 912.9,212.3 911.2,213.7 
	909.8,215.5 909.3,216 908.6,216.3 907.9,216.4 898.6,215.8 889.4,214.9 880.2,213.8 871,212.4 861.9,210.7 862.3,176.8 
	903.4,171.1 966.6,177.7 "/>
<polygon class="st7" points="801.6,207.6 807,193.2 811.2,194.8 805.7,209.1 "/>
<g>
	<defs>
		<rect id="SVGID_1_" x="-5.7" y="-69.9" width="1005.7" height="532.1"/>
	</defs>
	<clipPath id="SVGID_2_">
		<use xlink:href="#SVGID_1_"  style="overflow:visible;"/>
	</clipPath>
	<g style="clip-path:url(#SVGID_2_);">
		
			<image style="overflow:visible;" width="10347" height="5475" xlink:href="9C066BAA.png"  transform="matrix(9.719343e-02 0 0 9.719343e-02 -5.7339 -69.8763)">
		</image>
	</g>
</g>
<line class="st8" x1="216.7" y1="144.7" x2="431.7" y2="108.2"/>
<line class="st8" x1="218.3" y1="154.4" x2="432.7" y2="118"/>
<line class="st8" x1="571.6" y1="107.8" x2="637.5" y2="118"/>
<line class="st8" x1="570.1" y1="117.4" x2="635.8" y2="127.6"/>
<line class="st8" x1="667.8" y1="223.7" x2="437.8" y2="233.6"/>
<line class="st8" x1="371" y1="240.7" x2="255.4" y2="261.8"/>
<line class="st8" x1="361.7" y1="252.3" x2="254.9" y2="271.9"/>
<line class="st8" x1="369.4" y1="232" x2="253.9" y2="253.1"/>
<line class="st8" x1="568.8" y1="126.2" x2="634.4" y2="136.4"/>
<line class="st8" x1="306.4" y1="251.1" x2="306.4" y2="251.1"/>
<line class="st8" x1="862.2" y1="177" x2="861.9" y2="210.9"/>
<line class="st8" x1="559.6" y1="344.7" x2="551.2" y2="238.6"/>
<line class="st8" x1="862.6" y1="132.8" x2="809.6" y2="132.3"/>
<line class="st8" x1="809.6" y1="132.3" x2="809.1" y2="194.2"/>
<line class="st8" x1="866.2" y1="265.2" x2="862.9" y2="223.5"/>
<line class="st8" x1="886.1" y1="237.7" x2="885.3" y2="226.9"/>
<line class="st8" x1="864.1" y1="239.4" x2="886.1" y2="237.7"/>
<line class="st8" x1="309.1" y1="45.7" x2="315.6" y2="127.9"/>
<line class="st8" x1="907.4" y1="222.6" x2="907.4" y2="222.7"/>
<line class="st8" x1="933.4" y1="221.9" x2="933.4" y2="222"/>
<line class="st8" x1="981.4" y1="213.3" x2="981.4" y2="213.4"/>
<line class="st8" x1="763.2" y1="181.2" x2="763.3" y2="181.1"/>
<line class="st8" x1="570.8" y1="113.2" x2="636.5" y2="123.4"/>
<line class="st8" x1="571" y1="112" x2="636.6" y2="122.2"/>
<line class="st8" x1="742.2" y1="154.8" x2="742.3" y2="154.8"/>
<line class="st8" x1="668" y1="229.2" x2="556.4" y2="234"/>
<line class="st8" x1="668" y1="228" x2="556.4" y2="232.8"/>
<line class="st8" x1="744.9" y1="189.8" x2="745" y2="189.8"/>
<line class="st8" x1="524.7" y1="107.6" x2="524.8" y2="107.5"/>
<line class="st8" x1="668.1" y1="233.5" x2="432.7" y2="243.6"/>
<line class="st8" x1="434.1" y1="238.3" x2="434.2" y2="238.2"/>
<line class="st8" x1="217.4" y1="149" x2="281.7" y2="138.1"/>
<line class="st8" x1="217.6" y1="150.1" x2="281.9" y2="139.2"/>
<line class="st8" x1="464.5" y1="109.5" x2="464.6" y2="109.4"/>
<line class="st8" x1="366.1" y1="247" x2="366.2" y2="246.9"/>
<line class="st8" x1="365.8" y1="247.2" x2="256.4" y2="267.2"/>
<line class="st8" x1="365.7" y1="246" x2="256.2" y2="266.1"/>
<line class="st8" x1="478.3" y1="107.8" x2="478.4" y2="107.7"/>
<line class="st8" x1="512" y1="107.8" x2="512.1" y2="107.7"/>
<line class="st8" x1="545.2" y1="233.3" x2="434.6" y2="238"/>
<line class="st8" x1="545.3" y1="234.4" x2="434.5" y2="239.2"/>
<line class="st8" x1="420.9" y1="239.9" x2="421" y2="239.8"/>
<line class="st8" x1="379.8" y1="244.7" x2="380.6" y2="243.6"/>
<line class="st8" x1="116.7" y1="222.1" x2="116.8" y2="222.1"/>
<line class="st8" x1="292.7" y1="136.2" x2="426.7" y2="113.4"/>
<line class="st8" x1="292.9" y1="137.3" x2="431.7" y2="113.8"/>
<line class="st8" x1="142" y1="265.5" x2="150.9" y2="377"/>
<line class="st8" x1="146.3" y1="58.6" x2="154.3" y2="160.3"/>
<line class="st8" x1="694.8" y1="122.7" x2="698.3" y2="122.9"/>
<line class="st8" x1="699" y1="123.3" x2="700.1" y2="124.8"/>
<line class="st8" x1="154.2" y1="159.1" x2="157.4" y2="157.7"/>
<line class="st8" x1="158.2" y1="157.7" x2="159.1" y2="158.1"/>
<line class="st8" x1="282.5" y1="144.6" x2="286" y2="144"/>
<line class="st8" x1="286.6" y1="143.6" x2="287.1" y2="142.7"/>
<line class="st8" x1="373.2" y1="258.5" x2="373.1" y2="258.4"/>
<line class="st8" x1="437.6" y1="190.1" x2="439.1" y2="187.8"/>
<line class="st8" x1="436.3" y1="189.1" x2="437.9" y2="186.9"/>
<line class="st8" x1="315.5" y1="126.8" x2="319" y2="126.2"/>
<line class="st8" x1="319.8" y1="126.4" x2="320.5" y2="127.1"/>
<line class="st8" x1="551.3" y1="239.7" x2="554.8" y2="239.5"/>
<line class="st8" x1="555.5" y1="239.1" x2="556.1" y2="238.3"/>
<line class="st8" x1="440.9" y1="182.7" x2="456.5" y2="160.5"/>
<line class="st8" x1="460.8" y1="157.1" x2="461.7" y2="155.9"/>
<line class="st8" x1="459.6" y1="156.2" x2="460.7" y2="154.6"/>
<line class="st8" x1="442.2" y1="183.5" x2="457.8" y2="161.5"/>
<line class="st8" x1="142.1" y1="266.8" x2="145.3" y2="268.2"/>
<line class="st8" x1="146.1" y1="268.2" x2="147" y2="267.8"/>
<line class="st8" x1="369.1" y1="308.7" x2="359.3" y2="301.7"/>
<line class="st8" x1="167.6" y1="165.2" x2="175.7" y2="266.8"/>
<line class="st8" x1="576.2" y1="24.6" x2="652.3" y2="18.5"/>
<line class="st8" x1="639.6" y1="19.5" x2="641.9" y2="48.6"/>
<line class="st8" x1="694.1" y1="123.7" x2="776.5" y2="8.7"/>
<line class="st8" x1="22.4" y1="212.2" x2="111.7" y2="220.8"/>
<line class="st8" x1="497.6" y1="102.5" x2="486.8" y2="112.6"/>
<line class="st8" x1="499.8" y1="102.5" x2="489.1" y2="112.5"/>
<line class="st8" x1="394.8" y1="246.9" x2="409.4" y2="235.4"/>
<line class="st8" x1="391.8" y1="247.3" x2="406.5" y2="235.6"/>
<line class="st8" x1="807" y1="193.4" x2="801.6" y2="207.6"/>
<line class="st8" x1="801.6" y1="207.6" x2="805.7" y2="209.2"/>
<line class="st8" x1="805.7" y1="209.2" x2="811.1" y2="195"/>
<line class="st8" x1="811.1" y1="195" x2="807" y2="193.4"/>
<line class="st8" x1="288.5" y1="366.1" x2="288.9" y2="366.1"/>
<line class="st8" x1="985.2" y1="209.5" x2="985.3" y2="210"/>
<line class="st8" x1="524.9" y1="28.6" x2="584.5" y2="23.9"/>
<line class="st8" x1="532.4" y1="32.4" x2="564.6" y2="29.9"/>
<line class="st8" x1="564.2" y1="37.6" x2="562.5" y2="36.3"/>
<line class="st8" x1="565" y1="35.8" x2="563.6" y2="34.8"/>
<line class="st8" x1="520.8" y1="97.9" x2="519.1" y2="96.7"/>
<line class="st8" x1="519.5" y1="99.3" x2="518" y2="98.2"/>
<line class="st8" x1="512.8" y1="61.9" x2="511.3" y2="60.9"/>
<line class="st8" x1="532" y1="35.2" x2="530.5" y2="34.1"/>
<line class="st8" x1="530.9" y1="36.7" x2="529.2" y2="35.5"/>
<line class="st8" x1="513.9" y1="60.4" x2="512.2" y2="59.1"/>
<line class="st8" x1="508.6" y1="67.6" x2="507.2" y2="66.6"/>
<line class="st8" x1="507.5" y1="69.2" x2="505.8" y2="67.9"/>
<line class="st8" x1="486.4" y1="97.9" x2="484.7" y2="96.7"/>
<line class="st8" x1="487.5" y1="96.4" x2="485.8" y2="95.2"/>
<line class="st8" x1="966.6" y1="177.8" x2="971.4" y2="209.5"/>
<line class="st8" x1="469.1" y1="118" x2="470.8" y2="119.2"/>
<line class="st8" x1="470.4" y1="116.6" x2="471.9" y2="117.7"/>
<line class="st8" x1="408.9" y1="200" x2="410.6" y2="201.2"/>
<line class="st8" x1="408" y1="201.7" x2="409.5" y2="202.8"/>
<line class="st8" x1="494.1" y1="135.2" x2="492.3" y2="134"/>
<line class="st8" x1="492.7" y1="136.6" x2="491.2" y2="135.5"/>
<line class="st8" x1="488.7" y1="142.4" x2="487.2" y2="141.3"/>
<line class="st8" x1="504.4" y1="117.2" x2="505.9" y2="118.2"/>
<line class="st8" x1="486.1" y1="142.9" x2="487.8" y2="144.1"/>
<line class="st8" x1="503.3" y1="118.7" x2="505" y2="120"/>
<line class="st8" x1="429.8" y1="229.3" x2="428" y2="228.1"/>
<line class="st8" x1="428.4" y1="230.7" x2="426.9" y2="229.7"/>
<line class="st8" x1="402.6" y1="208.9" x2="404.3" y2="210.1"/>
<line class="st8" x1="403.9" y1="207.6" x2="405.4" y2="208.6"/>
<line class="st8" x1="388.1" y1="230.2" x2="389.8" y2="231.4"/>
<line class="st8" x1="387.3" y1="232" x2="388.8" y2="233"/>
<line class="st8" x1="312.4" y1="341.3" x2="314.2" y2="342.5"/>
<line class="st8" x1="311.6" y1="343" x2="313.1" y2="344"/>
<line class="st8" x1="304.2" y1="360.5" x2="338" y2="357.8"/>
<line class="st8" x1="398.5" y1="271.4" x2="400" y2="272.5"/>
<line class="st8" x1="395" y1="280" x2="393.3" y2="278.8"/>
<line class="st8" x1="395.9" y1="278.3" x2="394.4" y2="277.3"/>
<line class="st8" x1="373.2" y1="255.8" x2="371.5" y2="254.6"/>
<line class="st8" x1="340.7" y1="351.9" x2="342.4" y2="353.1"/>
<line class="st8" x1="339.6" y1="353.4" x2="341.1" y2="354.5"/>
<line class="st8" x1="399.5" y1="269.9" x2="401.3" y2="271.1"/>
<line class="st8" x1="374.3" y1="254.2" x2="372.8" y2="253.2"/>
<line class="st8" x1="414" y1="252.5" x2="412.2" y2="251.3"/>
<line class="st8" x1="414.8" y1="250.7" x2="413.3" y2="249.7"/>
<line class="st8" x1="800.3" y1="192.3" x2="802.8" y2="192"/>
<line class="st8" x1="796" y1="203.8" x2="797.6" y2="205.7"/>
<line class="st8" x1="857.1" y1="223.6" x2="859.5" y2="222.9"/>
<line class="st8" x1="861.8" y1="210.9" x2="859.9" y2="209.2"/>
<line class="st8" x1="558.4" y1="55.2" x2="641.9" y2="48.6"/>
<line class="st8" x1="521.5" y1="53.6" x2="530.4" y2="59.9"/>
<line class="st8" x1="973.2" y1="221.6" x2="978.4" y2="256.3"/>
<line class="st8" x1="282.3" y1="143.5" x2="299.5" y2="244.8"/>
<line class="st8" x1="531.7" y1="60.9" x2="538.6" y2="65.8"/>
<line class="st8" x1="358" y1="300.8" x2="349.5" y2="294.6"/>
<g>
	<path class="st9" d="M680.9,248.9h5.3v1.8h-1.8v7.8h-1.9v-7.8h-1.7V248.9z"/>
	<path class="st9" d="M690.5,248.9h1.9l3.7,9.7h-1.9l-0.8-2h-3.9l-0.8,2h-1.9L690.5,248.9z M691.4,251.4l-1.3,3.3h2.6L691.4,251.4z"
		/>
	<path class="st9" d="M698.4,248.9h1.8l2.2,6.7l2.3-6.7h1.8l1.6,9.7h-1.8l-1-6.1l-2.1,6.1h-1.6l-2-6.1l-1.1,6.1h-1.8L698.4,248.9z"
		/>
	<path class="st9" d="M709.5,248.9h1.8v6.2c0,0.5,0,0.9,0.1,1.1c0.1,0.2,0.2,0.4,0.5,0.5s0.5,0.2,0.8,0.2c0.3,0,0.6-0.1,0.8-0.2
		c0.2-0.1,0.4-0.3,0.5-0.6c0.1-0.2,0.1-0.7,0.1-1.3v-6h1.8v5.8c0,1-0.1,1.6-0.2,2c-0.1,0.4-0.3,0.7-0.6,1.1
		c-0.3,0.4-0.7,0.6-1.1,0.8c-0.4,0.2-0.9,0.3-1.4,0.3c-0.7,0-1.3-0.2-1.8-0.5c-0.5-0.3-0.9-0.7-1.1-1.2c-0.2-0.5-0.3-1.3-0.3-2.5
		V248.9z M713.1,245.6h2.1l-2.4,2.6h-1.3L713.1,245.6z"/>
	<path class="st9" d="M718.2,248.9h1.8v7.9h2.7v1.8h-4.5V248.9z"/>
</g>
<g>
	<path class="st9" d="M739.8,93.4h2c1.1,0,1.8,0.1,2.3,0.3c0.5,0.2,0.8,0.5,1.1,0.9c0.3,0.4,0.4,1,0.4,1.6c0,0.7-0.2,1.2-0.5,1.7
		c-0.4,0.4-0.8,0.8-1.4,0.9c-0.4,0.1-1,0.2-1.9,0.2v4.1h-1.8V93.4z M741.7,97.2h0.6c0.5,0,0.8,0,1-0.1s0.3-0.2,0.4-0.3
		c0.1-0.2,0.2-0.3,0.2-0.5c0-0.4-0.1-0.6-0.4-0.8c-0.2-0.1-0.6-0.2-1.2-0.2h-0.5V97.2z"/>
	<path class="st9" d="M747.3,93.4h1.8v6.2c0,0.5,0,0.9,0.1,1.1s0.2,0.4,0.5,0.5s0.5,0.2,0.8,0.2c0.3,0,0.6-0.1,0.8-0.2
		c0.2-0.1,0.4-0.3,0.5-0.6c0.1-0.2,0.1-0.7,0.1-1.3v-6h1.8v5.8c0,1-0.1,1.6-0.2,2c-0.1,0.4-0.3,0.7-0.6,1.1
		c-0.3,0.4-0.7,0.6-1.1,0.8c-0.4,0.2-0.9,0.3-1.4,0.3c-0.7,0-1.3-0.2-1.8-0.5s-0.9-0.7-1.1-1.2c-0.2-0.5-0.3-1.3-0.3-2.5V93.4z"/>
	<path class="st9" d="M756,93.4h5.3v1.8h-3.4v1.7h3.4v1.8h-3.4v2.5h3.4v1.8H756V93.4z"/>
	<path class="st9" d="M763,93.4h1.8l4.1,6.4v-6.4h1.8v9.7h-1.8l-4.1-6.3v6.3H763V93.4z"/>
	<path class="st9" d="M772,93.4h5.3v1.8h-1.8v7.8h-1.9v-7.8H772V93.4z"/>
	<path class="st9" d="M778.6,93.4h5.3v1.8h-3.4v1.7h3.4v1.8h-3.4v2.5h3.4v1.8h-5.3V93.4z"/>
	<path class="st9" d="M789.3,93.4h2.2c1.4,0,2.4,0.2,3.1,0.5c0.7,0.3,1.2,0.9,1.7,1.7c0.4,0.8,0.7,1.7,0.7,2.7
		c0,0.7-0.1,1.4-0.4,2.1s-0.6,1.1-1,1.6c-0.4,0.4-0.9,0.7-1.4,0.9c-0.5,0.2-1.4,0.2-2.6,0.2h-2.2V93.4z M791.2,95.2v6.1h0.9
		c0.8,0,1.5-0.1,1.8-0.3c0.4-0.2,0.7-0.5,0.9-1c0.2-0.5,0.4-1,0.4-1.7c0-1-0.3-1.8-0.9-2.4c-0.5-0.5-1.3-0.8-2.5-0.8H791.2z"/>
	<path class="st9" d="M798.7,93.4h5.3v1.8h-3.4v1.7h3.4v1.8h-3.4v2.5h3.4v1.8h-5.3V93.4z"/>
	<path class="st9" d="M809.5,93.4h2.2c1.4,0,2.4,0.2,3.1,0.5c0.7,0.3,1.2,0.9,1.7,1.7c0.4,0.8,0.7,1.7,0.7,2.7
		c0,0.7-0.1,1.4-0.4,2.1s-0.6,1.1-1,1.6c-0.4,0.4-0.9,0.7-1.4,0.9c-0.5,0.2-1.4,0.2-2.6,0.2h-2.2V93.4z M811.3,95.2v6.1h0.9
		c0.8,0,1.5-0.1,1.8-0.3c0.4-0.2,0.7-0.5,0.9-1c0.2-0.5,0.4-1,0.4-1.7c0-1-0.3-1.8-0.9-2.4c-0.5-0.5-1.3-0.8-2.5-0.8H811.3z"/>
	<path class="st9" d="M818.8,93.4h1.8v9.7h-1.8V93.4z"/>
	<path class="st9" d="M827.2,93.1c1.4,0,2.5,0.5,3.5,1.5s1.5,2.2,1.5,3.6c0,1.4-0.5,2.6-1.5,3.6c-1,1-2.1,1.5-3.5,1.5
		c-1.4,0-2.7-0.5-3.6-1.5c-1-1-1.4-2.2-1.4-3.6c0-0.9,0.2-1.8,0.7-2.5c0.4-0.8,1.1-1.4,1.8-1.8C825.5,93.4,826.3,93.1,827.2,93.1z
		 M827.2,94.9c-0.9,0-1.6,0.3-2.3,0.9s-0.9,1.4-0.9,2.4c0,1.1,0.4,1.9,1.1,2.5c0.6,0.5,1.3,0.7,2.1,0.7c0.9,0,1.6-0.3,2.2-0.9
		c0.6-0.6,0.9-1.4,0.9-2.3c0-0.9-0.3-1.7-0.9-2.3C828.8,95.3,828.1,94.9,827.2,94.9z"/>
	<path class="st9" d="M839,94.7l-1.4,1.2c-0.5-0.7-1-1-1.5-1c-0.2,0-0.4,0.1-0.6,0.2c-0.2,0.1-0.2,0.3-0.2,0.4
		c0,0.2,0.1,0.3,0.2,0.5c0.1,0.2,0.6,0.6,1.3,1.2c0.7,0.6,1.1,1,1.3,1.1c0.4,0.4,0.6,0.7,0.8,1.1c0.2,0.3,0.2,0.7,0.2,1.1
		c0,0.8-0.3,1.4-0.8,2s-1.3,0.8-2.1,0.8c-0.7,0-1.3-0.2-1.8-0.5c-0.5-0.3-0.9-0.9-1.3-1.6l1.5-0.9c0.5,0.9,1,1.3,1.6,1.3
		c0.3,0,0.6-0.1,0.8-0.3c0.2-0.2,0.3-0.4,0.3-0.6c0-0.2-0.1-0.4-0.2-0.7c-0.2-0.2-0.5-0.6-1.1-1c-1.1-0.9-1.7-1.5-2-2
		c-0.3-0.5-0.5-0.9-0.5-1.4c0-0.7,0.3-1.2,0.8-1.7c0.5-0.5,1.1-0.7,1.9-0.7c0.5,0,0.9,0.1,1.4,0.3C838.1,93.7,838.5,94.1,839,94.7z"
		/>
</g>
<g>
	<path class="st9" d="M596.9,70.9h1.8v7.9h2.7v1.8h-4.5V70.9z"/>
	<path class="st9" d="M607.4,70.7c1.4,0,2.5,0.5,3.5,1.5s1.5,2.2,1.5,3.6c0,1.4-0.5,2.6-1.5,3.6c-1,1-2.1,1.5-3.5,1.5
		c-1.4,0-2.7-0.5-3.6-1.5c-1-1-1.4-2.2-1.4-3.6c0-0.9,0.2-1.8,0.7-2.5c0.4-0.8,1.1-1.4,1.8-1.8C605.6,70.9,606.5,70.7,607.4,70.7z
		 M607.3,72.5c-0.9,0-1.6,0.3-2.3,0.9s-0.9,1.4-0.9,2.4c0,1.1,0.4,1.9,1.1,2.5c0.6,0.5,1.3,0.7,2.1,0.7c0.9,0,1.6-0.3,2.2-0.9
		c0.6-0.6,0.9-1.4,0.9-2.3c0-0.9-0.3-1.7-0.9-2.3C609,72.8,608.2,72.5,607.3,72.5z"/>
	<path class="st9" d="M619.2,72.2l-1.4,1.2c-0.5-0.7-1-1-1.5-1c-0.2,0-0.4,0.1-0.6,0.2c-0.2,0.1-0.2,0.3-0.2,0.4
		c0,0.2,0.1,0.3,0.2,0.5c0.1,0.2,0.6,0.6,1.3,1.2c0.7,0.6,1.1,1,1.3,1.1c0.4,0.4,0.6,0.7,0.8,1.1c0.2,0.3,0.2,0.7,0.2,1.1
		c0,0.8-0.3,1.4-0.8,2s-1.3,0.8-2.1,0.8c-0.7,0-1.3-0.2-1.8-0.5c-0.5-0.3-0.9-0.9-1.3-1.6l1.5-0.9c0.5,0.9,1,1.3,1.6,1.3
		c0.3,0,0.6-0.1,0.8-0.3c0.2-0.2,0.3-0.4,0.3-0.6c0-0.2-0.1-0.4-0.2-0.7c-0.2-0.2-0.5-0.6-1.1-1c-1.1-0.9-1.7-1.5-2-2
		c-0.3-0.5-0.5-0.9-0.5-1.4c0-0.7,0.3-1.2,0.8-1.7c0.5-0.5,1.1-0.7,1.9-0.7c0.5,0,0.9,0.1,1.4,0.3C618.2,71.2,618.7,71.6,619.2,72.2
		z"/>
	<path class="st9" d="M629.9,72.2l-1.4,1.2c-0.5-0.7-1-1-1.5-1c-0.2,0-0.4,0.1-0.6,0.2c-0.2,0.1-0.2,0.3-0.2,0.4
		c0,0.2,0.1,0.3,0.2,0.5c0.1,0.2,0.6,0.6,1.3,1.2c0.7,0.6,1.1,1,1.3,1.1c0.4,0.4,0.6,0.7,0.8,1.1c0.2,0.3,0.2,0.7,0.2,1.1
		c0,0.8-0.3,1.4-0.8,2s-1.3,0.8-2.1,0.8c-0.7,0-1.3-0.2-1.8-0.5c-0.5-0.3-0.9-0.9-1.3-1.6l1.5-0.9c0.5,0.9,1,1.3,1.6,1.3
		c0.3,0,0.6-0.1,0.8-0.3c0.2-0.2,0.3-0.4,0.3-0.6c0-0.2-0.1-0.4-0.2-0.7c-0.2-0.2-0.5-0.6-1.1-1c-1.1-0.9-1.7-1.5-2-2
		c-0.3-0.5-0.5-0.9-0.5-1.4c0-0.7,0.3-1.2,0.8-1.7c0.5-0.5,1.1-0.7,1.9-0.7c0.5,0,0.9,0.1,1.4,0.3C628.9,71.2,629.4,71.6,629.9,72.2
		z"/>
	<path class="st9" d="M634.8,70.9h1.9l3.7,9.7h-1.9l-0.8-2h-3.9l-0.8,2h-1.9L634.8,70.9z M635.7,73.5l-1.3,3.3h2.6L635.7,73.5z"/>
	<path class="st9" d="M641.8,80.6v-9.7h1.5c0.9,0,1.5,0.1,1.9,0.2c0.6,0.2,1,0.4,1.4,0.9c0.3,0.4,0.5,0.9,0.5,1.5
		c0,0.4-0.1,0.7-0.2,1s-0.4,0.6-0.8,0.8c0.6,0.3,1,0.6,1.3,1c0.3,0.4,0.4,0.9,0.4,1.5c0,0.5-0.1,1-0.4,1.5c-0.3,0.4-0.6,0.8-1.1,1
		s-1.1,0.3-1.8,0.3H641.8z M643.6,72.7v2h0.4c0.4,0,0.8-0.1,1-0.3s0.3-0.4,0.3-0.8c0-0.3-0.1-0.5-0.3-0.7c-0.2-0.2-0.5-0.3-0.9-0.3
		H643.6z M643.6,76.3v2.5h0.5c0.8,0,1.3-0.1,1.5-0.3c0.3-0.2,0.4-0.5,0.4-0.8c0-0.4-0.2-0.7-0.5-1s-0.8-0.4-1.6-0.4H643.6z"/>
	<path class="st9" d="M649.5,70.9h1.8v9.7h-1.8V70.9z"/>
	<path class="st9" d="M653.4,70.9h1.8l4.1,6.4v-6.4h1.8v9.7h-1.8l-4.1-6.3v6.3h-1.8V70.9z"/>
	<path class="st9" d="M667.9,70.7c1.4,0,2.5,0.5,3.5,1.5s1.5,2.2,1.5,3.6c0,1.4-0.5,2.6-1.5,3.6c-1,1-2.1,1.5-3.5,1.5
		c-1.4,0-2.7-0.5-3.6-1.5c-1-1-1.4-2.2-1.4-3.6c0-0.9,0.2-1.8,0.7-2.5c0.4-0.8,1.1-1.4,1.8-1.8C666.1,70.9,667,70.7,667.9,70.7z
		 M667.8,72.5c-0.9,0-1.6,0.3-2.3,0.9s-0.9,1.4-0.9,2.4c0,1.1,0.4,1.9,1.1,2.5c0.6,0.5,1.3,0.7,2.1,0.7c0.9,0,1.6-0.3,2.2-0.9
		c0.6-0.6,0.9-1.4,0.9-2.3c0-0.9-0.3-1.7-0.9-2.3C669.5,72.8,668.7,72.5,667.8,72.5z"/>
	<path class="st9" d="M679.7,72.2l-1.4,1.2c-0.5-0.7-1-1-1.5-1c-0.2,0-0.4,0.1-0.6,0.2c-0.2,0.1-0.2,0.3-0.2,0.4
		c0,0.2,0.1,0.3,0.2,0.5c0.1,0.2,0.6,0.6,1.3,1.2c0.7,0.6,1.1,1,1.3,1.1c0.4,0.4,0.6,0.7,0.8,1.1c0.2,0.3,0.2,0.7,0.2,1.1
		c0,0.8-0.3,1.4-0.8,2s-1.3,0.8-2.1,0.8c-0.7,0-1.3-0.2-1.8-0.5c-0.5-0.3-0.9-0.9-1.3-1.6l1.5-0.9c0.5,0.9,1,1.3,1.6,1.3
		c0.3,0,0.6-0.1,0.8-0.3c0.2-0.2,0.3-0.4,0.3-0.6c0-0.2-0.1-0.4-0.2-0.7c-0.2-0.2-0.5-0.6-1.1-1c-1.1-0.9-1.7-1.5-2-2
		c-0.3-0.5-0.5-0.9-0.5-1.4c0-0.7,0.3-1.2,0.8-1.7c0.5-0.5,1.1-0.7,1.9-0.7c0.5,0,0.9,0.1,1.4,0.3C678.7,71.2,679.1,71.6,679.7,72.2
		z"/>
</g>
<g>
	<path class="st9" d="M548.5,173.8h1.8l2.2,6.7l2.3-6.7h1.8l1.6,9.7h-1.8l-1-6.1l-2.1,6.1h-1.6l-2-6.1l-1.1,6.1h-1.8L548.5,173.8z"
		/>
	<path class="st9" d="M559.7,173.8h5.3v1.8h-3.4v1.7h3.4v1.8h-3.4v2.5h3.4v1.8h-5.3V173.8z"/>
	<path class="st9" d="M566.7,173.8h2.2c1.4,0,2.4,0.2,3.1,0.5c0.7,0.3,1.2,0.9,1.7,1.7c0.4,0.8,0.7,1.7,0.7,2.7
		c0,0.7-0.1,1.4-0.4,2.1s-0.6,1.1-1,1.6c-0.4,0.4-0.9,0.7-1.4,0.9c-0.5,0.2-1.4,0.2-2.6,0.2h-2.2V173.8z M568.5,175.5v6.1h0.9
		c0.8,0,1.5-0.1,1.8-0.3c0.4-0.2,0.7-0.5,0.9-1c0.2-0.5,0.4-1,0.4-1.7c0-1-0.3-1.8-0.9-2.4c-0.5-0.5-1.3-0.8-2.5-0.8H568.5z"/>
	<path class="st9" d="M575.9,173.8h1.8v9.7h-1.8V173.8z"/>
	<path class="st9" d="M582.8,173.8h1.9l3.7,9.7h-1.9l-0.8-2h-3.9l-0.8,2H579L582.8,173.8z M583.7,176.3l-1.3,3.3h2.6L583.7,176.3z"
		/>
	<path class="st9" d="M593.5,173.8h1.8v7.9h2.7v1.8h-4.5V173.8z"/>
	<path class="st9" d="M599.4,173.8h1.8v6.2c0,0.5,0,0.9,0.1,1.1s0.2,0.4,0.5,0.5s0.5,0.2,0.8,0.2c0.3,0,0.6-0.1,0.8-0.2
		c0.2-0.1,0.4-0.3,0.5-0.6c0.1-0.2,0.1-0.7,0.1-1.3v-6h1.8v5.8c0,1-0.1,1.6-0.2,2c-0.1,0.4-0.3,0.7-0.6,1.1
		c-0.3,0.4-0.7,0.6-1.1,0.8c-0.4,0.2-0.9,0.3-1.4,0.3c-0.7,0-1.3-0.2-1.8-0.5s-0.9-0.7-1.1-1.2c-0.2-0.5-0.3-1.3-0.3-2.5V173.8z"/>
	<path class="st9" d="M608.1,173.8h1.8l4.1,6.4v-6.4h1.8v9.7H614l-4.1-6.3v6.3h-1.8V173.8z"/>
	<path class="st9" d="M620.9,173.8h1.9l3.7,9.7h-1.9l-0.8-2h-3.9l-0.8,2h-1.9L620.9,173.8z M621.9,176.3l-1.3,3.3h2.6L621.9,176.3z"
		/>
</g>
<g>
	<path class="st9" d="M331.1,173.9h2.1l2,3.1l2-3.1h2.1l-3.1,4.7l3.3,5h-2.1l-2.2-3.4l-2.2,3.4h-2.1l3.3-5L331.1,173.9z"/>
	<path class="st9" d="M340.8,173.9h1.8v9.7h-1.8V173.9z"/>
	<path class="st9" d="M344.6,173.9h1.8v7.9h2.7v1.8h-4.5V173.9z"/>
	<path class="st9" d="M350.4,173.9h1.8v9.7h-1.8V173.9z"/>
	<path class="st9" d="M353.4,173.9h5.3v1.8H357v7.8h-1.9v-7.8h-1.7V173.9z"/>
	<path class="st9" d="M360,173.9h1.8v7.9h2.7v1.8H360V173.9z"/>
	<path class="st9" d="M368.8,173.9h1.9l3.7,9.7h-1.9l-0.8-2h-3.9l-0.8,2h-1.9L368.8,173.9z M369.8,176.4l-1.3,3.3h2.6L369.8,176.4z"
		/>
</g>
<g>
	<path class="st9" d="M371.5,68.2h5.3V70h-3.4v1.7h3.4v1.8h-3.4V76h3.4v1.8h-5.3V68.2z"/>
	<path class="st9" d="M378.5,68.2h1.8v7.9h2.7v1.8h-4.5V68.2z"/>
	<path class="st9" d="M393.3,69.5l-1.4,1.2c-0.5-0.7-1-1-1.5-1c-0.2,0-0.4,0.1-0.6,0.2c-0.2,0.1-0.2,0.3-0.2,0.4
		c0,0.2,0.1,0.3,0.2,0.5c0.1,0.2,0.6,0.6,1.3,1.2c0.7,0.6,1.1,1,1.3,1.1c0.4,0.4,0.6,0.7,0.8,1.1c0.2,0.3,0.2,0.7,0.2,1.1
		c0,0.8-0.3,1.4-0.8,2c-0.5,0.5-1.3,0.8-2.1,0.8c-0.7,0-1.3-0.2-1.8-0.5c-0.5-0.3-0.9-0.9-1.3-1.6l1.5-0.9c0.5,0.9,1,1.3,1.6,1.3
		c0.3,0,0.6-0.1,0.8-0.3c0.2-0.2,0.3-0.4,0.3-0.6c0-0.2-0.1-0.4-0.2-0.7c-0.2-0.2-0.5-0.6-1.1-1c-1.1-0.9-1.7-1.5-2-2
		c-0.3-0.5-0.5-0.9-0.5-1.4c0-0.7,0.3-1.2,0.8-1.7c0.5-0.5,1.1-0.7,1.9-0.7c0.5,0,0.9,0.1,1.4,0.3S392.8,68.9,393.3,69.5z"/>
	<path class="st9" d="M398.1,68.2h1.9l3.7,9.7h-1.9l-0.8-2h-3.9l-0.8,2h-1.9L398.1,68.2z M399.1,70.7l-1.3,3.3h2.6L399.1,70.7z"/>
	<path class="st9" d="M405.1,68.2h1.8v7.9h2.7v1.8h-4.5V68.2z"/>
	<path class="st9" d="M410.9,68.2h1.8v9.7h-1.8V68.2z"/>
	<path class="st9" d="M413.9,68.2h5.3V70h-1.8v7.8h-1.9V70h-1.7V68.2z"/>
	<path class="st9" d="M420.6,68.2h1.9c1.1,0,1.8,0.1,2.3,0.3c0.5,0.2,0.8,0.5,1.1,0.9c0.3,0.4,0.4,1,0.4,1.6c0,0.6-0.2,1.2-0.5,1.6
		c-0.3,0.4-0.8,0.7-1.4,1l2.3,4.3h-2l-2.2-4.1h-0.2v4.1h-1.8V68.2z M422.4,71.9h0.6c0.6,0,1-0.1,1.2-0.2s0.3-0.4,0.3-0.8
		c0-0.2-0.1-0.4-0.2-0.5c-0.1-0.2-0.3-0.3-0.4-0.3c-0.2-0.1-0.5-0.1-1-0.1h-0.5V71.9z"/>
	<path class="st9" d="M428.3,68.2h5.3V70h-3.4v1.7h3.4v1.8h-3.4V76h3.4v1.8h-5.3V68.2z"/>
</g>
<g>
	<path class="st9" d="M193.2,91.1h5.3v1.8h-1.8v7.8h-1.9v-7.8h-1.7V91.1z"/>
	<path class="st9" d="M202.7,91.1h1.9l3.7,9.7h-1.9l-0.8-2h-3.9l-0.8,2H199L202.7,91.1z M203.6,93.7l-1.3,3.3h2.6L203.6,93.7z"/>
	<path class="st9" d="M210.6,91.1h1.8l2.2,6.7l2.3-6.7h1.8l1.6,9.7h-1.8l-1-6.1l-2.1,6.1h-1.6l-2-6.1l-1.1,6.1H209L210.6,91.1z"/>
	<path class="st9" d="M224.7,91.1h1.9l3.7,9.7h-1.9l-0.8-2h-3.9l-0.8,2H221L224.7,91.1z M225.7,93.7l-1.3,3.3h2.6L225.7,93.7z"/>
	<path class="st9" d="M236.8,92.4l-1.4,1.2c-0.5-0.7-1-1-1.5-1c-0.2,0-0.4,0.1-0.6,0.2c-0.2,0.1-0.2,0.3-0.2,0.4
		c0,0.2,0.1,0.3,0.2,0.5c0.1,0.2,0.6,0.6,1.3,1.2c0.7,0.6,1.1,1,1.3,1.1c0.4,0.4,0.6,0.7,0.8,1.1c0.2,0.3,0.2,0.7,0.2,1.1
		c0,0.8-0.3,1.4-0.8,2c-0.5,0.5-1.3,0.8-2.1,0.8c-0.7,0-1.3-0.2-1.8-0.5c-0.5-0.3-0.9-0.9-1.3-1.6l1.5-0.9c0.5,0.9,1,1.3,1.6,1.3
		c0.3,0,0.6-0.1,0.8-0.3c0.2-0.2,0.3-0.4,0.3-0.6c0-0.2-0.1-0.4-0.2-0.7c-0.2-0.2-0.5-0.6-1.1-1c-1.1-0.9-1.7-1.5-2-2
		c-0.3-0.5-0.5-0.9-0.5-1.4c0-0.7,0.3-1.2,0.8-1.7c0.5-0.5,1.1-0.7,1.9-0.7c0.5,0,0.9,0.1,1.4,0.3S236.3,91.8,236.8,92.4z"/>
	<path class="st9" d="M243.3,90.9c1.4,0,2.5,0.5,3.5,1.5s1.5,2.2,1.5,3.6c0,1.4-0.5,2.6-1.5,3.6c-1,1-2.1,1.5-3.5,1.5
		c-1.4,0-2.7-0.5-3.6-1.5c-1-1-1.4-2.2-1.4-3.6c0-0.9,0.2-1.8,0.7-2.5c0.4-0.8,1.1-1.4,1.8-1.8S242.4,90.9,243.3,90.9z M243.3,92.7
		c-0.9,0-1.6,0.3-2.3,0.9s-0.9,1.4-0.9,2.4c0,1.1,0.4,1.9,1.2,2.5c0.6,0.5,1.3,0.7,2.1,0.7c0.9,0,1.6-0.3,2.2-0.9
		c0.6-0.6,0.9-1.4,0.9-2.3c0-0.9-0.3-1.7-0.9-2.3C244.9,93,244.2,92.7,243.3,92.7z"/>
	<path class="st9" d="M250,91.1h1.9c1.1,0,1.8,0.1,2.3,0.3c0.5,0.2,0.8,0.5,1.1,0.9c0.3,0.4,0.4,1,0.4,1.6c0,0.7-0.2,1.2-0.5,1.7
		c-0.4,0.4-0.8,0.8-1.4,0.9c-0.4,0.1-1,0.2-1.9,0.2v4.1H250V91.1z M251.9,94.9h0.6c0.5,0,0.8,0,1-0.1c0.2-0.1,0.3-0.2,0.4-0.3
		c0.1-0.2,0.2-0.3,0.2-0.5c0-0.4-0.1-0.6-0.4-0.8c-0.2-0.1-0.6-0.2-1.2-0.2h-0.5V94.9z"/>
	<path class="st9" d="M262.1,90.9c1.4,0,2.5,0.5,3.5,1.5s1.5,2.2,1.5,3.6c0,1.4-0.5,2.6-1.5,3.6s-2.1,1.5-3.5,1.5
		c-1.4,0-2.7-0.5-3.6-1.5c-1-1-1.4-2.2-1.4-3.6c0-0.9,0.2-1.8,0.7-2.5c0.4-0.8,1.1-1.4,1.8-1.8S261.2,90.9,262.1,90.9z M262.1,92.7
		c-0.9,0-1.6,0.3-2.3,0.9s-0.9,1.4-0.9,2.4c0,1.1,0.4,1.9,1.2,2.5c0.6,0.5,1.3,0.7,2.1,0.7c0.9,0,1.6-0.3,2.2-0.9
		c0.6-0.6,0.9-1.4,0.9-2.3c0-0.9-0.3-1.7-0.9-2.3C263.7,93,263,92.7,262.1,92.7z"/>
</g>
<g>
	<path class="st9" d="M204.5,201.5h5.3v1.8h-3.4v1.7h3.4v1.8h-3.4v2.5h3.4v1.8h-5.3V201.5z"/>
	<path class="st9" d="M211.5,201.5h1.8v7.9h2.7v1.8h-4.5V201.5z"/>
	<path class="st9" d="M226.2,202.9l-1.4,1.2c-0.5-0.7-1-1-1.5-1c-0.2,0-0.4,0.1-0.6,0.2c-0.2,0.1-0.2,0.3-0.2,0.4s0.1,0.3,0.2,0.5
		c0.1,0.2,0.6,0.6,1.3,1.2c0.7,0.6,1.1,1,1.3,1.1c0.4,0.4,0.6,0.7,0.8,1.1s0.2,0.7,0.2,1.1c0,0.8-0.3,1.4-0.8,2
		c-0.5,0.5-1.3,0.8-2.1,0.8c-0.7,0-1.3-0.2-1.8-0.5c-0.5-0.3-0.9-0.9-1.3-1.6l1.5-0.9c0.5,0.9,1,1.3,1.6,1.3c0.3,0,0.6-0.1,0.8-0.3
		s0.3-0.4,0.3-0.6c0-0.2-0.1-0.4-0.2-0.7s-0.5-0.6-1.1-1c-1.1-0.9-1.7-1.5-2-2c-0.3-0.5-0.5-0.9-0.5-1.4c0-0.7,0.3-1.2,0.8-1.7
		c0.5-0.5,1.1-0.7,1.9-0.7c0.5,0,0.9,0.1,1.4,0.3C225.2,201.9,225.7,202.3,226.2,202.9z"/>
	<path class="st9" d="M231.1,201.5h1.9l3.7,9.7h-1.9l-0.8-2h-3.9l-0.8,2h-1.9L231.1,201.5z M232,204.1l-1.3,3.3h2.6L232,204.1z"/>
	<path class="st9" d="M238.1,201.5h1.8v7.9h2.7v1.8h-4.5V201.5z"/>
	<path class="st9" d="M243,201.5h5.3v1.8h-1.8v7.8h-1.9v-7.8H243V201.5z"/>
	<path class="st9" d="M254.2,201.3c1.4,0,2.5,0.5,3.5,1.5s1.5,2.2,1.5,3.6c0,1.4-0.5,2.6-1.5,3.6c-1,1-2.1,1.5-3.5,1.5
		c-1.4,0-2.7-0.5-3.6-1.5c-1-1-1.4-2.2-1.4-3.6c0-0.9,0.2-1.8,0.7-2.5c0.4-0.8,1.1-1.4,1.8-1.8C252.5,201.5,253.3,201.3,254.2,201.3
		z M254.2,203.1c-0.9,0-1.6,0.3-2.3,0.9c-0.6,0.6-0.9,1.4-0.9,2.4c0,1.1,0.4,1.9,1.2,2.5c0.6,0.5,1.3,0.7,2.1,0.7
		c0.9,0,1.6-0.3,2.2-0.9c0.6-0.6,0.9-1.4,0.9-2.3c0-0.9-0.3-1.7-0.9-2.3C255.8,203.4,255.1,203.1,254.2,203.1z"/>
</g>
<g>
	<path class="st9" d="M66.4,131.8l-1.3,1.2c-0.9-0.9-1.9-1.4-3-1.4c-0.9,0-1.7,0.3-2.3,0.9c-0.6,0.6-0.9,1.4-0.9,2.3
		c0,0.6,0.1,1.2,0.4,1.7s0.7,0.9,1.2,1.2c0.5,0.3,1.1,0.4,1.7,0.4c0.5,0,1-0.1,1.5-0.3c0.4-0.2,0.9-0.6,1.5-1.1l1.2,1.3
		c-0.7,0.7-1.4,1.2-2,1.4c-0.6,0.3-1.4,0.4-2.2,0.4c-1.5,0-2.7-0.5-3.7-1.4c-1-1-1.4-2.2-1.4-3.7c0-1,0.2-1.8,0.7-2.6
		s1.1-1.4,1.9-1.8c0.8-0.5,1.7-0.7,2.6-0.7c0.8,0,1.6,0.2,2.3,0.5S65.9,131.2,66.4,131.8z"/>
	<path class="st9" d="M71,130.1h1.9l3.7,9.7h-1.9l-0.8-2H70l-0.8,2h-1.9L71,130.1z M71.9,132.7l-1.3,3.3h2.6L71.9,132.7z"/>
	<path class="st9" d="M78,130.1h1.8l4.1,6.4v-6.4h1.8v9.7H84l-4.1-6.3v6.3H78V130.1z"/>
	<path class="st9" d="M88,130.1h2.2c1.4,0,2.4,0.2,3.1,0.5c0.7,0.3,1.2,0.9,1.7,1.7c0.4,0.8,0.7,1.7,0.7,2.7c0,0.7-0.1,1.4-0.4,2.1
		c-0.2,0.6-0.6,1.1-1,1.6c-0.4,0.4-0.9,0.7-1.4,0.9c-0.5,0.2-1.4,0.2-2.6,0.2H88V130.1z M89.8,131.9v6.1h0.9c0.8,0,1.5-0.1,1.8-0.3
		s0.7-0.5,0.9-1s0.4-1,0.4-1.7c0-1-0.3-1.8-0.9-2.4c-0.5-0.5-1.3-0.8-2.5-0.8H89.8z"/>
	<path class="st9" d="M97.4,130.1h5.3v1.8h-3.4v1.7h3.4v1.8h-3.4v2.5h3.4v1.8h-5.3V130.1z"/>
	<path class="st9" d="M104.4,130.1h1.8v7.9h2.7v1.8h-4.5V130.1z"/>
	<path class="st9" d="M113.2,130.1h1.9l3.7,9.7h-1.9l-0.8-2h-3.9l-0.8,2h-1.9L113.2,130.1z M114.2,132.7l-1.3,3.3h2.6L114.2,132.7z"
		/>
	<path class="st9" d="M125.3,131.4l-1.4,1.2c-0.5-0.7-1-1-1.5-1c-0.2,0-0.4,0.1-0.6,0.2c-0.2,0.1-0.2,0.3-0.2,0.4
		c0,0.2,0.1,0.3,0.2,0.5c0.1,0.2,0.6,0.6,1.3,1.2c0.7,0.6,1.1,1,1.3,1.1c0.4,0.4,0.6,0.7,0.8,1.1c0.2,0.3,0.2,0.7,0.2,1.1
		c0,0.8-0.3,1.4-0.8,2c-0.5,0.5-1.3,0.8-2.1,0.8c-0.7,0-1.3-0.2-1.8-0.5c-0.5-0.3-0.9-0.9-1.3-1.6l1.5-0.9c0.5,0.9,1,1.3,1.6,1.3
		c0.3,0,0.6-0.1,0.8-0.3c0.2-0.2,0.3-0.4,0.3-0.6c0-0.2-0.1-0.4-0.2-0.7c-0.2-0.2-0.5-0.6-1.1-1c-1.1-0.9-1.7-1.5-2-2
		c-0.3-0.5-0.5-0.9-0.5-1.4c0-0.7,0.3-1.2,0.8-1.7c0.5-0.5,1.1-0.7,1.9-0.7c0.5,0,0.9,0.1,1.4,0.3
		C124.3,130.4,124.8,130.8,125.3,131.4z"/>
</g>
<g>
	<path class="st9" d="M38.3,306l-1.4,1.2c-0.5-0.7-1-1-1.5-1c-0.2,0-0.4,0.1-0.6,0.2c-0.2,0.1-0.2,0.3-0.2,0.4s0.1,0.3,0.2,0.5
		c0.1,0.2,0.6,0.6,1.3,1.2c0.7,0.6,1.1,1,1.3,1.1c0.4,0.4,0.6,0.7,0.8,1.1s0.2,0.7,0.2,1.1c0,0.8-0.3,1.4-0.8,2
		c-0.5,0.5-1.3,0.8-2.1,0.8c-0.7,0-1.3-0.2-1.8-0.5c-0.5-0.3-0.9-0.9-1.3-1.6l1.5-0.9c0.5,0.9,1,1.3,1.6,1.3c0.3,0,0.6-0.1,0.8-0.3
		s0.3-0.4,0.3-0.6c0-0.2-0.1-0.4-0.2-0.7s-0.5-0.6-1.1-1c-1.1-0.9-1.7-1.5-2-2c-0.3-0.5-0.5-0.9-0.5-1.4c0-0.7,0.3-1.2,0.8-1.7
		c0.5-0.5,1.1-0.7,1.9-0.7c0.5,0,0.9,0.1,1.4,0.3C37.3,305,37.8,305.5,38.3,306z"/>
	<path class="st9" d="M40.1,304.7h1.8v9.7h-1.8V304.7z"/>
	<path class="st9" d="M44,304.7h5.3v1.8h-3.4v1.7h3.4v1.8h-3.4v2.5h3.4v1.8H44V304.7z"/>
	<path class="st9" d="M51.1,304.7H53c1.1,0,1.8,0.1,2.3,0.3c0.5,0.2,0.8,0.5,1.1,0.9c0.3,0.4,0.4,1,0.4,1.6c0,0.6-0.2,1.2-0.5,1.6
		c-0.3,0.4-0.8,0.8-1.4,1l2.3,4.3h-2l-2.2-4.1h-0.2v4.1h-1.8V304.7z M52.9,308.5h0.6c0.6,0,1-0.1,1.2-0.2s0.3-0.4,0.3-0.8
		c0-0.2-0.1-0.4-0.2-0.6c-0.1-0.2-0.3-0.3-0.4-0.3c-0.2-0.1-0.5-0.1-1-0.1h-0.5V308.5z"/>
	<path class="st9" d="M58.9,304.7h1.9c1.1,0,1.8,0.1,2.3,0.3c0.5,0.2,0.8,0.5,1.1,0.9c0.3,0.4,0.4,1,0.4,1.6c0,0.6-0.2,1.2-0.5,1.6
		c-0.3,0.4-0.8,0.8-1.4,1l2.3,4.3h-2l-2.2-4.1h-0.2v4.1h-1.8V304.7z M60.7,308.5h0.6c0.6,0,1-0.1,1.2-0.2s0.3-0.4,0.3-0.8
		c0-0.2-0.1-0.4-0.2-0.6c-0.1-0.2-0.3-0.3-0.4-0.3c-0.2-0.1-0.5-0.1-1-0.1h-0.5V308.5z"/>
	<path class="st9" d="M69.5,304.7h1.9l3.7,9.7h-1.9l-0.8-2h-3.9l-0.8,2h-1.9L69.5,304.7z M70.4,307.3l-1.3,3.3h2.6L70.4,307.3z"/>
	<path class="st9" d="M81.2,304.7H83l2.2,6.7l2.3-6.7h1.8l1.6,9.7h-1.8l-1-6.1l-2.1,6.1h-1.6l-2-6.1l-1.1,6.1h-1.8L81.2,304.7z"/>
	<path class="st9" d="M95.3,304.7h1.9l3.7,9.7H99l-0.8-2h-3.9l-0.8,2h-1.9L95.3,304.7z M96.3,307.3l-1.3,3.3h2.6L96.3,307.3z"/>
	<path class="st9" d="M102.3,304.7h2.2c1.4,0,2.4,0.2,3.1,0.5c0.7,0.3,1.2,0.9,1.7,1.7c0.4,0.8,0.7,1.7,0.7,2.7
		c0,0.7-0.1,1.4-0.4,2.1c-0.2,0.6-0.6,1.1-1,1.6c-0.4,0.4-0.9,0.7-1.4,0.9c-0.5,0.2-1.4,0.2-2.6,0.2h-2.2V304.7z M104.1,306.5v6.1
		h0.9c0.8,0,1.5-0.1,1.8-0.3c0.4-0.2,0.7-0.5,0.9-1c0.2-0.5,0.4-1,0.4-1.7c0-1-0.3-1.8-0.9-2.4c-0.5-0.5-1.3-0.8-2.5-0.8H104.1z"/>
	<path class="st9" d="M111.9,304.7h1.9c1.1,0,1.8,0.1,2.3,0.3c0.5,0.2,0.8,0.5,1.1,0.9c0.3,0.4,0.4,1,0.4,1.6c0,0.6-0.2,1.2-0.5,1.6
		c-0.3,0.4-0.8,0.8-1.4,1l2.3,4.3h-2l-2.2-4.1h-0.2v4.1h-1.8V304.7z M113.7,308.5h0.6c0.6,0,1-0.1,1.2-0.2s0.3-0.4,0.3-0.8
		c0-0.2-0.1-0.4-0.2-0.6c-0.1-0.2-0.3-0.3-0.4-0.3c-0.2-0.1-0.5-0.1-1-0.1h-0.5V308.5z"/>
	<path class="st9" d="M119.5,304.7h5.3v1.8h-3.4v1.7h3.4v1.8h-3.4v2.5h3.4v1.8h-5.3V304.7z"/>
</g>
<g>
	<path class="st9" d="M199.3,314.5h5.3v1.8h-3.4v1.7h3.4v1.8h-3.4v2.5h3.4v1.8h-5.3V314.5z"/>
	<path class="st9" d="M206.2,314.5h1.8v7.9h2.7v1.8h-4.5V314.5z"/>
	<path class="st9" d="M218.9,314.5h1.9l3.7,9.7h-1.9l-0.8-2h-3.9l-0.8,2h-1.9L218.9,314.5z M219.8,317l-1.3,3.3h2.6L219.8,317z"/>
	<path class="st9" d="M226,314.5h1.9c1.1,0,1.8,0.1,2.3,0.3c0.5,0.2,0.8,0.5,1.1,0.9c0.3,0.4,0.4,1,0.4,1.6c0,0.6-0.2,1.2-0.5,1.6
		c-0.3,0.4-0.8,0.8-1.4,1l2.3,4.3h-2L228,320h-0.2v4.1H226V314.5z M227.8,318.2h0.6c0.6,0,1-0.1,1.2-0.2s0.3-0.4,0.3-0.8
		c0-0.2-0.1-0.4-0.2-0.6c-0.1-0.2-0.3-0.3-0.4-0.3c-0.2-0.1-0.5-0.1-1-0.1h-0.5V318.2z"/>
	<path class="st9" d="M233.8,314.5h1.9c1.1,0,1.8,0.1,2.3,0.3c0.5,0.2,0.8,0.5,1.1,0.9c0.3,0.4,0.4,1,0.4,1.6c0,0.6-0.2,1.2-0.5,1.6
		c-0.3,0.4-0.8,0.8-1.4,1l2.3,4.3h-2l-2.2-4.1h-0.2v4.1h-1.8V314.5z M235.6,318.2h0.6c0.6,0,1-0.1,1.2-0.2s0.3-0.4,0.3-0.8
		c0-0.2-0.1-0.4-0.2-0.6c-0.1-0.2-0.3-0.3-0.4-0.3c-0.2-0.1-0.5-0.1-1-0.1h-0.5V318.2z"/>
	<path class="st9" d="M246,314.2c1.4,0,2.5,0.5,3.5,1.5s1.5,2.2,1.5,3.6c0,1.4-0.5,2.6-1.5,3.6c-1,1-2.1,1.5-3.5,1.5
		c-1.4,0-2.7-0.5-3.6-1.5c-1-1-1.4-2.2-1.4-3.6c0-0.9,0.2-1.8,0.7-2.5c0.4-0.8,1.1-1.4,1.8-1.8C244.3,314.4,245.1,314.2,246,314.2z
		 M246,316c-0.9,0-1.6,0.3-2.3,0.9c-0.6,0.6-0.9,1.4-0.9,2.4c0,1.1,0.4,1.9,1.2,2.5c0.6,0.5,1.3,0.7,2.1,0.7c0.9,0,1.6-0.3,2.2-0.9
		c0.6-0.6,0.9-1.4,0.9-2.3c0-0.9-0.3-1.7-0.9-2.3C247.6,316.3,246.9,316,246,316z"/>
	<path class="st9" d="M252.1,314.5h2l1.8,3.5l1.8-3.5h1.9l-2.8,5.5v4.2h-1.9v-4.2L252.1,314.5z"/>
	<path class="st9" d="M265.7,314.2c1.4,0,2.5,0.5,3.5,1.5s1.5,2.2,1.5,3.6c0,1.4-0.5,2.6-1.5,3.6c-1,1-2.1,1.5-3.5,1.5
		c-1.4,0-2.7-0.5-3.6-1.5c-1-1-1.4-2.2-1.4-3.6c0-0.9,0.2-1.8,0.7-2.5c0.4-0.8,1.1-1.4,1.8-1.8C263.9,314.4,264.8,314.2,265.7,314.2
		z M265.6,316c-0.9,0-1.6,0.3-2.3,0.9c-0.6,0.6-0.9,1.4-0.9,2.4c0,1.1,0.4,1.9,1.2,2.5c0.6,0.5,1.3,0.7,2.1,0.7
		c0.9,0,1.6-0.3,2.2-0.9c0.6-0.6,0.9-1.4,0.9-2.3c0-0.9-0.3-1.7-0.9-2.3C267.3,316.3,266.5,316,265.6,316z"/>
</g>
<g>
	<path class="st9" d="M431.6,297l-1.3,1.3c-0.8-0.9-1.8-1.3-2.9-1.3c-1,0-1.7,0.3-2.4,0.9c-0.6,0.6-1,1.4-1,2.3c0,0.9,0.3,1.7,1,2.4
		s1.5,1,2.5,1c0.6,0,1.2-0.1,1.6-0.4c0.4-0.3,0.8-0.7,1.1-1.3h-2.8v-1.7h4.9l0,0.4c0,0.8-0.2,1.6-0.7,2.4c-0.4,0.8-1,1.3-1.7,1.7
		c-0.7,0.4-1.5,0.6-2.4,0.6c-1,0-1.9-0.2-2.7-0.7c-0.8-0.4-1.4-1.1-1.9-1.9c-0.5-0.8-0.7-1.7-0.7-2.6c0-1.3,0.4-2.4,1.3-3.3
		c1-1.1,2.3-1.7,3.9-1.7c0.8,0,1.6,0.2,2.4,0.5C430.4,295.9,431,296.4,431.6,297z"/>
	<path class="st9" d="M438.6,295.2c1.4,0,2.5,0.5,3.5,1.5s1.5,2.2,1.5,3.6c0,1.4-0.5,2.6-1.5,3.6c-1,1-2.1,1.5-3.5,1.5
		c-1.4,0-2.7-0.5-3.6-1.5c-1-1-1.4-2.2-1.4-3.6c0-0.9,0.2-1.8,0.7-2.5c0.4-0.8,1.1-1.4,1.8-1.8C436.8,295.4,437.7,295.2,438.6,295.2
		z M438.5,297c-0.9,0-1.6,0.3-2.3,0.9c-0.6,0.6-0.9,1.4-0.9,2.4c0,1.1,0.4,1.9,1.1,2.5c0.6,0.5,1.3,0.7,2.1,0.7
		c0.9,0,1.6-0.3,2.2-0.9c0.6-0.6,0.9-1.4,0.9-2.3c0-0.9-0.3-1.7-0.9-2.3C440.2,297.3,439.4,297,438.5,297z"/>
	<path class="st9" d="M445.3,295.4h1.8v7.9h2.7v1.8h-4.5V295.4z"/>
	<path class="st9" d="M455.8,295.2c1.4,0,2.5,0.5,3.5,1.5s1.5,2.2,1.5,3.6c0,1.4-0.5,2.6-1.5,3.6c-1,1-2.1,1.5-3.5,1.5
		c-1.4,0-2.7-0.5-3.6-1.5c-1-1-1.4-2.2-1.4-3.6c0-0.9,0.2-1.8,0.7-2.5c0.4-0.8,1.1-1.4,1.8-1.8C454,295.4,454.9,295.2,455.8,295.2z
		 M455.7,297c-0.9,0-1.6,0.3-2.3,0.9c-0.6,0.6-0.9,1.4-0.9,2.4c0,1.1,0.4,1.9,1.1,2.5c0.6,0.5,1.3,0.7,2.1,0.7
		c0.9,0,1.6-0.3,2.2-0.9c0.6-0.6,0.9-1.4,0.9-2.3c0-0.9-0.3-1.7-0.9-2.3C457.4,297.3,456.6,297,455.7,297z"/>
	<path class="st9" d="M462.5,295.4h1.8l4.1,6.4v-6.4h1.8v9.7h-1.8l-4.1-6.3v6.3h-1.8V295.4z"/>
	<path class="st9" d="M472.5,295.4h2.2c1.4,0,2.4,0.2,3.1,0.5c0.7,0.3,1.2,0.9,1.7,1.7c0.4,0.8,0.7,1.7,0.7,2.7
		c0,0.7-0.1,1.4-0.4,2.1s-0.6,1.1-1,1.6c-0.4,0.4-0.9,0.7-1.4,0.9c-0.5,0.2-1.4,0.2-2.6,0.2h-2.2V295.4z M474.3,297.2v6.1h0.9
		c0.8,0,1.5-0.1,1.8-0.3c0.4-0.2,0.7-0.5,0.9-1c0.2-0.5,0.4-1,0.4-1.7c0-1-0.3-1.8-0.9-2.4c-0.5-0.5-1.3-0.8-2.5-0.8H474.3z"/>
	<path class="st9" d="M482,295.4h1.9c1.1,0,1.8,0.1,2.3,0.3c0.5,0.2,0.8,0.5,1.1,0.9c0.3,0.4,0.4,1,0.4,1.6c0,0.6-0.2,1.2-0.5,1.6
		c-0.3,0.4-0.8,0.8-1.4,1l2.3,4.3h-2L484,301h-0.2v4.1H482V295.4z M483.8,299.2h0.6c0.6,0,1-0.1,1.2-0.2s0.3-0.4,0.3-0.8
		c0-0.2-0.1-0.4-0.2-0.6c-0.1-0.2-0.3-0.3-0.4-0.3c-0.2-0.1-0.5-0.1-1-0.1h-0.5V299.2z"/>
	<path class="st9" d="M489.5,295.4h1.8v9.7h-1.8V295.4z"/>
	<path class="st9" d="M493.4,295.4h1.8l4.1,6.4v-6.4h1.8v9.7h-1.8l-4.1-6.3v6.3h-1.8V295.4z"/>
	<path class="st9" d="M506.3,295.4h1.9l3.7,9.7H510l-0.8-2h-3.9l-0.8,2h-1.9L506.3,295.4z M507.3,298l-1.3,3.3h2.6L507.3,298z"/>
	<path class="st9" d="M518.4,296.8L517,298c-0.5-0.7-1-1-1.5-1c-0.2,0-0.4,0.1-0.6,0.2s-0.2,0.3-0.2,0.4s0.1,0.3,0.2,0.5
		c0.1,0.2,0.6,0.6,1.3,1.2c0.7,0.6,1.1,1,1.3,1.1c0.4,0.4,0.6,0.7,0.8,1.1c0.2,0.3,0.2,0.7,0.2,1.1c0,0.8-0.3,1.4-0.8,2
		c-0.5,0.5-1.3,0.8-2.1,0.8c-0.7,0-1.3-0.2-1.8-0.5c-0.5-0.3-0.9-0.9-1.3-1.6l1.5-0.9c0.5,0.9,1,1.3,1.6,1.3c0.3,0,0.6-0.1,0.8-0.3
		s0.3-0.4,0.3-0.6c0-0.2-0.1-0.4-0.2-0.7c-0.2-0.2-0.5-0.6-1.1-1c-1.1-0.9-1.7-1.5-2-2c-0.3-0.5-0.5-0.9-0.5-1.4
		c0-0.7,0.3-1.2,0.8-1.7c0.5-0.5,1.1-0.7,1.9-0.7c0.5,0,0.9,0.1,1.4,0.3C517.4,295.8,517.9,296.2,518.4,296.8z"/>
</g>
<path class="st10" d="M995.1,210.9c0.4,2.5,2.9,4.2,5.6,3.8l1.1,6.6l-6.4-4.7l-6.4-4.7l4.5-6.5l4.5-6.5l1.1,6.6
	C996.6,206,994.7,208.4,995.1,210.9"/>
<g>
	<path class="st10" d="M1004.6,202.6l0.1,0.6l-3.2,1.7l-0.1-0.6l0.7-0.4l-0.2-1.2l-0.7-0.1l-0.1-0.6L1004.6,202.6z M1003.8,203
		l-1.2-0.2l0.1,0.8L1003.8,203z"/>
	<path class="st10" d="M1004.8,207.6l-0.5-0.3c0.3-0.3,0.4-0.7,0.3-1c0-0.3-0.2-0.5-0.4-0.7c-0.3-0.2-0.5-0.2-0.9-0.2
		c-0.2,0-0.4,0.1-0.6,0.2c-0.2,0.1-0.3,0.3-0.3,0.4c-0.1,0.2-0.1,0.4-0.1,0.6c0,0.2,0.1,0.3,0.2,0.4s0.2,0.3,0.5,0.4l-0.4,0.5
		c-0.3-0.2-0.5-0.4-0.6-0.5c-0.1-0.2-0.2-0.4-0.3-0.7c-0.1-0.5,0-0.9,0.3-1.2c0.3-0.4,0.7-0.6,1.2-0.7c0.3-0.1,0.6,0,0.9,0.1
		c0.3,0.1,0.5,0.3,0.7,0.5c0.2,0.2,0.3,0.5,0.4,0.8c0,0.2,0,0.5-0.1,0.8C1005.1,207.2,1005,207.4,1004.8,207.6z"/>
	<path class="st10" d="M1005.4,210.9l-0.5-0.3c0.3-0.3,0.4-0.7,0.3-1c0-0.3-0.2-0.5-0.4-0.7c-0.3-0.2-0.5-0.2-0.9-0.2
		c-0.2,0-0.4,0.1-0.6,0.2c-0.2,0.1-0.3,0.3-0.3,0.4c-0.1,0.2-0.1,0.4-0.1,0.6c0,0.2,0.1,0.3,0.2,0.4s0.2,0.3,0.5,0.4l-0.4,0.5
		c-0.3-0.2-0.5-0.4-0.6-0.5c-0.1-0.2-0.2-0.4-0.3-0.7c-0.1-0.5,0-0.9,0.3-1.2c0.3-0.4,0.7-0.6,1.2-0.7c0.3-0.1,0.6,0,0.9,0.1
		s0.5,0.3,0.7,0.5c0.2,0.2,0.3,0.5,0.4,0.8c0,0.2,0,0.5-0.1,0.8C1005.7,210.5,1005.5,210.7,1005.4,210.9z"/>
	<path class="st10" d="M1006,211.3l0.3,1.7l-0.6,0.1l-0.2-1.1l-0.6,0.1l0.2,1.1l-0.6,0.1l-0.2-1.1l-0.9,0.1l0.2,1.1l-0.6,0.1
		l-0.3-1.7L1006,211.3z"/>
	<path class="st10" d="M1006.2,215.2l-0.5-0.4c0.2-0.2,0.3-0.4,0.3-0.5c0-0.1,0-0.1-0.1-0.2c-0.1,0-0.1-0.1-0.2,0
		c-0.1,0-0.1,0-0.2,0.1c-0.1,0.1-0.2,0.2-0.4,0.5c-0.2,0.3-0.3,0.4-0.3,0.5c-0.1,0.1-0.2,0.2-0.3,0.3c-0.1,0.1-0.2,0.1-0.4,0.1
		c-0.3,0-0.5,0-0.7-0.1s-0.3-0.3-0.4-0.6c0-0.2,0-0.4,0.1-0.6c0.1-0.2,0.3-0.3,0.5-0.5l0.4,0.4c-0.3,0.2-0.4,0.4-0.4,0.6
		c0,0.1,0.1,0.2,0.1,0.2s0.2,0.1,0.2,0.1c0.1,0,0.1,0,0.2-0.1c0.1-0.1,0.2-0.2,0.3-0.4c0.2-0.4,0.4-0.6,0.6-0.8
		c0.1-0.1,0.3-0.2,0.5-0.2c0.2,0,0.4,0,0.6,0.1c0.2,0.1,0.3,0.3,0.3,0.6c0,0.2,0,0.3,0,0.5C1006.5,214.8,1006.4,215,1006.2,215.2z"
		/>
	<path class="st10" d="M1007.1,217.1c0.1,0.4,0,0.8-0.3,1.2c-0.3,0.4-0.7,0.6-1.2,0.7c-0.5,0.1-0.9,0-1.3-0.2
		c-0.4-0.2-0.6-0.6-0.7-1c-0.1-0.5,0-0.9,0.3-1.2c0.3-0.4,0.7-0.6,1.2-0.7c0.3-0.1,0.6,0,0.9,0.1c0.3,0.1,0.5,0.3,0.7,0.5
		C1006.9,216.6,1007,216.8,1007.1,217.1z M1006.4,217.2c0-0.3-0.2-0.5-0.4-0.7c-0.2-0.2-0.5-0.2-0.9-0.1c-0.4,0.1-0.6,0.2-0.8,0.5
		c-0.1,0.2-0.2,0.4-0.1,0.7c0,0.3,0.2,0.5,0.4,0.6s0.5,0.2,0.9,0.2c0.3-0.1,0.6-0.2,0.8-0.4C1006.4,217.8,1006.5,217.5,1006.4,217.2
		z"/>
</g>
<polygon class="st11" points="36.3,67.2 5.7,388.4 645.5,337.7 641.1,282.9 992,253.2 981,178 903.4,171.1 862.2,177 863.1,86.8 
	829.4,4.4 "/>
<path class="st9" d="M917.1,252.7c-1.2-1.5-1.8-3.4-1.8-5.5c0-4.8,3.7-8.8,8.4-8.8c4.6,0,8.4,3.9,8.4,8.8c0,2.1-0.7,4-1.8,5.5h0.8
	c1.1-1.5,1.7-3.4,1.7-5.5c0-5.2-4-9.5-9-9.5c-5,0-9,4.2-9,9.5c0,2,0.6,3.9,1.7,5.5H917.1z"/>
<path class="st9" d="M929.2,244.5c-0.1-1.1-1-1.9-2-1.9h-0.5V242c0,0,0-0.1,0-0.1c-0.1-1.3-1.1-2.4-2.4-2.4c-0.9,0-1.7,0.6-2.1,1.4
	c-0.7,0.3-1.2,1-1.3,1.7h-1c-0.2,0-0.4,0.2-0.4,0.4l0,0.3c0,0,0.9,0,0.9,0h0.4v0.4h-0.5c-1.1,0-2,0.8-2,1.9l-0.3,4.8
	c-0.1,1.2,0.9,2.2,2,2.2h8.3c0.2,0,0.4-0.2,0.4-0.4l-0.1-0.7h0.8c0.2,0,0.4-0.2,0.4-0.4L929.2,244.5z M924.2,240.3
	c1,0,1.8,0.8,1.8,1.9v0.6h-0.6c-0.2-1.2-1.1-2.1-2.3-2.1C923.5,240.4,923.8,240.3,924.2,240.3 M922.4,242.2c0-0.3,0.1-0.6,0.2-0.8
	c0.2,0,0.3-0.1,0.5-0.1c0.9,0,1.6,0.6,1.8,1.5h-2.4V242.2z M921.8,241.8c0,0,0,0.1,0,0.1c0,0,0,0.1,0,0.1v0.6h-0.5
	C921.5,242.3,921.6,242,921.8,241.8 M921.3,243.3h3.6v0.4h-3.6V243.3z M918.7,246.3c0.1-1,0.9-1.8,2-1.8v1.4
	c-0.2,0.1-0.3,0.3-0.3,0.5c0,0.3,0.2,0.6,0.6,0.6c0.3,0,0.6-0.3,0.6-0.6c0-0.2-0.1-0.4-0.3-0.5v-1.4h3.6v1.4
	c-0.2,0.1-0.3,0.3-0.3,0.5c0,0.3,0.2,0.6,0.6,0.6c0.3,0,0.6-0.3,0.6-0.6c0-0.2-0.1-0.4-0.3-0.5v-1.4h0c1,0,1.9,0.8,2,1.8l0.2,2.7
	c0.1,1-0.7,1.8-1.6,1.8h-5.9c-1,0-1.7-0.8-1.6-1.8L918.7,246.3z M927.6,252h-8.9c-0.2,0-0.3-0.2-0.3-0.4l0-0.2h9.5l0,0.2
	C927.9,251.8,927.8,252,927.6,252 M928,245.7c-0.1-1.1-1-1.9-2-1.9h-0.5v-0.4h1.1c1,0,1.9,0.8,2,1.8l0.3,4.4h-0.6L928,245.7z
	 M928.7,250.8h-0.3l0-0.6h0.6l0,0.2C929,250.7,928.9,250.8,928.7,250.8"/>
<path class="st9" d="M941.7,203.2c-1.3-1.7-2-3.8-2-6c0-5.3,4.1-9.7,9.2-9.7c5.1,0,9.2,4.3,9.2,9.7c0,2.3-0.8,4.4-2,6h0.9
	c1.2-1.7,1.8-3.8,1.8-6c0-5.8-4.5-10.4-10-10.4c-5.5,0-10,4.7-10,10.4c0,2.3,0.7,4.3,1.8,6H941.7z"/>
<path class="st9" d="M955,194.2c-0.1-1.2-1.1-2.1-2.2-2.1h-0.6v-0.7c0,0,0-0.1,0-0.1c-0.1-1.5-1.2-2.6-2.6-2.6c-1,0-1.9,0.6-2.4,1.5
	c-0.7,0.4-1.3,1.1-1.5,1.9h-1.1c-0.2,0-0.4,0.2-0.4,0.4l0,0.4c0,0,1,0,1,0h0.4v0.5h-0.5c-1.2,0-2.2,0.9-2.3,2.1l-0.4,5.3
	c-0.1,1.3,0.9,2.4,2.3,2.4h9.1c0.2,0,0.4-0.2,0.4-0.5l-0.1-0.8h0.9c0.2,0,0.4-0.2,0.4-0.5L955,194.2z M949.5,189.5
	c1.1,0,2,0.9,2,2.1v0.7h-0.6c-0.2-1.3-1.2-2.3-2.5-2.3C948.7,189.7,949.1,189.5,949.5,189.5 M947.5,191.6c0-0.3,0.1-0.7,0.2-0.9
	c0.2-0.1,0.4-0.1,0.5-0.1c1,0,1.8,0.7,2,1.7h-2.7V191.6z M946.9,191.2c0,0,0,0.1,0,0.1c0,0,0,0.1,0,0.1v0.7h-0.5
	C946.5,191.7,946.6,191.4,946.9,191.2 M946.3,192.9h4v0.5h-4V192.9z M943.4,196.1c0.1-1.1,1-2,2.2-2v1.5c-0.2,0.1-0.3,0.3-0.3,0.5
	c0,0.4,0.3,0.6,0.6,0.6c0.3,0,0.6-0.3,0.6-0.6c0-0.2-0.1-0.4-0.3-0.5v-1.5h4v1.5c-0.2,0.1-0.3,0.3-0.3,0.5c0,0.4,0.3,0.6,0.6,0.6
	c0.3,0,0.6-0.3,0.6-0.6c0-0.2-0.1-0.4-0.3-0.5v-1.5h0c1.1,0,2.1,0.9,2.2,2l0.2,2.9c0.1,1.1-0.8,2-1.8,2H945c-1.1,0-1.9-0.9-1.8-2
	L943.4,196.1z M953.2,202.4h-9.8c-0.2,0-0.4-0.2-0.4-0.4l0-0.2h10.5l0,0.2C953.6,202.2,953.4,202.4,953.2,202.4 M953.7,195.4
	c-0.1-1.2-1.1-2.1-2.2-2.1h-0.6v-0.5h1.3c1.1,0,2.1,0.9,2.2,2l0.4,4.9H954L953.7,195.4z M954.4,201.1h-0.3l0-0.6h0.7l0,0.2
	C954.8,200.9,954.6,201.1,954.4,201.1"/>
<path class="st9" d="M835.3,158.5c-5.2,0-9.4,4.6-9.4,10.2c0,2.2,0.6,4.2,1.7,5.9h0.9c-1.2-1.6-1.9-3.7-1.9-5.9
	c0-5.2,3.9-9.5,8.7-9.5c4.8,0,8.7,4.2,8.7,9.5c0,2.2-0.7,4.3-1.9,5.9h0.9c1.1-1.7,1.7-3.7,1.7-5.9
	C844.7,163.1,840.5,158.5,835.3,158.5"/>
<path class="st9" d="M835.1,159.7L835.1,159.7C835.1,159.7,835.1,159.7,835.1,159.7L835.1,159.7z"/>
<path class="st9" d="M835.5,159.7L835.5,159.7C835.5,159.7,835.5,159.7,835.5,159.7L835.5,159.7z"/>
<path class="st9" d="M841.4,165.7c-0.7-0.4-1.7-0.9-3.1-1c-1.3,0-2.4,0.4-3.1,0.8c-0.7-0.4-1.7-0.8-3-0.8c0,0-0.1,0-0.1,0
	c-1.4,0-2.4,0.5-3.1,0.9l-0.2,0.1v8.3h5.1c0.2,0.2,0.7,0.6,1.3,0.6c0,0,0,0,0.1,0c0.6,0,1-0.3,1.2-0.6h5.1v-8.3L841.4,165.7z
	 M840.8,166.3v5.7c-0.6-0.3-1.4-0.6-2.4-0.6c-1.2,0-2.1,0.3-2.8,0.6v-5.7c0.6-0.4,1.5-0.8,2.7-0.7
	C839.4,165.6,840.3,165.9,840.8,166.3 M832.1,165.6c1.1,0,2.1,0.3,2.7,0.7v5.7c-0.7-0.3-1.6-0.6-2.7-0.6c-1,0-1.9,0.3-2.6,0.6v-5.7
	C830.2,166,831.1,165.7,832.1,165.6 M836.2,173.2l-0.1,0.1c-0.1,0.1-0.4,0.4-0.8,0.4c-0.5,0-0.8-0.3-0.9-0.4l-0.1-0.1h-4.6v-0.3
	c0.6-0.3,1.5-0.7,2.6-0.7c1.3,0,2.2,0.5,2.9,0.8l0.2,0.1l0.2-0.1c0.6-0.4,1.7-0.9,3-0.9c1,0,1.9,0.4,2.5,0.7v0.3H836.2z"/>
<polygon class="st9" points="841.7,165.3 835.2,161.7 828.7,165.3 828.7,164.3 835.2,160.7 841.7,164.3 "/>
<path class="st9" d="M874.6,224.5c-5.2,0-9.3,4.3-9.3,9.6c0,2.1,0.6,4,1.7,5.6h0.9c-1.2-1.5-1.9-3.5-1.9-5.6c0-4.9,3.9-8.9,8.6-8.9
	c4.8,0,8.6,4,8.6,8.9c0,2.1-0.7,4-1.9,5.6h0.9c1.1-1.6,1.7-3.5,1.7-5.6C883.9,228.8,879.7,224.5,874.6,224.5"/>
<polygon class="st9" points="872.6,227.3 876.5,227.4 876.5,231.5 880.5,231.5 880.5,235.5 876.6,235.5 876.6,239.7 872.7,239.7 
	872.7,235.6 868.6,235.6 868.6,231.5 872.6,231.5 "/>
<path class="st9" d="M603.6,30c-5.7,0-10.3,4.7-10.3,10.5c0,2.3,0.7,4.4,1.9,6.1h1c-1.3-1.7-2.1-3.8-2.1-6.1c0-5.4,4.3-9.7,9.6-9.7
	c5.3,0,9.6,4.4,9.6,9.7c0,2.3-0.8,4.4-2.1,6.1h1c1.2-1.7,1.9-3.8,1.9-6.1C614,34.7,609.4,30,603.6,30"/>
<path class="st9" d="M607.9,34l-2.1,2.3l1.5,1.5l2.3-2.3c0,0,1.1,2.3-0.9,3.9c-0.8,1-2.9,0.7-2.9,0.7l-5.9,6.1
	c-0.5,0.5-1.4,0.6-1.9,0l-0.3-0.3c-0.6-0.5-0.6-1.5,0-2l6.1-6.1c0,0-0.5-1.9,0.5-3C606.3,32.8,607.9,34,607.9,34"/>
<polygon class="st9" points="598.1,33.6 600.2,34.7 600.7,36.3 602,37.7 601,38.7 599.7,37.4 598.1,36.9 597.1,34.7 "/>
<path class="st9" d="M604.2,43.1l2.9,3c0.6,0.6,1.6,0.6,2.2,0l0.1-0.1c0.6-0.6,0.5-1.6,0-2.2l-2.7-2.7H606L604.2,43.1z"/>
<path class="st9" d="M378.6,266.2c-5.6,0-10.2,4.7-10.2,10.4c0,2.2,0.7,4.3,1.9,6h1c-1.3-1.6-2.1-3.7-2.1-6c0-5.3,4.2-9.6,9.4-9.6
	c5.2,0,9.4,4.3,9.4,9.6c0,2.3-0.8,4.4-2.1,6h1c1.2-1.7,1.9-3.8,1.9-6C388.7,270.8,384.2,266.2,378.6,266.2"/>
<path class="st9" d="M382.1,271.4c-0.1,0.1-0.1,0.2-0.2,0.2c-0.7,0.7-1.7,0.7-2.4,0c-0.4-0.4-0.5-0.9-0.5-1.4c0-0.2,0.1-0.5,0.2-0.7
	c0.1-0.3,0.2-0.5,0.4-0.7c0.6-0.6,1.6-0.6,2.2,0c0.2,0.2,0.4,0.5,0.4,0.8C382.5,270.2,382.4,270.9,382.1,271.4"/>
<path class="st9" d="M377.6,271.6c-0.7,0.7-1.7,0.7-2.4,0c-0.1-0.1-0.1-0.1-0.2-0.2c-0.4-0.5-0.4-1.3-0.1-1.9
	c0.1-0.3,0.2-0.5,0.4-0.7c0.6-0.6,1.6-0.6,2.2,0c0.2,0.2,0.4,0.5,0.4,0.8c0.1,0.2,0.2,0.4,0.2,0.6
	C378.2,270.7,378,271.3,377.6,271.6"/>
<path class="st9" d="M375.1,273.4c0,1-0.8,1.7-1.7,1.7c-0.2,0-0.4,0-0.6-0.1c-0.5-0.2-0.9-0.6-1-1.1c-0.2-0.2-0.2-0.5-0.2-0.9
	c0-0.9,0.7-1.6,1.5-1.6c0.3,0,0.5,0.1,0.8,0.2c0.2,0,0.3,0.1,0.5,0.2C374.9,272.3,375.1,272.9,375.1,273.4"/>
<path class="st9" d="M382,273.4c0,1,0.8,1.7,1.7,1.7c0.2,0,0.4,0,0.6-0.1c0.5-0.2,0.9-0.6,1-1.1c0.2-0.2,0.2-0.5,0.2-0.9
	c0-0.9-0.7-1.6-1.5-1.6c-0.3,0-0.5,0.1-0.8,0.2c-0.2,0-0.3,0.1-0.5,0.2C382.2,272.3,382,272.9,382,273.4"/>
<path class="st9" d="M383.7,279.1c0,1.9-1.5,3.5-3.4,3.5c-0.3,0-0.6,0-0.8-0.1c0,0,0,0,0,0c-0.3-0.1-0.6-0.1-0.8-0.1
	c-0.2,0-0.5,0-0.7,0.1c0,0,0,0,0,0c-0.1,0-0.2,0-0.2,0.1c0,0,0,0,0,0c-0.2,0.1-0.5,0.1-0.7,0.1c-1.9,0-3.4-1.5-3.4-3.5
	c0-0.1,0-0.3,0-0.4v0c0.1-0.8,0.4-1.5,1-2c0,0,0,0,0,0c0,0,0.1-0.1,0.1-0.1c0,0,0,0,0,0c0.3-0.3,0.6-0.7,0.7-1.1c0,0,0,0,0,0
	c0,0,0,0,0,0c0-0.1,0.1-0.1,0.1-0.2c0,0,0,0,0,0c0,0,0,0,0,0c0,0,0,0,0,0c0.5-1.3,1.7-2.2,3.1-2.2c1.5,0,2.7,0.9,3.2,2.3
	c0,0,0,0,0,0c0.2,0.5,0.5,0.9,0.8,1.3c0,0,0,0,0,0c0.6,0.6,1,1.3,1,2.2C383.6,278.9,383.7,279,383.7,279.1"/>
<path class="st9" d="M338.3,321.4c-5.8,0-10.5,4.7-10.5,10.5c0,2.3,0.7,4.4,1.9,6.1h1c-1.3-1.7-2.1-3.8-2.1-6.1
	c0-5.4,4.3-9.7,9.7-9.7c5.4,0,9.7,4.3,9.7,9.7c0,2.3-0.8,4.4-2.1,6.1h1c1.2-1.7,1.9-3.8,1.9-6.1
	C348.8,326.1,344.1,321.4,338.3,321.4"/>
<path class="st9" d="M335,337.9h-0.8c-0.4,0-0.8-0.3-0.8-0.8v-8.6c0-0.4,0.3-0.8,0.8-0.8h0.8c0.4,0,0.8,0.3,0.8,0.8v8.6
	C335.7,337.6,335.4,337.9,335,337.9"/>
<path class="st9" d="M332.3,337h-0.6c-0.3,0-0.6-0.3-0.6-0.6v-7c0-0.3,0.3-0.6,0.6-0.6h0.6c0.3,0,0.6,0.3,0.6,0.6v7
	C332.9,336.7,332.6,337,332.3,337"/>
<path class="st9" d="M331,334.2h-0.5c-0.3,0-0.5-0.2-0.5-0.5v-1.6c0-0.3,0.2-0.5,0.5-0.5h0.5c0.3,0,0.5,0.2,0.5,0.5v1.6
	C331.5,333.9,331.3,334.2,331,334.2"/>
<path class="st9" d="M341.7,327.8h0.8c0.4,0,0.8,0.3,0.8,0.8v8.6c0,0.4-0.3,0.8-0.8,0.8h-0.8c-0.4,0-0.8-0.3-0.8-0.8v-8.6
	C341,328.1,341.3,327.8,341.7,327.8"/>
<path class="st9" d="M344.4,328.7h0.6c0.3,0,0.6,0.3,0.6,0.6v7c0,0.3-0.3,0.6-0.6,0.6h-0.6c-0.3,0-0.6-0.3-0.6-0.6v-7
	C343.8,329,344.1,328.7,344.4,328.7"/>
<path class="st9" d="M345.7,331.5h0.5c0.3,0,0.5,0.2,0.5,0.5v1.6c0,0.3-0.2,0.5-0.5,0.5h-0.5c-0.3,0-0.5-0.2-0.5-0.5v-1.6
	C345.2,331.8,345.4,331.5,345.7,331.5"/>
<path class="st9" d="M341.7,333.9h-6.9c-0.4,0-0.7-0.3-0.7-0.7v-0.7c0-0.4,0.3-0.7,0.7-0.7h6.9c0.4,0,0.7,0.3,0.7,0.7v0.7
	C342.5,333.6,342.1,333.9,341.7,333.9"/>
<path class="st9" d="M882.7,188.2c-5.4,0-9.8,4.4-9.8,9.8c0,2.1,0.7,4.1,1.8,5.6h0.9c-1.2-1.5-2-3.5-2-5.6c0-5,4-9,9-9c5,0,9,4,9,9
	c0,2.1-0.7,4.1-2,5.6h0.9c1.1-1.6,1.8-3.5,1.8-5.6C892.4,192.6,888,188.2,882.7,188.2"/>
<polygon class="st9" points="882.4,191.3 879,194.6 879.3,194.9 882.4,191.9 887,196.6 883.9,199.7 882.8,198.6 882.5,198.9 
	883.9,200.3 887.6,196.6 "/>
<polygon class="st9" points="885.4,195.2 880.8,199.7 877.7,196.6 878.8,195.5 878.5,195.2 877.1,196.6 880.8,200.3 885.7,195.5 "/>
<polygon class="st9" points="882.2,198.1 878.4,194.3 882.4,190.4 886.3,194.3 885.9,194.6 886.2,194.9 886.9,194.3 882.4,189.8 
	877.8,194.3 881.9,198.4 "/>
<rect x="881.9" y="193.1" transform="matrix(0.7071 -0.7071 0.7071 0.7071 121.5993 680.6174)" class="st9" width="1" height="1"/>
<path class="st9" d="M880.4,203.5c-0.1,0.1-0.4,0.1-0.7,0.1c-0.7,0-1.3-0.5-1.3-1.3c0-0.8,0.6-1.4,1.4-1.4c0.3,0,0.5,0.1,0.6,0.1
	l-0.1,0.3c-0.1-0.1-0.3-0.1-0.5-0.1c-0.6,0-1,0.4-1,1.1c0,0.6,0.4,1.1,1,1.1c0.2,0,0.4,0,0.6-0.1L880.4,203.5z"/>
<polygon class="st9" points="880.8,201 881.1,201 881.1,203.3 882.2,203.3 882.2,203.6 880.8,203.6 "/>
<path class="st9" d="M882.8,201v1.6c0,0.6,0.3,0.8,0.6,0.8c0.4,0,0.6-0.3,0.6-0.8V201h0.3v1.5c0,0.8-0.4,1.1-1,1.1
	c-0.5,0-0.9-0.3-0.9-1.1V201H882.8z"/>
<path class="st9" d="M885,201c0.1,0,0.4-0.1,0.6-0.1c0.3,0,0.6,0.1,0.7,0.2c0.1,0.1,0.2,0.3,0.2,0.5c0,0.3-0.2,0.5-0.4,0.6v0
	c0.2,0.1,0.5,0.3,0.5,0.7c0,0.2-0.1,0.4-0.2,0.5c-0.2,0.2-0.5,0.2-0.9,0.2c-0.2,0-0.4,0-0.5,0V201z M885.3,202.1h0.3
	c0.4,0,0.6-0.2,0.6-0.4c0-0.3-0.2-0.4-0.6-0.4c-0.2,0-0.2,0-0.3,0V202.1z M885.3,203.4c0.1,0,0.2,0,0.3,0c0.3,0,0.7-0.1,0.7-0.5
	c0-0.4-0.3-0.5-0.7-0.5h-0.3V203.4z"/>
<path class="st9" d="M532.9,54.6c-1.3-1.7-2.1-3.8-2.1-6.1c0-5.4,4.4-9.7,9.7-9.7c5.4,0,9.7,4.4,9.7,9.7c0,2.3-0.8,4.4-2.1,6.1h1
	c1.2-1.7,1.9-3.8,1.9-6.1c0-5.8-4.7-10.5-10.5-10.5c-5.8,0-10.5,4.7-10.5,10.5c0,2.3,0.7,4.4,1.9,6.1H532.9z"/>
<path class="st9" d="M545.7,52.5c0.1,0,0.2,0.1,0.3,0.1c0.3,0.1,0.6,0.3,0.6,0.3c0,0-0.1-0.3-0.4-0.4c-0.3-0.1-0.3-0.1-0.2-0.1
	c0.1,0,0.1,0,0.1-0.2c0-0.2,0-0.4-0.1-0.5c0-0.1-0.1,0-0.7,0c-0.2,0-0.3,0-0.4,0l-0.4-0.4c0,0,0-0.1-0.1-0.1
	c-0.1-0.1-0.2-0.3-0.2-0.4c0-0.1-0.1-0.1-0.1-0.2c-0.1-0.1-0.1-0.2-0.2-0.3c-0.1-0.1-0.1-0.2-0.2-0.3c-0.1-0.1-0.2-0.2-0.3-0.4
	c0-0.1-0.1-0.1-0.2-0.2c-0.1-0.1-0.2-0.2-0.2-0.3c0,0-0.1-0.1-0.1-0.1c-0.1-0.1-0.1-0.4,0-0.5c0-0.2,0-0.4,0.1-0.7
	c0-0.2,0-0.4,0.1-0.6c0.1-0.4,0.1-0.7,0.1-1.1c0-0.1,0-0.2,0-0.3c0-0.1,0-0.1,0-0.2c0-0.1,0-0.1,0-0.2c0-0.1-0.1-0.1-0.1-0.2
	c-0.2-0.2-0.5-0.3-0.8-0.4c-0.2,0-0.4-0.1-0.5-0.2c-0.3-0.1-0.5-0.4-0.5-0.6c0-0.1,0.1-0.2,0.1-0.2c0.1-0.1,0.2-0.4,0.3-0.8
	c0,0,0.1-0.1,0.1-0.2c0.1-0.2,0.2-0.3,0.1-0.5c0-0.1,0-0.1-0.1-0.1c0-0.2,0-0.3,0-0.5c0-0.7-0.4-1.2-1-1.3c0,0,0,0,0-0.1
	c0-0.1-0.1-0.2-0.2-0.2c-0.1,0-0.2,0.1-0.2,0.2c0,0,0,0,0,0.1c-0.6,0.1-1,0.6-1,1.3c0,0.1,0,0.3,0,0.5c-0.1,0-0.1,0.1-0.1,0.1
	c0,0.2,0.1,0.3,0.1,0.5c0,0.1,0.1,0.2,0.1,0.2c0.1,0.3,0.2,0.6,0.3,0.8c0.1,0.1,0.1,0.2,0.1,0.3c0,0.2-0.2,0.4-0.4,0.5
	c-0.2,0.1-0.4,0.1-0.5,0.2c-0.3,0.1-0.6,0.1-0.8,0.4c-0.1,0.1-0.1,0.1-0.1,0.2c0,0.1,0,0.1,0,0.2c0,0.1,0,0.1,0,0.2
	c0,0.1,0,0.2,0,0.3c0,0.4,0.1,0.7,0.1,1.1c0,0.2,0.1,0.4,0.1,0.6c0,0.2,0,0.4,0.1,0.7c0,0.2,0.1,0.4,0,0.5c0,0-0.1,0.1-0.1,0.1
	c-0.1,0.1-0.2,0.2-0.2,0.3c-0.1,0.1-0.1,0.1-0.2,0.2c-0.1,0.1-0.2,0.2-0.3,0.4c-0.1,0.1-0.1,0.2-0.2,0.3c-0.1,0.1-0.1,0.2-0.2,0.3
	c0,0.1-0.1,0.1-0.1,0.2c-0.1,0.1-0.2,0.3-0.2,0.4c0,0,0,0.1-0.1,0.1c-0.1,0.1-0.2,0.1-0.2,0.2c0,0,0,0-0.1,0l-0.1,0.1c0,0,0,0,0,0
	c-0.1,0.1,0,0.1-0.6,0.1s-0.7-0.1-0.7,0c0,0.1-0.1,0.3-0.1,0.5c0,0.2,0.1,0.2,0.1,0.2c0.1,0,0.1,0-0.2,0.1c-0.3,0.1-0.4,0.4-0.4,0.4
	c0,0,0.3-0.2,0.6-0.3c0.3-0.1,0.7-0.4,0.7-0.2c0,0,0,0,0,0l0,0l0,0l0,0l0,0c0,0,0,0,0,0c0,0,0,0,0,0c0,0,0,0,0,0
	c0,0-0.1,0.1-0.1,0.1c-0.2,0.2-0.3,0.6-0.2,0.9c0.1,0.3,0.3,0.5,0.5,0.6c0.1,0.1,0.3,0.1,0.5,0.1c0.3,0.1,0.7,0.1,1.1,0.1
	c0,0,0,0,0,0c0.2,0,0.4-0.1,0.6-0.1c0.1,0,0.3-0.1,0.4-0.1c0.3-0.1,0.6-0.2,0.9-0.3c0.4-0.1,0.8-0.2,1.2-0.4c0.1,0,0.2-0.1,0.3-0.1
	c0,0,0,0,0,0c0.1,0.1,0.2,0.1,0.3,0.1c0.4,0.2,0.8,0.3,1.2,0.4c0.3,0.1,0.6,0.2,0.9,0.3c0.1,0,0.3,0.1,0.4,0.1
	c0.2,0,0.4,0.1,0.6,0.1c0,0,0,0,0,0c0.4,0,0.7,0,1.1-0.1c0.2,0,0.3-0.1,0.5-0.1c0.3-0.1,0.5-0.3,0.5-0.6c0.1-0.3-0.1-0.6-0.2-0.9
	C545.8,52.6,545.7,52.6,545.7,52.5C545.7,52.6,545.7,52.6,545.7,52.5C545.7,52.6,545.7,52.5,545.7,52.5
	C545.7,52.5,545.7,52.5,545.7,52.5C545.7,52.5,545.7,52.5,545.7,52.5L545.7,52.5C545.7,52.5,545.7,52.5,545.7,52.5 M534.9,52.3
	c-0.1,0-0.1-0.2-0.1-0.3c0,0,0.5,0,0.4,0.1C535.2,52.2,535,52.3,534.9,52.3 M539.1,49.6c0,0.1,0,0.2-0.1,0.3c0,0,0,0.1-0.1,0.1
	c0,0,0,0,0,0.1c0,0.1-0.1,0.1-0.1,0.2c0,0-0.1,0.1-0.1,0.1c0,0.1-0.1,0.1-0.1,0.2c-0.1,0.1-0.1,0.2-0.2,0.3c0,0.1-0.1,0.1-0.1,0.2
	c0,0,0,0,0,0c0,0,0,0.1-0.1,0.1c0,0,0,0.1-0.1,0.1c0,0,0,0.1,0,0.1c0,0.1-0.1,0.1-0.1,0.2c0,0-0.1,0-0.1,0c0,0,0,0-0.1,0
	c0,0-0.1,0-0.1,0.1c0,0,0,0,0,0c-0.1,0-0.2,0-0.3,0.1c0,0-0.1,0-0.1,0c0,0-0.1,0-0.1,0c0,0-0.1,0-0.1,0.1c0,0,0,0,0,0
	c0,0-0.1,0-0.1,0c0,0-0.1,0-0.1,0c-0.1,0-0.1,0-0.2,0c0,0-0.1,0-0.1,0l-0.2,0.1c0,0,0,0,0,0c0,0,0,0,0,0c0-0.1,0.1-0.1,0.1-0.2
	c0-0.1,0.1-0.1,0.1-0.2c0,0,0.1-0.1,0.1-0.1c0,0,0.1-0.1,0.1-0.1c0,0,0.1-0.1,0.1-0.1c0.1,0,0.1-0.1,0.2-0.1c0,0,0.1-0.1,0.1-0.1
	c0,0,0.1-0.1,0.1-0.1c0,0,0.1-0.1,0.1-0.1c0.1,0,0.1-0.1,0.1-0.1c0,0,0.1-0.1,0.1-0.1c0.1-0.1,0.1-0.1,0.2-0.2
	c0.1-0.1,0.1-0.2,0.2-0.2c0,0,0,0,0,0c0,0,0.1-0.1,0.1-0.1c0,0,0-0.1,0.1-0.1c0-0.1,0.1-0.1,0.1-0.2c0-0.1,0.1-0.2,0.1-0.3
	c0-0.1,0.1-0.1,0.1-0.2c0-0.1,0.1-0.2,0.1-0.3c0-0.1,0-0.1,0-0.2c0,0,0,0,0,0c0-0.1,0-0.1,0-0.2c0,0,0-0.1,0-0.1c0,0,0-0.1,0-0.1
	c0,0,0-0.1,0-0.1c0,0,0-0.1,0-0.1c0,0,0,0,0,0c0,0,0,0,0,0c0,0.1,0,0.1,0,0.2c0,0.1,0,0.2,0,0.2c0,0.1,0,0.1,0,0.2c0,0,0,0.1,0,0.1
	c0,0.1,0,0.1,0,0.2c0,0.1,0,0.1,0,0.2C539.1,49.5,539.1,49.5,539.1,49.6 M546,51.9c0,0.1,0,0.4-0.1,0.4c-0.1,0-0.3,0-0.3-0.2
	C545.6,51.9,546,51.9,546,51.9 M544.7,52.1l-0.2-0.1c0,0-0.1,0-0.1,0c-0.1,0-0.1,0-0.2,0c0,0-0.1,0-0.1,0c0,0-0.1,0-0.1,0
	c0,0,0,0,0,0c0,0-0.1,0-0.1-0.1c0,0-0.1,0-0.1,0c0,0-0.1,0-0.1,0c-0.1,0-0.2-0.1-0.3-0.1c0,0,0,0,0,0c0,0-0.1,0-0.1-0.1
	c0,0,0,0-0.1,0c0,0-0.1,0-0.1,0c-0.1,0-0.1-0.1-0.1-0.2c0,0,0-0.1,0-0.1c0,0,0-0.1-0.1-0.1c0,0,0-0.1-0.1-0.1c0,0,0,0,0,0
	c0-0.1-0.1-0.1-0.1-0.2c0-0.1-0.1-0.2-0.2-0.3c0-0.1-0.1-0.1-0.1-0.2c0,0,0-0.1-0.1-0.1c0-0.1-0.1-0.1-0.1-0.2c0,0,0,0,0-0.1
	c0,0,0-0.1-0.1-0.1c0-0.1-0.1-0.2-0.1-0.3c0,0,0-0.1,0-0.1c0-0.1,0-0.1,0-0.2c0-0.1,0-0.1,0-0.2c0,0,0-0.1,0-0.1c0-0.1,0-0.1,0-0.2
	c0-0.1,0-0.2,0-0.2c0-0.1,0-0.1,0-0.2c0,0,0,0,0,0c0,0,0,0,0,0c0,0,0,0.1,0,0.1c0,0,0,0.1,0,0.1c0,0,0,0.1,0,0.1c0,0,0,0.1,0,0.1
	c0,0.1,0,0.2,0,0.2c0,0,0,0,0,0c0,0.1,0,0.1,0,0.2c0,0.1,0.1,0.2,0.1,0.3c0,0.1,0,0.1,0.1,0.2c0.1,0.1,0.1,0.2,0.1,0.3
	c0,0.1,0.1,0.1,0.1,0.2c0,0,0,0.1,0.1,0.1c0,0,0.1,0.1,0.1,0.1c0,0,0,0,0,0c0.1,0.1,0.1,0.2,0.2,0.2c0.1,0.1,0.2,0.1,0.2,0.2
	c0,0,0.1,0.1,0.1,0.1c0,0,0.1,0.1,0.1,0.1c0,0,0.1,0.1,0.1,0.1c0,0,0.1,0.1,0.1,0.1c0,0,0.1,0.1,0.1,0.1c0.1,0,0.1,0.1,0.2,0.1
	c0,0,0.1,0.1,0.1,0.1c0,0,0.1,0,0.1,0.1c0,0,0.1,0,0.1,0.1c0,0.1,0.1,0.1,0.1,0.2C544.6,51.9,544.6,52,544.7,52.1
	C544.7,52.1,544.7,52.1,544.7,52.1C544.7,52.1,544.7,52.1,544.7,52.1"/>
<path class="st9" d="M513.8,74.2C513.8,74.2,513.8,74.2,513.8,74.2C513.8,74.2,513.8,74.2,513.8,74.2"/>
<path class="st9" d="M517.5,74.8C517.5,74.8,517.5,74.8,517.5,74.8L517.5,74.8z"/>
<path class="st9" d="M517.5,74.8l-0.1,0.2c-0.1,0.3-0.2,0.6-0.2,0.9c0,0.3,0.1,0.6,0.2,0.9l0,0.1l-0.1,0c-0.9,0.5-1.5,1.4-1.5,2.4
	c0,0.5,0.1,0.9,0.4,1.4l0,0.1l-0.1,0c-0.3,0.2-0.6,0.4-0.8,0.6c-0.5,0.2-1,0.3-1,0.3l0,0c-0.6,0.2-1.3,0.2-1.8-0.2
	c-0.5-0.3-0.8-0.9-0.8-1.5c0-0.7,0.4-1.2,1-1.6l0.5-0.3l-0.3-0.5c-0.2-0.3-0.2-0.6-0.2-0.9c0-0.6,0.4-1.2,0.9-1.5l0.4-0.2l-0.2-0.4
	c-0.1-0.2-0.1-0.4-0.1-0.6c0,0,0,0,0-0.1c0,0,0,0,0-0.1h0c0-0.1,0-0.2,0-0.2"/>
<path class="st9" d="M513.8,73.8C513.8,73.8,513.8,73.8,513.8,73.8c0,0,0.1,0,0.1,0C513.9,73.9,513.9,73.8,513.8,73.8"/>
<path class="st9" d="M517.2,75.9c0-0.3,0.1-0.6,0.2-0.9l0.1-0.2l0,0c-1.1-0.5-2.3-0.9-3.5-1c0,0-0.1,0-0.1,0c0,0,0,0.1,0,0.2
	c0,0,0,0,0,0.1c0,0,0,0.1,0,0.1c0,0.2,0,0.4,0.1,0.6l0.2,0.4l-0.4,0.2c-0.6,0.3-0.9,0.9-0.9,1.5c0,0.3,0.1,0.6,0.2,0.9l0.3,0.5
	l-0.5,0.3c-0.6,0.3-1,0.9-1,1.6c0,0.6,0.3,1.1,0.8,1.5c0.5,0.3,1.2,0.4,1.8,0.2l0,0c0.1,0,0.5-0.1,1-0.3c0.2-0.3,0.5-0.5,0.8-0.6
	l0.1,0l0-0.1c-0.3-0.4-0.4-0.9-0.4-1.4c0-1,0.6-1.9,1.5-2.4l0.1,0l0-0.1C517.3,76.5,517.2,76.2,517.2,75.9"/>
<path class="st9" d="M513.8,74.1C513.8,74.1,513.8,74.1,513.8,74.1C513.8,74.1,513.8,74.1,513.8,74.1L513.8,74.1z"/>
<path class="st9" d="M522.6,82.8c0-2.9-1.5-5.6-3.8-7.2c-0.3-0.2-0.6-0.4-0.8-0.5c-0.1,0-0.1-0.1-0.2-0.1c-0.2,0.3-0.3,0.6-0.3,1
	c0,0.3,0.1,0.6,0.2,0.9l0.1,0.2l-0.2,0.1c-0.8,0.5-1.3,1.3-1.3,2.2c0,0.4,0.1,0.9,0.3,1.3l0.2,0.3l-0.3,0.1
	c-0.3,0.2-0.6,0.4-0.8,0.6c-0.1,0.1-0.2,0.2-0.2,0.3c-0.2,0.4-0.4,0.8-0.4,1.3c0,1.4,1.2,2.6,2.7,2.6c0.4,0,0.7-0.1,1-0.2
	c0,0,0,0,0,0v-1.8c-0.7-0.4-1.2-1-1.4-1.7l-0.1-0.5l1.5-0.4l0.1,0.4l0-0.4V80h1.9v4.5c0,0.2,0.3,0.5,0.7,0.5c0.9,0,1.1-0.4,1.1-0.4
	C522.5,84,522.6,83.4,522.6,82.8"/>
<path class="st9" d="M518.9,82.2c-0.1-0.1-0.3-0.3-0.3-0.4l-0.1-0.3l-1.1,0.3l0.1,0.3c0.2,0.7,0.8,1.3,1.4,1.6v5.1l1.5,0v-8.5h-1.5
	V82.2z"/>
<path class="st9" d="M505.3,88.8c-1.4-1.6-2.2-3.7-2.2-6c0-5.3,4.5-9.6,10.1-9.6c5.6,0,10.1,4.3,10.1,9.6c0,2.3-0.8,4.4-2.2,6h1
	c1.3-1.7,2-3.8,2-6c0-5.7-4.9-10.4-11-10.4c-6.1,0-11,4.7-11,10.4c0,2.2,0.8,4.3,2,6H505.3z"/>
<rect x="505.8" y="79.6" class="st9" width="0.8" height="9.2"/>
<path class="st9" d="M518.4,88.7h-0.8V86c0,0,0.2,0,0.4,0c0.1,0,0.4-0.1,0.4-0.1V88.7z"/>
<rect x="506.6" y="80.3" class="st9" width="1.6" height="0.2"/>
<rect x="508.8" y="80.3" class="st9" width="1.8" height="0.2"/>
<path class="st9" d="M511.7,80.3C511.7,80.3,511.7,80.3,511.7,80.3c0,0.1,0,0.2,0,0.2h-0.5v-0.2H511.7z"/>
<rect x="508.4" y="80" class="st9" width="0.2" height="5.9"/>
<rect x="510.8" y="80" class="st9" width="0.2" height="5.9"/>
<rect x="508.4" y="86" class="st9" width="2.6" height="0.5"/>
<rect x="508.2" y="86.6" class="st9" width="3.1" height="0.3"/>
<path class="st9" d="M513.4,85.9h-0.2V82c0,0,0.1,0,0.1,0c0,0,0.1,0,0.1,0V85.9z"/>
<path class="st9" d="M515.7,85.9h-0.2V85c0,0,0.1,0.1,0.1,0.1c0,0,0.1,0.1,0.1,0.1V85.9z"/>
<rect x="513.1" y="86" class="st9" width="2.6" height="0.5"/>
<rect x="512.9" y="86.6" class="st9" width="3.1" height="0.3"/>
<path class="st9" d="M464.8,145.3c-1.5-1.9-2.4-4.3-2.4-6.9c0-6.1,5-11.1,11.1-11.1c6.1,0,11.1,5,11.1,11.1c0,2.6-0.9,5-2.4,6.9h1.1
	c1.4-2,2.2-4.3,2.2-6.9c0-6.6-5.4-12-12-12c-6.6,0-12,5.4-12,12c0,2.6,0.8,5,2.2,6.9H464.8z"/>
<path class="st12" d="M468.7,131.3c-0.1,0.1-0.2,0.1-0.2,0.2C468.5,131.5,468.6,131.4,468.7,131.3"/>
<path class="st9" d="M468.4,132.2c0.5-0.5,4.1-0.9,8.5-0.9c1.6,0,3,0.1,4.3,0.1c-0.5-0.5-1-0.9-1.6-1.3c-0.8-0.1-1.7-0.1-2.6-0.1
	c-3.9,0-7.3,0.5-8.2,1.2c-0.1,0.1-0.1,0.1-0.2,0.2c0,0.1-0.1,0.1-0.1,0.2V132.2z"/>
<path class="st9" d="M480.2,141.9c1.9-0.2,2.6-0.1,3.7-0.8v-0.4c-0.7,0.9-6,0.9-6.8,1c-0.9,0-2.8,0.2-4.1,0.5l0.3-0.8
	c-0.5,0.3-2.2,0.5-4.2,0.5c-2,0-3.7-0.2-4.2-0.5l1.3,4h5.3h0.5h8.9c0,0,2.6-1.3,0.7-1.9C479.5,142.7,476.7,142.2,480.2,141.9
	 M472,145.2l0.6-1.9c1.8,0.3,5.5,0.3,5.4,0.6C477.9,144.3,473.5,145,472,145.2"/>
<path class="st9" d="M465.1,141c0.5,0.3,2.1,0.4,4,0.4c0,0,0,0,0.1,0c0,0,0,0,0,0c0,0,0,0,0,0c0,0,0,0,0,0c1.9,0,3.5-0.2,3.9-0.4
	c0.1,0,0.1-0.1,0.1-0.2c0,0,0-0.1-0.1-0.1c-0.1-0.1-0.2-0.1-0.3-0.2c-0.3-0.1-0.8-0.2-1.3-0.2l0.6-2.4l1.9,3.8l0.5-0.2l-2.1-4.4
	l0.8-3.3c0.8,0,1.7,0.1,2.6,0.1c0.4,0,0.7,0,1.1,0c0.4,0,0.8,0,1.2,0c0.6,0,1.2,0,1.8-0.1l1.5,4.1l-1,3.2l0.3,0.1l0.9-2.7l0.9,2.5
	l0.5-0.2l-1.1-3.1l1.1-3.5c-0.1-0.2-0.1-0.3-0.2-0.5l-1.1,3.4l-1.2-3.3c0.8,0,1.6-0.1,2.2-0.2c-0.3-0.6-0.6-1.1-1-1.6
	c-1.4-0.1-3-0.2-4.8-0.2c-4.4,0-7.9,0.4-8.5,0.9c0,0-0.1,0.1-0.1,0.1c0,0.2,0.6,0.4,1.7,0.6l1.9,3.9l-0.7,2.9c-0.2,0-0.3,0-0.5,0
	c0,0,0,0,0-0.1c0.3-0.4,0.5-1.4,0.4-1.8c0-0.1-0.1-0.2-0.1-0.2c-0.1,0-0.2-0.1-0.5,0.2c0-0.4,0-0.8-0.2-0.9
	c-0.2-0.1-0.4,0.1-0.7,0.4c0-0.3-0.1-0.6-0.3-0.8c-0.1-0.1-0.2-0.1-0.2-0.1c-0.1,0-0.1,0-0.2,0.1c-0.2,0.1-0.4,0.5-0.5,0.9
	c-0.3-0.3-0.6-0.6-0.8-0.5c-0.2,0.1-0.2,0.6-0.2,0.8c-0.3-0.4-0.5-0.6-0.6-0.5c-0.1,0-0.1,0.1-0.1,0.2c-0.1,0.4,0,1.4,0.3,1.8
	c0.1,0.1,0.2,0.3,0.4,0.5c-0.9,0.1-1.6,0.2-2,0.3c-0.2,0-0.3,0.1-0.3,0.2c0,0-0.1,0.1-0.1,0.1C464.9,140.9,465,140.9,465.1,141
	 M470.6,133.6c0.6,0.1,1.4,0.1,2.2,0.2l-0.7,2.8L470.6,133.6z M470.4,139.1c0.2-0.3,0.4-0.4,0.5-0.5c0,0.3-0.2,1.1-0.4,1.4
	c0,0.1-0.1,0.1-0.2,0.2C470.4,139.9,470.4,139.4,470.4,139.1 M469.1,140.2c-0.1,0-0.3,0-0.4,0c0,0,0,0,0,0c-0.1-0.4,0.1-1.3,0.3-1.5
	c0.2,0.2,0.6,1,0.7,1.4c0,0,0,0.1,0,0.1C469.4,140.2,469.3,140.2,469.1,140.2 M470,140.3C470,140.3,470,140.3,470,140.3
	c-0.1,0-0.1-0.1-0.1-0.1c0-0.2-0.1-0.5-0.2-0.7c0.2-0.2,0.3-0.3,0.4-0.3C470.1,139.3,470.1,139.8,470,140.3 M470.2,137.9
	c0,0.2,0.1,0.5,0,0.9c0,0,0,0,0,0c-0.1,0-0.2-0.1-0.7,0.3c-0.1-0.1-0.1-0.2-0.2-0.3C469.7,138.4,470,138,470.2,137.9 M469.1,137.3
	c0.1,0.1,0.3,0.5,0.2,1c-0.1,0.1-0.1,0.1-0.2,0.2c0,0,0,0-0.1-0.1c-0.1-0.1-0.1-0.1-0.2-0.1c-0.1,0-0.1,0.1-0.2,0.1
	c-0.1,0.1-0.1,0.2-0.2,0.4c0,0,0,0-0.1-0.1C468.5,138.4,469,137.5,469.1,137.3 M467.8,137.8c0.1,0.1,0.3,0.2,0.5,0.5
	c0,0.1-0.1,0.2-0.1,0.3c-0.1-0.1-0.3-0.3-0.4-0.3C467.8,138.1,467.8,137.9,467.8,137.8 M467.7,138.6c0.1,0.1,0.4,0.4,0.7,0.7
	c-0.1,0.3-0.1,0.7-0.1,1c-0.1,0-0.3,0-0.4,0c0-0.1-0.1-0.1-0.1-0.2C467.6,139.7,467.6,138.8,467.7,138.6 M467.2,139.7
	c-0.2-0.3-0.3-1.2-0.2-1.5c0.1,0.1,0.2,0.2,0.4,0.6c0,0.3,0,0.8,0.1,1.2C467.3,139.8,467.3,139.7,467.2,139.7"/>
<path class="st9" d="M411.5,220.1c-1.5-1.9-2.4-4.3-2.4-6.9c0-6.1,5-11.1,11.1-11.1c6.1,0,11.1,5,11.1,11.1c0,2.6-0.9,5-2.4,6.9h1.1
	c1.4-2,2.2-4.3,2.2-6.9c0-6.6-5.4-12-12-12c-6.6,0-12,5.4-12,12c0,2.6,0.8,5,2.2,6.9H411.5z"/>
<path class="st12" d="M415.4,206.1c-0.1,0.1-0.2,0.1-0.2,0.2C415.2,206.3,415.3,206.2,415.4,206.1"/>
<path class="st9" d="M415.1,207c0.5-0.5,4.1-0.9,8.5-0.9c1.6,0,3,0.1,4.3,0.1c-0.5-0.5-1-0.9-1.6-1.3c-0.8-0.1-1.7-0.1-2.6-0.1
	c-3.9,0-7.3,0.5-8.2,1.2c-0.1,0.1-0.1,0.1-0.2,0.2c0,0.1-0.1,0.1-0.1,0.2V207z"/>
<path class="st9" d="M426.9,216.7c1.9-0.2,2.6-0.1,3.7-0.8v-0.4c-0.7,0.9-6,0.9-6.8,1c-0.9,0-2.8,0.2-4.1,0.5l0.3-0.8
	c-0.5,0.3-2.2,0.5-4.2,0.5c-2,0-3.7-0.2-4.2-0.5l1.3,4h5.3h0.5h8.9c0,0,2.6-1.3,0.7-1.9C426.2,217.5,423.4,217,426.9,216.7
	 M418.7,220l0.6-1.9c1.8,0.3,5.5,0.3,5.4,0.6C424.6,219.1,420.2,219.8,418.7,220"/>
<path class="st9" d="M411.8,215.8c0.5,0.3,2.1,0.4,4,0.4c0,0,0,0,0.1,0c0,0,0,0,0,0c0,0,0,0,0,0h0c1.9,0,3.5-0.2,3.9-0.4
	c0.1,0,0.1-0.1,0.1-0.2c0,0,0-0.1-0.1-0.1c-0.1-0.1-0.2-0.1-0.3-0.2c-0.3-0.1-0.8-0.2-1.3-0.2l0.6-2.4l1.9,3.8l0.5-0.2l-2.1-4.4
	l0.8-3.3c0.8,0,1.7,0.1,2.6,0.1c0.4,0,0.7,0,1.1,0c0.4,0,0.8,0,1.2,0c0.6,0,1.2,0,1.8-0.1l1.5,4.1l-1,3.2l0.3,0.1l0.9-2.7l0.9,2.5
	l0.5-0.2l-1.1-3.1l1.1-3.5c-0.1-0.2-0.1-0.3-0.2-0.5l-1.1,3.4l-1.2-3.3c0.8,0,1.6-0.1,2.2-0.2c-0.3-0.6-0.6-1.1-1-1.6
	c-1.4-0.1-3-0.2-4.8-0.2c-4.4,0-7.9,0.4-8.5,0.9c0,0-0.1,0.1-0.1,0.1c0,0.2,0.6,0.4,1.7,0.6l1.9,3.9l-0.7,2.9c-0.2,0-0.3,0-0.5,0
	c0,0,0,0,0-0.1c0.3-0.4,0.5-1.4,0.4-1.8c0-0.1-0.1-0.2-0.1-0.2c-0.1,0-0.2-0.1-0.5,0.2c0-0.4,0-0.8-0.2-0.9
	c-0.2-0.1-0.4,0.1-0.7,0.4c0-0.3-0.1-0.6-0.3-0.8c-0.1-0.1-0.2-0.1-0.2-0.1c-0.1,0-0.1,0-0.2,0.1c-0.2,0.1-0.4,0.5-0.5,0.9
	c-0.3-0.3-0.6-0.6-0.8-0.5c-0.2,0.1-0.2,0.6-0.2,0.8c-0.3-0.4-0.5-0.6-0.6-0.5c-0.1,0-0.1,0.1-0.1,0.2c-0.1,0.4,0,1.4,0.3,1.8
	c0.1,0.1,0.2,0.3,0.4,0.5c-0.9,0.1-1.6,0.2-2,0.3c-0.2,0-0.3,0.1-0.3,0.2c0,0-0.1,0.1-0.1,0.1C411.6,215.7,411.7,215.7,411.8,215.8
	 M417.3,208.4c0.6,0.1,1.4,0.1,2.2,0.2l-0.7,2.8L417.3,208.4z M417.1,213.9c0.2-0.3,0.4-0.4,0.5-0.5c0,0.3-0.2,1.1-0.4,1.4
	c0,0.1-0.1,0.1-0.2,0.2C417.1,214.7,417.1,214.2,417.1,213.9 M415.8,215c-0.1,0-0.3,0-0.4,0c0,0,0,0,0,0c-0.1-0.4,0.1-1.3,0.3-1.5
	c0.2,0.2,0.6,1,0.7,1.4c0,0,0,0.1,0,0.1C416.1,215,416,215,415.8,215 M416.7,215C416.7,215,416.7,215,416.7,215
	c-0.1,0-0.1-0.1-0.1-0.1c0-0.2-0.1-0.5-0.2-0.7c0.2-0.2,0.3-0.3,0.4-0.3C416.8,214.1,416.8,214.6,416.7,215 M416.9,212.7
	c0,0.2,0.1,0.5,0,0.9c0,0,0,0,0,0c-0.1,0-0.2-0.1-0.7,0.3c-0.1-0.1-0.1-0.2-0.2-0.3C416.3,213.2,416.7,212.8,416.9,212.7
	 M415.8,212.1c0.1,0.1,0.3,0.5,0.2,1c-0.1,0.1-0.1,0.1-0.2,0.2c0,0,0,0-0.1-0.1c-0.1-0.1-0.1-0.1-0.2-0.1c-0.1,0-0.1,0.1-0.2,0.1
	c-0.1,0.1-0.1,0.2-0.2,0.4c0,0,0,0-0.1-0.1C415.2,213.2,415.6,212.3,415.8,212.1 M414.5,212.6c0.1,0.1,0.3,0.2,0.5,0.5
	c0,0.1-0.1,0.2-0.1,0.3c-0.1-0.1-0.3-0.3-0.4-0.3C414.5,212.9,414.5,212.7,414.5,212.6 M414.4,213.3c0.1,0.1,0.4,0.4,0.7,0.7
	c-0.1,0.3-0.1,0.7-0.1,1c-0.1,0-0.3,0-0.4,0c0-0.1-0.1-0.1-0.1-0.2C414.3,214.5,414.3,213.6,414.4,213.3 M413.9,214.5
	c-0.2-0.3-0.3-1.2-0.2-1.5c0.1,0.1,0.2,0.2,0.4,0.6c0,0.3,0,0.8,0.1,1.2C414,214.6,414,214.5,413.9,214.5"/>
<path class="st9" d="M441.1,179c-1.4-1.8-2.3-4-2.3-6.4c0-5.7,4.6-10.2,10.2-10.2c5.7,0,10.2,4.6,10.2,10.2c0,2.4-0.8,4.7-2.3,6.4h1
	c1.3-1.8,2-4,2-6.4c0-6.1-5-11.1-11.1-11.1c-6.1,0-11.1,5-11.1,11.1c0,2.4,0.8,4.6,2,6.4H441.1z"/>
<path class="st9" d="M451.4,165.1c-0.2,0.3-0.4,0.6-0.6,0.8c-0.2-0.4-0.4-0.7-0.6-0.9c0.1-0.8,0.3-0.9,0.3-0.9
	C450.7,164.2,451.1,164.6,451.4,165.1"/>
<path class="st9" d="M452.2,166c-0.1-0.1-0.1-0.1-0.2-0.1c0,0,0,0-0.1,0c-0.1,0-0.1,0-0.2,0c0,0-0.1,0-0.1,0.1
	c-0.1,0.1-0.3,0.3-0.5,0.5c0,0,0,0.1-0.1,0.1c0,0,0-0.1,0-0.1c0-0.1,0-0.1-0.1-0.2c0.2-0.3,0.4-0.6,0.6-0.9c0-0.1,0.1-0.1,0.1-0.2
	c0-0.1,0.1-0.1,0.1-0.2c0.5-0.5,0.9-1,1.1-1h0c0,0,0.1,0.1,0.1,0.1c0.1,0.3,0.1,0.9-0.1,1.4c-0.2,0.1-0.5,0.3-0.7,0.4c0,0,0,0,0,0"
	/>
<path class="st9" d="M449.6,165.2c-0.3,0.4-0.7,1.5-0.7,2.3c-0.1,0-0.1,0-0.2,0c-0.1-0.2-0.1-0.4-0.1-0.5c-0.2-0.9,0.2-2.6,0.5-2.7
	C449.2,164.3,449.4,164.5,449.6,165.2"/>
<path class="st9" d="M453.9,167.3L453.9,167.3L453.9,167.3C453.9,167.4,453.9,167.4,453.9,167.3c-0.1,0-0.1-0.1-0.1-0.1
	c-0.1-0.1-0.2-0.2-1.2,0.2c0-0.2-0.1-0.4-0.1-0.5c0-0.1,0-0.2-0.1-0.3c0.1-0.1,0.3-0.2,0.4-0.3c0.1,0,0.2-0.1,0.2-0.1
	c0.1,0,0.2-0.1,0.2-0.1c0.6-0.3,1-0.5,1.1-0.4C454.6,165.9,454.2,166.7,453.9,167.3"/>
<path class="st9" d="M455,167.2c-0.1,0.4-0.8,1.8-1.5,2.3c-0.1,0.1-0.4,0.2-0.6,0.4c0.3-0.4,0.6-1.1,0.8-1.6c0,0,0-0.2,0.1-0.3
	c0,0,0-0.1,0-0.1c0,0,0,0,0,0c0.1-0.1,0.2-0.1,0.3-0.2v0C454.6,167.4,454.9,167.2,455,167.2"/>
<path class="st9" d="M450.8,167.1c-0.2,0.3-0.3,0.6-0.5,0.9c-0.3-0.2-0.7-0.3-1.1-0.4c0-0.6,0.3-1.3,0.5-1.8c0-0.1,0.1-0.2,0.1-0.2
	c0,0,0-0.1,0.1-0.1v0c0-0.1,0.1-0.1,0.1-0.1c0,0,0,0,0,0c0,0,0.1,0.1,0.1,0.1c0,0,0,0.1,0.1,0.1c0.1,0.2,0.3,0.5,0.4,0.8v0
	c0,0.1,0.1,0.1,0.1,0.2v0c0,0,0,0,0,0c0,0.1,0.1,0.1,0.1,0.2c0,0,0,0,0,0C450.7,166.9,450.7,167,450.8,167.1"/>
<path class="st9" d="M453.5,167.5c0,0.1,0,0.3-0.1,0.5l-0.1,0.2c-0.2,0.5-0.5,1.2-0.9,1.6c0,0-0.1-0.1-0.1-0.1
	c0.1-0.2,0.2-0.4,0.2-0.5c0.1-0.3,0.1-0.8,0-1.3c0.1,0,0.2-0.1,0.3-0.1C453.2,167.6,453.4,167.5,453.5,167.5"/>
<path class="st9" d="M452.2,169.1c0,0.1-0.1,0.2-0.1,0.3c-0.4-0.5-0.9-0.9-1.4-1.2c0.1-0.2,0.2-0.4,0.3-0.6c0.1-0.2,0.3-0.5,0.4-0.7
	c0.1-0.2,0.2-0.3,0.3-0.4c0.1-0.1,0.1-0.1,0.2-0.2c0,0,0,0,0,0c0,0,0,0.1,0.1,0.1l0,0l0,0c0,0.1,0,0.1,0.1,0.2v0c0,0.1,0,0.1,0,0.2
	c0,0,0,0,0,0.1c0,0.1,0,0.3,0.1,0.4l0.1,0.9C452.2,168.5,452.2,168.8,452.2,169.1"/>
<path class="st9" d="M452.3,178.4c0.8-1.2,0.9-2.8,0.9-4.4c0-0.5,0-1-0.1-1.4c0,0,0,0.1,0,0.1c-0.3,1.8-0.8,2.7-1.2,3.4
	c-0.4,0.6-0.7,1.2-0.9,2.3h-0.4c0.1-1.1,0.4-1.7,0.8-2.3l-0.3-0.5l0.3,0.1l0-0.5l0.2,0.4c0.4-0.7,0.8-1.5,1-3
	c0.2-1.1-0.4-2.4-0.4-2.4l0,0v0c-0.2-0.4-0.5-0.7-0.8-1c0.1,0.3,0.2,0.7,0.2,1.3c0,2.2-0.5,3.4-1,4.4c-0.4,1-0.8,1.9-0.7,3.5h-0.4
	c-0.1-1.7,0.3-2.7,0.8-3.7c0.4-1,0.9-2.1,0.9-4.2l-0.1-0.1l0,0l0,0l-0.3-0.3l0.3,0l0-0.5l0.1,0.2c-0.1-0.6-0.3-0.9-0.4-1.1
	c-0.2,0-0.7,0-1.2,0c0,0.3,0,0.7-0.1,1c-0.2,0.6-0.5,1.2-0.8,1.8c-0.4,0.7-0.7,1.4-0.9,2.2l0.2-0.1l-0.2,0.3l0.5,0.1l-0.7,0.3
	c0,0.3-0.1,0.5-0.1,0.8c0,1.2,0.3,2.3,0.6,3.3h-0.4c-0.3-0.9-0.6-2.1-0.6-3.3c0-0.4,0-0.8,0.1-1.2c0,0,0,0,0,0
	c0.2-0.9,0.6-1.7,1-2.5c0.3-0.6,0.6-1.1,0.8-1.7c0.1-0.3,0.1-0.7,0.1-1c0,0-0.1,0-0.1,0c-0.3,0-0.6-0.1-0.9-0.2
	c-0.5,0.5-1.3,1.2-1.8,2.2c0,0,0,0,0,0c-0.2,0.4-0.4,0.8-0.5,1.2c-0.6,2.1-0.4,3.6-0.3,4.6v0c0,0.1,0,0.3,0,0.4c0,0.4,0.1,1,0.2,1.5
	h-0.4c-0.1-0.5-0.2-1-0.2-1.4c0,0,0-0.1,0-0.1l-0.5-0.4l0.4,0l-0.2-0.5l0.2,0.2c-0.1-1-0.2-2.4,0.4-4.3c0.1-0.4,0.2-0.7,0.4-1.1
	l-0.2-0.4l0.3,0.2l0.1-0.5l0.1,0.3c0.5-0.8,1.1-1.4,1.5-1.9c-0.2-0.1-0.3-0.1-0.4-0.2c-2.1,0.5-3.4,2.7-3.4,5.8c0,2.1,0.3,3.5,1,4.4
	h-2.8v0.6H456v-0.6H452.3z"/>
<path class="st9" d="M413.1,179.2c1.3-0.3,2.3-0.8,3.2-1.5l-0.9-6.7h-1.7c-0.1-1.8-1.3-3.2-2.7-3.2h0c-0.7,0-1.4,0.4-1.9,1.1
	c-0.4,0.6-0.7,1.3-0.7,2.1h-1.7l-1,7.3C408.3,179.4,410.9,179.7,413.1,179.2 M413.4,172.1c0.2,0,0.4,0.2,0.4,0.4
	c0,0.2-0.2,0.4-0.4,0.4s-0.4-0.2-0.4-0.4C413,172.3,413.2,172.1,413.4,172.1 M409.7,169.3c0.4-0.5,0.8-0.8,1.4-0.8h0
	c1,0,1.9,1.1,2,2.5h-3.9C409.2,170.3,409.4,169.7,409.7,169.3 M408.8,172.9c-0.2,0-0.4-0.2-0.4-0.4c0-0.2,0.2-0.4,0.4-0.4
	c0.2,0,0.4,0.2,0.4,0.4C409.2,172.8,409,172.9,408.8,172.9"/>
<path class="st9" d="M412.6,180.2c1.3-0.3,2.5-0.9,3.3-1.6c-1.3,0.8-3.1,1.3-5,1.3c-1.6,0-3.4-0.3-5.2-1.1l-0.1,0.7
	C408,180.5,410.4,180.7,412.6,180.2"/>
<path class="st9" d="M416.5,178.8c-1.4,1.4-3.5,2.2-6.1,2.2c-1.5,0-3.1-0.3-4.8-0.9l-0.3,2.2h11.6L416.5,178.8z"/>
<path class="st9" d="M402.8,182.2c-1.5-1.8-2.3-4.1-2.3-6.6c0-5.9,4.8-10.6,10.6-10.6s10.6,4.8,10.6,10.6c0,2.5-0.9,4.8-2.3,6.6h1.1
	c1.3-1.9,2.1-4.2,2.1-6.6c0-6.3-5.1-11.5-11.5-11.5c-6.3,0-11.5,5.1-11.5,11.5c0,2.5,0.8,4.8,2.1,6.6H402.8z"/>
<path class="st9" d="M482.4,180.5c1.3-0.3,2.4-0.8,3.2-1.5l-0.9-6.8H483c-0.1-1.8-1.3-3.2-2.7-3.2h0c-0.7,0-1.4,0.4-1.9,1.1
	c-0.4,0.6-0.7,1.4-0.7,2.2H476l-1,7.4C477.5,180.8,480.1,181.1,482.4,180.5 M482.7,173.3c0.2,0,0.4,0.2,0.4,0.4
	c0,0.2-0.2,0.4-0.4,0.4c-0.2,0-0.4-0.2-0.4-0.4C482.2,173.5,482.4,173.3,482.7,173.3 M478.9,170.5c0.4-0.5,0.9-0.8,1.4-0.8
	c0,0,0,0,0,0c1,0,1.9,1.1,2,2.5h-4C478.4,171.6,478.6,171,478.9,170.5 M478,174.2c-0.2,0-0.4-0.2-0.4-0.4c0-0.2,0.2-0.4,0.4-0.4
	c0.2,0,0.4,0.2,0.4,0.4C478.4,174,478.2,174.2,478,174.2"/>
<path class="st9" d="M481.9,181.6c1.4-0.3,2.5-0.9,3.3-1.6c-1.3,0.8-3.1,1.3-5.1,1.3c-1.6,0-3.4-0.3-5.2-1.1l-0.1,0.7
	C477.2,181.9,479.7,182.1,481.9,181.6"/>
<path class="st9" d="M485.8,180.2c-1.4,1.4-3.6,2.2-6.2,2.2c-1.5,0-3.2-0.3-4.8-1l-0.3,2.2h11.8L485.8,180.2z"/>
<path class="st9" d="M471.9,183.6c-1.5-1.8-2.4-4.2-2.4-6.7c0-5.9,4.8-10.8,10.8-10.8c5.9,0,10.8,4.8,10.8,10.8
	c0,2.5-0.9,4.9-2.4,6.7h1.1c1.4-1.9,2.1-4.2,2.1-6.7c0-6.4-5.2-11.6-11.6-11.6s-11.6,5.2-11.6,11.6c0,2.5,0.8,4.8,2.1,6.7H471.9z"/>
<path class="st12" d="M921.4,204.5L921.4,204.5c0-1.8-1.2-3.3-2.9-3.6c0.8-0.3,1.3-1,1.3-1.9c0-1.1-0.9-2.1-2.1-2.1
	c-1.1,0-2.1,0.9-2.1,2.1c0,0.9,0.5,1.6,1.3,1.9c-1.7,0.3-2.9,1.8-2.9,3.6v0H921.4z"/>
<path class="st9" d="M921.4,204.5L921.4,204.5c0-1.8-1.2-3.3-2.9-3.6c0.8-0.3,1.3-1,1.3-1.9c0-1.1-0.9-2.1-2.1-2.1
	c-1.1,0-2.1,0.9-2.1,2.1c0,0.9,0.5,1.6,1.3,1.9c-1.7,0.3-2.9,1.8-2.9,3.6v0H921.4z"/>
<path class="st9" d="M907.2,204.5c-1.4-1.7-2.2-3.8-2.2-6.2c0-5.4,4.4-9.8,9.8-9.8c5.4,0,9.8,4.4,9.8,9.8c0,2.3-0.8,4.5-2.2,6.2h1
	c1.2-1.7,2-3.9,2-6.2c0-5.9-4.8-10.6-10.6-10.6s-10.6,4.8-10.6,10.6c0,2.3,0.7,4.4,2,6.2H907.2z"/>
<path class="st9" d="M920.3,199.6c-0.1,0.4-0.3,0.8-0.6,1.1c0.5,0.2,0.9,0.6,1.3,1v-2.1H920.3z M915.3,201.1
	c0.2-0.1,0.4-0.3,0.6-0.4c-0.3-0.3-0.5-0.7-0.6-1.1h-3.3v4.9h1.6c0-0.5,0.1-1,0.3-1.5l0.1-0.2c0-0.1,0.1-0.2,0.2-0.3h-0.3v-1.3
	H915.3z"/>
<polygon class="st9" points="908.1,194 908.1,192.9 917.3,194.2 917.3,195.1 "/>
<path class="st9" d="M920.3,198.3c0.1,0.2,0.1,0.4,0.1,0.7c0,0.1,0,0.1,0,0.2h1.4v-0.8H920.3z M908.7,194.5v10h2.8v-5.3h3.7
	c0-0.1,0-0.1,0-0.2c0-1,0.6-1.9,1.5-2.3v-1.2L908.7,194.5z M914.7,197.3h-4v-1h4V197.3z"/>
<path class="st12" d="M155.1,223.8L155.1,223.8c0-1.8-1.2-3.3-2.9-3.6c0.8-0.3,1.3-1,1.3-1.9c0-1.1-0.9-2.1-2.1-2.1
	s-2.1,0.9-2.1,2.1c0,0.9,0.5,1.6,1.3,1.9c-1.7,0.3-2.9,1.8-2.9,3.6v0H155.1z"/>
<path class="st9" d="M155.1,223.8L155.1,223.8c0-1.8-1.2-3.3-2.9-3.6c0.8-0.3,1.3-1,1.3-1.9c0-1.1-0.9-2.1-2.1-2.1s-2.1,0.9-2.1,2.1
	c0,0.9,0.5,1.6,1.3,1.9c-1.7,0.3-2.9,1.8-2.9,3.6v0H155.1z"/>
<path class="st9" d="M140.9,223.8c-1.4-1.7-2.2-3.8-2.2-6.2c0-5.4,4.4-9.8,9.8-9.8c5.4,0,9.8,4.4,9.8,9.8c0,2.3-0.8,4.5-2.2,6.2h1
	c1.2-1.7,2-3.9,2-6.2c0-5.9-4.8-10.6-10.6-10.6s-10.6,4.8-10.6,10.6c0,2.3,0.7,4.4,2,6.2H140.9z"/>
<path class="st9" d="M153.9,218.9c-0.1,0.4-0.3,0.8-0.6,1.1c0.5,0.2,0.9,0.6,1.3,1v-2.1H153.9z M148.9,220.5
	c0.2-0.1,0.4-0.3,0.6-0.4c-0.3-0.3-0.5-0.7-0.6-1.1h-3.3v4.9h1.6c0-0.5,0.1-1,0.3-1.5l0.1-0.2c0-0.1,0.1-0.2,0.2-0.3h-0.3v-1.3
	H148.9z"/>
<polygon class="st9" points="141.8,213.3 141.8,212.2 151,213.6 151,214.4 "/>
<path class="st9" d="M153.9,217.7c0.1,0.2,0.1,0.4,0.1,0.7c0,0.1,0,0.1,0,0.2h1.4v-0.8H153.9z M142.3,213.9v10h2.8v-5.4h3.7
	c0-0.1,0-0.1,0-0.2c0-1,0.6-1.9,1.5-2.3v-1.2L142.3,213.9z M148.3,216.6h-4v-1h4V216.6z"/>
<path class="st9" d="M606.7,136.7c-1.3-1.6-2.1-3.7-2.1-6c0-5.3,4.3-9.5,9.5-9.5c5.3,0,9.5,4.3,9.5,9.5c0,2.3-0.8,4.3-2.1,6h1
	c1.2-1.7,1.9-3.7,1.9-6c0-5.7-4.6-10.3-10.3-10.3c-5.7,0-10.3,4.6-10.3,10.3c0,2.2,0.7,4.3,1.9,6H606.7z"/>
<path class="st9" d="M613.6,132.5v3.9h3.8h1v-2.6h1.2v2.6h1.3v-3.9H613.6z M615.1,133.7h1.7v1.1h-1.7V133.7z M617.3,135.2h-2.6V135
	h2.6V135.2z"/>
<polygon class="st9" points="620.8,128.2 613.9,127.2 607.1,128.2 607.1,128.9 613.9,128 620.8,128.9 "/>
<path class="st9" d="M620.2,131.4v-2.3l-6.3-0.8v0l0,0l0,0v0l-6.3,0.8v2.3l0,4.9h4.1h1.5v-4.3h8v-0.7H620.2z M609.2,129.8h9.4v0.8
	h-9.4V129.8z"/>
<path class="st9" d="M279,258.7c-1.3-1.6-2.1-3.7-2.1-6c0-5.3,4.3-9.5,9.5-9.5c5.3,0,9.5,4.3,9.5,9.5c0,2.3-0.8,4.3-2.1,6h1
	c1.2-1.7,1.9-3.7,1.9-6c0-5.7-4.6-10.3-10.3-10.3c-5.7,0-10.3,4.6-10.3,10.3c0,2.2,0.7,4.3,1.9,6H279z"/>
<path class="st9" d="M285.9,254.5v3.9h3.8h1v-2.6h1.2v2.6h1.3v-3.9H285.9z M287.4,255.7h1.7v1.1h-1.7V255.7z M289.6,257.2H287V257
	h2.6V257.2z"/>
<polygon class="st9" points="293.1,250.2 286.2,249.2 279.3,250.2 279.3,250.9 286.2,250 293.1,250.9 "/>
<path class="st9" d="M292.5,253.4v-2.3l-6.3-0.8v0l0,0l0,0v0l-6.3,0.8v2.3l0,4.9h4.1h1.5v-4.3h8v-0.7H292.5z M281.4,251.8h9.4v0.8
	h-9.4V251.8z"/>
<path class="st9" d="M722.2,179.9c-1.3-1.6-2-3.6-2-5.7c0-5.1,4.1-9.2,9.2-9.2c5.1,0,9.2,4.1,9.2,9.2c0,2.2-0.8,4.2-2,5.7h0.9
	c1.2-1.6,1.8-3.6,1.8-5.7c0-5.5-4.4-9.9-9.9-9.9c-5.5,0-9.9,4.4-9.9,9.9c0,2.1,0.7,4.1,1.8,5.7H722.2z"/>
<path class="st9" d="M736.4,172.9c-0.1-0.4-0.3-0.7-0.6-1c0.2-0.7,0.1-1.3-0.1-1.7c-0.8-1.3-3.1-1.4-5.7-0.5c-0.6-0.6-1.3-1-1.9-1.4
	c-1.4-0.8-2.5-0.9-3.2-0.4c-0.4,0.3-0.6,0.7-0.6,1.3l-0.7-0.2l0.2,2.5l0.6-0.5c0.1,0.4,0.2,0.7,0.4,1.1c-2.1,0.9-3.4,2.1-3.2,3.3
	c0.1,0.6,0.6,1.1,1.4,1.5c0,0.2,0.1,0.4,0.2,0.5c0.4,0.7,1.3,1.1,2.5,1.1c0.2,0,0.4,0,0.6,0c0.8-0.1,1.7-0.3,2.5-0.6
	c0.3,0.3,0.7,0.6,1,0.8l0.2,1.2l1.4-0.2c0.6,0.3,1.1,0.4,1.6,0.4c0.4,0,0.8-0.1,1-0.3c0.7-0.5,0.8-1.7,0.4-3.2
	c-0.1-0.3-0.2-0.5-0.3-0.8c0.1-0.1,0.2-0.1,0.3-0.2C735.9,174.8,736.6,173.8,736.4,172.9 M733.1,169.5c1,0,1.8,0.3,2.1,0.9
	c0.2,0.3,0.2,0.8,0.1,1.2c-0.4-0.2-0.9-0.4-1.6-0.6c-0.8-0.2-1.7-0.3-2.7-0.3c-0.2-0.3-0.5-0.5-0.7-0.7
	C731.4,169.7,732.3,169.5,733.1,169.5 M733.6,174.4c-0.1-0.3-0.3-0.6-0.5-0.9c0.2-0.2,0.3-0.4,0.3-0.7c0-0.5-0.4-0.9-0.9-0.9
	c-0.1,0-0.3,0-0.4,0.1c0,0-0.1-0.1-0.1-0.1c-0.2-0.2-0.4-0.4-0.5-0.7c0.8,0,1.6,0.1,2.2,0.2c0.6,0.1,1.2,0.3,1.5,0.6
	c-0.1,0.3-0.3,0.7-0.6,1.1C734.4,173.6,734,174,733.6,174.4 M733.7,175.5c-0.5,0.2-1,0.5-1.6,0.6c0.5-0.3,1-0.7,1.4-1.1
	C733.5,175.3,733.6,175.4,733.7,175.5 M730.5,170.8c-0.6,0-1.3,0.1-2,0.2c-0.2,0-0.3,0.1-0.5,0.1c0.6-0.4,1.2-0.6,1.9-0.9
	C730.1,170.4,730.3,170.6,730.5,170.8 M724.7,169.4c0-0.5,0.2-0.9,0.5-1.1c0.2-0.2,0.5-0.2,0.8-0.2c0.5,0,1.2,0.2,1.9,0.7
	c0.5,0.3,1.1,0.7,1.6,1.2c-0.6,0.2-1.2,0.5-1.8,0.9c-0.4,0.2-0.7,0.4-1,0.6c-0.5,0.1-1,0.3-1.5,0.5c-0.2-0.4-0.3-0.9-0.4-1.2l1-0.8
	L724.7,169.4z M725.6,172.2c-0.1,0-0.1,0.1-0.2,0.1c0,0,0,0,0-0.1C725.5,172.3,725.5,172.2,725.6,172.2 M723,176.3
	c-0.5-0.3-0.8-0.6-0.9-1c-0.2-0.9,1-2,2.9-2.8c0,0.1,0.1,0.1,0.1,0.2C723.8,173.9,723,175.2,723,176.3 M723.4,176.5
	c-0.1-0.9,0.7-2.2,1.9-3.4c0.4,0.9,1,1.8,1.7,2.6c0.3,0.4,0.7,0.8,1,1.2c-1.4,0.1-2.6,0-3.7-0.2C724,176.7,723.7,176.6,723.4,176.5
	 M726.3,178c-1.4,0.1-2.3-0.2-2.7-0.9c0,0,0-0.1-0.1-0.1c0.2,0.1,0.4,0.1,0.7,0.2c0.8,0.2,1.6,0.3,2.6,0.3c0.5,0,1.1,0,1.6-0.1
	c0,0,0.1,0.1,0.1,0.1C727.7,177.8,727,177.9,726.3,178 M728.6,176.9c-0.4-0.4-0.8-0.9-1.3-1.4c-0.7-0.9-1.3-1.8-1.7-2.7
	c0.4-0.3,0.8-0.7,1.2-1c0.5-0.1,1.1-0.3,1.7-0.4c0.8-0.1,1.5-0.2,2.3-0.2c0.3,0.3,0.5,0.6,0.8,0.9c0,0,0.1,0.1,0.1,0.1
	c-0.1,0.2-0.2,0.3-0.2,0.5c0,0.5,0.4,0.9,0.9,0.9c0.1,0,0.2,0,0.2,0c0.2,0.3,0.4,0.6,0.5,1c-0.7,0.6-1.5,1.2-2.3,1.7
	c-0.1,0.1-0.3,0.2-0.4,0.2c-0.3,0.1-0.7,0.1-1,0.2C729.2,176.9,728.9,176.9,728.6,176.9 M733.8,179.4c-0.5,0.4-1.3,0.3-2.3-0.2
	l-0.2-1.1l-1.2,0.2c-0.3-0.2-0.5-0.4-0.8-0.7c0.4-0.2,0.9-0.4,1.3-0.6c1.2-0.3,2.3-0.6,3.2-1.1c0.1,0.2,0.2,0.5,0.2,0.7
	C734.4,178,734.3,179,733.8,179.4 M734.1,175.3c-0.1-0.2-0.2-0.4-0.2-0.5c0.5-0.4,0.9-0.9,1.2-1.4c0.3-0.4,0.5-0.7,0.6-1
	c0.2,0.2,0.3,0.4,0.4,0.6c0.1,0.7-0.5,1.5-1.7,2.2C734.2,175.2,734.2,175.3,734.1,175.3"/>
</svg>
