<?xml version="1.0" encoding="utf-8"?>
<!-- Generator: Adobe Illustrator 24.3.0, SVG Export Plug-In . SVG Version: 6.00 Build 0)  -->
<svg version="1.1" xmlns="http://www.w3.org/2000/svg" xmlns:xlink="http://www.w3.org/1999/xlink" x="0px" y="0px"
	 viewBox="0 0 531.6 505" style="enable-background:new 0 0 531.6 505;" xml:space="preserve">
<style type="text/css">
	.st0{enable-background:new    ;}
	.st1{fill:#F4F0ED;}
	.st2{fill:#F6F2EE;}
</style>
<g id="Capa_1">
		<image style="overflow:visible;enable-background:new;" width="2215" height="2104" xlink:href="E923341A.png"  transform="matrix(0.24 0 0 0.24 0 0)">
	</image>
	<g class="st0">
		<g>
			<g>
				<path class="st1" d="M448,277.8c-4.3,0-7.8,3.5-7.8,7.8c0,1.7,0.5,3.2,1.4,4.5h0.7c-1-1.2-1.6-2.8-1.6-4.5c0-4,3.2-7.2,7.2-7.2
					c4,0,7.2,3.2,7.2,7.2c0,1.7-0.6,3.3-1.6,4.5h0.7c0.9-1.3,1.4-2.8,1.4-4.5C455.8,281.3,452.3,277.8,448,277.8z"/>
			</g>
		</g>
		<g>
			<path class="st1" d="M443.7,283.3h-1c-0.1,0-0.2,0.1-0.2,0.2v1.9h-0.6c-0.1,0-0.2,0.1-0.2,0.2v1.6c0,0.1,0.1,0.2,0.2,0.2h0.6v1.9
				c0,0.1,0.1,0.2,0.2,0.2h1c0.1,0,0.2-0.1,0.2-0.2v-5.8C443.9,283.4,443.8,283.3,443.7,283.3z"/>
			<path class="st1" d="M451.4,282.6h-1.2c-0.1,0-0.2,0.1-0.2,0.2v2.7H446v-2.7c0-0.1-0.1-0.2-0.2-0.2h-1.2c-0.1,0-0.2,0.1-0.2,0.2
				v7.1c0,0.1,0.1,0.2,0.2,0.2h1.2c0.1,0,0.2-0.1,0.2-0.2v-2.7h3.9v2.7c0,0.1,0.1,0.2,0.2,0.2h1.2c0.1,0,0.2-0.1,0.2-0.2v-7.1
				C451.6,282.7,451.5,282.6,451.4,282.6z"/>
			<path class="st1" d="M454,285.4h-0.6v-1.9c0-0.1-0.1-0.2-0.2-0.2h-1c-0.1,0-0.2,0.1-0.2,0.2v5.8c0,0.1,0.1,0.2,0.2,0.2h1
				c0.1,0,0.2-0.1,0.2-0.2v-1.9h0.6c0.1,0,0.2-0.1,0.2-0.2v-1.6C454.2,285.5,454.1,285.4,454,285.4z"/>
		</g>
	</g>
	<g class="st0">
		<path class="st2" d="M410.9,208.1c-1-1.2-1.6-2.8-1.6-4.4c0-3.9,3.2-7.1,7.1-7.1c3.9,0,7.1,3.2,7.1,7.1c0,1.7-0.6,3.2-1.6,4.4h0.7
			c0.9-1.2,1.4-2.8,1.4-4.4c0-4.2-3.4-7.6-7.6-7.6c-4.2,0-7.6,3.4-7.6,7.6c0,1.7,0.5,3.2,1.4,4.4H410.9z"/>
		<path class="st2" d="M420.1,206.6c0.1,0,0.2,0.1,0.2,0.1c0.2,0.1,0.5,0.2,0.5,0.2c0,0-0.1-0.2-0.3-0.3c-0.2-0.1-0.2-0.1-0.2-0.1
			c0.1,0,0.1,0,0.1-0.1s0-0.3,0-0.4c0-0.1-0.1,0-0.5,0c-0.2,0-0.3,0-0.3,0l-0.3-0.3c0,0,0,0,0-0.1c-0.1-0.1-0.1-0.2-0.2-0.3
			c0,0-0.1-0.1-0.1-0.1c0-0.1-0.1-0.2-0.1-0.2c0-0.1-0.1-0.2-0.2-0.2c-0.1-0.1-0.1-0.2-0.2-0.3c0,0-0.1-0.1-0.1-0.1
			c-0.1-0.1-0.1-0.1-0.2-0.2c0,0-0.1-0.1-0.1-0.1c-0.1-0.1,0-0.3,0-0.4c0-0.2,0-0.3,0-0.5c0-0.1,0-0.3,0-0.4c0-0.3,0.1-0.5,0.1-0.8
			c0-0.1,0-0.1,0-0.2c0,0,0-0.1,0-0.1c0,0,0-0.1,0-0.1c0-0.1-0.1-0.1-0.1-0.2c-0.2-0.2-0.4-0.2-0.6-0.3c-0.1,0-0.3-0.1-0.4-0.1
			c-0.2-0.1-0.3-0.3-0.4-0.4c0-0.1,0-0.1,0.1-0.2c0.1-0.1,0.1-0.3,0.2-0.6c0,0,0.1-0.1,0.1-0.2c0-0.1,0.1-0.2,0.1-0.4
			c0,0,0-0.1-0.1-0.1c0-0.1,0-0.2,0-0.3c0-0.5-0.3-0.9-0.7-0.9c0,0,0,0,0-0.1c0-0.1-0.1-0.1-0.2-0.1c-0.1,0-0.2,0.1-0.2,0.1
			c0,0,0,0,0,0.1c-0.4,0.1-0.7,0.4-0.7,0.9c0,0.1,0,0.2,0,0.3c-0.1,0-0.1,0.1-0.1,0.1c0,0.1,0.1,0.2,0.1,0.4c0,0.1,0.1,0.1,0.1,0.2
			c0.1,0.3,0.1,0.5,0.2,0.6c0.1,0.1,0.1,0.1,0.1,0.2c0,0.2-0.1,0.3-0.3,0.4c-0.1,0.1-0.3,0.1-0.4,0.1c-0.2,0-0.5,0.1-0.6,0.3
			c0,0-0.1,0.1-0.1,0.2c0,0,0,0.1,0,0.1c0,0,0,0.1,0,0.1c0,0.1,0,0.1,0,0.2c0,0.3,0.1,0.5,0.1,0.8c0,0.1,0,0.3,0,0.4
			c0,0.2,0,0.3,0,0.5c0,0.1,0.1,0.3,0,0.4c0,0-0.1,0.1-0.1,0.1c-0.1,0.1-0.1,0.1-0.2,0.2c0,0-0.1,0.1-0.1,0.1
			c-0.1,0.1-0.1,0.2-0.2,0.3c-0.1,0.1-0.1,0.1-0.2,0.2c0,0.1-0.1,0.2-0.1,0.2c0,0.1-0.1,0.1-0.1,0.1c-0.1,0.1-0.1,0.2-0.2,0.3
			c0,0,0,0,0,0.1c-0.1,0.1-0.1,0.1-0.2,0.1c0,0,0,0,0,0l-0.1,0.1c0,0,0,0,0,0c-0.1,0,0,0-0.4,0c-0.4,0-0.5-0.1-0.5,0
			c0,0.1,0,0.2,0,0.4s0,0.1,0.1,0.1c0.1,0,0.1,0-0.2,0.1c-0.2,0.1-0.3,0.3-0.3,0.3c0,0,0.2-0.1,0.5-0.2s0.5-0.3,0.5-0.2c0,0,0,0,0,0
			l0,0l0,0c0,0,0,0,0,0c0,0,0,0,0,0c0,0,0,0,0,0c0,0,0,0,0,0c0,0,0,0,0,0c0,0,0,0.1-0.1,0.1c-0.1,0.2-0.2,0.4-0.2,0.6
			c0,0.2,0.2,0.4,0.4,0.4c0.1,0,0.2,0.1,0.3,0.1c0.3,0.1,0.5,0.1,0.8,0.1c0,0,0,0,0,0c0.2,0,0.3-0.1,0.4-0.1c0.1,0,0.2-0.1,0.3-0.1
			c0.2-0.1,0.4-0.1,0.6-0.2c0.3-0.1,0.6-0.2,0.9-0.3c0.1,0,0.1-0.1,0.2-0.1c0,0,0,0,0,0c0.1,0,0.1,0.1,0.2,0.1
			c0.3,0.1,0.6,0.2,0.9,0.3c0.2,0.1,0.4,0.2,0.6,0.2c0.1,0,0.2,0.1,0.3,0.1c0.1,0,0.3,0.1,0.4,0.1c0,0,0,0,0,0c0.3,0,0.5,0,0.8-0.1
			c0.1,0,0.2-0.1,0.3-0.1c0.2-0.1,0.4-0.2,0.4-0.4c0-0.2,0-0.5-0.2-0.6C420.2,206.7,420.2,206.7,420.1,206.6
			C420.1,206.6,420.1,206.6,420.1,206.6C420.1,206.6,420.1,206.6,420.1,206.6C420.1,206.6,420.1,206.6,420.1,206.6
			C420.1,206.6,420.1,206.6,420.1,206.6C420.1,206.6,420.1,206.6,420.1,206.6C420.1,206.6,420.1,206.6,420.1,206.6z M412.3,206.4
			c-0.1,0-0.1-0.1-0.1-0.3c0,0,0.3,0,0.3,0.1C412.5,206.4,412.4,206.4,412.3,206.4z M415.4,204.5c0,0.1,0,0.1-0.1,0.2
			c0,0,0,0.1,0,0.1c0,0,0,0,0,0c0,0,0,0.1-0.1,0.1c0,0,0,0.1-0.1,0.1c0,0-0.1,0.1-0.1,0.1c0,0.1-0.1,0.1-0.1,0.2c0,0,0,0.1-0.1,0.1
			c0,0,0,0,0,0c0,0,0,0.1-0.1,0.1c0,0,0,0.1,0,0.1c0,0,0,0,0,0.1c0,0-0.1,0.1-0.1,0.1c0,0,0,0-0.1,0c0,0,0,0,0,0c0,0-0.1,0-0.1,0.1
			c0,0,0,0,0,0c-0.1,0-0.1,0-0.2,0c0,0-0.1,0-0.1,0c0,0-0.1,0-0.1,0c0,0-0.1,0-0.1,0c0,0,0,0,0,0c0,0,0,0-0.1,0c0,0,0,0-0.1,0
			c0,0-0.1,0-0.1,0c0,0,0,0-0.1,0c-0.1,0-0.1,0-0.2,0c0,0,0,0,0,0c0,0,0,0,0,0c0,0,0.1-0.1,0.1-0.1c0,0,0.1-0.1,0.1-0.1
			c0,0,0,0,0.1-0.1c0,0,0,0,0.1-0.1c0,0,0.1,0,0.1-0.1c0,0,0.1-0.1,0.1-0.1c0,0,0.1-0.1,0.1-0.1c0,0,0.1,0,0.1-0.1
			c0,0,0.1-0.1,0.1-0.1c0,0,0.1-0.1,0.1-0.1c0,0,0.1-0.1,0.1-0.1c0.1,0,0.1-0.1,0.2-0.1c0.1-0.1,0.1-0.1,0.2-0.2c0,0,0,0,0,0
			c0,0,0.1-0.1,0.1-0.1c0,0,0,0,0-0.1c0,0,0.1-0.1,0.1-0.1c0-0.1,0.1-0.1,0.1-0.2c0,0,0-0.1,0.1-0.1c0-0.1,0-0.1,0.1-0.2
			c0,0,0-0.1,0-0.1c0,0,0,0,0,0c0-0.1,0-0.1,0-0.2c0,0,0-0.1,0-0.1c0,0,0-0.1,0-0.1c0,0,0-0.1,0-0.1c0,0,0,0,0-0.1c0,0,0,0,0,0
			c0,0,0,0,0,0c0,0,0,0.1,0,0.1c0,0.1,0,0.1,0,0.2c0,0,0,0.1,0,0.1c0,0,0,0.1,0,0.1c0,0.1,0,0.1,0,0.2c0,0,0,0.1,0,0.1
			C415.4,204.4,415.4,204.4,415.4,204.5z M420.4,206.2c0,0.1,0,0.3-0.1,0.3c-0.1,0-0.2,0-0.2-0.2S420.4,206.2,420.4,206.2z
			 M419.4,206.3c-0.1,0-0.1,0-0.2,0c0,0,0,0-0.1,0c0,0-0.1,0-0.1,0c0,0,0,0-0.1,0c0,0,0,0-0.1,0c0,0,0,0,0,0c0,0,0,0-0.1,0
			c0,0-0.1,0-0.1,0c0,0-0.1,0-0.1,0c-0.1,0-0.1,0-0.2,0c0,0,0,0,0,0c0,0-0.1,0-0.1-0.1c0,0,0,0,0,0c0,0,0,0-0.1,0
			c0,0-0.1-0.1-0.1-0.1c0,0,0,0,0-0.1c0,0,0-0.1,0-0.1c0,0,0-0.1-0.1-0.1c0,0,0,0,0,0c0,0,0-0.1-0.1-0.1c0-0.1-0.1-0.1-0.1-0.2
			c0,0-0.1-0.1-0.1-0.1c0,0,0-0.1-0.1-0.1c0,0,0-0.1-0.1-0.1c0,0,0,0,0,0c0,0,0-0.1,0-0.1c0-0.1-0.1-0.1-0.1-0.2c0,0,0-0.1,0-0.1
			c0,0,0-0.1,0-0.1c0-0.1,0-0.1,0-0.2c0,0,0-0.1,0-0.1c0,0,0-0.1,0-0.1c0-0.1,0-0.1,0-0.2c0,0,0-0.1,0-0.1c0,0,0,0,0,0c0,0,0,0,0,0
			c0,0,0,0,0,0.1c0,0,0,0.1,0,0.1c0,0,0,0.1,0,0.1c0,0,0,0.1,0,0.1c0,0.1,0,0.1,0,0.2c0,0,0,0,0,0c0,0,0,0.1,0,0.1
			c0,0.1,0,0.1,0.1,0.2c0,0,0,0.1,0.1,0.1c0,0.1,0.1,0.1,0.1,0.2c0,0,0.1,0.1,0.1,0.1c0,0,0,0,0,0.1c0,0,0,0.1,0.1,0.1c0,0,0,0,0,0
			c0.1,0.1,0.1,0.1,0.2,0.2c0.1,0,0.1,0.1,0.2,0.1c0,0,0.1,0.1,0.1,0.1c0,0,0.1,0.1,0.1,0.1c0,0,0.1,0.1,0.1,0.1c0,0,0.1,0,0.1,0.1
			c0,0,0.1,0.1,0.1,0.1c0,0,0.1,0.1,0.1,0.1c0,0,0,0,0.1,0.1c0,0,0,0,0.1,0.1c0,0,0,0,0.1,0.1c0,0,0.1,0.1,0.1,0.1
			C419.3,206.2,419.4,206.2,419.4,206.3C419.4,206.3,419.4,206.3,419.4,206.3C419.4,206.3,419.4,206.3,419.4,206.3z"/>
	</g>
</g>
<g id="Capa_2">
	<path class="st3" d="M371,203.4l-1.1,47.6h4.9c0,0,0.1,15.9,0.1,18.8s1,20.5,1,23.2s0.2,12.4,0.7,15.7c0.5,3.3,5.2,1.5,5.2,1.5
		s24.2-7.8,38.8-18.4c11.5-8.3,26-17.5,27.3-24.7c1.4-7.6,0.6-35,0.6-35l-0.4-25.3c0,0-2.8-0.9-3-5.3c-0.2-4.5,3.8-6.1,3.8-6.1
		l-37.2,4.9l0.3,8.8l-10.2,1l0-9L371,203.4z"/>
	<path class="st3" d="M482.9,216.2v35.6h-28.7v93.7l38.4-1.8c0,0,0.8-0.1,1.2-0.2c0.4-0.1,2.3-2.2,5.1-1.7c2.8,0.6,3.9,1.8,3.9,1.8
		l2.3-0.3l12.3-101.6L482.9,216.2z"/>
</g>
<g id="Capa_3">
	<g>
		<path class="st1" d="M385.5,240.8l2.2,5.5l2.2-5.5h1.7l-3.5,8.2h-1l-3.4-8.2H385.5z"/>
		<path class="st1" d="M397.6,242.1h-3v1.8h2.8v1.4h-2.8v2.2h3v1.4h-4.5v-8.2h4.5V242.1z"/>
		<path class="st1" d="M401.9,240.8c1.1,0,1.7,0.3,2.1,0.6c0.6,0.5,0.8,1.2,0.8,1.8c0,0.8-0.3,1.5-1,1.9c-0.2,0.1-0.5,0.3-0.9,0.4
			l2.6,3.5h-2l-2.2-3.3h-0.2v3.3h-1.6v-8.2H401.9z M401.2,244.5h0.5c0.3,0,1.6,0,1.6-1.2c0-1.2-1.3-1.2-1.5-1.2h-0.5V244.5z"/>
		<path class="st1" d="M411.5,240.8h1.2l2.2,5.2l2.3-5.2h1.2l1.4,8.2H418l-0.7-5.1L415,249h-0.5l-2.1-5.1l-0.8,5.1h-1.6L411.5,240.8
			z"/>
		<path class="st1" d="M426.3,247.2H423l-0.7,1.7h-1.7l3.5-8.2h1.3l3.4,8.2h-1.7L426.3,247.2z M425.9,245.9l-1.2-2.9l-1.2,2.9H425.9
			z M423.7,239.4l1.7-1.7l1.1,0.9l-2.1,1.5L423.7,239.4z"/>
		<path class="st1" d="M433.9,242.6c-0.5-0.6-1-0.7-1.3-0.7c-0.9,0-1.1,0.5-1.1,1c0,0.2,0.1,0.4,0.3,0.6c0.2,0.2,0.5,0.3,1,0.5
			c0.6,0.2,1.2,0.4,1.7,0.8c0.4,0.3,0.7,0.9,0.7,1.7c0,1.6-1.2,2.7-2.9,2.7c-1.5,0-2.4-0.9-2.8-1.5l1-1c0.4,0.8,1.1,1.1,1.7,1.1
			c0.7,0,1.3-0.4,1.3-1.1c0-0.3-0.1-0.5-0.3-0.7c-0.3-0.3-0.8-0.4-1.3-0.6c-0.4-0.1-0.9-0.3-1.4-0.7c-0.3-0.2-0.7-0.7-0.7-1.5
			c0-1.2,0.8-2.4,2.6-2.4c0.5,0,1.5,0.1,2.3,1L433.9,242.6z"/>
	</g>
	<g>
		<path class="st1" d="M462.3,273l2.1,5.2l2.1-5.2h1.7l-3.3,7.8h-0.9l-3.3-7.8H462.3z"/>
		<path class="st1" d="M473.7,274.4h-2.8v1.7h2.7v1.3h-2.7v2.1h2.8v1.3h-4.3V273h4.3V274.4z"/>
		<path class="st1" d="M477.8,273c1.1,0,1.6,0.3,2,0.6c0.6,0.5,0.8,1.2,0.8,1.7c0,0.8-0.3,1.4-0.9,1.8c-0.2,0.1-0.5,0.3-0.9,0.3
			l2.4,3.3h-1.9l-2.1-3.1h-0.2v3.1h-1.5V273H477.8z M477.1,276.6h0.4c0.3,0,1.5,0,1.5-1.2c0-1.2-1.2-1.2-1.5-1.2h-0.5V276.6z"/>
		<path class="st1" d="M486.9,273h1.1l2.1,4.9l2.2-4.9h1.1l1.3,7.8H493l-0.7-4.8l-2.1,4.8h-0.5l-2-4.8l-0.8,4.8h-1.5L486.9,273z"/>
		<path class="st1" d="M501,279.2h-3.1l-0.7,1.6h-1.6l3.3-7.8h1.2l3.3,7.8h-1.6L501,279.2z M500.5,278l-1.1-2.8l-1.1,2.8H500.5z
			 M498.5,271.7l1.6-1.7l1,0.8l-2,1.4L498.5,271.7z"/>
		<path class="st1" d="M508.2,274.8c-0.5-0.6-1-0.7-1.3-0.7c-0.8,0-1.1,0.5-1.1,0.9c0,0.2,0.1,0.4,0.2,0.5c0.2,0.2,0.4,0.3,0.9,0.4
			c0.6,0.2,1.2,0.4,1.6,0.8c0.4,0.3,0.7,0.8,0.7,1.6c0,1.5-1.1,2.6-2.7,2.6c-1.4,0-2.3-0.9-2.7-1.5l1-0.9c0.4,0.8,1.1,1,1.6,1
			c0.7,0,1.2-0.4,1.2-1.1c0-0.3-0.1-0.5-0.3-0.7c-0.3-0.3-0.8-0.4-1.2-0.6c-0.4-0.1-0.9-0.3-1.3-0.7c-0.3-0.2-0.6-0.7-0.6-1.4
			c0-1.1,0.8-2.3,2.5-2.3c0.5,0,1.4,0.1,2.2,0.9L508.2,274.8z"/>
	</g>
	<g>
		<g>
			<path class="st1" d="M399.6,255.7c-0.1-0.2-0.2-0.4-0.4-0.5c-0.1-0.1-0.4-0.2-0.8-0.2c-0.7,0-1.1,0.4-1.1,1
				c0,0.3,0.1,0.4,0.2,0.6c0.2,0.2,0.4,0.3,0.7,0.4l0.6,0.3c0.4,0.2,0.8,0.3,1,0.6c0.3,0.3,0.5,0.7,0.5,1.2c0,1.2-0.9,2-2.1,2
				c-0.4,0-1-0.1-1.4-0.5c-0.3-0.3-0.5-0.8-0.6-1.2l0.7-0.2c0,0.3,0.2,0.6,0.4,0.8c0.3,0.3,0.6,0.4,1,0.4c0.9,0,1.3-0.6,1.3-1.3
				c0-0.3-0.1-0.6-0.3-0.8c-0.2-0.2-0.4-0.3-0.8-0.5l-0.6-0.3c-0.3-0.1-0.6-0.3-0.9-0.5c-0.3-0.3-0.5-0.6-0.5-1.1
				c0-1,0.8-1.7,1.9-1.7c0.4,0,0.7,0.1,1.1,0.3c0.3,0.2,0.5,0.5,0.6,0.7L399.6,255.7z"/>
			<path class="st1" d="M405.6,255h-2.7v2h2.6v0.7h-2.6v2.6h2.7v0.7h-3.5v-6.7h3.5V255z"/>
			<path class="st1" d="M408,254.3v6h1.8v0.7h-2.6v-6.7H408z"/>
			<path class="st1" d="M410.9,254.3l1.9,5.1l1.9-5.1h0.8l-2.7,7.1l-2.7-7.1H410.9z"/>
			<path class="st1" d="M420,259.1h-2.8l-0.8,1.9h-0.8l3.1-7l3,7h-0.8L420,259.1z M419.7,258.4l-1.1-2.7l-1.1,2.7H419.7z"/>
		</g>
	</g>
	<g>
		<path class="st1" d="M466.4,286.5c0.4,0,1,0,1.5,0.4c0.2,0.2,0.6,0.6,0.6,1.4c0,0.3-0.1,0.9-0.7,1.3c0.9,0.2,1.3,1,1.3,1.7
			s-0.3,1.2-0.7,1.4c-0.5,0.4-1.1,0.4-1.6,0.4h-1.7v-6.7H466.4z M465.9,289.5h0.6c0.4,0,1.3-0.1,1.3-1.1c0-1.1-1.1-1.1-1.3-1.1h-0.6
			V289.5z M465.9,292.5h0.8c0.4,0,0.8,0,1.2-0.3c0.3-0.2,0.4-0.5,0.4-0.9c0-0.5-0.3-0.8-0.6-1c-0.2-0.1-0.6-0.2-1.1-0.2h-0.8V292.5z
			"/>
		<path class="st1" d="M470.5,289.9c0-2,1.5-3.4,3.5-3.4s3.5,1.5,3.5,3.4c0,2-1.5,3.4-3.5,3.4S470.5,291.9,470.5,289.9z
			 M471.3,289.9c0,1.5,1.2,2.7,2.7,2.7s2.7-1.2,2.7-2.7s-1.2-2.7-2.7-2.7S471.3,288.3,471.3,289.9z"/>
		<path class="st1" d="M482.1,287.9c-0.1-0.2-0.2-0.4-0.4-0.5c-0.1-0.1-0.4-0.2-0.8-0.2c-0.7,0-1.1,0.4-1.1,1c0,0.3,0.1,0.4,0.2,0.6
			c0.2,0.2,0.4,0.3,0.7,0.4l0.6,0.3c0.4,0.2,0.8,0.3,1,0.6c0.3,0.3,0.5,0.7,0.5,1.2c0,1.2-0.9,2-2.1,2c-0.4,0-1-0.1-1.4-0.5
			c-0.3-0.3-0.5-0.8-0.6-1.2l0.7-0.2c0,0.3,0.2,0.6,0.4,0.8c0.3,0.3,0.6,0.4,1,0.4c0.9,0,1.3-0.6,1.3-1.3c0-0.3-0.1-0.6-0.3-0.8
			c-0.2-0.2-0.4-0.3-0.8-0.5l-0.6-0.3c-0.3-0.1-0.6-0.3-0.9-0.5c-0.3-0.3-0.5-0.6-0.5-1.1c0-1,0.8-1.7,1.9-1.7
			c0.4,0,0.7,0.1,1.1,0.3c0.3,0.2,0.5,0.5,0.6,0.7L482.1,287.9z"/>
		<path class="st1" d="M489.8,292.7c-0.3,0.2-0.9,0.6-2,0.6c-1.9,0-3.5-1.5-3.5-3.4c0-2,1.5-3.4,3.5-3.4c1.9,0,3.5,1.5,3.5,3.4
			c0,1.2-0.5,2-0.9,2.4l1,1h-1L489.8,292.7z M489.8,291.7c0.2-0.3,0.7-0.9,0.7-1.8c0-1.5-1.2-2.7-2.7-2.7c-1.5,0-2.7,1.2-2.7,2.7
			s1.2,2.7,2.7,2.7c0.4,0,1-0.1,1.5-0.4l-1.6-1.7h1L489.8,291.7z"/>
		<path class="st1" d="M493.7,290.6c0,0.6,0,1.2,0.5,1.6c0.3,0.2,0.7,0.4,1.1,0.4c0.4,0,0.8-0.1,1.1-0.4c0.5-0.4,0.5-1.1,0.5-1.6
			v-4.1h0.7v4.3c0,0.6-0.1,1.1-0.4,1.6c-0.4,0.5-1.1,0.9-1.9,0.9s-1.5-0.3-1.9-0.9c-0.4-0.5-0.4-1-0.4-1.6v-4.3h0.7V290.6z"/>
		<path class="st1" d="M503.3,287.2h-2.7v2h2.6v0.7h-2.6v2.6h2.7v0.7h-3.5v-6.7h3.5V287.2z"/>
	</g>
</g>
</svg>
