<?xml version="1.0" encoding="utf-8"?>
<!-- Generator: Adobe Illustrator 24.3.0, SVG Export Plug-In . SVG Version: 6.00 Build 0)  -->
<svg version="1.1" id="Capa_1" xmlns="http://www.w3.org/2000/svg" xmlns:xlink="http://www.w3.org/1999/xlink" x="0px" y="0px"
	 viewBox="0 0 432 116" style="enable-background:new 0 0 432 116;" xml:space="preserve">
<style type="text/css">
	.st0{fill:#002856;}
</style>
<g>
	<g>
		<g>
			<polygon class="st0" points="19.4,52.9 14.1,64.6 20.3,64.6 20.3,72.6 25.9,60.9 19.4,60.9 			"/>
			<g>
				<g>
					<path class="st0" d="M20,48.5c-8.4,0-15.2,6.8-15.2,15.2c0,3.3,1,6.3,2.8,8.8H9c-1.9-2.4-3.1-5.5-3.1-8.8
						c0-7.8,6.3-14.1,14.1-14.1S34.1,56,34.1,63.8c0,3.3-1.2,6.4-3.1,8.8h1.4c1.8-2.5,2.8-5.5,2.8-8.8C35.2,55.4,28.4,48.5,20,48.5z
						"/>
				</g>
			</g>
		</g>
		<g>
			<g>
				<g>
					<path class="st0" d="M322.2,49.8c-8.4,0-15.2,6.8-15.2,15.2c0,3.3,1,6.3,2.8,8.8h1.4c-1.9-2.4-3.1-5.5-3.1-8.8
						c0-7.8,6.3-14.1,14.1-14.1c7.8,0,14.1,6.3,14.1,14.1c0,3.3-1.2,6.4-3.1,8.8h1.4c1.8-2.5,2.8-5.5,2.8-8.8
						C337.5,56.7,330.7,49.8,322.2,49.8z"/>
				</g>
			</g>
			<path class="st0" d="M322.2,58.2c-0.7,0-5.8,6.7-5.8,9.9s2.6,5.8,5.8,5.8c3.2,0,5.8-2.6,5.8-5.8S323,58.2,322.2,58.2z
				 M320.8,62.6c-0.4,0.6-0.7,1.2-0.9,1.9c-0.3,0.8-0.5,1.6-0.7,2.4c-0.1,0.5-0.3,1-0.4,1.5c-0.1,0.4-0.4,0.6-0.8,0.6
				c-0.2,0-0.3-0.1-0.3-0.3c-0.1-0.2-0.1-0.8-0.1-1c0-0.5,0.2-1.3,0.4-1.8c0.2-0.6,0.5-1.1,0.8-1.7c0.4-0.6,1-1.2,1.5-1.8
				c0.1-0.1,0.3-0.3,0.4-0.4c0.1-0.1,0.2-0.1,0.2,0.1C321,62.3,320.9,62.4,320.8,62.6z"/>
		</g>
		<g>
			<g>
				<path class="st0" d="M44.2,52.9v7.4h-0.8v-7.4H44.2z"/>
				<path class="st0" d="M46.4,55.7h0.8v0.5c0.1-0.2,0.6-0.6,1.3-0.6c0.5,0,1,0.2,1.3,0.6c0.2,0.3,0.3,0.7,0.3,1.2v2.8h-0.8v-2.8
					c0-0.3,0-0.6-0.2-0.8c-0.2-0.2-0.4-0.3-0.8-0.3c-0.3,0-0.6,0.1-0.8,0.4c-0.3,0.4-0.3,0.9-0.3,1.2v2.4h-0.8V55.7z"/>
				<path class="st0" d="M52.8,56.4v3.9H52v-3.9h-0.4v-0.7H52v-2c0-0.4,0-0.9,0.4-1.3c0.2-0.2,0.6-0.3,0.9-0.3
					c0.3,0,0.5,0.1,0.6,0.1V53c-0.2-0.1-0.4-0.1-0.5-0.1c-0.2,0-0.4,0-0.5,0.2c-0.1,0.2-0.1,0.4-0.1,0.7v1.9H54v0.7H52.8z"/>
				<path class="st0" d="M55.1,55.7h0.8v0.5c0.1-0.1,0.4-0.6,1-0.6c0.2,0,0.5,0.1,0.7,0.2l-0.4,0.7c-0.2-0.1-0.3-0.2-0.5-0.2
					c-0.3,0-0.5,0.1-0.6,0.3c-0.1,0.2-0.3,0.5-0.3,1.2v2.4h-0.8V55.7z"/>
				<path class="st0" d="M62.1,55.7h0.8v4.6h-0.8v-0.6c-0.3,0.3-0.8,0.8-1.6,0.8c-1.2,0-2.2-0.8-2.2-2.4c0-1.6,1.1-2.4,2.2-2.4
					c0.9,0,1.4,0.5,1.6,0.8V55.7z M59.1,58c0,1,0.6,1.7,1.5,1.7c1,0,1.5-0.8,1.5-1.7c0-1.2-0.8-1.7-1.5-1.7
					C59.8,56.3,59.1,56.9,59.1,58z"/>
				<path class="st0" d="M68.9,59.1c-0.1,0.3-0.3,0.5-0.6,0.7c-0.4,0.4-0.9,0.6-1.5,0.6c-1.1,0-2.3-0.7-2.3-2.4
					c0-1.4,0.8-2.4,2.2-2.4c0.9,0,1.5,0.4,1.7,0.8c0.3,0.4,0.5,1.1,0.4,1.7h-3.6c0,0.9,0.7,1.6,1.5,1.6c0.4,0,0.7-0.1,0.9-0.3
					c0.2-0.2,0.4-0.4,0.5-0.6L68.9,59.1z M68.1,57.5c-0.1-0.7-0.7-1.2-1.3-1.2s-1.2,0.5-1.3,1.2H68.1z"/>
				<path class="st0" d="M72.5,56.8c-0.1-0.3-0.3-0.5-0.6-0.5c-0.3,0-0.6,0.2-0.6,0.5c0,0.3,0.2,0.4,0.7,0.7c0.7,0.3,1,0.5,1.1,0.7
					c0.2,0.2,0.2,0.5,0.2,0.7c0,1-0.7,1.5-1.6,1.5c-0.2,0-1.2,0-1.6-1.2l0.7-0.3c0.1,0.2,0.4,0.8,0.9,0.8c0.5,0,0.8-0.4,0.8-0.7
					c0-0.4-0.3-0.6-0.7-0.8c-0.6-0.2-0.9-0.4-1.1-0.7c-0.2-0.2-0.2-0.4-0.2-0.7c0-0.8,0.6-1.3,1.3-1.3c0.2,0,0.9,0,1.3,0.8
					L72.5,56.8z"/>
				<path class="st0" d="M75.8,56.4v3.9H75v-3.9h-0.5v-0.7H75v-1.7h0.8v1.7h0.8v0.7H75.8z"/>
				<path class="st0" d="M77.7,55.7h0.8v0.5c0.1-0.1,0.4-0.6,1-0.6c0.2,0,0.5,0.1,0.7,0.2l-0.4,0.7c-0.2-0.1-0.3-0.2-0.5-0.2
					c-0.3,0-0.5,0.1-0.6,0.3c-0.1,0.2-0.3,0.5-0.3,1.2v2.4h-0.8V55.7z"/>
				<path class="st0" d="M82.3,58.4c0,0.3,0,0.7,0.2,1c0.1,0.2,0.4,0.4,0.8,0.4s0.7-0.2,0.8-0.4c0.2-0.3,0.2-0.7,0.2-1v-2.7h0.8v2.8
					c0,0.6-0.1,1-0.4,1.4c-0.4,0.4-0.9,0.6-1.4,0.6s-1-0.1-1.4-0.6c-0.4-0.4-0.4-0.8-0.4-1.4v-2.8h0.8V58.4z"/>
				<path class="st0" d="M90.6,57c-0.4-0.5-1-0.7-1.4-0.7c-0.8,0-1.6,0.6-1.6,1.7s0.8,1.7,1.6,1.7c0.5,0,1.1-0.2,1.5-0.7v0.9
					c-0.5,0.4-1,0.5-1.5,0.5c-1.4,0-2.4-1-2.4-2.4c0-1.4,1-2.4,2.4-2.4c0.7,0,1.2,0.3,1.4,0.4V57z"/>
				<path class="st0" d="M93.2,56.4v3.9h-0.8v-3.9h-0.5v-0.7h0.5v-1.7h0.8v1.7h0.8v0.7H93.2z"/>
				<path class="st0" d="M95.9,58.4c0,0.3,0,0.7,0.2,1c0.1,0.2,0.4,0.4,0.8,0.4s0.7-0.2,0.8-0.4c0.2-0.3,0.2-0.7,0.2-1v-2.7h0.8v2.8
					c0,0.6-0.1,1-0.4,1.4c-0.4,0.4-0.9,0.6-1.4,0.6s-1-0.1-1.4-0.6c-0.4-0.4-0.4-0.8-0.4-1.4v-2.8h0.8V58.4z"/>
				<path class="st0" d="M100.7,55.7h0.8v0.5c0.1-0.1,0.4-0.6,1-0.6c0.2,0,0.5,0.1,0.7,0.2l-0.4,0.7c-0.2-0.1-0.3-0.2-0.5-0.2
					c-0.3,0-0.5,0.1-0.6,0.3c-0.1,0.2-0.3,0.5-0.3,1.2v2.4h-0.8V55.7z"/>
				<path class="st0" d="M107.7,55.7h0.8v4.6h-0.8v-0.6c-0.3,0.3-0.8,0.8-1.6,0.8c-1.2,0-2.2-0.8-2.2-2.4c0-1.6,1.1-2.4,2.2-2.4
					c0.9,0,1.4,0.5,1.6,0.8V55.7z M104.7,58c0,1,0.6,1.7,1.5,1.7c1,0,1.5-0.8,1.5-1.7c0-1.2-0.8-1.7-1.5-1.7
					C105.5,56.3,104.7,56.9,104.7,58z"/>
				<path class="st0" d="M117.5,53.7h-3v2.2h2.9v0.8h-2.9v2.9h3v0.8h-3.8v-7.4h3.8V53.7z"/>
				<path class="st0" d="M120.1,52.2v8h-0.8v-8H120.1z"/>
				<path class="st0" d="M126.1,59.1c-0.1,0.3-0.3,0.5-0.6,0.7c-0.4,0.4-0.9,0.6-1.5,0.6c-1.1,0-2.3-0.7-2.3-2.4
					c0-1.4,0.8-2.4,2.2-2.4c0.9,0,1.5,0.4,1.7,0.8c0.3,0.4,0.5,1.1,0.4,1.7h-3.6c0,0.9,0.7,1.6,1.5,1.6c0.4,0,0.7-0.1,0.9-0.3
					c0.2-0.2,0.4-0.4,0.5-0.6L126.1,59.1z M125.3,57.5c-0.1-0.7-0.7-1.2-1.3-1.2s-1.2,0.5-1.3,1.2H125.3z M125.3,53.3l-1.5,1.5
					l-0.5-0.3l1.2-1.6L125.3,53.3z"/>
				<path class="st0" d="M131.3,57c-0.4-0.5-1-0.7-1.4-0.7c-0.8,0-1.6,0.6-1.6,1.7s0.8,1.7,1.6,1.7c0.5,0,1.1-0.2,1.5-0.7v0.9
					c-0.5,0.4-1,0.5-1.5,0.5c-1.4,0-2.4-1-2.4-2.4c0-1.4,1-2.4,2.4-2.4c0.7,0,1.2,0.3,1.4,0.4V57z"/>
				<path class="st0" d="M133.9,56.4v3.9h-0.8v-3.9h-0.5v-0.7h0.5v-1.7h0.8v1.7h0.8v0.7H133.9z"/>
				<path class="st0" d="M135.9,55.7h0.8v0.5c0.1-0.1,0.4-0.6,1-0.6c0.2,0,0.5,0.1,0.7,0.2l-0.4,0.7c-0.2-0.1-0.3-0.2-0.5-0.2
					c-0.3,0-0.5,0.1-0.6,0.3c-0.1,0.2-0.3,0.5-0.3,1.2v2.4h-0.8V55.7z"/>
				<path class="st0" d="M140,53.4c0.3,0,0.6,0.3,0.6,0.6s-0.3,0.6-0.6,0.6s-0.6-0.3-0.6-0.6S139.7,53.4,140,53.4z M140.4,55.7v4.6
					h-0.8v-4.6H140.4z"/>
				<path class="st0" d="M145.9,57c-0.4-0.5-1-0.7-1.4-0.7c-0.8,0-1.6,0.6-1.6,1.7s0.8,1.7,1.6,1.7c0.5,0,1.1-0.2,1.5-0.7v0.9
					c-0.5,0.4-1,0.5-1.5,0.5c-1.4,0-2.4-1-2.4-2.4c0-1.4,1-2.4,2.4-2.4c0.7,0,1.2,0.3,1.4,0.4V57z"/>
				<path class="st0" d="M151.1,55.7h0.8v4.6h-0.8v-0.6c-0.3,0.3-0.8,0.8-1.6,0.8c-1.2,0-2.2-0.8-2.2-2.4c0-1.6,1.1-2.4,2.2-2.4
					c0.9,0,1.4,0.5,1.6,0.8V55.7z M148.1,58c0,1,0.6,1.7,1.5,1.7c1,0,1.5-0.8,1.5-1.7c0-1.2-0.8-1.7-1.5-1.7
					C148.8,56.3,148.1,56.9,148.1,58z"/>
				<path class="st0" d="M46.7,66.1c-0.1-0.2-0.3-0.4-0.4-0.6c-0.1-0.1-0.4-0.3-0.8-0.3c-0.7,0-1.2,0.5-1.2,1.1
					c0,0.3,0.1,0.5,0.3,0.6c0.2,0.2,0.5,0.3,0.8,0.5l0.7,0.3c0.4,0.2,0.8,0.4,1.1,0.7c0.4,0.4,0.5,0.8,0.5,1.3c0,1.4-1,2.3-2.3,2.3
					c-0.5,0-1.1-0.1-1.6-0.6c-0.4-0.4-0.6-0.9-0.7-1.3l0.8-0.2c0.1,0.4,0.2,0.7,0.4,0.9c0.3,0.3,0.7,0.4,1.1,0.4
					c1,0,1.5-0.7,1.5-1.5c0-0.3-0.1-0.6-0.4-0.9c-0.2-0.2-0.5-0.3-0.9-0.5l-0.7-0.3c-0.3-0.1-0.7-0.3-1-0.6
					c-0.3-0.3-0.5-0.7-0.5-1.2c0-1.1,0.9-1.9,2.1-1.9c0.5,0,0.8,0.1,1.2,0.3c0.3,0.2,0.6,0.5,0.7,0.8L46.7,66.1z"/>
				<path class="st0" d="M50.2,70.1c0,0.3,0,0.7,0.2,1c0.1,0.2,0.4,0.4,0.8,0.4s0.7-0.2,0.8-0.4c0.2-0.3,0.2-0.7,0.2-1v-2.7H53v2.8
					c0,0.6-0.1,1-0.4,1.4c-0.4,0.4-0.9,0.6-1.4,0.6s-1-0.1-1.4-0.6c-0.4-0.4-0.4-0.8-0.4-1.4v-2.8h0.8V70.1z"/>
				<path class="st0" d="M55.8,72H55v-8h0.8V68c0.5-0.7,1.2-0.8,1.6-0.8c1.4,0,2.2,1.2,2.2,2.4c0,1.3-0.8,2.4-2.2,2.4
					c-0.7,0-1.3-0.3-1.6-0.8V72z M58.7,69.7c0-1.1-0.8-1.7-1.5-1.7s-1.5,0.6-1.5,1.7c0,0.9,0.6,1.7,1.5,1.7
					C58.2,71.4,58.7,70.6,58.7,69.7z"/>
				<path class="st0" d="M62,68.1V72h-0.8v-3.9h-0.5v-0.7h0.5v-1.7H62v1.7h0.8v0.7H62z"/>
				<path class="st0" d="M68.1,70.8c-0.1,0.3-0.3,0.5-0.6,0.7c-0.4,0.4-0.9,0.6-1.5,0.6c-1.1,0-2.3-0.7-2.3-2.4
					c0-1.4,0.8-2.4,2.2-2.4c0.9,0,1.5,0.4,1.7,0.8c0.3,0.4,0.5,1.1,0.4,1.7h-3.6c0,0.9,0.7,1.6,1.5,1.6c0.4,0,0.7-0.1,0.9-0.3
					c0.2-0.2,0.4-0.4,0.5-0.6L68.1,70.8z M67.3,69.2C67.2,68.5,66.6,68,66,68s-1.2,0.5-1.3,1.2H67.3z"/>
				<path class="st0" d="M69.8,67.4h0.8v0.5c0.1-0.1,0.4-0.6,1-0.6c0.2,0,0.5,0.1,0.7,0.2l-0.4,0.7c-0.2-0.1-0.3-0.2-0.5-0.2
					c-0.3,0-0.5,0.1-0.6,0.3c-0.1,0.2-0.3,0.5-0.3,1.2V72h-0.8V67.4z"/>
				<path class="st0" d="M73.5,67.4h0.8v0.5c0.1-0.1,0.4-0.6,1-0.6c0.2,0,0.5,0.1,0.7,0.2l-0.4,0.7c-0.2-0.1-0.3-0.2-0.5-0.2
					c-0.3,0-0.5,0.1-0.6,0.3c-0.1,0.2-0.3,0.5-0.3,1.2V72h-0.8V67.4z"/>
				<path class="st0" d="M80.5,67.4h0.8V72h-0.8v-0.6c-0.3,0.3-0.8,0.8-1.6,0.8c-1.2,0-2.2-0.8-2.2-2.4c0-1.6,1.1-2.4,2.2-2.4
					c0.9,0,1.4,0.5,1.6,0.8V67.4z M77.5,69.7c0,1,0.6,1.7,1.5,1.7c1,0,1.5-0.8,1.5-1.7c0-1.2-0.8-1.7-1.5-1.7
					C78.2,68,77.5,68.6,77.5,69.7z M80.5,65L79,66.5l-0.5-0.3l1.2-1.6L80.5,65z"/>
				<path class="st0" d="M83.2,67.4H84v0.5c0.1-0.2,0.6-0.6,1.3-0.6c0.5,0,1,0.2,1.3,0.6c0.2,0.3,0.3,0.7,0.3,1.2V72h-0.8v-2.8
					c0-0.3,0-0.6-0.2-0.8c-0.2-0.2-0.4-0.3-0.8-0.3c-0.3,0-0.6,0.1-0.8,0.4c-0.3,0.4-0.3,0.9-0.3,1.2V72h-0.8V67.4z"/>
				<path class="st0" d="M92.9,70.8c-0.1,0.3-0.3,0.5-0.6,0.7c-0.4,0.4-0.9,0.6-1.5,0.6c-1.1,0-2.3-0.7-2.3-2.4
					c0-1.4,0.8-2.4,2.2-2.4c0.9,0,1.5,0.4,1.7,0.8c0.3,0.4,0.5,1.1,0.4,1.7h-3.6c0,0.9,0.7,1.6,1.5,1.6c0.4,0,0.7-0.1,0.9-0.3
					c0.2-0.2,0.4-0.4,0.5-0.6L92.9,70.8z M92.1,69.2C92,68.5,91.5,68,90.8,68s-1.2,0.5-1.3,1.2H92.1z"/>
				<path class="st0" d="M98.1,67.4h0.8V72h-0.8v-0.6c-0.3,0.3-0.8,0.8-1.6,0.8c-1.2,0-2.2-0.8-2.2-2.4c0-1.6,1.1-2.4,2.2-2.4
					c0.9,0,1.4,0.5,1.6,0.8V67.4z M95.2,69.7c0,1,0.6,1.7,1.5,1.7c1,0,1.5-0.8,1.5-1.7c0-1.2-0.8-1.7-1.5-1.7
					C95.9,68,95.2,68.6,95.2,69.7z"/>
			</g>
		</g>
		<g>
			<g>
				<path class="st0" d="M216.1,65.9c-0.1-0.2-0.3-0.4-0.4-0.6c-0.1-0.1-0.4-0.3-0.8-0.3c-0.7,0-1.2,0.5-1.2,1.1
					c0,0.3,0.1,0.5,0.3,0.6c0.2,0.2,0.5,0.3,0.8,0.5l0.7,0.3c0.4,0.2,0.8,0.4,1.1,0.7c0.4,0.4,0.5,0.8,0.5,1.3c0,1.4-1,2.3-2.3,2.3
					c-0.5,0-1.1-0.1-1.6-0.6c-0.4-0.4-0.6-0.9-0.7-1.3l0.8-0.2c0.1,0.4,0.2,0.7,0.4,0.9c0.3,0.3,0.7,0.4,1.1,0.4
					c1,0,1.5-0.7,1.5-1.5c0-0.3-0.1-0.6-0.4-0.9c-0.2-0.2-0.5-0.3-0.9-0.5l-0.7-0.3c-0.3-0.1-0.7-0.3-1-0.6
					c-0.3-0.3-0.5-0.7-0.5-1.2c0-1.1,0.9-1.9,2.1-1.9c0.5,0,0.8,0.1,1.2,0.3c0.3,0.2,0.6,0.5,0.7,0.8L216.1,65.9z"/>
				<path class="st0" d="M222.8,70.6c-0.1,0.3-0.3,0.5-0.6,0.7c-0.4,0.4-0.9,0.6-1.5,0.6c-1.1,0-2.3-0.7-2.3-2.4
					c0-1.4,0.8-2.4,2.2-2.4c0.9,0,1.5,0.4,1.7,0.8c0.3,0.4,0.5,1.1,0.4,1.7h-3.6c0,0.9,0.7,1.6,1.5,1.6c0.4,0,0.7-0.1,0.9-0.3
					c0.2-0.2,0.4-0.4,0.5-0.6L222.8,70.6z M222,69c-0.1-0.7-0.7-1.2-1.3-1.2s-1.2,0.5-1.3,1.2H222z"/>
				<path class="st0" d="M228,67.2h0.8v4.5c0,0.5,0,1.2-0.4,1.8c-0.3,0.5-1,0.8-1.8,0.8c-0.8,0-1.3-0.3-1.6-0.6
					c-0.3-0.3-0.6-0.8-0.6-1.5h0.8c0,0.4,0.2,0.7,0.4,0.9c0.3,0.4,0.8,0.4,1.1,0.4c0.6,0,0.9-0.2,1.2-0.6c0.2-0.4,0.3-0.8,0.3-1.2
					v-0.7c-0.3,0.3-0.8,0.8-1.6,0.8c-0.7,0-1.2-0.3-1.6-0.6c-0.3-0.3-0.7-0.9-0.7-1.8c0-0.9,0.3-1.4,0.7-1.8
					c0.4-0.4,0.9-0.6,1.6-0.6c0.7,0,1.2,0.3,1.6,0.8V67.2z M225.5,68.2c-0.4,0.4-0.5,0.9-0.5,1.3c0,0.4,0.1,0.9,0.5,1.3
					c0.3,0.2,0.6,0.4,1,0.4s0.8-0.1,1-0.4c0.3-0.3,0.5-0.8,0.5-1.3c0-0.5-0.2-1-0.5-1.3c-0.3-0.3-0.6-0.4-1-0.4
					C226.1,67.8,225.7,68,225.5,68.2z"/>
				<path class="st0" d="M231.6,69.9c0,0.3,0,0.7,0.2,1c0.1,0.2,0.4,0.4,0.8,0.4s0.7-0.2,0.8-0.4c0.2-0.3,0.2-0.7,0.2-1v-2.7h0.8
					v2.8c0,0.6-0.1,1-0.4,1.4c-0.4,0.4-0.9,0.6-1.4,0.6s-1-0.1-1.4-0.6c-0.4-0.4-0.4-0.8-0.4-1.4v-2.8h0.8V69.9z"/>
				<path class="st0" d="M236.4,67.2h0.8v0.5c0.1-0.1,0.4-0.6,1-0.6c0.2,0,0.5,0.1,0.7,0.2l-0.4,0.7c-0.2-0.1-0.3-0.2-0.5-0.2
					c-0.3,0-0.5,0.1-0.6,0.3c-0.1,0.2-0.3,0.5-0.3,1.2v2.4h-0.8V67.2z"/>
				<path class="st0" d="M240.5,64.9c0.3,0,0.6,0.3,0.6,0.6s-0.3,0.6-0.6,0.6s-0.6-0.3-0.6-0.6S240.2,64.9,240.5,64.9z M240.9,67.2
					v4.6h-0.8v-4.6H240.9z"/>
				<path class="st0" d="M246.3,63.7h0.8v8h-0.8v-0.6c-0.3,0.3-0.8,0.8-1.6,0.8c-1.2,0-2.2-0.8-2.2-2.4c0-1.6,1.1-2.4,2.2-2.4
					c0.9,0,1.4,0.5,1.6,0.8V63.7z M243.4,69.5c0,1,0.6,1.7,1.5,1.7c1,0,1.5-0.8,1.5-1.7c0-1.2-0.8-1.7-1.5-1.7
					C244.1,67.8,243.4,68.4,243.4,69.5z"/>
				<path class="st0" d="M252.6,67.2h0.8v4.6h-0.8v-0.6c-0.3,0.3-0.8,0.8-1.6,0.8c-1.2,0-2.2-0.8-2.2-2.4c0-1.6,1.1-2.4,2.2-2.4
					c0.9,0,1.4,0.5,1.6,0.8V67.2z M249.6,69.5c0,1,0.6,1.7,1.5,1.7c1,0,1.5-0.8,1.5-1.7c0-1.2-0.8-1.7-1.5-1.7
					C250.3,67.8,249.6,68.4,249.6,69.5z"/>
				<path class="st0" d="M258.8,63.7h0.8v8h-0.8v-0.6c-0.3,0.3-0.8,0.8-1.6,0.8c-1.2,0-2.2-0.8-2.2-2.4c0-1.6,1.1-2.4,2.2-2.4
					c0.9,0,1.4,0.5,1.6,0.8V63.7z M255.9,69.5c0,1,0.6,1.7,1.5,1.7c1,0,1.5-0.8,1.5-1.7c0-1.2-0.8-1.7-1.5-1.7
					C256.6,67.8,255.9,68.4,255.9,69.5z"/>
				<path class="st0" d="M264.4,71.8l2.7-3.1c0.2-0.2,0.7-0.8,0.9-1.1c0.3-0.5,0.4-0.8,0.4-1.1c0-0.8-0.6-1.4-1.5-1.4
					c-0.5,0-0.9,0.2-1.2,0.7c-0.1,0.2-0.2,0.5-0.2,0.9h-0.8c0-0.7,0.3-1.2,0.6-1.5c0.3-0.4,0.8-0.8,1.7-0.8c1.3,0,2.3,0.9,2.3,2.2
					c0,0.5-0.1,0.9-0.6,1.6c-0.3,0.4-0.7,0.9-1,1.2L266,71h3.1v0.8H264.4z"/>
				<path class="st0" d="M274.8,69.6h0.9v0.8h-0.9v1.4H274v-1.4h-3.8l4.6-6.4V69.6z M274,69.6v-3.3l-2.3,3.3H274z"/>
				<path class="st0" d="M282.4,63.4l0.6,0.3l-5.7,10.2l-0.6-0.3L282.4,63.4z"/>
				<path class="st0" d="M288.5,65.2h-4v-0.8h5.4l-4.9,7.5l-0.6-0.4L288.5,65.2z"/>
			</g>
		</g>
		<g>
			<path class="st0" d="M346.5,55.2v7.4h-0.8v-7.4H346.5z"/>
			<path class="st0" d="M348.6,58h0.8v0.5c0.1-0.2,0.6-0.6,1.3-0.6c0.5,0,1,0.2,1.3,0.6c0.2,0.3,0.3,0.7,0.3,1.2v2.8h-0.8v-2.8
				c0-0.3,0-0.6-0.2-0.8c-0.2-0.2-0.4-0.3-0.8-0.3c-0.3,0-0.6,0.1-0.8,0.4c-0.3,0.4-0.3,0.9-0.3,1.2v2.4h-0.8V58z"/>
			<path class="st0" d="M355.1,58.7v3.9h-0.8v-3.9h-0.4V58h0.4v-2c0-0.4,0-0.9,0.4-1.3c0.2-0.2,0.6-0.3,0.9-0.3
				c0.3,0,0.5,0.1,0.6,0.1v0.8c-0.2-0.1-0.4-0.1-0.5-0.1c-0.2,0-0.4,0-0.5,0.2c-0.1,0.2-0.1,0.4-0.1,0.7V58h1.1v0.7H355.1z"/>
			<path class="st0" d="M357.4,58h0.8v0.5c0.1-0.1,0.4-0.6,1-0.6c0.2,0,0.5,0.1,0.7,0.2l-0.4,0.7c-0.2-0.1-0.3-0.2-0.5-0.2
				c-0.3,0-0.5,0.1-0.6,0.3c-0.1,0.2-0.3,0.5-0.3,1.2v2.4h-0.8V58z"/>
			<path class="st0" d="M364.4,58h0.8v4.6h-0.8v-0.6c-0.3,0.3-0.8,0.8-1.6,0.8c-1.2,0-2.2-0.8-2.2-2.4c0-1.6,1.1-2.4,2.2-2.4
				c0.9,0,1.4,0.5,1.6,0.8V58z M361.4,60.3c0,1,0.6,1.7,1.5,1.7c1,0,1.5-0.8,1.5-1.7c0-1.2-0.8-1.7-1.5-1.7
				C362.1,58.6,361.4,59.1,361.4,60.3z"/>
			<path class="st0" d="M371.2,61.4c-0.1,0.3-0.3,0.5-0.6,0.7c-0.4,0.4-0.9,0.6-1.5,0.6c-1.1,0-2.3-0.7-2.3-2.4
				c0-1.4,0.8-2.4,2.2-2.4c0.9,0,1.5,0.4,1.7,0.8c0.3,0.4,0.5,1.1,0.4,1.7h-3.6c0,0.9,0.7,1.6,1.5,1.6c0.4,0,0.7-0.1,0.9-0.3
				c0.2-0.2,0.4-0.4,0.5-0.6L371.2,61.4z M370.4,59.8c-0.1-0.7-0.7-1.2-1.3-1.2s-1.2,0.5-1.3,1.2H370.4z"/>
			<path class="st0" d="M374.8,59c-0.1-0.3-0.3-0.5-0.6-0.5c-0.3,0-0.6,0.2-0.6,0.5c0,0.3,0.2,0.4,0.7,0.7c0.7,0.3,1,0.5,1.1,0.7
				c0.2,0.2,0.2,0.5,0.2,0.7c0,1-0.7,1.5-1.6,1.5c-0.2,0-1.2,0-1.6-1.2l0.7-0.3c0.1,0.2,0.4,0.8,0.9,0.8c0.5,0,0.8-0.4,0.8-0.7
				c0-0.4-0.3-0.6-0.7-0.8c-0.6-0.2-0.9-0.4-1.1-0.7c-0.2-0.2-0.2-0.4-0.2-0.7c0-0.8,0.6-1.3,1.3-1.3c0.2,0,0.9,0,1.3,0.8L374.8,59z
				"/>
			<path class="st0" d="M378,58.7v3.9h-0.8v-3.9h-0.5V58h0.5v-1.7h0.8V58h0.8v0.7H378z"/>
			<path class="st0" d="M380,58h0.8v0.5c0.1-0.1,0.4-0.6,1-0.6c0.2,0,0.5,0.1,0.7,0.2l-0.4,0.7c-0.2-0.1-0.3-0.2-0.5-0.2
				c-0.3,0-0.5,0.1-0.6,0.3c-0.1,0.2-0.3,0.5-0.3,1.2v2.4H380V58z"/>
			<path class="st0" d="M384.5,60.6c0,0.3,0,0.7,0.2,1c0.1,0.2,0.4,0.4,0.8,0.4s0.7-0.2,0.8-0.4c0.2-0.3,0.2-0.7,0.2-1V58h0.8v2.8
				c0,0.6-0.1,1-0.4,1.4c-0.4,0.4-0.9,0.6-1.4,0.6s-1-0.1-1.4-0.6c-0.4-0.4-0.4-0.8-0.4-1.4V58h0.8V60.6z"/>
			<path class="st0" d="M392.9,59.2c-0.4-0.5-1-0.7-1.4-0.7c-0.8,0-1.6,0.6-1.6,1.7s0.8,1.7,1.6,1.7c0.5,0,1.1-0.2,1.5-0.7v0.9
				c-0.5,0.4-1,0.5-1.5,0.5c-1.4,0-2.4-1-2.4-2.4c0-1.4,1-2.4,2.4-2.4c0.7,0,1.2,0.3,1.4,0.4V59.2z"/>
			<path class="st0" d="M395.4,58.7v3.9h-0.8v-3.9h-0.5V58h0.5v-1.7h0.8V58h0.8v0.7H395.4z"/>
			<path class="st0" d="M398.2,60.6c0,0.3,0,0.7,0.2,1c0.1,0.2,0.4,0.4,0.8,0.4s0.7-0.2,0.8-0.4c0.2-0.3,0.2-0.7,0.2-1V58h0.8v2.8
				c0,0.6-0.1,1-0.4,1.4c-0.4,0.4-0.9,0.6-1.4,0.6s-1-0.1-1.4-0.6c-0.4-0.4-0.4-0.8-0.4-1.4V58h0.8V60.6z"/>
			<path class="st0" d="M403,58h0.8v0.5c0.1-0.1,0.4-0.6,1-0.6c0.2,0,0.5,0.1,0.7,0.2l-0.4,0.7c-0.2-0.1-0.3-0.2-0.5-0.2
				c-0.3,0-0.5,0.1-0.6,0.3c-0.1,0.2-0.3,0.5-0.3,1.2v2.4H403V58z"/>
			<path class="st0" d="M410,58h0.8v4.6H410v-0.6c-0.3,0.3-0.8,0.8-1.6,0.8c-1.2,0-2.2-0.8-2.2-2.4c0-1.6,1.1-2.4,2.2-2.4
				c0.9,0,1.4,0.5,1.6,0.8V58z M407,60.3c0,1,0.6,1.7,1.5,1.7c1,0,1.5-0.8,1.5-1.7c0-1.2-0.8-1.7-1.5-1.7
				C407.7,58.6,407,59.1,407,60.3z"/>
			<path class="st0" d="M419.3,54.5h0.8v8h-0.8v-0.6c-0.3,0.3-0.8,0.8-1.6,0.8c-1.2,0-2.2-0.8-2.2-2.4c0-1.6,1.1-2.4,2.2-2.4
				c0.9,0,1.4,0.5,1.6,0.8V54.5z M416.3,60.3c0,1,0.6,1.7,1.5,1.7c1,0,1.5-0.8,1.5-1.7c0-1.2-0.8-1.7-1.5-1.7
				C417,58.6,416.3,59.1,416.3,60.3z"/>
			<path class="st0" d="M426.1,61.4c-0.1,0.3-0.3,0.5-0.6,0.7c-0.4,0.4-0.9,0.6-1.5,0.6c-1.1,0-2.3-0.7-2.3-2.4
				c0-1.4,0.8-2.4,2.2-2.4c0.9,0,1.5,0.4,1.7,0.8c0.3,0.4,0.5,1.1,0.4,1.7h-3.6c0,0.9,0.7,1.6,1.5,1.6c0.4,0,0.7-0.1,0.9-0.3
				c0.2-0.2,0.4-0.4,0.5-0.6L426.1,61.4z M425.3,59.8c-0.1-0.7-0.7-1.2-1.3-1.2s-1.2,0.5-1.3,1.2H425.3z"/>
			<path class="st0" d="M349,69.6h0.8v4.6H349v-0.6c-0.3,0.3-0.8,0.8-1.6,0.8c-1.2,0-2.2-0.8-2.2-2.4c0-1.6,1.1-2.4,2.2-2.4
				c0.9,0,1.4,0.5,1.6,0.8V69.6z M346,71.9c0,1,0.6,1.7,1.5,1.7c1,0,1.5-0.8,1.5-1.7c0-1.2-0.8-1.7-1.5-1.7
				C346.7,70.2,346,70.8,346,71.9z"/>
			<path class="st0" d="M355.2,69.6h0.8v4.5c0,0.5,0,1.2-0.4,1.8c-0.3,0.5-1,0.8-1.8,0.8c-0.8,0-1.3-0.3-1.6-0.6
				c-0.3-0.3-0.6-0.8-0.6-1.5h0.8c0,0.4,0.2,0.7,0.4,0.9c0.3,0.4,0.8,0.4,1.1,0.4c0.6,0,0.9-0.2,1.2-0.6c0.2-0.4,0.3-0.8,0.3-1.2
				v-0.7c-0.3,0.3-0.8,0.8-1.6,0.8c-0.7,0-1.2-0.3-1.6-0.6c-0.3-0.3-0.7-0.9-0.7-1.8c0-0.9,0.3-1.4,0.7-1.8c0.4-0.4,0.9-0.6,1.6-0.6
				c0.7,0,1.2,0.3,1.6,0.8V69.6z M352.7,70.7c-0.4,0.4-0.5,0.9-0.5,1.3c0,0.4,0.1,0.9,0.5,1.3c0.3,0.2,0.6,0.4,1,0.4s0.8-0.1,1-0.4
				c0.3-0.3,0.5-0.8,0.5-1.3c0-0.5-0.2-1-0.5-1.3c-0.3-0.3-0.6-0.4-1-0.4C353.3,70.2,352.9,70.4,352.7,70.7z"/>
			<path class="st0" d="M358.8,72.3c0,0.3,0,0.7,0.2,1c0.1,0.2,0.4,0.4,0.8,0.4s0.7-0.2,0.8-0.4c0.2-0.3,0.2-0.7,0.2-1v-2.7h0.8v2.8
				c0,0.6-0.1,1-0.4,1.4c-0.4,0.4-0.9,0.6-1.4,0.6s-1-0.1-1.4-0.6c-0.4-0.4-0.4-0.8-0.4-1.4v-2.8h0.8V72.3z"/>
			<path class="st0" d="M367.1,69.6h0.8v4.6h-0.8v-0.6c-0.3,0.3-0.8,0.8-1.6,0.8c-1.2,0-2.2-0.8-2.2-2.4c0-1.6,1.1-2.4,2.2-2.4
				c0.9,0,1.4,0.5,1.6,0.8V69.6z M364.1,71.9c0,1,0.6,1.7,1.5,1.7c1,0,1.5-0.8,1.5-1.7c0-1.2-0.8-1.7-1.5-1.7
				C364.8,70.2,364.1,70.8,364.1,71.9z"/>
		</g>
		<g>
			<g>
				<g>
					<path class="st0" d="M187.5,48.5c-8.4,0-15.2,6.8-15.2,15.2c0,3.3,1,6.3,2.8,8.8h1.4c-1.9-2.4-3.1-5.5-3.1-8.8
						c0-7.8,6.3-14.1,14.1-14.1s14.1,6.3,14.1,14.1c0,3.3-1.2,6.4-3.1,8.8h1.4c1.8-2.5,2.8-5.5,2.8-8.8
						C202.7,55.4,195.9,48.5,187.5,48.5z"/>
				</g>
			</g>
			<g>
				<path class="st0" d="M191.4,55.3c-0.6-0.1-1.7,0.2-2.3-0.1c-0.7-0.3-1.5-0.6-1.5-0.6s-0.9,0.2-1.5,0.6c-0.7,0.3-1.7,0-2.3,0.1
					c-0.6,0.1-1.8,1.1-2.2,1.7l1.7,1.6c0,0,0.1-0.9,1-1c0.6-0.1,1.4,0,2.3,0c0-0.1-0.1-0.3-0.1-0.4c0-0.8,0.5-1.4,1.1-1.4
					c0.6,0,1.1,0.6,1.1,1.4c0,0.2,0,0.3-0.1,0.4c0.9,0,1.7,0,2.3,0c0.8,0.1,1,1,1,1l1.7-1.6C193.2,56.5,192,55.4,191.4,55.3z"/>
				<path class="st0" d="M191.4,60.6c0,0,0.1-0.8,0-1.5c0,0,0.5-0.5-3.9-0.5c-4.3,0-3.9,0.5-3.9,0.5c-0.1,0.7,0,1.5,0,1.5
					s-0.4,0-0.3,1c0.1,0.9,1,0.7,1,0.7c0.9,2.3,3.1,2.8,3.1,2.8s2.1-0.5,3.1-2.8c0,0,0.9,0.2,1-0.7
					C191.8,60.7,191.4,60.6,191.4,60.6z M187.5,64.7c-3.2-1.3-3.2-4.7-3.2-4.7s0.3-0.3,1.2,0c0.6,0.2,1.6,0.3,2.1,0.4
					c0.5,0,1.5-0.1,2.1-0.4c0.9-0.3,1.2,0,1.2,0S190.7,63.3,187.5,64.7z"/>
				<path class="st0" d="M185.3,64.5c0,0,0.9,1.6,1.7,2.1l-0.5,6.1c0,0-3.4,0-4.4,0s-0.8-2-0.7-3.5s0-1.7,1-2.5
					C183.5,65.8,185.3,64.5,185.3,64.5z"/>
				<path class="st0" d="M193.5,69.1c0-1.5,0-1.7-1-2.5c-1-0.8-2.9-2.2-2.9-2.2s-0.9,1.6-1.7,2.1l0.5,6.1c0,0,3.4,0,4.4,0
					S193.5,70.6,193.5,69.1z M190.5,70.3c-1.1,0-0.8-2.1-0.8-2.1h1.6C191.4,68.2,191.6,70.3,190.5,70.3z"/>
			</g>
		</g>
		<g>
			<g>
				<path class="st0" d="M133,105.9l1.2-7.8l2.8,6.2l2.9-6.2l1.1,7.8h-0.8l-0.7-5.1l-2.5,5.4l-2.5-5.4l-0.7,5.1H133z"/>
				<path class="st0" d="M146.5,101.3h0.8v4.6h-0.8v-0.6c-0.3,0.3-0.8,0.8-1.6,0.8c-1.2,0-2.2-0.8-2.2-2.4c0-1.6,1.1-2.4,2.2-2.4
					c0.9,0,1.4,0.5,1.6,0.8V101.3z M143.5,103.6c0,1,0.6,1.7,1.5,1.7c1,0,1.5-0.8,1.5-1.7c0-1.2-0.8-1.7-1.5-1.7
					C144.2,101.9,143.5,102.5,143.5,103.6z"/>
				<path class="st0" d="M149.2,101.3h0.8v0.5c0.1-0.2,0.6-0.6,1.3-0.6c0.5,0,1,0.2,1.3,0.6c0.2,0.3,0.3,0.7,0.3,1.2v2.8h-0.8v-2.8
					c0-0.3,0-0.6-0.2-0.8c-0.2-0.2-0.4-0.3-0.8-0.3c-0.3,0-0.6,0.1-0.8,0.4c-0.3,0.4-0.3,0.9-0.3,1.2v2.4h-0.8V101.3z"/>
				<path class="st0" d="M155.7,102v3.9h-0.8V102h-0.5v-0.7h0.5v-1.7h0.8v1.7h0.8v0.7H155.7z"/>
				<path class="st0" d="M161.7,104.7c-0.1,0.3-0.3,0.5-0.6,0.7c-0.4,0.4-0.9,0.6-1.5,0.6c-1.1,0-2.3-0.7-2.3-2.4
					c0-1.4,0.8-2.4,2.2-2.4c0.9,0,1.5,0.4,1.7,0.8c0.3,0.4,0.5,1.1,0.4,1.7h-3.6c0,0.9,0.7,1.6,1.5,1.6c0.4,0,0.7-0.1,0.9-0.3
					c0.2-0.2,0.4-0.4,0.5-0.6L161.7,104.7z M161,103.1c-0.1-0.7-0.7-1.2-1.3-1.2s-1.2,0.5-1.3,1.2H161z"/>
				<path class="st0" d="M163.4,101.3h0.8v0.5c0.1-0.2,0.6-0.6,1.3-0.6c0.5,0,1,0.2,1.3,0.6c0.2,0.3,0.3,0.7,0.3,1.2v2.8h-0.8v-2.8
					c0-0.3,0-0.6-0.2-0.8c-0.2-0.2-0.4-0.3-0.8-0.3c-0.3,0-0.6,0.1-0.8,0.4c-0.3,0.4-0.3,0.9-0.3,1.2v2.4h-0.8V101.3z"/>
				<path class="st0" d="M169.5,99c0.3,0,0.6,0.3,0.6,0.6s-0.3,0.6-0.6,0.6s-0.6-0.3-0.6-0.6S169.2,99,169.5,99z M169.9,101.3v4.6
					h-0.8v-4.6H169.9z"/>
				<path class="st0" d="M171.8,101.3h0.8v0.5c0.3-0.4,0.7-0.6,1.1-0.6c0.8,0,1.2,0.6,1.2,0.7c0.4-0.7,1.1-0.7,1.4-0.7
					c1.4,0,1.5,1.1,1.5,1.8v2.9h-0.8v-2.8c0-0.5-0.1-1.2-0.8-1.2c-0.9,0-1,0.9-1,1.4v2.5h-0.8v-2.7c0-0.3,0-1.3-0.8-1.3
					c-0.9,0-1,0.9-1,1.5v2.5h-0.8V101.3z"/>
				<path class="st0" d="M180.2,99c0.3,0,0.6,0.3,0.6,0.6s-0.3,0.6-0.6,0.6s-0.6-0.3-0.6-0.6S179.9,99,180.2,99z M180.6,101.3v4.6
					h-0.8v-4.6H180.6z"/>
				<path class="st0" d="M186.6,104.7c-0.1,0.3-0.3,0.5-0.6,0.7c-0.4,0.4-0.9,0.6-1.5,0.6c-1.1,0-2.3-0.7-2.3-2.4
					c0-1.4,0.8-2.4,2.2-2.4c0.9,0,1.5,0.4,1.7,0.8c0.3,0.4,0.5,1.1,0.4,1.7h-3.6c0,0.9,0.7,1.6,1.5,1.6c0.4,0,0.7-0.1,0.9-0.3
					c0.2-0.2,0.4-0.4,0.5-0.6L186.6,104.7z M185.8,103.1c-0.1-0.7-0.7-1.2-1.3-1.2s-1.2,0.5-1.3,1.2H185.8z"/>
				<path class="st0" d="M188.3,101.3h0.8v0.5c0.1-0.2,0.6-0.6,1.3-0.6c0.5,0,1,0.2,1.3,0.6c0.2,0.3,0.3,0.7,0.3,1.2v2.8h-0.8v-2.8
					c0-0.3,0-0.6-0.2-0.8c-0.2-0.2-0.4-0.3-0.8-0.3c-0.3,0-0.6,0.1-0.8,0.4c-0.3,0.4-0.3,0.9-0.3,1.2v2.4h-0.8V101.3z"/>
				<path class="st0" d="M194.8,102v3.9H194V102h-0.5v-0.7h0.5v-1.7h0.8v1.7h0.8v0.7H194.8z"/>
				<path class="st0" d="M196.5,103.6c0-1.4,1-2.4,2.4-2.4c1.4,0,2.4,1,2.4,2.4c0,1.4-1,2.4-2.4,2.4
					C197.5,106,196.5,105,196.5,103.6z M197.3,103.6c0,1.1,0.8,1.7,1.6,1.7c0.8,0,1.6-0.6,1.6-1.7c0-1.1-0.8-1.7-1.6-1.7
					C198.1,101.9,197.3,102.5,197.3,103.6z"/>
			</g>
			<g>
				<g>
					<g>
						<g>
							<path class="st0" d="M107.9,82.6c-8.4,0-15.2,6.8-15.2,15.2c0,3.3,1,6.3,2.8,8.8h1.4c-1.9-2.4-3.1-5.5-3.1-8.8
								c0-7.8,6.3-14.1,14.1-14.1S122,90,122,97.8c0,3.3-1.2,6.4-3.1,8.8h1.4c1.8-2.5,2.8-5.5,2.8-8.8
								C123.1,89.4,116.3,82.6,107.9,82.6z"/>
						</g>
					</g>
				</g>
				<g>
					<path class="st0" d="M113.1,106.7c-1.3,0-2.5-0.7-3-1.9c-0.3-0.7-0.3-1.4-0.2-2.1c0-0.2,0-0.3-0.1-0.4
						c-0.6-0.6-1.1-1.1-1.7-1.7c-0.2-0.2-0.2-0.3,0-0.4c0.6-0.6,1.1-1.1,1.7-1.7c0.1-0.2,0.2-0.1,0.4,0c0.6,0.6,1.1,1.1,1.7,1.7
						c0.1,0.1,0.2,0.2,0.4,0.1c0.5,0,1.1-0.1,1.6,0c0.9,0.2,1.6,0.8,2,1.6c0.3,0.5,0.5,1.1,0.4,1.7c0,0.4-0.2,0.8-0.3,1.2
						c-0.1,0.2-0.3,0.2-0.5,0c-0.3-0.3-0.7-0.7-1-1c-0.3-0.3-0.6-0.6-0.9-0.8c-0.2-0.2-0.6-0.3-0.9-0.2c-0.3,0.2-0.5,0.5-0.5,0.8
						c0,0.2,0.1,0.4,0.3,0.5c0.6,0.6,1.2,1.2,1.8,1.8c0.2,0.2,0.2,0.4,0,0.5c-0.1,0.1-0.2,0.1-0.4,0.2
						C113.6,106.6,113.3,106.6,113.1,106.7z"/>
					<path class="st0" d="M99.6,93.2c0.1-0.3,0.2-0.7,0.3-1.1c0.1-0.2,0.3-0.2,0.4-0.1c0.2,0.2,0.4,0.4,0.6,0.6
						c0.4,0.4,0.9,0.9,1.3,1.3c0.4,0.4,1,0.3,1.3-0.2c0.2-0.3,0.1-0.6-0.2-0.9c-0.6-0.6-1.2-1.2-1.8-1.8c-0.1-0.1-0.2-0.1-0.2-0.2
						c0-0.1,0-0.3,0.1-0.3c0.6-0.2,1.3-0.4,2-0.2c0.9,0.2,1.6,0.7,2.1,1.5c0.3,0.6,0.4,1.2,0.4,1.8c0,0.2-0.1,0.4-0.1,0.7
						c0,0.1,0.1,0.2,0.1,0.3c0.5,0.5,1,1,1.5,1.5c0.1,0.1,0.2,0.2,0,0.4c-0.6,0.6-1.1,1.1-1.7,1.7c-0.1,0.1-0.2,0.1-0.4,0
						c-0.5-0.5-1-1-1.5-1.5c-0.1-0.1-0.2-0.2-0.4-0.1c-0.5,0-1.1,0.1-1.6,0c-0.9-0.2-1.5-0.7-2-1.5C99.8,94.4,99.6,93.9,99.6,93.2z"
						/>
					<path class="st0" d="M110.8,94.2c-0.3-0.3-0.3-0.6-0.1-0.9c0.2-0.4,0.1-0.8-0.1-1.1c-0.4-0.7-1-1.1-1.7-1.3
						c-0.4-0.1-0.7-0.2-1.1-0.3c-0.1,0-0.2-0.1-0.3-0.2c0.2-0.1,0.4-0.2,0.5-0.2c0.5,0,1,0,1.5,0c0.9,0.2,1.7,0.6,2.4,1.2
						c0.9,0.7,1.7,1.3,2.3,2.3c0.2,0.4,0.4,0.7,0.5,1.1c0,0.2,0.2,0.5,0.4,0.7c0,0,0.2,0,0.2-0.1c0.4-0.3,0.8-0.2,0.9,0.2
						c0,0.2,0,0.4-0.1,0.5c-0.4,0.4-0.8,0.8-1.2,1.2c-0.3,0.3-0.6,0.2-0.9-0.1c-0.2-0.2-0.1-0.5,0.1-0.6c0.1-0.1,0.1-0.2,0-0.3
						c-0.4-0.3-0.7-0.5-1.1-0.8c-0.1-0.1-0.2-0.1-0.3-0.1c-0.3,0-0.5,0-0.7-0.2c-0.1-0.1-0.2-0.1-0.3,0c-0.9,1-1.9,1.9-2.9,2.9
						c-0.5,0.5-1.1,1.1-1.6,1.6c-0.2,0.2-0.2,0.2-0.4,0c-0.3-0.3-0.6-0.6-0.9-0.9C107.6,97.4,109.2,95.8,110.8,94.2z"/>
					<path class="st0" d="M106.7,100.7c-0.1,0.1-0.1,0.3-0.2,0.3c-1.6,1.7-3.1,3.5-4.7,5.2c-0.3,0.3-0.6,0.3-0.9,0
						c-0.4-0.4-0.8-0.8-1.2-1.3c-0.3-0.3-0.3-0.5,0-0.8c1.3-1.1,2.5-2.3,3.8-3.4c0.5-0.4,1-0.9,1.5-1.3c0.3-0.2,0.5-0.2,0.8,0
						c0.3,0.2,0.5,0.5,0.7,0.7C106.6,100.4,106.7,100.6,106.7,100.7z"/>
				</g>
			</g>
			<g>
				<g>
					<g>
						<g>
							<path class="st0" d="M242.7,82.6c-8.4,0-15.2,6.8-15.2,15.2c0,3.3,1,6.3,2.8,8.8h1.4c-1.9-2.4-3.1-5.5-3.1-8.8
								c0-7.8,6.3-14.1,14.1-14.1s14.1,6.3,14.1,14.1c0,3.3-1.2,6.4-3.1,8.8h1.4c1.8-2.5,2.8-5.5,2.8-8.8
								C257.9,89.4,251.1,82.6,242.7,82.6z"/>
						</g>
					</g>
				</g>
				<g>
					<g>
						<path class="st0" d="M246.4,90.5H240l-5.3,15.5h15.8L246.4,90.5z M242.9,105.3l-0.5,0l0.1-3.7l0.5,0L242.9,105.3z M243,100.3
							l-0.5,0l0.1-3.7l0.5,0L243,100.3z M243.2,95.5l-0.5,0l0.1-3.7l0.5,0L243.2,95.5z"/>
					</g>
					<rect x="234.7" y="106.2" class="st0" width="15.8" height="0.5"/>
					<line class="st0" x1="234.2" y1="106" x2="239.7" y2="90.5"/>
					<line class="st0" x1="246.7" y1="90.5" x2="251.1" y2="106"/>
				</g>
			</g>
			<g>
				<g>
					<path class="st0" d="M267.8,103c0,0.6,0,1.3,0.6,1.8c0.3,0.3,0.8,0.4,1.2,0.4s0.9-0.2,1.2-0.4c0.6-0.5,0.6-1.2,0.6-1.8v-4.5
						h0.8v4.7c0,0.6-0.1,1.2-0.5,1.8c-0.4,0.6-1.2,1-2.2,1s-1.7-0.4-2.2-1c-0.4-0.6-0.5-1.1-0.5-1.8v-4.7h0.8V103z"/>
					<path class="st0" d="M274.3,101.3h0.8v0.5c0.1-0.1,0.4-0.6,1-0.6c0.2,0,0.5,0.1,0.7,0.2l-0.4,0.7c-0.2-0.1-0.3-0.2-0.5-0.2
						c-0.3,0-0.5,0.1-0.6,0.3c-0.1,0.2-0.3,0.5-0.3,1.2v2.4h-0.8V101.3z"/>
					<path class="st0" d="M278.8,105.9h-0.8v-8h0.8v4.1c0.5-0.7,1.2-0.8,1.6-0.8c1.4,0,2.2,1.2,2.2,2.4c0,1.3-0.8,2.4-2.2,2.4
						c-0.7,0-1.3-0.3-1.6-0.8V105.9z M281.8,103.6c0-1.1-0.8-1.7-1.5-1.7s-1.5,0.6-1.5,1.7c0,0.9,0.6,1.7,1.5,1.7
						C281.3,105.3,281.8,104.5,281.8,103.6z"/>
					<path class="st0" d="M287.8,101.3h0.8v4.6h-0.8v-0.6c-0.3,0.3-0.8,0.8-1.6,0.8c-1.2,0-2.2-0.8-2.2-2.4c0-1.6,1.1-2.4,2.2-2.4
						c0.9,0,1.4,0.5,1.6,0.8V101.3z M284.8,103.6c0,1,0.6,1.7,1.5,1.7c1,0,1.5-0.8,1.5-1.7c0-1.2-0.8-1.7-1.5-1.7
						C285.5,101.9,284.8,102.5,284.8,103.6z"/>
					<path class="st0" d="M290.6,101.3h0.8v0.5c0.1-0.2,0.6-0.6,1.3-0.6c0.5,0,1,0.2,1.3,0.6c0.2,0.3,0.3,0.7,0.3,1.2v2.8h-0.8v-2.8
						c0-0.3,0-0.6-0.2-0.8c-0.2-0.2-0.4-0.3-0.8-0.3c-0.3,0-0.6,0.1-0.8,0.4c-0.3,0.4-0.3,0.9-0.3,1.2v2.4h-0.8V101.3z"/>
					<path class="st0" d="M296.6,99c0.3,0,0.6,0.3,0.6,0.6c0,0.3-0.3,0.6-0.6,0.6s-0.6-0.3-0.6-0.6C296,99.3,296.3,99,296.6,99z
						 M297,101.3v4.6h-0.8v-4.6H297z"/>
					<path class="st0" d="M299.9,105.1h3.2v0.7h-4.8l3.3-3.9h-2.7v-0.7h4.3L299.9,105.1z"/>
					<path class="st0" d="M307.9,101.3h0.8v4.6h-0.8v-0.6c-0.3,0.3-0.8,0.8-1.6,0.8c-1.2,0-2.2-0.8-2.2-2.4c0-1.6,1.1-2.4,2.2-2.4
						c0.9,0,1.4,0.5,1.6,0.8V101.3z M304.9,103.6c0,1,0.6,1.7,1.5,1.7c1,0,1.5-0.8,1.5-1.7c0-1.2-0.8-1.7-1.5-1.7
						C305.6,101.9,304.9,102.5,304.9,103.6z"/>
					<path class="st0" d="M314.2,102.6c-0.4-0.5-1-0.7-1.4-0.7c-0.8,0-1.6,0.6-1.6,1.7s0.8,1.7,1.6,1.7c0.5,0,1.1-0.2,1.5-0.7v0.9
						c-0.5,0.4-1,0.5-1.5,0.5c-1.4,0-2.4-1-2.4-2.4c0-1.4,1-2.4,2.4-2.4c0.7,0,1.2,0.3,1.4,0.4V102.6z"/>
					<path class="st0" d="M316.3,99c0.3,0,0.6,0.3,0.6,0.6c0,0.3-0.3,0.6-0.6,0.6s-0.6-0.3-0.6-0.6C315.7,99.3,316,99,316.3,99z
						 M316.7,101.3v4.6h-0.8v-4.6H316.7z"/>
					<path class="st0" d="M318.3,103.6c0-1.4,1-2.4,2.4-2.4c1.4,0,2.4,1,2.4,2.4c0,1.4-1,2.4-2.4,2.4
						C319.4,106,318.3,105,318.3,103.6z M319.2,103.6c0,1.1,0.8,1.7,1.6,1.7c0.8,0,1.6-0.6,1.6-1.7c0-1.1-0.8-1.7-1.6-1.7
						C319.9,101.9,319.2,102.5,319.2,103.6z M322.3,98.9l-1.5,1.5l-0.5-0.3l1.2-1.6L322.3,98.9z"/>
					<path class="st0" d="M324.9,101.3h0.8v0.5c0.1-0.2,0.6-0.6,1.3-0.6c0.5,0,1,0.2,1.3,0.6c0.2,0.3,0.3,0.7,0.3,1.2v2.8h-0.8v-2.8
						c0-0.3,0-0.6-0.2-0.8c-0.2-0.2-0.4-0.3-0.8-0.3c-0.3,0-0.6,0.1-0.8,0.4c-0.3,0.4-0.3,0.9-0.3,1.2v2.4h-0.8V101.3z"/>
				</g>
			</g>
		</g>
	</g>
	<g>
		<path class="st0" d="M172.5,11.3c-0.8-1-1.7-1.1-2.1-1.1c-1.4,0-1.8,0.9-1.8,1.5c0,0.3,0.1,0.6,0.4,0.9c0.3,0.3,0.7,0.4,1.6,0.7
			c1,0.4,2,0.7,2.6,1.3c0.6,0.5,1.1,1.4,1.1,2.7c0,2.5-1.8,4.3-4.5,4.3c-2.4,0-3.8-1.5-4.5-2.5l1.7-1.6c0.6,1.3,1.8,1.7,2.7,1.7
			c1.2,0,2-0.7,2-1.8c0-0.5-0.2-0.8-0.5-1.2c-0.5-0.4-1.3-0.7-2-1c-0.7-0.2-1.5-0.5-2.2-1.1c-0.4-0.4-1-1.1-1-2.4
			c0-1.9,1.3-3.8,4.2-3.8c0.8,0,2.4,0.2,3.7,1.5L172.5,11.3z"/>
		<path class="st0" d="M184.7,10.6h-4.7v2.9h4.5v2.2h-4.5v3.6h4.7v2.2h-7.2v-13h7.2V10.6z"/>
		<path class="st0" d="M192,8.4c1.8,0,2.7,0.5,3.3,1c1,0.8,1.3,2,1.3,2.9c0,1.3-0.5,2.4-1.5,3.1c-0.3,0.2-0.8,0.4-1.4,0.6l4.1,5.5
			h-3.2l-3.5-5.2h-0.3v5.2h-2.5v-13H192z M190.7,14.4h0.7c0.5,0,2.5-0.1,2.5-2c0-1.9-2-2-2.5-2h-0.8V14.4z"/>
		<path class="st0" d="M201.7,8.4l3.5,8.8l3.5-8.8h2.8l-5.5,13h-1.5l-5.5-13H201.7z"/>
		<path class="st0" d="M216.5,8.4v13h-2.5v-13H216.5z"/>
		<path class="st0" d="M229.9,20.9c-0.8,0.4-1.8,0.8-3.2,0.8c-2.3,0-3.7-0.8-4.8-1.8c-1.5-1.4-2.1-3.1-2.1-5c0-2.4,1-4.1,2.1-5.1
			c1.3-1.2,2.9-1.7,4.8-1.7c0.9,0,2,0.2,3.2,0.8v3c-1.2-1.4-2.7-1.5-3.1-1.5c-2.6,0-4.3,2.1-4.3,4.6c0,2.9,2.2,4.5,4.4,4.5
			c1.2,0,2.3-0.5,3-1.4V20.9z"/>
		<path class="st0" d="M235.7,8.4v13h-2.5v-13H235.7z"/>
		<path class="st0" d="M253,14.9c0,4-2.9,6.8-7,6.8s-7-2.8-7-6.8s2.9-6.8,7-6.8S253,10.9,253,14.9z M250.3,14.9
			c0-2.6-1.8-4.5-4.3-4.5s-4.3,1.9-4.3,4.5s1.8,4.5,4.3,4.5S250.3,17.5,250.3,14.9z"/>
		<path class="st0" d="M262.7,11.3c-0.8-1-1.7-1.1-2.1-1.1c-1.4,0-1.8,0.9-1.8,1.5c0,0.3,0.1,0.6,0.4,0.9c0.3,0.3,0.7,0.4,1.6,0.7
			c1,0.4,2,0.7,2.6,1.3c0.6,0.5,1.1,1.4,1.1,2.7c0,2.5-1.8,4.3-4.5,4.3c-2.4,0-3.8-1.5-4.5-2.5l1.7-1.6c0.6,1.3,1.8,1.7,2.7,1.7
			c1.2,0,2-0.7,2-1.8c0-0.5-0.2-0.8-0.5-1.2c-0.5-0.4-1.3-0.7-2-1c-0.7-0.2-1.5-0.5-2.2-1.1c-0.4-0.4-1-1.1-1-2.4
			c0-1.9,1.3-3.8,4.2-3.8c0.8,0,2.4,0.2,3.7,1.5L262.7,11.3z"/>
	</g>
</g>
</svg>
